<svg width="80" height="80" viewBox="0 0 80 80" fill="none" xmlns="http://www.w3.org/2000/svg">
<path d="M74.91 76.2827C74.3604 74.0947 73.2101 70.9984 70.8412 68.5416C72.0745 57.7773 72.095 48.9095 70.9119 39.8648C70.8279 39.2221 70.2386 38.7695 69.5964 38.8535C68.9539 38.9375 68.5012 39.5265 68.5852 40.169C69.7627 49.1732 69.7194 58.0149 68.4445 68.8374C68.4017 69.2013 68.5312 69.5643 68.7946 69.8188L68.8837 69.9039C68.9272 69.9454 68.971 69.9868 69.014 70.03C71.1177 72.1337 72.1436 74.9022 72.6339 76.8543C72.7145 77.175 72.544 77.3889 72.467 77.466C72.3905 77.5425 72.1785 77.712 71.8605 77.632C69.9223 77.1456 67.1706 76.1283 65.0677 74.0442C64.8088 73.7876 64.4459 73.6659 64.084 73.715C48.1033 75.8847 31.8972 75.8847 15.916 73.715C15.5543 73.6659 15.1912 73.7878 14.9323 74.0442C12.8295 76.1281 10.0779 77.1455 8.13985 77.6319C7.82165 77.712 7.60967 77.5422 7.53317 77.4657C7.45604 77.3886 7.28552 77.1747 7.36625 76.8542C7.85654 74.9021 8.88233 72.1335 10.9862 70.0299C11.0292 69.9868 11.073 69.9452 11.1166 69.9038L11.2055 69.8187C11.4691 69.5641 11.5986 69.2012 11.5556 68.8373C11.1414 65.32 10.8638 62.104 10.7072 59.0055C10.6747 58.3585 10.13 57.8588 9.47619 57.8929C8.82898 57.9256 8.33103 58.4767 8.36372 59.1239C8.51438 62.1063 8.77485 65.1928 9.15892 68.5413C6.79007 70.9981 5.63975 74.0944 5.09016 76.2822C4.83141 77.3124 5.12427 78.375 5.87363 79.1246C6.44292 79.6941 7.19306 79.9998 7.97215 79.9998C8.21714 79.9998 8.46494 79.9696 8.71118 79.9078C10.8083 79.3814 13.7491 78.3002 16.158 76.1148C31.9822 78.2132 48.0183 78.2132 63.8423 76.1148C66.2512 78.3002 69.1922 79.3815 71.2894 79.9078C72.3179 80.1658 73.3783 79.8731 74.1265 79.1248C74.8757 78.3756 75.1686 77.313 74.91 76.2827Z" fill="black"/>
<path d="M8.21723 54.285C8.22318 54.9294 8.74726 55.4476 9.3904 55.4476H9.40119C10.0492 55.4417 10.5697 54.9117 10.5639 54.2638C10.4778 44.7927 11.5911 36.206 14.3883 24.906C19.3763 26.5169 27.8606 28.4342 39.9791 28.4342C52.1285 28.4342 60.6255 26.507 65.6085 24.8936C66.5589 28.7331 67.3009 32.2073 67.8688 35.4773C67.9679 36.0478 68.4636 36.4501 69.0235 36.4501C69.0901 36.4501 69.1577 36.4443 69.2256 36.4325C69.864 36.3218 70.2917 35.7143 70.1808 35.0759C69.5926 31.6895 68.8224 28.0934 67.8329 24.1139C68.9248 23.6992 69.7295 23.3414 70.2479 23.0942C71.0519 22.711 71.5406 21.8929 71.4929 21.0103C71.2723 16.9265 69.2295 13.6069 68.0313 11.9917C67.2208 10.8994 65.7491 10.5602 64.5317 11.1852C64.5315 11.1854 64.5315 11.1854 64.5315 11.1854C64.1709 11.3704 63.7812 11.5529 63.3631 11.7324C62.132 7.41244 60.1549 4.44927 57.4749 2.91535C53.5765 0.684007 49.2186 2.02722 46.8775 2.74874C46.5408 2.85246 46.2498 2.94225 46.0095 3.00671C40.6442 4.44864 36.232 2.71228 32.6869 1.31697C30.6747 0.524905 29.0865 -0.100239 27.6843 0.0134948C25.1841 0.216557 21.2611 2.4443 16.59 11.7303C16.1739 11.5514 15.7861 11.37 15.4269 11.1855C14.2091 10.5602 12.7373 10.8997 11.9271 11.992C10.7289 13.6073 8.68609 16.9267 8.46566 21.0104C8.41795 21.8931 8.90652 22.7111 9.71048 23.0944C10.235 23.3444 11.0521 23.7076 12.1635 24.1286C9.31374 35.601 8.1301 44.6747 8.21723 54.285ZM27.8742 2.35231C28.7309 2.28254 30.1666 2.84682 31.8275 3.50044C35.4894 4.94159 40.5051 6.91574 46.6186 5.27278C46.9003 5.19706 47.2101 5.10147 47.5688 4.99103C49.7102 4.331 53.2946 3.2262 56.3094 4.95176C58.4778 6.19282 60.1066 8.75175 61.1591 12.5633C59.7796 13.0251 58.1966 13.4635 56.4172 13.8749C45.6635 16.3616 34.2951 16.3616 23.5411 13.8749C21.7622 13.4636 20.1795 13.0253 18.8003 12.5636C21.9682 6.35114 25.3195 2.55975 27.8742 2.35231ZM13.8118 13.3898C13.9351 13.2235 14.1638 13.1744 14.3551 13.2726C16.44 14.3432 19.3528 15.315 23.0126 16.1612C34.1124 18.7276 45.8462 18.7276 56.9459 16.1612C60.6061 15.315 63.5189 14.343 65.6035 13.2726C65.7948 13.1745 66.0235 13.2235 66.1468 13.3896C67.1762 14.7776 68.923 17.6022 69.1428 21.0209C66.4888 22.2698 56.9699 26.0875 39.9793 26.0875C22.9887 26.0875 13.4698 22.2701 10.8157 21.0212C11.0355 17.6023 12.7822 14.7778 13.8118 13.3898Z" fill="black"/>
<path d="M50.3425 37.7638C50.1444 37.6901 45.4598 35.9813 42.2549 38.1225C41.2247 38.8107 40.5048 39.7925 40.0001 40.8149C39.4954 39.7925 38.7753 38.8107 37.7453 38.1225C34.5401 35.9811 29.8554 37.69 29.6577 37.7638C29.1843 37.9404 28.877 38.4002 28.8952 38.9052C28.9017 39.0882 29.0657 42.8637 31.2035 45.2582C30.3211 45.4468 29.7256 45.6643 29.6577 45.6896C29.1843 45.8663 28.877 46.3261 28.8952 46.8311C28.9016 47.0127 29.0635 50.7269 31.1514 53.1241C30.2983 53.31 29.7242 53.5193 29.6577 53.544C29.1843 53.7206 28.877 54.1804 28.8952 54.6854C28.9027 54.8964 29.1175 59.8782 32.3227 62.0196C33.5471 62.8376 34.9877 63.0939 36.3115 63.0939C37.9025 63.0939 39.3242 62.724 40.0001 62.5154C40.6759 62.724 42.0973 63.0939 43.6887 63.0939C45.0123 63.0939 46.4532 62.8376 47.6775 62.0196C50.8827 59.8782 51.0975 54.8964 51.105 54.6854C51.1231 54.1804 50.8159 53.7206 50.3425 53.544C50.276 53.5193 49.7017 53.31 48.8486 53.1241C50.9365 50.7271 51.0984 47.0127 51.105 46.8311C51.1231 46.3261 50.8159 45.8661 50.3425 45.6896C50.2746 45.6643 49.679 45.4468 48.7967 45.2582C50.9345 42.8637 51.0986 39.0882 51.105 38.9052C51.1231 38.4002 50.8159 37.9404 50.3425 37.7638ZM41.5681 43.2543C41.8655 42.2113 42.4523 40.8127 43.5584 40.0738C44.6644 39.335 46.1814 39.3284 47.2585 39.4526C47.795 39.5145 48.2812 39.6148 48.6645 39.7101C48.6058 40.1009 48.5123 40.5885 48.3643 41.1076C48.0667 42.1506 47.4799 43.5492 46.3737 44.2881C45.268 45.0271 43.7513 45.034 42.6738 44.9093C42.1374 44.8474 41.651 44.7471 41.2679 44.6518C41.3266 44.2612 41.42 43.7734 41.5681 43.2543ZM39.9999 46.7352C40.2709 46.8188 40.6618 46.9284 41.1355 47.0296C40.6693 47.5516 40.297 48.1388 39.9999 48.7407C39.7027 48.1388 39.3304 47.5516 38.8642 47.0296C39.338 46.9282 39.729 46.8188 39.9999 46.7352ZM32.7415 47.3786C33.819 47.2541 35.3356 47.261 36.4416 47.9998C37.5475 48.7387 38.1343 50.1372 38.4319 51.1803C38.5799 51.6995 38.6734 52.1873 38.7321 52.5778C38.3488 52.6732 37.8625 52.7735 37.3262 52.8355C36.2487 52.9598 34.7322 52.9531 33.6261 52.2142C32.5203 51.4754 31.9334 50.0768 31.6357 49.0338C31.4877 48.5145 31.3942 48.0269 31.3355 47.6363C31.7188 47.5407 32.2052 47.4406 32.7415 47.3786ZM40.0001 54.661C40.261 54.7416 40.6332 54.8461 41.0834 54.9442C40.6418 55.4512 40.2859 56.0161 40.0001 56.5951C39.7143 56.0161 39.3582 55.4512 38.9167 54.9442C39.3668 54.8461 39.739 54.7416 40.0001 54.661ZM42.6738 52.8353C42.1388 52.7735 41.6535 52.6736 41.2707 52.5784C41.4631 51.3125 42.0166 49.0297 43.5582 47.9997C44.6644 47.2608 46.1813 47.2539 47.2584 47.3784C47.7934 47.4402 48.2787 47.5402 48.6615 47.6353C48.4689 48.9013 47.9153 51.1842 46.3737 52.2141C45.268 52.953 43.7517 52.9597 42.6738 52.8353ZM32.7415 39.4526C33.8194 39.3285 35.3356 39.3348 36.4416 40.0738C37.5475 40.8127 38.1343 42.2113 38.4319 43.2543C38.5799 43.7735 38.6734 44.2613 38.7321 44.6518C38.3488 44.7471 37.8623 44.8474 37.3262 44.9093C36.2492 45.0338 34.7324 45.0273 33.6261 44.2881C32.5203 43.5492 31.9334 42.1506 31.6357 41.1076C31.4877 40.5884 31.3942 40.1006 31.3355 39.7101C31.7188 39.6148 32.2052 39.5145 32.7415 39.4526ZM37.326 60.6897C36.2491 60.8144 34.7322 60.8075 33.626 60.0684C32.5201 59.3296 31.9333 57.931 31.6356 56.888C31.4876 56.3687 31.394 55.8811 31.3354 55.4905C31.7186 55.395 32.2052 55.2947 32.7413 55.2328C33.8192 55.1086 35.3354 55.1152 36.4415 55.854C37.5474 56.5929 38.1342 57.9915 38.4317 59.0345C38.5797 59.5537 38.6733 60.0414 38.732 60.432C38.3488 60.5273 37.8623 60.6277 37.326 60.6897ZM48.3643 56.888C48.0667 57.9311 47.4799 59.3296 46.3737 60.0684C45.268 60.8075 43.7513 60.8144 42.6738 60.6897C42.1374 60.6277 41.651 60.5274 41.2679 60.432C41.3266 60.0414 41.4201 59.5536 41.5681 59.0345C41.8655 57.9913 42.4523 56.5929 43.5584 55.854C44.6644 55.115 46.1814 55.1087 47.2585 55.2328C47.795 55.2947 48.2812 55.395 48.6645 55.4905C48.6058 55.8811 48.5123 56.3687 48.3643 56.888Z" fill="black"/>
</svg>
