<svg width="80" height="80" viewBox="0 0 80 80" fill="none" xmlns="http://www.w3.org/2000/svg">
<path d="M41.25 46.25C38.2806 46.2533 35.3688 47.0699 32.8306 48.6111C30.2925 50.1523 28.225 52.3593 26.8525 54.9925C26.3942 53.4176 25.6988 51.9217 24.79 50.5562C24.606 50.2804 24.32 50.089 23.9948 50.0241C23.6697 49.9591 23.3321 50.026 23.0562 50.21C22.7804 50.394 22.589 50.68 22.5241 51.0052C22.4591 51.3303 22.526 51.6679 22.71 51.9438C24.0767 53.994 24.8597 56.3775 24.975 58.8387C23.5143 56.5177 21.4895 54.6045 19.0895 53.2775C16.6894 51.9505 13.9924 51.253 11.25 51.25C10.9185 51.25 10.6005 51.3817 10.3661 51.6161C10.1317 51.8505 10 52.1685 10 52.5C10.0063 56.59 11.5536 60.5274 14.3337 63.5274C17.1138 66.5273 20.9223 68.3693 25 68.6863V71.25C25 71.5815 25.1317 71.8995 25.3661 72.1339C25.6005 72.3683 25.9185 72.5 26.25 72.5C26.5815 72.5 26.8995 72.3683 27.1339 72.1339C27.3683 71.8995 27.5 71.5815 27.5 71.25V63.6863C31.5777 63.3693 35.3862 61.5273 38.1663 58.5274C40.9464 55.5274 42.4937 51.59 42.5 47.5C42.5 47.1685 42.3683 46.8505 42.1339 46.6161C41.8995 46.3817 41.5815 46.25 41.25 46.25ZM12.5625 53.8125C15.7397 54.1217 18.7108 55.5248 20.968 57.782C23.2252 60.0392 24.6283 63.0103 24.9375 66.1875C21.7603 65.8783 18.7892 64.4752 16.532 62.218C14.2748 59.9608 12.8717 56.9897 12.5625 53.8125ZM27.5625 61.1875C27.8717 58.0103 29.2748 55.0392 31.532 52.782C33.7892 50.5248 36.7603 49.1217 39.9375 48.8125C39.6283 51.9897 38.2252 54.9608 35.968 57.218C33.7108 59.4752 30.7397 60.8783 27.5625 61.1875Z" fill="#252733"/>
<path d="M76.25 67.5H73.75V45.625C73.75 43.4701 72.894 41.4035 71.3702 39.8798C69.8465 38.356 67.7799 37.5 65.625 37.5C63.4701 37.5 61.4035 38.356 59.8797 39.8798C58.356 41.4035 57.5 43.4701 57.5 45.625V46.25H56.25V21.25C56.2502 21.1002 56.2236 20.9516 56.1712 20.8113L52.5 11.0225V3.75C52.5 3.41848 52.3683 3.10054 52.1339 2.86612C51.8995 2.6317 51.5815 2.5 51.25 2.5H8.74999C8.41847 2.5 8.10053 2.6317 7.86611 2.86612C7.63169 3.10054 7.49999 3.41848 7.49999 3.75V11.0225L3.82874 20.8113C3.77641 20.9516 3.74974 21.1002 3.74999 21.25V76.25C3.74999 76.5815 3.88169 76.8995 4.11611 77.1339C4.35053 77.3683 4.66847 77.5 4.99999 77.5H76.25C76.5815 77.5 76.8995 77.3683 77.1339 77.1339C77.3683 76.8995 77.5 76.5815 77.5 76.25V68.75C77.5 68.4185 77.3683 68.1005 77.1339 67.8661C76.8995 67.6317 76.5815 67.5 76.25 67.5ZM60 45.625C60 44.1332 60.5926 42.7024 61.6475 41.6475C62.7024 40.5926 64.1331 40 65.625 40C67.1168 40 68.5476 40.5926 69.6025 41.6475C70.6574 42.7024 71.25 44.1332 71.25 45.625V67.5H70V53.75C69.9999 53.5232 69.9381 53.3006 69.8212 53.1063L66.0712 46.8563C65.9602 46.6714 65.8031 46.5184 65.6154 46.4121C65.4277 46.3059 65.2157 46.25 65 46.25H60V45.625ZM60 53.75C60 53.9972 59.9267 54.2389 59.7893 54.4445C59.652 54.65 59.4567 54.8102 59.2283 54.9048C58.9999 54.9995 58.7486 55.0242 58.5061 54.976C58.2636 54.9277 58.0409 54.8087 57.8661 54.6339C57.6913 54.4591 57.5722 54.2363 57.524 53.9939C57.4758 53.7514 57.5005 53.5001 57.5951 53.2716C57.6898 53.0432 57.85 52.848 58.0555 52.7107C58.2611 52.5733 58.5028 52.5 58.75 52.5C59.0815 52.5 59.3995 52.6317 59.6339 52.8661C59.8683 53.1005 60 53.4185 60 53.75ZM57.5 50.23C56.666 50.5249 55.963 51.1051 55.5154 51.8681C55.0679 52.6311 54.9044 53.5278 55.054 54.3997C55.2036 55.2715 55.6566 56.0625 56.3329 56.6326C57.0093 57.2028 57.8654 57.5155 58.75 57.5155C59.6346 57.5155 60.4907 57.2028 61.1671 56.6326C61.8434 56.0625 62.2964 55.2715 62.446 54.3997C62.5956 53.5278 62.4321 52.6311 61.9845 51.8681C61.5369 51.1051 60.834 50.5249 60 50.23V48.75H64.2925L67.5 54.0963V63.75H50V54.0963L53.2075 48.75H57.5V50.23ZM53.75 46.25H52.5C52.2843 46.25 52.0723 46.3059 51.8846 46.4121C51.6969 46.5184 51.5398 46.6714 51.4287 46.8563L48.75 51.32V21.4762L51.25 14.81L53.75 21.4762V46.25ZM50 10H37.5V5H50V10ZM35 5V10.955L30.1312 20.6912C30.0447 20.8648 29.9998 21.0561 30 21.25V44.4825L25.8837 40.3662C25.6493 40.1319 25.3314 40.0003 25 40.0003C24.6685 40.0003 24.3506 40.1319 24.1162 40.3662L20 44.4825V21.545L24.875 11.8087C24.9593 11.6347 25.0021 11.4434 25 11.25V5H35ZM22.5 5V10H9.99999V5H22.5ZM46.3287 20.8113C46.2764 20.9516 46.2497 21.1002 46.25 21.25V75H6.24999V21.4762L9.61624 12.5H21.7275L17.6312 20.6912C17.5447 20.8648 17.4998 21.0561 17.5 21.25V47.5C17.5 47.7472 17.5734 47.9888 17.7107 48.1943C17.8481 48.3998 18.0433 48.56 18.2717 48.6546C18.5 48.7492 18.7513 48.7739 18.9938 48.7257C19.2362 48.6775 19.4589 48.5585 19.6337 48.3838L25 43.0175L30.3662 48.3838C30.5411 48.5585 30.7638 48.6775 31.0062 48.7257C31.2486 48.7739 31.4999 48.7492 31.7283 48.6546C31.9567 48.56 32.1519 48.3998 32.2892 48.1943C32.4266 47.9888 32.4999 47.7472 32.5 47.5V21.545L37.0225 12.5H49.4462L46.3287 20.8113ZM50 75V66.25H67.5V75H50ZM75 75H70V70H75V75Z" fill="#252733"/>
</svg>
