<svg width="80" height="80" viewBox="0 0 80 80" fill="none" xmlns="http://www.w3.org/2000/svg">
<path d="M36.4844 36.3281C36.4844 38.2666 38.0614 39.8438 40 39.8438C41.9386 39.8438 43.5156 38.2666 43.5156 36.3281C43.5156 34.3897 41.9386 32.8125 40 32.8125C38.0614 32.8125 36.4844 34.3897 36.4844 36.3281ZM41.1719 36.3281C41.1719 36.9744 40.6463 37.5 40 37.5C39.3537 37.5 38.8281 36.9744 38.8281 36.3281C38.8281 35.6819 39.3537 35.1562 40 35.1562C40.6463 35.1562 41.1719 35.6819 41.1719 36.3281Z" fill="#252733"/>
<path d="M64.0306 9.95375C57.6117 3.535 49.0775 0 40 0C30.9225 0 22.3883 3.535 15.9694 9.95375C9.55063 16.3727 6.01562 24.9067 6.01562 33.9844C6.01562 36.3914 6.27109 38.8019 6.775 41.1491L12.8725 71.8036C13.8173 76.5528 18.0175 80 22.8598 80C28.4748 80 33.0428 75.432 33.0428 69.817V56.1759C33.0428 52.3398 36.1637 49.2188 40 49.2188C43.8363 49.2188 46.9572 52.3398 46.9572 56.1759V69.817C46.9572 75.432 51.5252 80 57.1402 80C61.9825 80 66.1827 76.5528 67.1273 71.8036L73.2248 41.1491C73.7288 38.802 73.9842 36.3916 73.9842 33.9844C73.9844 24.9067 70.4494 16.3727 64.0306 9.95375ZM40 46.875C34.8714 46.875 30.6991 51.0473 30.6991 56.1759V66.503C30.3323 66.3728 29.938 66.3014 29.5272 66.3014C27.5886 66.3014 26.0116 67.8786 26.0116 69.817C26.0116 71.5548 24.5977 72.9688 22.8598 72.9688C21.3611 72.9688 20.0611 71.9019 19.7687 70.432L18.4431 63.768C16.3284 53.1383 22.2086 42.6769 32.2161 38.9114C33.3011 42.1723 36.3792 44.5312 40 44.5312C43.6208 44.5312 46.6991 42.1722 47.7841 38.9113C57.7916 42.6769 63.6716 53.1381 61.557 63.7677L60.2313 70.4319C59.9389 71.9019 58.6389 72.9688 57.1402 72.9688C55.4023 72.9688 53.9884 71.5548 53.9884 69.817C53.9884 67.8786 52.4114 66.3014 50.4728 66.3014C50.062 66.3014 49.6677 66.373 49.3009 66.503V56.1759C49.3009 51.0473 45.1286 46.875 40 46.875ZM17.0442 35.2453C16.4531 34.9816 15.7602 35.2467 15.4964 35.8375C14.7891 37.4214 14.2423 39.0552 13.8583 40.7203L13.655 39.6983C13.6539 39.6923 13.6527 39.6866 13.6514 39.6806C13.2502 37.8153 13.0469 35.8988 13.0469 33.9844C13.0469 22.1552 20.6341 11.8205 31.9266 8.26781C32.9989 7.93016 34.1358 8.11938 35.045 8.78641C35.9598 9.45766 36.4845 10.4928 36.4845 11.6264V17.9944C35.9056 18.6514 35.5234 19.4581 35.3786 20.3184C28.3923 21.5311 22.0994 25.5338 18.0003 31.4111C17.6302 31.9419 17.7603 32.6723 18.2911 33.0425C18.4953 33.185 18.7291 33.2534 18.9605 33.2534C19.3306 33.2534 19.6948 33.0784 19.9227 32.7517C23.6262 27.4414 29.2895 23.8078 35.5847 22.6617C35.7839 23.2217 36.0877 23.7427 36.4845 24.193V28.2427L34.1997 30.5273C32.6503 32.0767 31.797 34.1369 31.797 36.328C31.797 36.4081 31.8008 36.4873 31.8031 36.567C26.5614 38.4386 22.105 42.0761 19.1847 46.8919C17.9212 48.9755 16.9916 51.2137 16.407 53.533L16.0031 51.5023C15.0086 46.4992 15.5733 41.413 17.6364 36.7933C17.9003 36.2023 17.6352 35.5094 17.0442 35.2453ZM44.4155 22.6617C50.6169 23.7916 56.225 27.3466 59.927 32.535C63.8814 38.077 65.3267 44.813 63.997 51.5023L63.5931 53.533C63.0086 51.2137 62.0791 48.9755 60.8155 46.8919C57.8952 42.0759 53.4388 38.4386 48.197 36.567C48.1994 36.4875 48.2031 36.4083 48.2031 36.3281C48.2031 34.137 47.3498 32.0769 45.8005 30.5275L43.5156 28.2428V24.1933C43.9123 23.7428 44.2163 23.2217 44.4155 22.6617ZM43.5156 17.9942V11.6264C43.5156 10.4928 44.0403 9.45766 44.9552 8.78641C45.8642 8.11906 47.0011 7.93047 48.0736 8.26781C59.3659 11.8205 66.9531 22.1552 66.9531 33.9844C66.9531 35.8988 66.7498 37.8153 66.3489 39.6806C66.3477 39.6866 66.3464 39.6923 66.3453 39.6983L66.1464 40.6981C65.3667 37.3217 63.9202 34.0961 61.835 31.1736C57.737 25.4303 51.5045 21.5141 44.6217 20.3184C44.4767 19.4581 44.0945 18.6514 43.5156 17.9942ZM70.9316 40.6656C70.9303 40.6714 70.9291 40.6773 70.928 40.6833L64.8288 71.3464C64.1014 75.0027 60.868 77.6562 57.1402 77.6562C52.8175 77.6562 49.3009 74.1395 49.3009 69.817C49.3009 69.1708 49.8266 68.6452 50.4728 68.6452C51.1189 68.6452 51.6447 69.1708 51.6447 69.817C51.6447 72.8473 54.11 75.3125 57.1402 75.3125C59.7534 75.3125 62.0202 73.4523 62.53 70.8891L68.6422 40.1637C69.0766 38.1397 69.2967 36.0606 69.2967 33.9842C69.2967 27.6323 67.2891 21.585 63.4909 16.4963C59.8205 11.5786 54.5948 7.86234 48.7767 6.03188C46.9842 5.46812 45.0859 5.78312 43.5684 6.89656C42.0452 8.01406 41.1717 9.73812 41.1717 11.6262V18.4738C41.1717 18.807 41.3136 19.1245 41.562 19.3469C42.0589 19.7919 42.3438 20.4284 42.3438 21.0938C42.3438 21.7591 42.0589 22.3956 41.5622 22.8405C41.3139 23.0628 41.1719 23.3803 41.1719 23.7136V28.7283C41.1719 29.0391 41.2953 29.337 41.5152 29.557L44.1433 32.185C45.25 33.2916 45.8594 34.7631 45.8594 36.3283C45.8594 39.5592 43.2309 42.1877 40 42.1877C36.7691 42.1877 34.1406 39.5592 34.1406 36.3283C34.1406 34.7631 34.7502 33.2916 35.8567 32.185L38.4848 29.557C38.7047 29.3372 38.8281 29.0392 38.8281 28.7283V23.7134C38.8281 23.3802 38.6862 23.0627 38.4378 22.8403C37.9411 22.3956 37.6562 21.7591 37.6562 21.0938C37.6562 20.4284 37.9411 19.7919 38.4378 19.3472C38.6861 19.1248 38.8281 18.8073 38.8281 18.4741V11.6264C38.8281 9.73828 37.9545 8.01437 36.4314 6.89672C34.9137 5.78312 33.0156 5.46828 31.2231 6.03203C25.405 7.8625 20.1794 11.5788 16.5089 16.4964C12.7108 21.5852 10.7031 27.6325 10.7031 33.9844C10.7031 36.0608 10.9234 38.1398 11.3577 40.1639L17.4698 70.8894C17.9798 73.4523 20.2466 75.3125 22.8598 75.3125C25.89 75.3125 28.3553 72.8473 28.3553 69.817C28.3553 69.1708 28.8811 68.6452 29.5272 68.6452C30.1734 68.6452 30.6991 69.1708 30.6991 69.817C30.6991 74.1395 27.1825 77.6562 22.8598 77.6562C19.1322 77.6562 15.8986 75.0027 15.1713 71.3464L9.07203 40.6833C9.07094 40.6773 9.06969 40.6714 9.06844 40.6656C8.59797 38.477 8.35938 36.2292 8.35938 33.9844C8.35938 16.5377 22.5533 2.34375 40 2.34375C57.4467 2.34375 71.6406 16.5377 71.6406 33.9844C71.6406 36.2292 71.402 38.477 70.9316 40.6656Z" fill="#252733"/>
</svg>
