<svg width="80" height="80" viewBox="0 0 80 80" fill="none" xmlns="http://www.w3.org/2000/svg">
<path d="M52.5 58.75V61.25C53.3587 61.25 55 63.1975 55 66.25H57.5C57.5 62.185 55.21 58.75 52.5 58.75Z" fill="#252733"/>
<path d="M40.0025 71.2501C38.76 71.2501 37.1837 70.4351 35.89 69.1226L34.11 70.8776C35.8837 72.6763 38.0862 73.7501 40.0025 73.7501C41.79 73.7501 42.8312 72.6951 43.39 72.1276L41.61 70.3726C41.1037 70.8863 40.6912 71.2501 40.0025 71.2501Z" fill="#252733"/>
<path d="M53.75 21.25C53.75 23.3175 55.4325 25 57.5 25C59.5675 25 61.25 23.3175 61.25 21.25C61.25 19.1825 59.5675 17.5 57.5 17.5C55.4325 17.5 53.75 19.1825 53.75 21.25ZM58.75 21.25C58.75 21.9387 58.19 22.5 57.5 22.5C56.81 22.5 56.25 21.9387 56.25 21.25C56.25 20.5612 56.81 20 57.5 20C58.19 20 58.75 20.5612 58.75 21.25Z" fill="#252733"/>
<path d="M70.6937 24.8237L79.2675 16.25H66.7612C65.7312 15.1562 64.5 14.26 63.1225 13.6175C64.1287 12.49 65 11.0687 65 8.75C65 4.61375 61.6362 1.25 57.5 1.25C54.4837 1.25 51.885 3.04375 50.695 5.61625C49.5612 4.46625 47.9887 3.75 46.25 3.75C42.8037 3.75 40 6.55375 40 10V11.25C40 16.5387 44.485 19.4112 46.8862 20.57C46.48 21.7662 46.25 23.0437 46.25 24.375V34.6312C43.1575 29.9012 37.3862 26.25 30 26.25C24.1537 26.25 21.0737 28.2712 18.095 30.2262C15.7362 31.7737 13.51 33.2362 9.82374 33.7625L8.45124 33.9587L8.78874 35.3037C8.83375 35.4862 9.73999 38.77 15.3562 40.3775L13.2325 42.5L14.1162 43.3837C14.175 43.4425 14.71 43.9562 15.75 44.5987C9.66624 45.8775 2.31999 47.5087 2.22874 47.5287L0.338745 47.95L1.49999 49.5C1.62125 49.6625 3.84499 52.575 8.21874 55.1175L4.47 56.9925L5.18499 58.155C5.60624 58.8387 15.615 74.8062 30.9825 74.9912C33.1962 77.02 35.8675 78.3225 38.585 78.6625C39.0612 78.7212 39.5287 78.7512 39.9875 78.7512C42.3412 78.7512 44.4375 77.9675 46.03 76.4987C47.7487 77.9387 50.0562 78.75 52.5 78.75C57.485 78.75 61.6187 74.1612 62.3675 68.1875C69.11 62.5812 70 55.54 70 50V38.5725C70.4025 38.6775 70.8162 38.75 71.25 38.75C74.0075 38.75 76.25 36.5075 76.25 33.75C76.25 29.5937 72.685 26.3262 70.6937 24.8237ZM73.2325 18.75L69.7887 22.1937C69.56 20.9712 69.1512 19.8112 68.5775 18.75H73.2325ZM67.5 24.375V24.8775C67.3175 25.7975 66.25 31.325 66.25 33.75C66.25 35.0062 66.7312 36.1425 67.5 37.0225V43.925C67.2475 43.6012 67.0375 43.2375 66.81 42.8375C66.1312 41.64 65.2012 40 62.5 40C60.4425 40 58.5687 41.725 57.465 43.0025C56.2537 41.7337 54.08 40 51.25 40H48.75V24.375C48.75 19.205 52.955 15 58.125 15C63.295 15 67.5 19.205 67.5 24.375ZM42.5 11.25V10C42.5 7.9325 44.1825 6.25 46.25 6.25C48.3175 6.25 50 7.9325 50 10C50 10.6887 49.44 11.25 48.75 11.25C48.06 11.25 47.5 10.6887 47.5 10V8.75H45V10C45 12.0675 46.6825 13.75 48.75 13.75C50.8175 13.75 52.5 12.0675 52.5 10V8.75C52.5 5.9925 54.7425 3.75 57.5 3.75C60.2575 3.75 62.5 5.9925 62.5 8.75C62.5 10.6125 61.7375 11.51 60.495 12.7387C59.7287 12.5825 58.9362 12.5 58.125 12.5C53.8 12.5 50.0175 14.8325 47.9412 18.2975C46.0275 17.3662 42.5 15.1262 42.5 11.25ZM22.5 41.25V38.75C16.1037 38.75 13.2662 37.0737 12.0562 35.8762C15.2187 35.1037 17.3737 33.69 19.4675 32.3162C22.2625 30.4825 24.9012 28.75 30 28.75C39.5762 28.75 46.25 35.9962 46.25 42.5C46.25 45.47 41.8387 51.25 33.75 51.25C28.1362 51.25 24.7137 49.615 23.15 48.6187L24.4275 47.3412C25.3812 47.44 26.4012 47.5 27.5 47.5V45C21.8862 45 18.4637 43.365 16.9 42.3687L18.29 40.9787C19.5287 41.1487 20.92 41.25 22.5 41.25ZM38.895 76.1825C36.52 75.885 34.1575 74.6687 32.245 72.755C30.3325 70.8412 29.115 68.48 28.8187 66.105C28.535 63.845 29.13 61.8525 30.4912 60.4912C31.6312 59.3512 33.2125 58.75 35.025 58.75C35.3762 58.75 35.7375 58.7725 36.105 58.8187C38.48 59.1162 40.8425 60.3325 42.755 62.2462C44.6675 64.16 45.885 66.5212 46.1812 68.8962C46.465 71.1562 45.87 73.1487 44.5087 74.51C43.1487 75.87 41.1562 76.4625 38.895 76.1825ZM52.5 76.25C50.6187 76.25 48.8662 75.6312 47.5912 74.5425C48.5575 72.85 48.94 70.8025 48.6625 68.585C48.3337 65.9487 47.1 63.355 45.1737 61.18C46.6137 58.2162 49.4787 56.25 52.5 56.25C56.6362 56.25 60 60.7362 60 66.25C60 71.7637 56.6362 76.25 52.5 76.25ZM62.42 64.74C61.82 58.5587 57.605 53.75 52.5 53.75C48.7775 53.75 45.2412 55.9612 43.285 59.3762C41.2262 57.71 38.8387 56.64 36.415 56.3362C33.3712 55.9587 30.6425 56.8037 28.7237 58.7225C26.805 60.6412 25.9575 63.3725 26.3387 66.4137C26.595 68.4625 27.4025 70.4837 28.65 72.305C18.1375 70.8862 10.46 61.3112 8.08624 57.9787L11.0025 56.52C11.7462 56.8462 12.5237 57.1562 13.3562 57.4337L14.1475 55.0625C9.64124 53.56 6.54124 51.0862 4.89499 49.5C8.30624 48.7487 15.0812 47.2687 19.6325 46.3475C20.1787 46.5237 20.7637 46.6887 21.3975 46.835L19.4825 48.75L20.3662 49.6337C20.535 49.8025 24.5875 53.75 33.75 53.75C43.0437 53.75 48.75 47.1975 48.75 42.5H51.25C54.2687 42.5 56.44 45.665 56.46 45.6937L57.5 47.2537L58.54 45.6937C59.235 44.6512 61.1175 42.5 62.5 42.5C63.745 42.5 64.0062 42.96 64.6362 44.0712C65.1762 45.0225 65.8925 46.2725 67.5 47.0787V50C67.5 54.76 66.8425 60.135 62.42 64.74ZM71.25 36.25C69.8712 36.25 68.75 35.1287 68.75 33.75C68.75 32.2362 69.2537 29.165 69.6162 27.1562C71.2875 28.4962 73.75 30.9462 73.75 33.75C73.75 35.1287 72.6287 36.25 71.25 36.25Z" fill="#252733"/>
</svg>
