<svg width="80" height="80" viewBox="0 0 80 80" fill="none" xmlns="http://www.w3.org/2000/svg">
<g clip-path="url(#clip0)">
<path d="M79.8719 26.0686C79.5546 21.7058 78.5707 18.2955 76.4758 14.2975C73.7185 9.03515 69.0482 5.48687 63.3252 4.3064C60.7564 3.77655 58.2489 3.71452 55.8725 4.12233C53.2082 4.57968 50.5007 5.75483 47.8249 7.61515C47.2971 7.98202 47.1668 8.70733 47.5336 9.23499C47.9008 9.76265 48.6258 9.89327 49.1535 9.52624C51.5472 7.86202 53.9403 6.81561 56.2663 6.4164C58.3555 6.0578 60.5724 6.11499 62.855 6.58593C67.8818 7.6228 71.9869 10.7451 74.4141 15.3778C76.3749 19.1198 77.2543 22.1647 77.5505 26.2373C78.0043 32.4751 77.1857 38.8255 75.183 44.6019C73.0689 50.7005 69.7732 55.9584 65.3874 60.2295C56.6772 68.7119 44.6899 73.7908 33.3211 73.8156C27.8677 73.8309 22.1921 72.5651 17.3491 70.2609C12.0321 67.7312 7.9116 64.0659 5.43332 59.6612C2.48613 54.4233 1.58082 48.6753 2.94972 43.8914C5.72207 34.2025 15.1221 31.5612 24.2128 29.007C26.3211 28.4147 28.4514 27.7895 30.4682 26.9308C32.6871 25.9861 34.771 24.7303 36.4932 23.0137C39.645 19.8725 41.9477 15.9997 45.1274 12.8945C45.5872 12.4453 45.596 11.7086 45.1468 11.2487C44.6975 10.7891 43.9607 10.7801 43.501 11.2294C42.815 11.8997 42.1199 12.6255 41.4352 13.3869C40.5246 14.3995 39.6353 15.5536 38.6939 16.7753C37.2271 18.6789 35.7622 20.6519 33.9268 22.2222C32.4386 23.4951 30.8033 24.2959 28.9989 25.0233C27.2416 25.7317 25.3702 26.264 23.583 26.7661C14.3294 29.3662 3.84144 32.3131 0.711598 43.2512C-0.827152 48.6291 0.15441 55.0262 3.40472 60.8028C6.11972 65.6283 10.5958 69.6258 16.3489 72.3628C21.4757 74.802 27.4725 76.1434 33.245 76.1434H33.3263C45.2855 76.1172 57.878 70.7915 67.0111 61.8972C71.6591 57.3709 75.1483 51.8086 77.3822 45.3645C79.4874 39.2916 80.3483 32.6191 79.8719 26.0686Z" fill="#252733"/>
<path d="M38.9549 25.3694C37.1888 26.9049 34.8062 28.4675 32.2462 29.7692C30.1635 30.8283 28.0579 31.6717 26.1572 32.2085C23.0966 33.0725 19.9179 33.5022 16.8799 34.4483C15.5213 34.8714 13.8304 35.398 12.3894 36.298C6.89162 39.7321 4.45459 47.0735 6.59475 53.7544C9.2885 62.1616 16.4413 66.3247 21.9677 68.3366C25.7496 69.7135 29.7238 70.4083 33.716 70.4081C36.0305 70.4081 38.3519 70.1744 40.6432 69.7046C47.3576 68.3275 53.2604 65.7647 58.1872 62.0872C63.1315 58.3967 67.2776 53.4464 70.5101 47.3738C72.6768 43.3036 74.0319 39.5896 74.6533 36.0196C75.819 29.3233 74.4577 19.6219 69.6007 14.0361C67.0027 11.0483 63.5946 9.53862 59.7532 9.66299C56.2712 9.77784 52.7805 11.1653 49.658 13.6752C47.3913 15.4971 45.5924 17.751 43.853 19.9306C42.2708 21.9133 40.7763 23.7858 38.9549 25.3694ZM51.1163 15.4894C53.8427 13.2978 56.8558 12.0875 59.8299 11.9894C59.9565 11.9852 60.0821 11.9831 60.2071 11.9831C63.2096 11.9831 65.7776 13.1864 67.8443 15.5635C72.1777 20.5472 73.4054 29.6169 72.3604 35.6205C71.7818 38.9441 70.5046 42.4308 68.4557 46.2802C62.2858 57.871 53.0354 64.7874 40.1757 67.4246C34.3546 68.6183 28.3338 68.1772 22.764 66.1496C13.638 62.8271 10.1394 57.1889 8.81146 53.0442C6.99131 47.3628 9.0149 41.1503 13.6227 38.2722C14.8091 37.5313 16.2769 37.0741 17.5722 36.6706C18.4104 36.4097 19.2607 36.1903 20.1149 35.9889C22.3346 35.4658 24.5829 35.0716 26.7897 34.4485C32.9805 32.7006 38.8283 29.3213 43.0952 24.5011C44.8521 22.5164 46.3994 20.3605 48.1526 18.3761C49.0665 17.3414 50.0391 16.3553 51.1163 15.4894Z" fill="#252733"/>
<path d="M34.3939 42.6711C32.1089 41.2358 29.3094 40.7028 26.512 41.1702C23.7142 41.6373 21.2403 43.0511 19.5458 45.1508C17.8186 47.2909 17.1036 49.8839 17.5325 52.4517C17.9614 55.0197 19.48 57.2395 21.8089 58.7022C23.5538 59.7983 25.5988 60.3681 27.7141 60.3681C28.3684 60.3681 29.0297 60.3136 29.6906 60.2031C31.2339 59.9453 32.6728 59.4042 33.9675 58.5947C34.5125 58.2539 34.6781 57.5359 34.3372 56.9909C33.9964 56.4458 33.2781 56.2805 32.7333 56.6211C31.6995 57.2675 30.5467 57.7003 29.307 57.9073C27.0719 58.2805 24.8484 57.863 23.0466 56.7311C21.2888 55.6269 20.1458 53.9711 19.828 52.0681C19.5102 50.1653 20.0531 48.2278 21.3569 46.6123C22.6931 44.9566 24.66 43.8391 26.8952 43.4658C29.1308 43.0927 31.3536 43.5103 33.1555 44.642C34.9134 45.7461 36.0564 47.402 36.3742 49.305C36.5864 50.5747 36.4113 51.8878 35.8675 53.1022C35.6049 53.6889 35.8677 54.3773 36.4542 54.6398C37.0403 54.9025 37.7292 54.6398 37.992 54.0531C38.7234 52.4192 38.958 50.6447 38.67 48.9214C38.2416 46.3536 36.7228 44.1337 34.3939 42.6711Z" fill="#252733"/>
<path d="M53.0687 42.5537C53.0421 42.5537 53.0156 42.5528 52.9887 42.551C44.5231 41.9765 41.6726 34.2848 41.5556 33.9576C41.3387 33.3525 41.6535 32.6864 42.2587 32.4695C42.8628 32.2531 43.5279 32.5665 43.7459 33.17C43.8451 33.4425 46.2275 39.7593 53.1464 40.2289C53.7876 40.2724 54.2723 40.8274 54.2285 41.4689C54.187 42.0831 53.6754 42.5537 53.0687 42.5537Z" fill="#252733"/>
<path d="M56.8 35.5895C56.7734 35.5895 56.7469 35.5885 56.72 35.5868C50.1158 35.1387 47.8915 29.1367 47.8 28.8813C47.5831 28.2762 47.8981 27.6101 48.5031 27.3932C49.1064 27.1768 49.772 27.4901 49.9901 28.0932C50.0672 28.3029 51.8245 32.9217 56.8775 33.2645C57.5187 33.3081 58.0034 33.8631 57.9598 34.5045C57.9183 35.1188 57.4067 35.5895 56.8 35.5895Z" fill="#252733"/>
<path d="M61.5297 28.1377C61.5032 28.1377 61.4766 28.1368 61.4497 28.135C56.2677 27.7833 54.5221 23.0725 54.4502 22.8721C54.2333 22.2669 54.5482 21.6008 55.1533 21.3839C55.7569 21.168 56.4213 21.4803 56.6399 22.0827C56.6974 22.2377 57.9753 25.5663 61.6074 25.8127C62.2486 25.8563 62.7333 26.4113 62.6896 27.0527C62.648 27.6669 62.1366 28.1377 61.5297 28.1377Z" fill="#252733"/>
</g>
<defs>
<clipPath id="clip0">
<rect width="80" height="80" fill="white"/>
</clipPath>
</defs>
</svg>
