<svg width="80" height="80" viewBox="0 0 80 80" fill="none" xmlns="http://www.w3.org/2000/svg">
<path d="M40 58.75C42.9827 58.7467 45.8422 57.5604 47.9513 55.4513C50.0604 53.3422 51.2467 50.4827 51.25 47.5V45C51.25 44.6685 51.1183 44.3505 50.8839 44.1161C50.6495 43.8817 50.3315 43.75 50 43.75C47.9311 43.7527 45.9031 44.3259 44.1388 45.4065C42.3746 46.4871 40.9425 48.0333 40 49.875C39.0575 48.0333 37.6254 46.4871 35.8612 45.4065C34.0969 44.3259 32.0689 43.7527 30 43.75C29.6685 43.75 29.3505 43.8817 29.1161 44.1161C28.8817 44.3505 28.75 44.6685 28.75 45V47.5C28.7533 50.4827 29.9396 53.3422 32.0487 55.4513C34.1578 57.5604 37.0173 58.7467 40 58.75ZM48.75 46.3387V47.5C48.7474 49.6035 47.9883 51.6358 46.6114 53.2259C45.2344 54.8161 43.3315 55.8579 41.25 56.1613V55C41.2526 52.8965 42.0117 50.8642 43.3886 49.2741C44.7656 47.6839 46.6685 46.6421 48.75 46.3387ZM31.25 46.3387C33.3315 46.6421 35.2344 47.6839 36.6114 49.2741C37.9883 50.8642 38.7474 52.8965 38.75 55V56.1613C36.6685 55.8579 34.7656 54.8161 33.3886 53.2259C32.0117 51.6358 31.2526 49.6035 31.25 47.5V46.3387Z" fill="#252733"/>
<path d="M58.75 2.5C49.725 2.5 40 4.45 40 8.75C40 4.45 30.275 2.5 21.25 2.5C12.225 2.5 2.5 4.45 2.5 8.75V56.25C2.5 60.55 12.225 62.5 21.25 62.5V71.25C21.25 75.55 30.975 77.5 40 77.5C49.025 77.5 58.75 75.55 58.75 71.25V62.5C67.775 62.5 77.5 60.55 77.5 56.25V8.75C77.5 4.45 67.775 2.5 58.75 2.5ZM58.75 6.55L59.25 7.5375C59.075 7.525 58.925 7.5 58.75 7.5C58.575 7.5 58.425 7.525 58.25 7.5375L58.75 6.55ZM61.25 11.25C61.25 11.7625 60.275 12.5 58.75 12.5C57.225 12.5 56.25 11.7625 56.25 11.25C56.25 10.7375 57.225 10 58.75 10C60.275 10 61.25 10.7375 61.25 11.25ZM56.7125 5.0375L54.7125 9.025C54.1126 9.61196 53.767 10.4109 53.75 11.25C53.7553 11.6101 53.8274 11.9662 53.9625 12.3C46.4 11.6875 42.5 9.6875 42.5 8.75C42.5 7.7 47.325 5.3375 56.7125 5.0375ZM40 21.55L40.5 22.5375C40.325 22.525 40.175 22.5 40 22.5C39.825 22.5 39.675 22.525 39.5 22.5375L40 21.55ZM40 25C41.525 25 42.5 25.7375 42.5 26.25C42.5 26.7625 41.525 27.5 40 27.5C38.475 27.5 37.5 26.7625 37.5 26.25C37.5 25.7375 38.475 25 40 25ZM35.9625 24.025C35.3626 24.612 35.017 25.4109 35 26.25C35.0053 26.6101 35.0774 26.9662 35.2125 27.3C27.65 26.6875 23.75 24.6875 23.75 23.75C23.75 22.7 28.575 20.3375 37.9625 20.0375L35.9625 24.025ZM37.5 8.75C37.5 9.6875 33.6 11.6875 26.0375 12.3C26.1726 11.9662 26.2447 11.6101 26.25 11.25C26.233 10.4109 25.8874 9.61196 25.2875 9.025L23.2875 5.0375C32.675 5.3375 37.5 7.7 37.5 8.75ZM23.75 11.25C23.75 11.7625 22.775 12.5 21.25 12.5C19.725 12.5 18.75 11.7625 18.75 11.25C18.75 10.7375 19.725 10 21.25 10C22.775 10 23.75 10.7375 23.75 11.25ZM21.25 6.55L21.75 7.5375C21.575 7.525 21.425 7.5 21.25 7.5C21.075 7.5 20.925 7.525 20.75 7.5375L21.25 6.55ZM19.2125 5.0375L17.2125 9.025C16.6126 9.61196 16.267 10.4109 16.25 11.25C16.2553 11.6101 16.3274 11.9662 16.4625 12.3C8.9 11.6875 5 9.6875 5 8.75C5 7.7 9.825 5.3375 19.2125 5.0375ZM21.25 60C10.525 60 5 57.375 5 56.25V45.8375C8.475 47.825 15.025 48.75 21.25 48.75V60ZM21.25 34.875C20.3075 33.0333 18.8754 31.4871 17.1112 30.4065C15.3469 29.3259 13.3189 28.7527 11.25 28.75C10.9185 28.75 10.6005 28.8817 10.3661 29.1161C10.1317 29.3505 10 29.6685 10 30V32.5C10.0046 35.4823 11.1914 38.3411 13.3002 40.4498C15.4089 42.5586 18.2677 43.7454 21.25 43.75V46.25C10.525 46.25 5 43.625 5 42.5V23.3375C8.475 25.325 15.025 26.25 21.25 26.25V34.875ZM20 40V41.1625C17.9185 40.8587 16.0157 39.8165 14.6388 38.2262C13.262 36.6359 12.5028 34.6035 12.5 32.5V31.3375C14.5815 31.6413 16.4843 32.6835 17.8612 34.2738C19.238 35.8641 19.9972 37.8965 20 40ZM21.25 23.75C10.525 23.75 5 21.125 5 20V12.0875C8.475 14.075 15.025 15 21.25 15C27.475 15 34.025 14.075 37.5 12.0875V17.55C29.2625 17.8875 21.25 19.85 21.25 23.75ZM56.25 71.25C56.25 72.375 50.725 75 40 75C29.275 75 23.75 72.375 23.75 71.25V60.8375C27.225 62.825 33.775 63.75 40 63.75C46.225 63.75 52.775 62.825 56.25 60.8375V71.25ZM56.25 57.5C56.25 58.625 50.725 61.25 40 61.25C29.275 61.25 23.75 58.625 23.75 57.5V38.3375C27.225 40.325 33.775 41.25 40 41.25C46.225 41.25 52.775 40.325 56.25 38.3375V57.5ZM56.25 35C56.25 36.125 50.725 38.75 40 38.75C29.275 38.75 23.75 36.125 23.75 35V27.0875C27.225 29.075 33.775 30 40 30C46.225 30 52.775 29.075 56.25 27.0875V35ZM44.7875 27.3C44.9226 26.9662 44.9947 26.6101 45 26.25C44.983 25.4109 44.6374 24.612 44.0375 24.025L42.0375 20.0375C51.425 20.3375 56.25 22.7 56.25 23.75C56.25 24.6875 52.35 26.6875 44.7875 27.3ZM75 56.25C75 57.375 69.475 60 58.75 60V48.75C64.975 48.75 71.525 47.825 75 45.8375V56.25ZM75 42.5C75 43.625 69.475 46.25 58.75 46.25V43.75C61.7323 43.7454 64.5911 42.5586 66.6998 40.4498C68.8086 38.3411 69.9954 35.4823 70 32.5V30C70 29.6685 69.8683 29.3505 69.6339 29.1161C69.3995 28.8817 69.0815 28.75 68.75 28.75C66.6811 28.7527 64.6531 29.3259 62.8888 30.4065C61.1246 31.4871 59.6925 33.0333 58.75 34.875V26.25C64.975 26.25 71.525 25.325 75 23.3375V42.5ZM60 41.1625V40C60.0028 37.8965 60.762 35.8641 62.1388 34.2738C63.5157 32.6835 65.4185 31.6413 67.5 31.3375V32.5C67.4972 34.6035 66.738 36.6359 65.3612 38.2262C63.9843 39.8165 62.0815 40.8587 60 41.1625ZM75 20C75 21.125 69.475 23.75 58.75 23.75C58.75 19.85 50.7375 17.8875 42.5 17.55V12.0875C45.975 14.075 52.525 15 58.75 15C64.975 15 71.525 14.075 75 12.0875V20ZM63.5375 12.3C63.6726 11.9662 63.7447 11.6101 63.75 11.25C63.733 10.4109 63.3874 9.61196 62.7875 9.025L60.7875 5.0375C70.175 5.3375 75 7.7 75 8.75C75 9.6875 71.1 11.6875 63.5375 12.3Z" fill="#252733"/>
</svg>
