<svg width="80" height="80" viewBox="0 0 80 80" fill="none" xmlns="http://www.w3.org/2000/svg">
<g clip-path="url(#clip0)">
<path d="M34.0987 16.3441C34.7488 16.3441 35.2758 15.8171 35.2758 15.167C35.2758 14.517 34.7488 13.99 34.0987 13.99C33.4487 13.99 32.9217 14.517 32.9217 15.167C32.9217 15.8171 33.4487 16.3441 34.0987 16.3441Z" fill="#252733"/>
<path d="M46.0337 10.7546C46.6838 10.7546 47.2108 10.2276 47.2108 9.57757C47.2108 8.9275 46.6838 8.40051 46.0337 8.40051C45.3836 8.40051 44.8567 8.9275 44.8567 9.57757C44.8567 10.2276 45.3836 10.7546 46.0337 10.7546Z" fill="#252733"/>
<path d="M47.2109 20.6271C47.8609 20.6271 48.3879 20.1001 48.3879 19.45C48.3879 18.7999 47.8609 18.2729 47.2109 18.2729C46.5608 18.2729 46.0338 18.7999 46.0338 19.45C46.0338 20.1001 46.5608 20.6271 47.2109 20.6271Z" fill="#252733"/>
<path d="M58.4939 28.2623C59.7364 27.2833 60.5365 25.7666 60.5365 24.0657C60.5365 21.9793 59.3323 20.1227 57.5082 19.2486C57.5612 18.6922 57.5879 18.1366 57.5879 17.5878C57.5879 7.88986 49.698 0 40.0001 0C35.8435 0 31.8097 1.47712 28.6417 4.15907C28.1454 4.57905 28.0837 5.32185 28.5039 5.81793C28.9238 6.31402 29.6665 6.37586 30.1626 5.95573C32.906 3.63317 36.3998 2.3541 40.0001 2.3541C48.3998 2.3541 55.2336 9.18791 55.2336 17.5878C55.2336 18.3349 55.1762 19.0979 55.0629 19.8559C54.9737 20.4532 55.3509 21.0211 55.9361 21.1705C57.2586 21.5079 58.1824 22.6984 58.1824 24.0657C58.1824 25.7133 56.8421 27.0535 55.1945 27.0535C54.0213 27.0535 52.9515 26.3613 52.4693 25.29C52.2792 24.8678 51.8591 24.5962 51.396 24.5962C50.9328 24.5962 50.5127 24.8677 50.3226 25.29C49.8404 26.3614 48.7705 27.0535 47.5974 27.0535C46.4241 27.0535 45.3544 26.3613 44.8721 25.29C44.6819 24.8678 44.2619 24.5962 43.7988 24.5962C43.3358 24.5962 42.9157 24.8677 42.7255 25.29C42.243 26.3614 41.1732 27.0537 40.0002 27.0537C38.8269 27.0537 37.7572 26.3614 37.2749 25.2901C37.0847 24.868 36.6648 24.5963 36.2016 24.5963C35.7387 24.5963 35.3185 24.8678 35.1283 25.2901C34.6459 26.3616 33.576 27.0538 32.4029 27.0538C31.2298 27.0538 30.1601 26.3616 29.6778 25.2903C29.4876 24.8681 29.0676 24.5965 28.6045 24.5965C28.1415 24.5965 27.7214 24.868 27.5311 25.2903C27.0487 26.3617 25.9788 27.054 24.8059 27.054C23.1583 27.054 21.8179 25.7137 21.8179 24.0662C21.8179 22.6989 22.7416 21.5084 24.0642 21.1709C24.6494 21.0217 25.0265 20.4537 24.9374 19.8564C24.8241 19.0984 24.7666 18.3353 24.7666 17.5883C24.7666 14.7361 25.5595 11.9554 27.0592 9.54699C27.4028 8.99519 27.2341 8.26918 26.6824 7.92564C26.1312 7.58226 25.4046 7.75065 25.0611 8.30246C23.3284 11.0847 22.4125 14.2957 22.4125 17.5883C22.4125 18.1371 22.4392 18.6927 22.4923 19.249C20.6681 20.1232 19.4639 21.9798 19.4639 24.0662C19.4639 25.7671 20.264 27.2838 21.5065 28.2628C20.2469 29.2516 19.4639 30.7845 19.4639 32.4667C19.4639 35.4123 21.8604 37.8088 24.806 37.8088C25.134 37.8088 25.4572 37.7771 25.7728 37.7187L35.8138 76.552C36.3553 78.6466 37.9986 80 40.0001 80C42.0017 80 43.645 78.6466 44.1864 76.552L45.1111 72.9765C45.2739 72.3471 44.8957 71.7049 44.2663 71.5422C43.636 71.3796 42.9946 71.7578 42.832 72.387L41.9073 75.9626C41.5864 77.2036 40.7118 77.6457 40.0001 77.6457C39.2885 77.6457 38.4139 77.2036 38.0929 75.9626L36.8741 71.249L45.3067 62.8165L44.0452 67.6949C43.8824 68.3243 44.2607 68.9665 44.89 69.1292C44.9889 69.1548 45.0881 69.167 45.1855 69.167C45.7092 69.167 46.1871 68.8149 46.3243 68.2842L54.2276 37.7182C54.5434 37.7766 54.8665 37.8083 55.1945 37.8083C58.1402 37.8083 60.5365 35.4118 60.5365 32.4662C60.5365 30.784 59.7535 29.2512 58.4939 28.2623ZM36.19 68.6038L33.8695 59.6296L50.4065 43.0927L48.9938 48.5558C48.9794 48.5688 48.9645 48.581 48.9505 48.595L43.8063 53.7392C43.3466 54.1989 43.3466 54.9442 43.8063 55.4037C44.0362 55.6334 44.3376 55.7485 44.6387 55.7485C44.9399 55.7485 45.2412 55.6336 45.4711 55.4037L47.8344 53.0405L46.4677 58.3262L36.19 68.6038ZM51.5551 38.6506C51.4881 38.6944 51.4244 38.7456 51.3655 38.8044L33.1855 56.9844L32.4178 54.0149L37.5033 48.9293C37.963 48.4696 37.963 47.7243 37.5033 47.2648C37.0435 46.8051 36.2983 46.8051 35.8386 47.2648L31.7338 51.3695L27.9599 36.7739C28.1884 36.6068 28.4045 36.4222 28.6045 36.2201C29.5915 37.2174 30.9529 37.8085 32.4029 37.8085C33.8529 37.8085 35.2143 37.2174 36.2016 36.2201C36.4143 36.4349 36.6451 36.6296 36.8897 36.8049L32.7513 40.9432C32.2916 41.4029 32.2916 42.1482 32.7513 42.6077C32.9812 42.8375 33.2825 42.9525 33.5837 42.9525C33.8849 42.9525 34.1862 42.8376 34.4161 42.6077L39.2675 37.7564C39.5084 37.7898 39.7529 37.8083 40.0002 37.8083C41.4502 37.8083 42.8115 37.2173 43.7988 36.2199C44.7859 37.2173 46.1474 37.8083 47.5974 37.8083C49.0473 37.8083 50.4088 37.2173 51.396 36.2201C51.5959 36.4221 51.812 36.6066 52.0404 36.7738L51.5551 38.6506ZM55.1945 35.4544C54.0213 35.4544 52.9515 34.7621 52.4693 33.6908C52.2791 33.2687 51.8591 32.997 51.396 32.997C50.9328 32.997 50.5129 33.2685 50.3226 33.6908C49.8404 34.7621 48.7705 35.4544 47.5974 35.4544C46.4241 35.4544 45.3544 34.7621 44.8721 33.6908C44.6819 33.2687 44.2619 32.997 43.7988 32.997C43.3358 32.997 42.9157 33.2685 42.7255 33.6907C42.243 34.7621 41.1732 35.4544 40.0002 35.4544C38.8269 35.4544 37.7572 34.7621 37.2749 33.6908C37.0847 33.2687 36.6648 32.997 36.2016 32.997C35.7387 32.997 35.3185 33.2685 35.1283 33.6907C34.6459 34.7621 33.576 35.4544 32.4029 35.4544C31.2298 35.4544 30.1601 34.7621 29.6778 33.6908C29.4876 33.2687 29.0676 32.997 28.6045 32.997C28.1415 32.997 27.7214 33.2685 27.5311 33.6907C27.0487 34.7621 25.9788 35.4544 24.8059 35.4544C23.1583 35.4544 21.8179 34.114 21.8179 32.4664C21.8179 31.0991 22.7416 29.9086 24.0642 29.5712C24.2059 29.5351 24.3341 29.4735 24.4471 29.3943C24.5659 29.4021 24.6852 29.4076 24.8059 29.4076C26.2558 29.4076 27.6171 28.8166 28.6045 27.8192C29.5915 28.8166 30.9529 29.4076 32.4029 29.4076C33.8529 29.4076 35.2143 28.8166 36.2016 27.8192C37.1888 28.8166 38.5502 29.4076 40.0002 29.4076C41.4502 29.4076 42.8115 28.8166 43.7988 27.8192C44.7859 28.8166 46.1474 29.4076 47.5974 29.4076C49.0473 29.4076 50.4088 28.8166 51.396 27.8194C52.3831 28.8166 53.7446 29.4076 55.1945 29.4076C55.3152 29.4076 55.4345 29.4021 55.5532 29.3943C55.6663 29.4734 55.7945 29.5349 55.9361 29.5712C57.2586 29.9086 58.1824 31.0991 58.1824 32.4664C58.1824 34.114 56.8421 35.4544 55.1945 35.4544Z" fill="#252733"/>
</g>
<defs>
<clipPath id="clip0">
<rect width="80" height="80" fill="white"/>
</clipPath>
</defs>
</svg>
