<svg width="80" height="80" viewBox="0 0 80 80" fill="none" xmlns="http://www.w3.org/2000/svg">
<g clip-path="url(#clip0)">
<path d="M44.2093 27.6109C44.0735 27.6736 43.9433 27.7476 43.82 27.8322C43.1653 27.7189 42.508 27.5816 41.82 27.4322C37.9103 26.2592 33.7178 26.4515 29.932 27.9776C28.292 26.4329 27.1693 24.4193 26.7173 22.2122C26.5138 21.216 25.763 20.4213 24.78 20.1616C23.8186 19.9028 22.7937 20.2131 22.1373 20.9616C21.5924 21.5699 21.1075 22.2294 20.6893 22.9309C20.4659 22.4081 20.2835 21.8687 20.144 21.3176C19.8879 20.2654 19.0313 19.4659 17.964 19.2829C16.9384 19.1007 15.9045 19.557 15.348 20.4376C14.5095 21.7427 13.8553 23.1574 13.404 24.6416C12.9299 23.8051 12.0272 23.3046 11.0666 23.3456C10.0037 23.3883 9.06705 24.0568 8.68131 25.0482C7.80529 27.2621 7.3482 29.6194 7.33331 32.0002C7.18272 38.4154 10.2707 44.4756 15.5493 48.1242C16.728 56.3682 23.1026 62.2576 31.9586 63.0509C33.3187 65.8737 35.4034 68.2851 38 70.0389V76.2069C36.8693 76.5104 35.7749 76.9355 34.736 77.4749C34.3101 77.6893 34.031 78.1145 34.0037 78.5905C33.9764 79.0665 34.2051 79.5209 34.6037 79.7825C35.0022 80.0442 35.5101 80.0733 35.936 79.8589C36.9874 79.2602 38.1383 78.8564 39.3333 78.6669C41.4655 78.7901 43.5692 79.2161 45.5813 79.9322C46.0338 80.0828 46.5323 79.9804 46.8889 79.6638C47.2456 79.3472 47.4062 78.8643 47.3103 78.3971C47.2144 77.93 46.8765 77.5494 46.424 77.3989C44.5559 76.7645 42.6261 76.3292 40.6666 76.1002V70.0389C43.3224 68.2488 45.4357 65.7638 46.776 62.8549C57.3935 59.5808 64.6443 49.7777 64.6666 38.6669C64.6666 38.2096 64.6466 37.7336 64.6186 37.2429C64.9036 37.0209 65.1392 36.7421 65.3106 36.4242C65.6581 35.7915 65.7304 35.0438 65.5106 34.3562C64.2679 30.1959 63.5565 25.8951 63.3933 21.5562C64.576 20.8563 65.5561 19.8605 66.2373 18.6669H70C70.9252 18.666 71.7838 18.1855 72.2685 17.3975C72.7533 16.6095 72.795 15.6265 72.3786 14.8002L72.1506 14.3442C71.0338 12.1061 68.7546 10.6848 66.2533 10.6669C65.9352 10.1079 65.5511 9.58906 65.1093 9.12157C66.4392 8.312 67.2745 6.88939 67.3333 5.33357C67.3304 4.10935 66.7684 2.95352 65.8073 2.19527C64.8461 1.43701 63.5912 1.15943 62.4 1.44157C61.6434 0.52845 60.5192 0 59.3333 0C58.1474 0 57.0233 0.52845 56.2666 1.44157C55.0754 1.15943 53.8205 1.43701 52.8593 2.19527C51.8982 2.95352 51.3362 4.10935 51.3333 5.33357C51.3213 6.92794 52.0627 8.4344 53.3333 9.39757C52.0463 10.8513 51.335 12.7253 51.3333 14.6669C51.3333 14.7656 51.252 24.5896 44.2093 27.6109ZM47.308 59.8776C47.2537 59.1644 46.6423 58.6235 45.9278 58.6567C45.2132 58.6899 44.6546 59.2851 44.6666 60.0002C44.6666 63.4416 40.9186 66.5509 39.3333 67.7176C37.376 66.2962 34 63.1842 34 60.0002C34 59.2639 33.403 58.6669 32.6666 58.6669C31.9303 58.6669 31.3333 59.2639 31.3333 60.0002C31.3333 60.1096 31.352 60.2149 31.3573 60.3229C23.3 59.2696 18 53.4176 18 45.3336C18 44.5972 17.403 44.0002 16.6666 44.0002C16.1877 44.0051 15.7491 44.2696 15.5213 44.6909C11.8701 41.5033 9.84327 36.8446 9.99997 32.0002C10.0222 29.9414 10.4039 27.9023 11.128 25.9749C11.5697 26.872 12.0971 27.7244 12.7026 28.5202C12.6893 28.7869 12.6666 29.0536 12.6666 29.3336C12.6666 30.07 13.2636 30.6669 14 30.6669C14.7364 30.6669 15.3333 30.07 15.3333 29.3336C15.3305 28.9654 15.347 28.5973 15.3826 28.2309C15.5785 25.9888 16.325 23.8298 17.556 21.9456C17.9355 23.4739 18.5809 24.9235 19.4626 26.2282C19.381 26.6856 19.3378 27.149 19.3333 27.6136C19.3333 28.3499 19.9303 28.9469 20.6666 28.9469C21.403 28.9469 22 28.3499 22 27.6136C22.0954 25.7907 22.8431 24.0629 24.1066 22.7456C24.5984 25.1323 25.723 27.3428 27.3626 29.1456C27.1386 29.2616 26.92 29.3682 26.696 29.4949C26.2698 29.7198 25.9982 30.1572 25.9855 30.6389C25.9728 31.1206 26.221 31.5717 26.6347 31.8187C27.0484 32.0658 27.5632 32.0705 27.9813 31.8309C28.7706 31.3962 29.5173 31.0309 30.228 30.7269H30.236C33.6955 29.1581 37.6095 28.9091 41.24 30.0269C41.6906 30.1282 42.1493 30.2309 42.6133 30.3256C42.6539 30.7713 42.8092 31.1989 43.064 31.5669C45.0501 34.1735 47.7534 36.1442 50.8426 37.2376C53.045 38.101 55.3918 38.5363 57.7573 38.5202C59.1787 38.5157 60.5964 38.3741 61.9906 38.0976C61.9906 38.2869 62.0053 38.4816 62.0053 38.6656C61.9875 48.1016 56.137 56.5438 47.308 59.8736V59.8776ZM61.5146 19.5282L61.4533 19.5562C60.7859 19.8522 60.0634 20.0035 59.3333 20.0002C58.5969 20.0002 58 20.5972 58 21.3336C58 22.07 58.5969 22.6669 59.3333 22.6669C59.8172 22.6658 60.3001 22.6212 60.776 22.5336C60.9963 26.8089 61.7333 31.0419 62.9706 35.1402C59.3104 36.2019 55.4068 36.0678 51.828 34.7576C49.2305 33.8592 46.9494 32.2266 45.2613 30.0576C53.9 26.3549 54 15.1416 54 14.6669C53.9982 13.0635 54.7198 11.5449 55.964 10.5336C56.9096 9.75453 58.0975 9.3301 59.3226 9.33357C59.707 9.33412 60.0902 9.37343 60.4666 9.4509C62.7177 9.94024 64.4002 11.8196 64.6385 14.1109C64.8767 16.4022 63.6169 18.5876 61.5146 19.5296V19.5282ZM69.768 15.5442L70 16.0002H67.2C67.3415 15.1647 67.3509 14.3121 67.228 13.4736C68.3315 13.7694 69.2559 14.5229 69.768 15.5442ZM55.3333 4.00023C55.5962 3.99679 55.8538 4.07353 56.072 4.22023C56.4155 4.45561 56.8492 4.51699 57.2445 4.38618C57.6398 4.25536 57.9513 3.94737 58.0866 3.55357C58.27 3.02165 58.7707 2.66467 59.3333 2.66467C59.8959 2.66467 60.3966 3.02165 60.58 3.55357C60.7153 3.94737 61.0268 4.25536 61.4221 4.38618C61.8174 4.51699 62.2511 4.45561 62.5946 4.22023C62.813 4.074 63.0705 3.9973 63.3333 4.00023C64.0697 4.00023 64.6666 4.59719 64.6666 5.33357C64.6666 6.21223 63.7333 6.9549 62.7253 7.4309C62.1755 7.16457 61.5958 6.96493 60.9986 6.83623C59.1308 6.4511 57.1869 6.7402 55.512 7.65223C54.6051 7.23315 54.0177 6.33242 54 5.33357C54 4.59719 54.5969 4.00023 55.3333 4.00023Z" fill="#252733"/>
<path d="M54.0213 47.047C53.3119 46.8539 52.5801 47.2714 52.3853 47.9804C51.6935 50.5464 49.7739 52.6023 47.2613 53.4684C31.9066 58.7204 25.356 49.1404 23.2453 44.7777L40.336 38.9244C40.7914 38.7737 41.1307 38.39 41.2246 37.9196C41.3185 37.4493 41.1526 36.9647 40.79 36.6507C40.4274 36.3367 39.9241 36.2416 39.472 36.4017L22.3906 42.255C21.6664 42.4977 21.0821 43.0409 20.7874 43.7456C20.4926 44.4502 20.5162 45.2477 20.852 45.9337C22.3693 49.0817 27.5547 57.667 38.8773 57.667C42.0338 57.6245 45.1614 57.0595 48.1333 55.995C51.4824 54.8416 54.0416 52.1026 54.9653 48.683C55.0577 48.3409 55.0101 47.976 54.833 47.6691C54.6558 47.3621 54.3638 47.1383 54.0213 47.047Z" fill="#252733"/>
<path d="M33.3053 48.3497C32.6587 47.9969 31.8487 48.2351 31.4959 48.8817C31.1432 49.5282 31.3814 50.3383 32.0279 50.691C34.1274 51.8082 36.4753 52.3761 38.8533 52.3417C41.4244 52.2938 43.9702 51.8244 46.3893 50.9523C46.8402 50.7982 47.1746 50.4153 47.2665 49.9478C47.3585 49.4803 47.1941 48.9992 46.8352 48.6858C46.4763 48.3724 45.9775 48.2742 45.5266 48.4283C40.6253 50.1057 36.4853 50.083 33.3053 48.3497Z" fill="#252733"/>
<path d="M59.3333 17.6669C60.0697 17.6669 60.6666 17.07 60.6666 16.3336C60.6666 15.5972 60.0697 15.0002 59.3333 15.0002C58.5969 15.0002 58 15.5972 58 16.3336C58 17.07 58.5969 17.6669 59.3333 17.6669Z" fill="#252733"/>
</g>
<defs>
<clipPath id="clip0">
<rect width="80" height="80" fill="white"/>
</clipPath>
</defs>
</svg>
