<svg width="80" height="80" viewBox="0 0 80 80" fill="none" xmlns="http://www.w3.org/2000/svg">
<g clip-path="url(#clip0)">
<path d="M37.4773 27.6121C35.6581 27.4176 33.8295 27.3246 32 27.3335C28.7076 27.3174 25.431 27.7901 22.2773 28.7361C21.8217 28.8752 21.4749 29.2468 21.3675 29.711C21.2602 30.1751 21.4086 30.6613 21.7569 30.9863C22.1051 31.3113 22.6004 31.4259 23.056 31.2868C25.9573 30.418 28.9714 29.9844 32 30.0001C33.7334 29.9926 35.4658 30.0817 37.1893 30.2668C37.9217 30.3463 38.5798 29.8171 38.6593 29.0848C38.7389 28.3525 38.2097 27.6943 37.4773 27.6148V27.6121Z" fill="#252733"/>
<path d="M42.6667 31.3334C43.4031 31.3334 44 30.7365 44 30.0001C44 29.2637 43.4031 28.6667 42.6667 28.6667C41.9303 28.6667 41.3334 29.2637 41.3334 30.0001C41.3334 30.7365 41.9303 31.3334 42.6667 31.3334Z" fill="#252733"/>
<path d="M78.6667 63.0001H60.8147C60.8434 62.6177 60.7921 62.2336 60.6641 61.8721C60.3402 60.9312 60.1168 59.9587 59.9974 58.9708C59.9974 58.9041 59.9867 58.8374 59.9854 58.8374C59.9147 57.6363 60.2266 56.4437 60.8761 55.4308C61.5188 54.4093 62.0916 53.3456 62.5907 52.2468C69.9241 51.8308 73.2747 49.6574 74.7761 47.9801C75.3014 48.0908 75.7681 48.1681 76.1441 48.2188C76.2603 48.2347 76.3774 48.2427 76.4947 48.2428C77.759 48.2335 78.8466 47.3461 79.1094 46.1094L79.9334 41.9494C80.2245 40.5359 79.3381 39.1473 77.9334 38.8161C76.9871 38.6105 76.057 38.336 75.1507 37.9948C73.6203 37.3493 72.2331 36.4067 71.0694 35.2214C71.5687 34.3556 71.8296 33.3729 71.8254 32.3734C71.8414 30.6534 73.5841 28.6174 74.2521 27.9734C74.6203 27.624 74.7581 27.0957 74.6075 26.6109C74.4569 26.1261 74.0441 25.7689 73.5427 25.6894C72.468 25.5495 71.3815 25.524 70.3014 25.6134C70.683 25.0656 71.1127 24.5529 71.5854 24.0814C71.9553 23.732 72.094 23.2025 71.943 22.7165C71.792 22.2306 71.3775 21.873 70.8747 21.7948C70.6081 21.7561 64.3947 20.8308 60.3414 24.6668C59.8526 25.1257 59.4526 25.6708 59.1614 26.2748C47.2374 19.9001 38.7521 19.0001 32.0001 19.0001C20.4494 19.0001 10.7601 23.7641 6.43339 30.7428C3.91282 29.9707 2.33743 27.4696 2.72977 24.8628C3.12211 22.256 5.3639 20.3294 8.00005 20.3334C8.73643 20.3334 9.33339 19.7365 9.33339 19.0001C9.33339 18.2637 8.73643 17.6668 8.00005 17.6668C4.13495 17.6561 0.817864 20.417 0.126711 24.2198C-0.564442 28.0226 1.56906 31.774 5.19072 33.1241C4.40864 34.9846 4.00392 36.9819 4.00005 39.0001C3.87298 43.8617 5.55332 48.5977 8.71605 52.2921C9.1172 52.738 9.34604 53.3125 9.36139 53.9121C9.52784 56.9593 9.87467 59.9939 10.4001 63.0001H1.33339C0.597007 63.0001 5.34195e-05 63.5971 5.34195e-05 64.3334C5.34195e-05 65.0698 0.597007 65.6668 1.33339 65.6668H78.6667C79.4031 65.6668 80.0001 65.0698 80.0001 64.3334C80.0001 63.5971 79.4031 63.0001 78.6667 63.0001ZM69.1574 32.3401C69.1954 33.2798 68.724 34.167 67.9241 34.6614L67.8481 34.6988H67.8401C66.6635 35.319 65.208 34.9376 64.4867 33.8201C63.7238 32.7853 63.8765 31.3394 64.8387 30.4868C66.4431 29.1129 68.4676 28.3266 70.5787 28.2574C69.7311 29.4579 69.2386 30.8728 69.1574 32.3401ZM67.9187 24.3694C67.5239 24.9652 67.1945 25.6018 66.9361 26.2681C65.5065 26.723 64.1918 27.4806 63.0814 28.4894C62.5481 28.1703 62.0214 27.8632 61.5014 27.5681C61.6504 27.1995 61.8779 26.8679 62.1681 26.5961C63.7769 25.223 65.8047 24.4378 67.9187 24.3694ZM18.6107 63.0001C18.7093 62.4525 18.6633 61.8886 18.4774 61.3641C18.0847 60.2084 17.8091 59.0162 17.6547 57.8054C17.5027 56.7734 17.4321 55.8454 17.4001 55.2281C17.3739 54.7566 17.6077 54.3085 18.0094 54.0601C18.4507 53.7801 18.8601 53.4641 19.2667 53.1481C19.6574 53.2588 20.0601 53.3548 20.4601 53.4548C20.1638 54.0556 20.0296 54.7234 20.0707 55.3921C20.1214 56.3254 20.2187 57.2974 20.3494 58.1828C20.5226 59.5735 20.844 60.9417 21.3081 62.2641C21.3727 62.4348 21.3476 62.6264 21.2414 62.7748C21.1413 62.9191 20.9756 63.0037 20.8001 63.0001H18.6107ZM46.5494 54.7561C46.8345 55.0732 46.9967 55.4818 47.0067 55.9081C47.1367 58.2855 47.4039 60.6535 47.8067 63.0001H23.9454C24.0449 62.4476 23.9989 61.8788 23.8121 61.3494C23.4145 60.2001 23.1383 59.0123 22.9881 57.8054C22.8361 56.7734 22.7654 55.8454 22.7334 55.2281C22.71 54.7699 22.9319 54.3337 23.3161 54.0828C26.5534 54.6891 29.8397 54.9962 33.1334 55.0001C37.2915 55.0109 41.4336 54.4857 45.4574 53.4374C45.8734 53.9974 46.2667 54.4308 46.5494 54.7561ZM52.0001 63.0001H50.5094C50.0866 60.623 49.8069 58.2227 49.6721 55.8121C49.6411 54.7618 49.238 53.7567 48.5347 52.9761C46.342 50.6472 45.1869 47.5289 45.3334 44.3334C45.3334 43.5971 44.7364 43.0001 44.0001 43.0001C43.2637 43.0001 42.6667 43.5971 42.6667 44.3334C42.6278 46.6434 43.0994 48.9335 44.0481 51.0401C40.4746 51.9058 36.8102 52.34 33.1334 52.3334C29.227 52.3396 25.3335 51.8853 21.5334 50.9801C23.9884 48.1258 25.3368 44.4849 25.3334 40.7201V36.3334C25.3334 35.5971 24.7364 35.0001 24.0001 35.0001C23.2637 35.0001 22.6667 35.5971 22.6667 36.3334V40.7201C22.6824 45.2197 20.3805 49.4103 16.5747 51.8108C15.3539 52.5794 14.6487 53.952 14.7347 55.3921C14.7854 56.3254 14.8827 57.2974 15.0134 58.1921C15.1928 59.5826 15.5127 60.9514 15.9681 62.2774C16.0331 62.4449 16.0096 62.6338 15.9054 62.7801C15.8053 62.9224 15.6406 63.005 15.4667 63.0001H13.1121C12.5634 59.9633 12.201 56.8958 12.0267 53.8148C11.99 52.5917 11.5203 51.4213 10.7014 50.5121C7.97741 47.3068 6.53972 43.2047 6.66672 39.0001C6.66672 29.2801 17.7947 21.6668 32.0001 21.6668C38.6667 21.6668 47.1014 22.5788 59.2001 29.3228C59.2507 29.3606 59.3042 29.3944 59.3601 29.4241C60.1014 29.8241 60.8587 30.2681 61.6174 30.7228C61.0937 32.2782 61.3412 33.99 62.2841 35.3334C63.251 36.7817 64.8761 37.6527 66.6174 37.6561C67.4368 37.6535 68.2452 37.4666 68.9827 37.1094L69.1161 37.0401C70.5535 38.5179 72.2795 39.6842 74.1867 40.4668C75.2077 40.8504 76.2543 41.1623 77.3187 41.4001L76.4974 45.5641C74.2109 45.2551 72.0186 44.4536 70.0721 43.2148C69.6753 42.9509 69.1678 42.9187 68.7409 43.1304C68.3139 43.3421 68.0323 43.7655 68.0022 44.2411C67.9721 44.7167 68.1979 45.1722 68.5947 45.4361C69.5959 46.0964 70.6652 46.6471 71.7841 47.0788C70.2427 48.1801 67.2801 49.4121 61.6507 49.6201C61.1281 49.6512 60.5778 49.6668 60.0001 49.6668H58.2467C58.5068 48.801 58.648 47.9039 58.6667 47.0001C58.6667 46.2637 58.0698 45.6668 57.3334 45.6668C56.597 45.6668 56.0001 46.2637 56.0001 47.0001C55.9374 48.2019 55.6488 49.3812 55.1494 50.4761V50.4868C54.6302 51.7127 54.0098 52.8932 53.2947 54.0161C52.3344 55.5043 51.879 57.2622 51.9961 59.0294C52.0067 59.1628 52.0201 59.2961 52.0334 59.3961C52.2024 60.5876 52.464 61.764 52.8161 62.9148C52.7803 62.9688 52.7195 63.0009 52.6547 63.0001H52.0001ZM55.4827 63.0001C55.5115 62.6206 55.4611 62.2392 55.3347 61.8801C55.0163 60.95 54.793 59.9899 54.6681 59.0148L54.6494 58.8294C54.577 57.6304 54.892 56.4398 55.5481 55.4334C56.1769 54.4359 56.7438 53.4006 57.2454 52.3334H59.5894C59.2961 52.8814 58.9761 53.4414 58.6134 54.0174C57.6622 55.5088 57.2106 57.2642 57.3241 59.0294L57.3361 59.1628C57.3361 59.2494 57.3521 59.3348 57.3601 59.3854C57.5256 60.5804 57.7865 61.7601 58.1401 62.9134C58.1068 62.9663 58.0492 62.9989 57.9867 63.0001H55.4827Z" fill="#252733"/>
<path d="M68.0001 72.6668C68.0001 71.9305 67.4031 71.3335 66.6667 71.3335H13.3334C12.597 71.3335 12.0001 71.9305 12.0001 72.6668C12.0001 73.4032 12.597 74.0002 13.3334 74.0002H66.6667C67.4031 74.0002 68.0001 73.4032 68.0001 72.6668Z" fill="#252733"/>
<path d="M25.3334 76.6669C24.597 76.6669 24.0001 77.2638 24.0001 78.0002C24.0001 78.7366 24.597 79.3335 25.3334 79.3335H54.6667C55.4031 79.3335 56.0001 78.7366 56.0001 78.0002C56.0001 77.2638 55.4031 76.6669 54.6667 76.6669H25.3334Z" fill="#252733"/>
</g>
<defs>
<clipPath id="clip0">
<rect width="80" height="80" fill="white"/>
</clipPath>
</defs>
</svg>
