<svg width="80" height="80" viewBox="0 0 80 80" fill="none" xmlns="http://www.w3.org/2000/svg">
<g clip-path="url(#clip0)">
<path d="M77.7196 20.3455C77.3339 19.574 76.3956 19.2611 75.6235 19.6469C74.852 20.0329 74.539 20.9713 74.9249 21.743C78.4779 28.849 77.0876 37.4007 71.4654 43.0228C64.2776 50.2106 52.582 50.2106 45.3942 43.0228C38.2064 35.835 38.2064 24.1394 45.3942 16.9518C50.753 11.593 58.7177 10.055 65.6852 13.0341C66.4787 13.3735 67.3966 13.005 67.7359 12.2117C68.0751 11.4185 67.7068 10.5002 66.9135 10.1611C62.9993 8.4875 58.7099 8.01172 54.5086 8.78532C51.5734 9.32563 48.8192 10.4569 46.3787 12.1061C45.3351 9.96485 43.9473 8.02047 42.2422 6.3153C39.5843 3.65748 36.2726 1.73513 32.6649 0.755908C29.1677 -0.193471 25.4562 -0.24644 21.931 0.602157C21.3605 0.739502 20.9152 1.18482 20.7779 1.75529C19.9291 5.2803 19.9824 8.99188 20.9316 12.4892C21.6596 15.1689 22.9085 17.6849 24.5916 19.8915C24.0205 19.9805 23.4521 20.0916 22.8879 20.2274C22.3174 20.3647 21.8721 20.8101 21.7347 21.3805C20.886 24.9055 20.9393 28.6171 21.8885 32.1145C22.8679 35.7221 24.7904 39.0339 27.4479 41.6917C31.5223 45.7659 37.0346 48.005 42.709 48.0045C43.8578 48.0045 45.0142 47.9114 46.1656 47.7244C49.7423 50.2086 53.983 51.5471 58.4299 51.5471C64.1886 51.5471 69.6027 49.3045 73.6749 45.2323C80.2493 38.6576 81.8748 28.6563 77.7196 20.3455ZM23.6129 3.43639C29.6105 2.31263 35.6867 4.17827 40.0331 8.52469C41.6559 10.1474 42.9415 12.0219 43.8594 14.0985C43.6309 14.3083 43.4054 14.5219 43.1851 14.7422C42.1486 15.7788 41.2403 16.896 40.4592 18.0732L30.5224 8.13641C29.9124 7.5264 28.923 7.5264 28.3129 8.13641C27.7029 8.74641 27.7029 9.73579 28.3129 10.3459L38.8742 20.9072C38.6668 21.3549 38.4765 21.8086 38.3017 22.2668C35.2928 20.6236 31.9107 19.7316 28.4927 19.6418C24.2966 15.3114 22.5072 9.33688 23.6129 3.43639ZM29.6576 39.482C25.3115 35.136 23.4457 29.0606 24.5691 23.063C28.9568 22.2516 33.5618 23.0643 37.3832 25.3404C36.7999 28.0029 36.7256 30.7549 37.1579 33.4407L31.4791 27.762C30.8691 27.152 29.8798 27.152 29.2696 27.762C28.6596 28.372 28.6596 29.3613 29.2696 29.9715L39.3187 40.0206C39.3353 40.0372 39.3532 40.0515 39.3703 40.0672C40.2782 41.7864 41.4345 43.4073 42.8392 44.8772C37.9403 44.9122 33.1721 42.997 29.6576 39.482Z" fill="#252733"/>
<path d="M46.6238 77.4592L41.1891 70.5844C38.3169 66.9509 35.5618 63.1526 33.0006 59.2951C32.5231 58.576 31.5537 58.3806 30.8348 58.8576C30.116 59.3351 29.9203 60.3046 30.3975 61.0232C33.0064 64.9523 35.8123 68.8209 38.7378 72.5219L41.8356 76.4409L39.7826 76.2022C29.7876 75.0394 20.6168 70.2436 13.9594 62.6984L13.6836 62.3859C7.59049 55.4804 3.94969 46.8361 3.25063 37.758L4.03657 37.0973C4.78266 36.4703 5.7636 36.1892 6.72876 36.3275L8.89362 36.6367C9.55221 36.7309 10.1986 36.3973 10.5035 35.8056C11.2197 34.4153 12.7852 33.6858 14.3107 34.0314L15.9321 34.3989C18.2899 39.8308 20.9513 45.1927 23.8557 50.3465C24.2795 51.098 25.2323 51.3638 25.9838 50.9405C26.7356 50.5168 27.0015 49.564 26.5779 48.8124C23.5977 43.5246 20.8744 38.0141 18.4838 32.4347C16.7083 28.2904 12.6477 25.6126 8.13908 25.6126C7.80549 25.6126 7.47736 25.6351 7.15408 25.6743C7.35627 22.4995 8.68596 19.542 10.9557 17.2721C11.5657 16.6621 11.5657 15.6727 10.9557 15.0627C10.3457 14.4527 9.35628 14.4527 8.74627 15.0627C5.68517 18.1238 3.99922 22.194 3.99922 26.5231V26.7481C1.60828 28.1665 0.00092494 30.7725 -1.25637e-05 33.748V34.5256C-0.000325065 35.3795 0.02655 36.2309 0.074519 37.0792C0.0746752 37.1358 0.0778002 37.1923 0.0842065 37.2488C0.688115 47.2749 4.62954 56.847 11.3408 64.4532L11.6166 64.7657C18.7851 72.8898 28.6598 78.0536 39.4216 79.3056L45.2175 79.9799C45.2781 79.987 45.3385 79.9903 45.3986 79.9903C45.9599 79.9903 46.4844 79.6874 46.7625 79.1892C47.0703 78.6375 47.0156 77.9547 46.6238 77.4592ZM3.12469 33.7491C3.12562 30.9853 5.37501 28.7368 8.13924 28.7368C10.1907 28.7368 12.1133 29.5048 13.5761 30.8211C11.5308 30.8129 9.58581 31.7665 8.34033 33.4014L7.1708 33.2344C5.76954 33.0342 4.35094 33.2969 3.12453 33.9598V33.7491H3.12469Z" fill="#252733"/>
<path d="M30.0495 54.6908L30.0234 54.6484C29.5725 53.9126 28.6105 53.682 27.8751 54.1329C27.1395 54.584 26.9086 55.5458 27.3595 56.2814L27.3856 56.3237C27.6805 56.8048 28.1934 57.0697 28.7191 57.0697C28.9975 57.0697 29.2794 56.9953 29.5339 56.8392C30.2697 56.3883 30.5006 55.4264 30.0495 54.6908Z" fill="#252733"/>
<path d="M73.9112 14.9822C73.8331 14.9015 73.7545 14.8217 73.675 14.7422C73.065 14.1322 72.0756 14.1322 71.4655 14.7422C70.8555 15.3522 70.8555 16.3416 71.4655 16.9517C71.5337 17.0197 71.6011 17.0881 71.6678 17.1569C71.9742 17.473 72.3816 17.6319 72.7897 17.6319C73.1814 17.6319 73.5734 17.4855 73.8769 17.1912C74.4965 16.5906 74.5119 15.6015 73.9112 14.9822Z" fill="#252733"/>
<path d="M58.4301 14.0516C49.6432 14.0516 42.4947 21.2003 42.4947 29.987C42.4947 38.7738 49.6433 45.9224 58.4301 45.9224C67.2169 45.9224 74.3655 38.7738 74.3655 29.987C74.3655 21.2003 67.217 14.0516 58.4301 14.0516ZM46.6379 34.9914C45.9825 33.4531 45.6193 31.7619 45.6193 29.987C45.6193 28.2122 45.9826 26.5209 46.6377 24.9828L55.3056 29.9872L46.6379 34.9914ZM56.8679 42.6991C53.339 42.2678 50.2487 40.3991 48.2049 37.6944L56.8679 32.6928V42.6991ZM56.8679 27.2809L48.2049 22.2793C50.2485 19.5748 53.339 17.706 56.8679 17.2746V27.2809ZM59.9923 17.2749C63.5212 17.7062 66.6115 19.5749 68.6553 22.2796L59.9923 27.2812V17.2749ZM59.9925 42.6991V32.693L68.6555 37.6945C66.6115 40.3991 63.5212 42.2678 59.9925 42.6991ZM61.5548 29.9872L70.2226 24.9828C70.8777 26.5209 71.2411 28.2122 71.2411 29.987C71.2411 31.7617 70.8778 33.4531 70.2225 34.9914L61.5548 29.9872Z" fill="#252733"/>
<path d="M56.6357 56.4059C55.1639 54.3388 53.1558 53.2006 50.9811 53.2006C48.8064 53.2006 46.7983 54.3388 45.3266 56.4059C43.9692 58.312 43.2219 60.8195 43.2219 63.4662C43.2219 66.113 43.9694 68.6205 45.3266 70.5264C46.7983 72.5933 48.8064 73.7317 50.9811 73.7317C53.1558 73.7317 55.1639 72.5935 56.6357 70.5264C57.993 68.6205 58.7404 66.113 58.7404 63.4662C58.7404 60.8195 57.9929 58.3121 56.6357 56.4059ZM50.9811 70.6072C50.2575 70.6072 49.1633 69.0702 49.1633 66.7534C49.1633 64.4369 50.2575 62.8998 50.9811 62.8998C51.7047 62.8998 52.7989 64.4369 52.7989 66.7534C52.7989 69.0703 51.7047 70.6072 50.9811 70.6072ZM55.5908 64.1933C54.8818 61.5833 53.1091 59.7754 50.9813 59.7754C48.8534 59.7754 47.0808 61.5831 46.3717 64.1933C46.3552 63.9537 46.3466 63.7112 46.3466 63.4664C46.3464 59.5954 48.4688 56.3253 50.9811 56.3253C53.4935 56.3253 55.616 59.5956 55.616 63.4664C55.616 63.7112 55.6074 63.9537 55.5908 64.1933Z" fill="#252733"/>
<path d="M79.8636 71.8713C79.4755 69.5638 78.2309 67.2622 76.3594 65.3905C74.488 63.5191 72.1864 62.2745 69.8786 61.8862C67.3762 61.4658 65.1514 62.0806 63.6137 63.6184C62.0759 65.1562 61.4607 67.3811 61.8815 69.8835C62.2698 72.1911 63.5142 74.4925 65.3857 76.3639C67.2573 78.2354 69.5587 79.4799 71.8665 79.8682C72.3808 79.9547 72.8828 79.9974 73.3701 79.9974C75.2539 79.9972 76.9098 79.358 78.1316 78.1363C79.6694 76.5983 80.2845 74.3735 79.8636 71.8713ZM68.1285 74.6532C67.947 74.4944 67.769 74.3282 67.5954 74.1547C66.1792 72.7383 65.2443 71.0377 64.9629 69.3652C64.7143 67.8873 65.0198 66.6311 65.8231 65.828C66.444 65.2067 67.3356 64.8834 68.3912 64.8834C68.7009 64.8834 69.025 64.9114 69.3603 64.9678C71.0328 65.2491 72.7337 66.1839 74.1498 67.6002C74.3231 67.7734 74.4884 67.9509 74.6461 68.132C72.2992 66.7881 69.7675 66.7633 68.2628 68.2677C66.7579 69.7727 66.7832 72.3055 68.1285 74.6532ZM75.9223 75.9269C75.4105 76.4389 73.5497 76.1255 71.9117 74.4874C70.2736 72.8492 69.9604 70.9886 70.4722 70.4769C70.6184 70.3306 70.8743 70.2519 71.2037 70.2519C72.0281 70.2519 73.3123 70.7461 74.4826 71.9164C75.2897 72.7233 75.8694 73.6913 76.0733 74.5721C76.215 75.1841 76.1584 75.6907 75.9223 75.9269Z" fill="#252733"/>
<path d="M75.47 50.6086C75.1794 50.3179 74.7764 50.1508 74.3655 50.1508C73.9545 50.1508 73.5517 50.3179 73.2609 50.6086C72.9703 50.8992 72.8031 51.3022 72.8031 51.7131C72.8031 52.124 72.9703 52.527 73.2609 52.8175C73.5515 53.1081 73.9545 53.2755 74.3655 53.2755C74.7764 53.2755 75.1794 53.1083 75.47 52.8175C75.7606 52.527 75.9278 52.124 75.9278 51.7131C75.9278 51.3022 75.7606 50.8992 75.47 50.6086Z" fill="#252733"/>
<path d="M65.7837 53.6584C65.493 53.3678 65.0901 53.2004 64.6791 53.2004C64.2682 53.2004 63.8654 53.3676 63.5746 53.6584C63.284 53.9489 63.1168 54.3519 63.1168 54.7628C63.1168 55.1737 63.284 55.5767 63.5746 55.8673C63.8652 56.158 64.2682 56.3251 64.6791 56.3251C65.0901 56.3251 65.493 56.1581 65.7837 55.8673C66.0743 55.5765 66.2415 55.1737 66.2415 54.7628C66.2415 54.3519 66.0743 53.9489 65.7837 53.6584Z" fill="#252733"/>
<path d="M71.9767 55.6061C71.6861 55.3155 71.2831 55.1483 70.8722 55.1483C70.4612 55.1485 70.0582 55.3155 69.7676 55.6061C69.477 55.8968 69.3098 56.2982 69.3098 56.7107C69.3098 57.1216 69.477 57.5246 69.7676 57.815C70.0582 58.1057 70.4612 58.273 70.8722 58.273C71.2831 58.273 71.6861 58.1058 71.9767 57.815C72.2689 57.5246 72.4345 57.1216 72.4345 56.7107C72.4344 56.2982 72.2689 55.8968 71.9767 55.6061Z" fill="#252733"/>
</g>
<defs>
<clipPath id="clip0">
<rect width="80" height="80" fill="white"/>
</clipPath>
</defs>
</svg>
