<svg width="80" height="80" viewBox="0 0 80 80" fill="none" xmlns="http://www.w3.org/2000/svg">
<g clip-path="url(#clip0)">
<path d="M12.5925 79.2288C12.6375 79.3363 12.7125 79.425 12.7825 79.515C12.8125 79.5525 12.8263 79.5975 12.8613 79.6338C12.9213 79.6937 12.995 79.7225 13.0625 79.7675C13.13 79.8112 13.1875 79.8688 13.2625 79.8988C13.4163 79.9637 13.58 79.9987 13.745 79.9987C13.7488 79.9987 13.7538 79.9963 13.7575 79.9963H33.735C33.7388 79.9963 33.7438 79.9987 33.7475 79.9987C33.7513 79.9987 33.7563 79.9963 33.76 79.9963H66.2525C66.9438 79.9963 67.5025 79.4375 67.5025 78.7463V17.4963C67.5025 17.3337 67.47 17.1712 67.4063 17.0187C67.3425 16.865 67.2513 16.7262 67.135 16.6112L57.5013 6.9775V3.7475C57.5025 1.68125 55.8213 0 53.755 0H26.255C24.1888 0 22.5075 1.68125 22.5075 3.7475V6.96875L12.8638 16.6125C12.7475 16.7275 12.6563 16.8663 12.5925 17.02C12.5288 17.1725 12.4963 17.335 12.4963 17.4975V78.7475V78.7487C12.4963 78.9125 12.5288 79.075 12.5925 79.2288ZM26.255 2.5H53.755C54.4438 2.5 55.0025 3.05875 55.0025 3.7475V6.24625H25.0075V3.7475C25.0075 3.05875 25.5663 2.5 26.255 2.5ZM32.4988 18.7475V75.7325L24.9975 68.2312V18.7475H32.4988ZM22.4975 68.2312L14.9963 75.7325V18.7475H22.4975V68.2312ZM23.7475 70.5163L30.7288 77.4975H16.7663L23.7475 70.5163ZM34.9988 18.7475H65.0038V77.4975H34.9988V18.7475ZM46.2638 16.2475C48.325 16.24 50.0013 14.5625 50.0013 12.4987C50.0013 10.4312 48.3188 8.74875 46.2513 8.74875C44.1838 8.74875 42.5013 10.4312 42.5013 12.4987C42.5013 14.5625 44.1775 16.24 46.2388 16.2475H34.2663L26.765 8.74625H55.735L63.2363 16.2475H46.2638ZM46.2513 13.7487C45.5613 13.7487 45.0013 13.1887 45.0013 12.4987C45.0013 11.8087 45.5613 11.2487 46.2513 11.2487C46.9413 11.2487 47.5013 11.8087 47.5013 12.4987C47.5013 13.1887 46.9413 13.7487 46.2513 13.7487ZM23.7475 9.26375L30.7313 16.2475H16.7638L23.7475 9.26375Z" fill="#252733"/>
<path d="M50.0012 48.7537C54.825 48.7537 58.7512 44.8275 58.7512 40.0037C58.7512 35.605 55.4837 31.9625 51.2512 31.3538V31.25C51.2512 30.5587 50.6925 30 50.0012 30C49.31 30 48.7512 30.5587 48.7512 31.25V31.3538C44.5187 31.9625 41.2512 35.605 41.2512 40.0037C41.2512 44.8275 45.1775 48.7537 50.0012 48.7537ZM50.0012 33.7537C53.4475 33.7537 56.2512 36.5575 56.2512 40.0037C56.2512 43.45 53.4475 46.2537 50.0012 46.2537C46.555 46.2537 43.7512 43.45 43.7512 40.0037C43.7512 36.5575 46.555 33.7537 50.0012 33.7537Z" fill="#252733"/>
<path d="M53.78 42.5C54.47 42.5 55.03 41.9412 55.03 41.25C55.03 40.5588 54.47 40 53.78 40H53.7663C53.0763 40 52.5238 40.5588 52.5238 41.25C52.5238 41.9412 53.09 42.5 53.78 42.5Z" fill="#252733"/>
<path d="M51.2775 45.0024C51.9675 45.0024 52.5275 44.4437 52.5275 43.7524C52.5275 43.0612 51.9675 42.5024 51.2775 42.5024H51.2637C50.5737 42.5024 50.0212 43.0612 50.0212 43.7524C50.0212 44.4437 50.5875 45.0024 51.2775 45.0024Z" fill="#252733"/>
<path d="M58.73 55.0125H41.235C40.5437 55.0125 39.985 55.5712 39.985 56.2625C39.985 56.9537 40.5437 57.5125 41.235 57.5125H58.73C59.4212 57.5125 59.98 56.9537 59.98 56.2625C59.98 55.5712 59.4212 55.0125 58.73 55.0125Z" fill="#252733"/>
<path d="M41.235 53.75H58.73C59.4212 53.75 59.98 53.1912 59.98 52.5C59.98 51.8088 59.4212 51.25 58.73 51.25H41.235C40.5437 51.25 39.985 51.8088 39.985 52.5C39.985 53.1912 40.545 53.75 41.235 53.75Z" fill="#252733"/>
<path d="M58.73 58.7625H41.235C40.5437 58.7625 39.985 59.3212 39.985 60.0125C39.985 60.7037 40.5437 61.2625 41.235 61.2625H58.73C59.4212 61.2625 59.98 60.7037 59.98 60.0125C59.98 59.3212 59.4212 58.7625 58.73 58.7625Z" fill="#252733"/>
<path d="M52.4863 62.5125H47.4788C46.7875 62.5125 46.2288 63.0712 46.2288 63.7625C46.2288 64.4537 46.7875 65.0125 47.4788 65.0125H52.4863C53.1775 65.0125 53.7363 64.4537 53.7363 63.7625C53.7363 63.0712 53.1775 62.5125 52.4863 62.5125Z" fill="#252733"/>
</g>
<defs>
<clipPath id="clip0">
<rect width="80" height="80" fill="white"/>
</clipPath>
</defs>
</svg>
