<svg width="80" height="80" viewBox="0 0 80 80" fill="none" xmlns="http://www.w3.org/2000/svg">
<path d="M73.2494 23.153C72.9631 22.5726 72.2606 22.334 71.6802 22.6196C71.0997 22.9058 70.8605 23.6078 71.1467 24.1888C75.1012 32.2192 77.6561 41.6576 77.6561 48.2336C77.6561 61.3237 67.0061 71.9737 53.9159 71.9737C49.7326 71.9737 45.6743 70.8855 42.0861 68.8182C48.2171 64.041 52.1685 56.5905 52.1685 48.2336C52.1685 43.789 51.0766 38.0718 49.0935 32.1337C48.5375 30.4687 47.1148 29.2675 45.3802 28.9996C44.3517 28.8403 43.33 29.0295 42.4523 29.5043C41.3879 26.7718 39.6777 24.3969 37.5286 22.5378C39.768 18.3197 42.2948 14.8047 44.8681 12.3358C47.8893 9.43786 50.9331 7.96875 53.9159 7.96875C58.9098 7.96875 64.2229 12.2449 68.8774 20.0097C69.2101 20.5645 69.9303 20.7446 70.4851 20.412C71.0405 20.0793 71.2206 19.3597 70.8879 18.8043C64.3584 7.91137 58.0541 5.625 53.9159 5.625C50.3081 5.625 46.718 7.31384 43.2458 10.6445C40.5639 13.2171 37.9498 16.8182 35.6371 21.1078C32.8106 19.2529 29.4488 18.1891 25.9014 18.1891C17.0526 18.1891 9.65269 24.6728 8.34593 33.2427C7.34007 32.7465 6.18102 32.6312 5.0598 32.9486C3.47595 33.3966 2.27417 34.6148 1.8457 36.2066C0.638427 40.6921 0 44.8516 0 48.2336C0 54.1546 2.03857 59.9523 5.73912 64.5592C6.1444 65.0634 6.88231 65.1445 7.38707 64.7387C7.89122 64.3334 7.97179 63.5955 7.56651 63.0913C4.14977 58.8384 2.34375 53.7005 2.34375 48.2336C2.34375 45.0536 2.9541 41.1059 4.10949 36.8157C4.32128 36.0278 4.91515 35.4254 5.69762 35.2038C6.4746 34.9841 7.28941 35.1843 7.87718 35.7385L15.6225 43.0462C15.8545 43.2653 16.1651 43.3801 16.4843 43.3648C16.8029 43.3489 17.1014 43.2043 17.3108 42.9638L23.6181 35.7202C25.1403 33.9721 27.7374 33.6309 29.6594 34.9261L36.2225 39.3493C36.7461 39.7015 37.4541 39.577 37.8252 39.0667L42.7929 32.2424C43.3141 31.527 44.1473 31.181 45.0219 31.3159C45.899 31.4514 46.5899 32.0349 46.8706 32.8759C48.7481 38.4979 49.8247 44.096 49.8247 48.2336C49.8247 61.3244 39.1747 71.9744 26.0845 71.9744C20.5822 71.9744 15.2191 70.0493 10.9839 66.5538C10.4846 66.1412 9.74607 66.212 9.33409 66.7113C8.9221 67.2106 8.9929 67.9491 9.49156 68.3611C14.1461 72.2026 20.039 74.3181 26.0839 74.3181C31.1938 74.3181 35.9649 72.8398 39.9932 70.2904C44.1576 72.9247 48.9574 74.3181 53.9159 74.3181C68.2988 74.3181 79.9998 62.6165 79.9998 48.2342C79.9998 41.3262 77.3497 31.4819 73.2494 23.153ZM36.5954 36.7736L30.9692 32.9821C28.0682 31.0272 24.1479 31.5423 21.8505 34.1809L16.344 40.5047L10.5145 35.0048C11.0052 26.8811 17.7435 20.5328 25.902 20.5328C32.6214 20.5328 38.579 24.9212 40.5968 31.2762L36.5954 36.7736Z" fill="#252733"/>
</svg>
