<svg width="80" height="80" viewBox="0 0 80 80" fill="none" xmlns="http://www.w3.org/2000/svg">
<g clip-path="url(#clip0)">
<path d="M72.2223 15.1876C68.6751 10.5326 63.9689 6.62224 58.6123 3.87928C53.922 1.4774 49.0007 0.103338 44.7553 0.0100566C31.8607 -0.274006 26.8492 5.46771 25.6334 7.20178C18.076 8.87365 10.6721 12.1576 5.78714 16.0116C1.63964 19.2838 -0.344735 22.6129 0.0487023 25.6383C0.346515 27.928 2.6673 31.196 12.0331 33.7615C12.667 33.9351 13.3367 33.5358 13.4867 32.8966C13.629 32.2901 13.2543 31.6611 12.6535 31.4966C6.59339 29.8366 2.65589 27.4758 2.37761 25.3357C2.10464 23.236 3.87761 20.5096 7.24198 17.8554C11.7996 14.2594 18.7217 11.178 25.8457 9.56068C29.0867 14.2893 33.0698 23.1457 27.7414 33.646C24.3192 33.5683 20.652 33.1847 17.1429 32.5241C16.5139 32.4052 15.8901 32.8318 15.7717 33.4607C15.6534 34.0894 16.0795 34.7135 16.7084 34.8318C21.4379 35.7222 26.4543 36.1296 30.8339 35.9799C33.8682 35.8752 36.6817 36.0026 39.2014 36.3429C40.1634 39.1599 41.689 43.7933 42.6135 47.4412C43.2235 49.8482 44.7373 50.1241 45.397 50.1241C45.4085 50.1241 45.4198 50.1241 45.4307 50.124C47.646 50.0919 50.1718 47.1341 51.6437 43.134C51.8957 43.8185 52.035 44.5455 52.0559 45.3138C52.2454 52.293 48.179 56.2338 44.1268 57.0968C43.4506 56.461 42.0856 55.3226 40.197 54.4599C37.6626 53.3021 33.6765 52.4319 29.0796 54.8626C28.0589 55.4022 27.4901 56.4918 27.6309 57.6377C27.7725 58.7916 28.5939 59.7174 29.7232 59.9963C32.5589 60.6965 36.1181 62.4394 36.9712 66.7657C37.8031 70.9841 36.7171 74.0349 35.6596 75.8513C35.1137 76.789 35.1785 77.973 35.8115 78.8518C36.4057 79.6766 37.4203 80.1138 38.4282 79.974C40.9575 79.624 43.1331 78.6768 44.895 77.1585C47.1598 75.2069 48.6331 72.3829 49.2793 68.7572C50.582 68.2077 53.7446 66.7882 57.394 64.5335C57.9382 64.1973 58.1123 63.4616 57.7757 62.9172C57.4393 62.373 56.7039 62.1993 56.1596 62.5355C51.6617 65.3144 47.8393 66.8101 47.8015 66.8244C47.407 66.9774 47.1253 67.3305 47.0639 67.749C46.4723 71.781 44.4379 76.7712 38.1059 77.6477C37.7768 77.6918 37.5185 77.3251 37.6889 77.0327C38.9498 74.8669 40.2485 71.2486 39.275 66.3113C38.1828 60.7726 33.784 58.5802 30.286 57.7163C29.9209 57.6263 29.8321 57.1205 30.177 56.9383C37.3235 53.1594 42.6329 58.898 42.8534 59.1418C43.1151 59.4346 43.506 59.5774 43.8946 59.5215C46.7845 59.1088 49.4314 57.5638 51.3476 55.1705C53.4514 52.5432 54.5081 49.1124 54.4031 45.2496C54.334 42.7074 53.3273 40.5044 51.4107 38.7021C47.5887 35.1077 40.2523 33.3068 30.7531 33.6324C30.6196 33.6369 30.4837 33.6394 30.349 33.6429C31.5967 30.9188 32.3482 28.1532 32.5996 25.3649C36.1756 27.0874 38.3995 27.6569 39.8231 27.6569C41.147 27.6569 41.7792 27.1643 42.1626 26.6483C44.0482 24.1113 44.0678 20.6418 44.0657 20.3465C44.0676 20.0511 44.0481 16.5818 42.1626 14.0447C40.924 12.3783 38.151 13.1161 36.1731 13.8155C34.5885 14.3762 32.9159 15.1552 31.5304 15.8574C30.6746 13.1485 29.4664 10.843 28.3267 9.05662C34.1442 8.01474 41.9432 7.5949 49.2051 10.3621C50.0151 10.671 50.8162 11.0029 51.586 11.3487C52.1778 11.6147 52.8726 11.3504 53.1384 10.7588C53.4042 10.1672 53.1401 9.4724 52.5485 9.20662C51.7373 8.84209 50.8939 8.49256 50.0415 8.16756C42.97 5.47287 35.4868 5.59771 29.5748 6.47287C29.9718 6.15334 30.4285 5.82193 30.9525 5.49271C35.3212 2.7474 40.8417 2.27224 44.7031 2.35709C51.9475 2.51631 63.0643 7.04428 70.3539 16.6102C75.3242 23.1327 80.3356 34.5363 75.9848 51.8229C75.9039 52.1447 75.4849 52.2422 75.2643 51.9972L72.2417 48.6449C72.6285 47.608 72.9234 46.559 73.1229 45.4982C74.3507 38.9724 73.5604 32.4046 70.8376 26.5041C68.0157 20.3894 63.1751 15.1754 56.8387 11.4254C56.2807 11.0947 55.5604 11.2799 55.2303 11.8377C54.9 12.396 55.0845 13.116 55.6428 13.4463C61.5671 16.9527 66.084 21.8082 68.7053 27.4882C71.2225 32.9429 71.952 39.0205 70.8151 45.0641C69.8278 50.3121 66.1771 55.3222 59.9648 59.9555C59.4979 60.3037 59.3579 60.9629 59.6426 61.4707C59.984 62.0797 60.8082 62.256 61.3689 61.8379C65.9271 58.4383 69.2134 54.8068 71.1957 50.9918L73.5203 53.5699C74.2481 54.3771 75.4087 54.6846 76.4417 54.3469C77.3359 54.0547 78.0326 53.3085 78.2621 52.396C82.8418 34.2038 77.5054 22.1205 72.2223 15.1876ZM49.981 40.5888C48.8484 44.9719 46.384 47.7616 45.397 47.7758C45.3965 47.7758 45.396 47.7758 45.3956 47.7758C45.2365 47.7758 45.0243 47.3933 44.8903 46.8643C44.09 43.7062 42.8809 39.9077 41.836 36.7997C45.3159 37.5485 48.0581 38.773 49.8025 40.4133C49.8637 40.4711 49.9221 40.5301 49.981 40.5888ZM40.2875 15.4587C41.7264 17.4071 41.7181 20.3051 41.7178 20.3316V20.3622C41.7182 20.3911 41.7154 23.3016 40.2875 25.2355C39.9367 25.4649 37.927 25.4349 32.6907 22.7907C32.6628 21.3893 32.51 19.9838 32.2309 18.5763C32.2045 18.4432 32.1735 18.3137 32.1451 18.1819C37.7296 15.2837 39.9331 15.228 40.2875 15.4587Z" fill="#252733"/>
<path d="M15.4802 22.3918C16.6082 22.3918 17.5227 21.4774 17.5227 20.3493C17.5227 19.2213 16.6082 18.3068 15.4802 18.3068C14.3521 18.3068 13.4377 19.2213 13.4377 20.3493C13.4377 21.4774 14.3521 22.3918 15.4802 22.3918Z" fill="#252733"/>
</g>
<defs>
<clipPath id="clip0">
<rect width="80" height="80" fill="white"/>
</clipPath>
</defs>
</svg>
