<svg width="80" height="80" viewBox="0 0 80 80" fill="none" xmlns="http://www.w3.org/2000/svg">
<path d="M76.6675 9.99918H50.0001C48.3498 9.99918 46.1133 10.8573 44.7363 11.9744L39.9169 7.15369C39.5897 6.829 39.165 6.66541 38.7376 6.66541C38.3103 6.66541 37.8831 6.829 37.5584 7.15369L30.4882 14.2252C29.8363 14.8758 29.8363 15.9317 30.4882 16.5824L35.3076 21.4018C34.1918 22.7787 33.3324 25.0162 33.3324 26.6654V27.8568C32.6245 26.547 31.7895 25.336 28.8354 25.336C27.6293 25.336 26.0693 25.5374 24.021 26.016C15.8789 27.9179 20.9375 33.4075 19.3773 33.4075C19.3725 33.4075 19.37 33.4075 19.3652 33.4075C18.5058 33.3928 16.1864 32.5481 13.9085 32.5469C12.2582 32.5469 10.6274 32.9912 9.58976 34.5147L3.61315 31.0759C1.99455 33.8897 1.66736 37.0927 2.44861 39.9993H0V44.6135C0 55.9661 6.96787 65.7241 16.9361 69.9992H33.3328C33.3328 71.8326 34.8342 73.3342 36.6676 73.3342H76.6675C78.5009 73.3342 80 71.8328 80 69.9992V13.333C80 11.4995 78.5009 9.99918 76.6675 9.99918ZM12.6635 36.0992C12.8515 35.9991 13.2201 35.8808 13.9087 35.8808C14.9609 35.8808 16.1647 36.1591 17.1314 36.3813C17.9737 36.5753 18.6401 36.7292 19.3116 36.7402C19.3336 36.7414 19.3555 36.7414 19.3775 36.7414C20.5273 36.7414 21.5797 36.2361 22.2633 35.3559C22.6978 34.7981 23.1764 33.8386 22.9908 32.4409C22.9396 32.0576 22.8492 31.7048 22.7638 31.3642C22.6856 31.0553 22.5246 30.4242 22.566 30.1959C22.6344 30.1165 23.0958 29.6551 24.7778 29.262C26.4624 28.8689 27.8272 28.67 28.8355 28.67C29.6363 28.67 29.9709 28.8018 30.0171 28.8371C30.1246 28.9214 30.3712 29.3876 30.5346 29.6953C31.0424 30.6498 31.7773 32.0329 33.3324 33.0656V39.9993H31.6674C31.6674 37.238 29.4287 34.9992 26.6674 34.9992C23.9061 34.9992 21.6674 37.238 21.6674 39.9993H19.1161L12.512 36.198C12.5732 36.1466 12.6268 36.1188 12.6635 36.0992ZM28.3326 39.9991H25C25 39.0799 25.7471 38.3328 26.6676 38.3328C27.5855 38.3328 28.3326 39.0799 28.3326 39.9991ZM5.43457 35.9699L12.434 39.9994H5.95458C5.46145 38.7271 5.27598 37.3428 5.43457 35.9699ZM33.3326 66.664H17.644C13.5229 64.7695 10.0221 61.8154 7.48537 58.0852C5.47614 55.1311 4.16753 51.8108 3.623 48.3342H33.3326V66.664ZM33.3326 44.9991H3.33737C3.33487 44.8723 3.33253 44.7427 3.33253 44.6134V43.334H33.3326V44.9991ZM34.0235 15.4033L35.2028 14.2252C35.8522 14.8758 36.9092 14.8758 37.5586 14.2252C38.2105 13.5745 38.2105 12.5186 37.5586 11.8681L38.7378 10.6901L42.356 14.3095L37.644 19.0227L34.0235 15.4033ZM76.6601 69.9992H71.8262C71.8262 69.0787 71.0815 68.3342 70.1612 68.3342C69.2409 68.3342 68.4937 69.0789 68.4937 69.9992H65.1074C65.1074 69.0787 64.3603 68.3342 63.4399 68.3342C62.5194 68.3342 61.7724 69.0789 61.7724 69.9992H58.3862C58.3862 69.0787 57.6415 68.3342 56.7212 68.3342C55.7984 68.3342 55.0537 69.0789 55.0537 69.9992H51.6674C51.6674 69.0787 50.9204 68.3342 49.9999 68.3342C49.0794 68.3342 48.3324 69.0789 48.3324 69.9992H44.9461C44.9461 69.0787 44.1991 68.3342 43.2786 68.3342C42.3581 68.3342 41.6136 69.0789 41.6136 69.9992H36.6722C36.6697 69.9992 36.6673 69.9943 36.6673 69.9943V26.6656C36.6673 25.7171 37.3753 24.0032 38.0467 23.333L46.6674 14.7136C47.3363 14.0422 49.0502 13.333 49.9999 13.333H76.66C76.6625 13.3342 76.6648 13.3366 76.6673 13.3391V69.9943H76.6675C76.665 69.9943 76.6626 69.9992 76.6601 69.9992Z" fill="#252733"/>
<path d="M50.3102 38H48.5822V29.6H54.7382V31.148H50.3102V32.852H53.7302V34.376H50.3102V38ZM57.8454 38H56.1174V29.6H57.8334L60.2694 33.08L62.7054 29.6H64.4094V38H62.7054V32.252L60.7734 34.952H59.8134L57.8454 32.252V38ZM53.0824 53.168C51.7784 53.168 50.6944 52.76 49.8304 51.944C48.9664 51.112 48.5344 50.064 48.5344 48.8C48.5344 47.52 48.9624 46.472 49.8184 45.656C50.6824 44.84 51.7704 44.432 53.0824 44.432C53.8984 44.432 54.6384 44.608 55.3024 44.96V46.7C54.6544 46.268 53.9184 46.052 53.0944 46.052C52.3024 46.052 51.6344 46.312 51.0904 46.832C50.5624 47.344 50.2984 48 50.2984 48.8C50.2984 49.6 50.5704 50.26 51.1144 50.78C51.6504 51.292 52.3344 51.548 53.1664 51.548C54.0864 51.548 54.8544 51.304 55.4704 50.816V52.556C54.7904 52.964 53.9944 53.168 53.0824 53.168ZM61.0143 53.168C59.7343 53.168 58.6703 52.76 57.8223 51.944C56.9663 51.112 56.5383 50.064 56.5383 48.8C56.5383 47.52 56.9663 46.472 57.8223 45.656C58.6703 44.84 59.7543 44.432 61.0743 44.432C62.0423 44.432 62.8823 44.644 63.5943 45.068V46.772C62.8183 46.292 62.0183 46.052 61.1943 46.052C60.3383 46.052 59.6423 46.308 59.1063 46.82C58.5703 47.324 58.3023 47.996 58.3023 48.836C58.3023 49.668 58.5623 50.332 59.0823 50.828C59.6023 51.324 60.2463 51.572 61.0143 51.572C61.7503 51.572 62.3143 51.388 62.7063 51.02V48.128H64.4343V51.836C64.0743 52.22 63.5943 52.536 62.9943 52.784C62.3703 53.04 61.7103 53.168 61.0143 53.168Z" fill="#252733"/>
</svg>
