<svg width="80" height="80" viewBox="0 0 80 80" fill="none" xmlns="http://www.w3.org/2000/svg">
<g clip-path="url(#clip0)">
<path d="M74.3348 35.7658V32.4731H75.9039C76.7667 32.4731 77.4664 31.7736 77.4664 30.9106C77.4664 30.0476 76.7667 29.3481 75.9039 29.3481H69.6366C68.7738 29.3481 68.0741 30.0476 68.0741 30.9106C68.0741 31.7736 68.7738 32.4731 69.6366 32.4731H71.2098V35.5936H64.0145V24.9973C64.0145 24.4769 63.7555 23.9906 63.3234 23.7003C59.9158 21.4109 55.0841 19.1747 50.0667 17.5647C46.3702 16.3784 42.6158 15.5364 38.9536 15.059V12.9583C38.9536 9.12919 35.8384 6.01404 32.0095 6.01404C28.1781 6.01404 25.0609 9.12919 25.0609 12.9583V15.0598C21.3995 15.5372 17.6458 16.3792 13.95 17.5648C8.93109 19.1751 4.09828 21.4114 0.691094 23.7006C0.259062 23.9908 0 24.4769 0 24.9973V55.9989C0 56.5194 0.259062 57.0056 0.691094 57.2959C1.87094 58.0886 3.22438 58.874 4.69453 59.6301C1.49859 63.3633 1.49703 66.3208 1.49703 72.4233C1.49703 73.2862 2.19672 73.9858 3.05953 73.9858H21.0958C21.9586 73.9858 22.6583 73.2862 22.6583 72.4233C22.6583 69.8495 23.0084 67.6979 23.7489 65.75C26.5327 66.1769 29.2733 66.3983 31.9039 66.3983H32.1087C34.7414 66.3983 37.4825 66.177 40.2659 65.7498C41.0064 67.6979 41.3566 69.8495 41.3566 72.4233C41.3566 73.2862 42.0563 73.9858 42.9191 73.9858H60.9553C61.8181 73.9858 62.5178 73.2862 62.5178 72.4233C62.5178 66.3212 62.5164 63.3637 59.3211 59.6309C60.7914 58.8747 62.1438 58.0887 63.3239 57.2959C63.7559 57.0058 64.015 56.5194 64.015 55.9989V45.4026H70.1961V49.7933C70.1961 50.6562 70.8958 51.3558 71.7586 51.3558H78.4375C79.3003 51.3558 80 50.6562 80 49.7933V42.8258C80 39.3748 77.5713 36.4825 74.3348 35.7658ZM47.7636 20.1309C49.0717 20.5175 50.3414 20.9383 51.5617 21.3848V59.6114C50.3092 60.0695 49.0427 60.4872 47.7636 60.8651V20.1309ZM28.1861 12.9583C28.1861 10.8523 29.9014 9.13904 32.0097 9.13904C34.1156 9.13904 35.8288 10.8523 35.8288 12.9583V14.7404C33.2841 14.5531 30.7306 14.5533 28.1861 14.7408V12.9583ZM19.3761 19.2939C22.5994 18.5192 25.8888 17.9958 29.1995 17.8031C32.5277 17.6095 35.8673 17.7723 39.1667 18.2429C41.0061 18.5054 42.8322 18.8594 44.6386 19.2934V27.2708C40.3317 26.7622 36.1208 26.5044 32.098 26.5044C32.0398 26.5044 31.9825 26.5044 31.9241 26.5044C27.8962 26.5044 23.6833 26.7623 19.3761 27.2708V19.2939ZM19.3761 42.0628H24.998C25.8608 42.0628 26.5605 41.3633 26.5605 40.5003C26.5605 39.6373 25.8608 38.9378 24.998 38.9378H19.3761V30.4203C23.6894 29.8972 27.9045 29.6295 31.9267 29.6295H32.0109C36.0581 29.6295 40.2964 29.8942 44.6384 30.4204V38.9378H39.0298C38.167 38.9378 37.4673 39.6373 37.4673 40.5003C37.4673 41.3633 38.167 42.0628 39.0298 42.0628H44.6384V50.5772C40.3547 51.0997 36.1416 51.3669 32.0922 51.3669C32.0367 51.3669 31.9809 51.3669 31.9255 51.3669C27.9056 51.3669 23.6897 51.0994 19.3761 50.5761V42.0628ZM12.4531 21.385C13.6969 20.9298 14.992 20.5014 16.3269 20.1087L16.2522 60.8653C14.9436 60.4787 13.6737 60.0579 12.4531 59.6112V21.385ZM3.125 25.8439C4.85031 24.752 6.95609 23.6515 9.32812 22.6278V28.9087C7.08656 29.3812 4.96672 29.9078 3.125 30.4486V25.8439ZM3.125 33.714C4.90609 33.1564 7.03531 32.604 9.32812 32.1047V38.9378H3.125V33.714ZM3.125 42.0628H9.32812V48.8919C7.02078 48.3898 4.89156 47.8379 3.125 47.2836V42.0628ZM3.125 55.1523V50.5492C4.95547 51.087 7.075 51.6129 9.32812 52.0875V58.3683C8.88969 58.179 8.45953 57.9875 8.04016 57.7936C7.98063 57.7608 7.91906 57.7328 7.85656 57.7083C6.08063 56.8787 4.48469 56.0128 3.125 55.1523ZM19.5737 70.8608H4.62422C4.64594 65.842 4.89188 63.9284 7.63297 61.0325C9.63672 61.9186 11.7756 62.7339 13.95 63.4315C16.1658 64.1425 18.4023 64.729 20.627 65.1889C20.0305 66.9222 19.6856 68.7783 19.5737 70.8608ZM32.1022 63.2733C32.0383 63.2733 31.9741 63.2733 31.9102 63.2733C27.6791 63.2733 23.4011 62.6698 19.3761 61.7025V53.7254C23.6839 54.234 27.8966 54.492 31.9227 54.492H32.0952C36.1483 54.492 40.3597 54.2345 44.6384 53.727V61.7026C40.6134 62.6698 36.3348 63.2733 32.1022 63.2733ZM59.3905 70.8608H44.4408C44.3289 68.7778 43.9841 66.9215 43.3872 65.188C44.743 64.9076 46.103 64.5808 47.46 64.2067C48.5195 63.9167 49.5727 63.5984 50.6153 63.2526C51.6592 62.9065 52.7214 62.5619 53.7342 62.1314C54.6366 61.7808 55.5216 61.4133 56.3819 61.0328C59.1228 63.9284 59.3688 65.8422 59.3905 70.8608ZM60.8895 55.1525C59.5278 56.0144 57.9283 56.8812 56.1488 57.7117C56.0905 57.735 56.0331 57.7612 55.9775 57.7917C55.5567 57.9862 55.1262 58.1787 54.6866 58.3684V52.0906C56.9433 51.6133 59.0625 51.0862 60.8895 50.5492V55.1525ZM60.8895 47.2836C59.1272 47.8367 56.9981 48.3895 54.6866 48.8944V42.0628H60.8895V47.2836ZM60.8895 38.9378H54.6866V32.1047C56.9794 32.6042 59.1086 33.1565 60.8895 33.714V38.9378ZM60.8895 30.4486C59.048 29.9078 56.9281 29.3812 54.6866 28.9087V22.6279C57.0586 23.6517 59.1642 24.7522 60.8895 25.844V30.4486ZM76.875 48.2308H73.3206V43.8401C73.3206 42.9772 72.6209 42.2776 71.7581 42.2776H64.0145V38.7186H72.7723C75.0347 38.7186 76.875 40.5611 76.875 42.8258V48.2308Z" fill="#252733"/>
<path d="M33.5766 40.5004C33.5766 39.6374 32.8769 38.9379 32.0141 38.9379H32.0097C31.1469 38.9379 30.4496 39.6374 30.4496 40.5004C30.4496 41.3633 31.1513 42.0629 32.0143 42.0629C32.8772 42.0629 33.5766 41.3633 33.5766 40.5004Z" fill="#252733"/>
</g>
<defs>
<clipPath id="clip0">
<rect width="80" height="80" fill="white"/>
</clipPath>
</defs>
</svg>
