<svg width="80" height="80" viewBox="0 0 80 80" fill="none" xmlns="http://www.w3.org/2000/svg">
<g clip-path="url(#clip0)">
<path d="M7.51601 19.5119C7.50631 23.0501 8.91259 26.445 11.4213 28.9399L35.0667 52.5906C37.0488 54.5254 39.724 55.5845 42.4933 55.5306C46.2746 55.455 49.8734 53.8907 52.508 51.1773C57.708 45.9773 58.3413 38.1533 53.9227 33.7346L48.2733 28.0799H48.2667L37.3507 17.1639L30.284 10.0973C27.8034 7.59101 24.4223 6.1826 20.896 6.18659H20.8533C19.8665 6.18638 18.8828 6.29549 17.92 6.51192L16.8 3.13859C16.3611 1.82061 15.3489 0.772328 14.0471 0.287611C12.7453 -0.197106 11.294 -0.066093 10.1 0.643925C9.77295 0.837854 9.47225 1.07313 9.20534 1.34392C8.56274 1.9861 8.12437 2.80394 7.94534 3.69459L7.71067 4.86526C7.55648 5.622 6.96672 6.21438 6.21067 6.37192L5.03067 6.60792C3.76574 6.86681 2.66517 7.63948 1.99201 8.74126C0.901555 10.5469 1.18623 12.8639 2.68134 14.3519C3.18455 14.8558 3.79938 15.234 4.47601 15.4559L7.84934 16.5759C7.63092 17.5394 7.51914 18.524 7.51601 19.5119ZM50.628 49.2919C46.4707 53.4493 40.336 54.0839 36.9573 50.7053C33.5787 47.3266 34.2133 41.1999 38.372 37.0346C40.505 34.8193 43.4232 33.5312 46.4973 33.4479C48.5621 33.3999 50.5598 34.1824 52.0427 35.6199C55.4213 38.9999 54.7867 45.1333 50.628 49.2919ZM41.6 25.1706C40.9783 25.1282 40.3543 25.1331 39.7333 25.1853C36.809 25.4822 34.0467 26.6715 31.8213 28.5919L22.8 19.5493C26.9427 16.1813 32.384 15.9639 35.4667 19.0346L41.6 25.1706ZM20.888 8.85326C23.7049 8.84692 26.4071 9.96915 28.3907 11.9693L30.6573 14.2359C27.1815 14.0861 23.7756 15.2435 21.1107 17.4799C20.5226 17.958 20.1642 18.6626 20.1243 19.4195C20.0845 20.1763 20.3667 20.9147 20.9013 21.4519L29.928 30.4773C30.4308 30.979 31.1123 31.2606 31.8227 31.2599C32.4384 31.262 33.0348 31.0451 33.5053 30.6479C35.3186 29.0724 37.5724 28.0925 39.9613 27.8413C42.3102 27.544 44.6679 28.3219 46.3787 29.9586L47.2533 30.8333C43.2252 30.7411 39.3347 32.301 36.4858 35.1503C33.637 37.9997 32.0778 41.8904 32.1707 45.9186L13.3067 27.0546C10.6949 24.4476 9.61786 20.675 10.4596 17.0821C11.3014 13.4892 13.9421 10.5875 17.44 9.41193H17.484C17.4987 9.41193 17.5147 9.39059 17.5333 9.38393C18.5953 9.03662 19.7054 8.85932 20.8227 8.85859C20.8413 8.85459 20.864 8.85326 20.888 8.85326ZM5.30401 12.9253C5.02563 12.8337 4.77294 12.6774 4.56667 12.4693C3.94205 11.8519 3.81831 10.8884 4.26667 10.1333C4.55058 9.6657 5.01538 9.33652 5.55067 9.22393L6.73734 8.98659C8.5442 8.61619 9.95562 7.2032 10.324 5.39593L10.5587 4.22259C10.6355 3.84645 10.8209 3.50108 11.092 3.22926C11.2003 3.11782 11.3226 3.021 11.456 2.94126C11.9558 2.64113 12.5648 2.58416 13.1116 2.78639C13.6584 2.98861 14.0838 3.42815 14.268 3.98126L15.3907 7.35192C12.4098 8.68365 10.0251 11.0684 8.69334 14.0493L5.30401 12.9253Z" fill="#252733"/>
<path d="M37.4293 45.52C37.0479 45.9013 36.9338 46.4748 37.1401 46.9731C37.3465 47.4714 37.8327 47.7963 38.372 47.7963C38.9113 47.7963 39.3975 47.4714 39.6039 46.9731C39.8102 46.4748 39.6961 45.9013 39.3147 45.52C38.794 44.9995 37.95 44.9995 37.4293 45.52Z" fill="#252733"/>
<path d="M47.8 46.4625C47.4186 46.8438 47.3044 47.4173 47.5108 47.9156C47.7171 48.4139 48.2034 48.7388 48.7427 48.7388C49.282 48.7388 49.7682 48.4139 49.9746 47.9156C50.1809 47.4173 50.0668 46.8438 49.6853 46.4625C49.1647 45.942 48.3207 45.942 47.8 46.4625Z" fill="#252733"/>
<path d="M42.1427 48.3479C41.7613 48.7292 41.6472 49.3027 41.8535 49.801C42.0599 50.2993 42.5461 50.6242 43.0854 50.6242C43.6247 50.6242 44.1109 50.2993 44.3173 49.801C44.5236 49.3027 44.4095 48.7292 44.0281 48.3479C43.5074 47.8274 42.6634 47.8274 42.1427 48.3479Z" fill="#252733"/>
<path d="M42.1426 38.92C41.6218 38.3998 40.7778 38.4001 40.2574 38.9207C39.7369 39.4414 39.7369 40.2853 40.2574 40.806C40.7778 41.3267 41.6218 41.327 42.1426 40.8067C42.393 40.5566 42.5337 40.2172 42.5337 39.8634C42.5337 39.5095 42.393 39.1701 42.1426 38.92Z" fill="#252733"/>
<path d="M47.7999 38.368C48.5363 38.368 49.1333 37.771 49.1333 37.0346C49.1333 36.2982 48.5363 35.7013 47.7999 35.7013C47.0636 35.7013 46.4666 36.2982 46.4666 37.0346C46.4666 37.771 47.0636 38.368 47.7999 38.368Z" fill="#252733"/>
<path d="M49.6854 40.8066C49.304 41.1879 49.1898 41.7615 49.3962 42.2597C49.6025 42.758 50.0887 43.0829 50.628 43.0829C51.1674 43.0829 51.6536 42.758 51.8599 42.2597C52.0663 41.7615 51.9521 41.1879 51.5707 40.8066C51.0501 40.2861 50.206 40.2861 49.6854 40.8066Z" fill="#252733"/>
<path d="M44.028 42.6921C43.5077 43.2129 43.508 44.0569 44.0287 44.5773C44.5494 45.0978 45.3933 45.0978 45.914 44.5773C46.4346 44.0569 46.4349 43.2129 45.9147 42.6921C45.6646 42.4417 45.3252 42.301 44.9713 42.301C44.6175 42.301 44.2781 42.4417 44.028 42.6921Z" fill="#252733"/>
<path d="M13.3333 60C14.0697 60 14.6666 59.4031 14.6666 58.6667C14.6666 57.9303 14.0697 57.3334 13.3333 57.3334C12.5969 57.3334 12 57.9303 12 58.6667C12 59.4031 12.5969 60 13.3333 60Z" fill="#252733"/>
<path d="M14.6666 65.3332C15.403 65.3332 16 64.7362 16 63.9998C16 63.2635 15.403 62.6665 14.6666 62.6665C13.9303 62.6665 13.3333 63.2635 13.3333 63.9998C13.3333 64.7362 13.9303 65.3332 14.6666 65.3332Z" fill="#252733"/>
<path d="M20 57.3333C20.7364 57.3333 21.3333 56.7363 21.3333 56C21.3333 55.2636 20.7364 54.6666 20 54.6666C19.2636 54.6666 18.6667 55.2636 18.6667 56C18.6667 56.7363 19.2636 57.3333 20 57.3333Z" fill="#252733"/>
<path d="M22.6667 66.6667C23.4031 66.6667 24 66.0697 24 65.3333C24 64.597 23.4031 64 22.6667 64C21.9303 64 21.3333 64.597 21.3333 65.3333C21.3333 66.0697 21.9303 66.6667 22.6667 66.6667Z" fill="#252733"/>
<path d="M29.3334 74.6667C30.0698 74.6667 30.6667 74.0697 30.6667 73.3333C30.6667 72.597 30.0698 72 29.3334 72C28.597 72 28.0001 72.597 28.0001 73.3333C28.0001 74.0697 28.597 74.6667 29.3334 74.6667Z" fill="#252733"/>
<path d="M24 71.9999C24.7364 71.9999 25.3334 71.403 25.3334 70.6666C25.3334 69.9302 24.7364 69.3333 24 69.3333C23.2636 69.3333 22.6667 69.9302 22.6667 70.6666C22.6667 71.403 23.2636 71.9999 24 71.9999Z" fill="#252733"/>
<path d="M29.3334 63.9999C30.0698 63.9999 30.6667 63.403 30.6667 62.6666C30.6667 61.9302 30.0698 61.3333 29.3334 61.3333C28.597 61.3333 28.0001 61.9302 28.0001 62.6666C28.0001 63.403 28.597 63.9999 29.3334 63.9999Z" fill="#252733"/>
<path d="M34.6666 71.9999C35.403 71.9999 36 71.403 36 70.6666C36 69.9302 35.403 69.3333 34.6666 69.3333C33.9303 69.3333 33.3333 69.9302 33.3333 70.6666C33.3333 71.403 33.9303 71.9999 34.6666 71.9999Z" fill="#252733"/>
<path d="M29.3334 69.3333C30.0698 69.3333 30.6667 68.7363 30.6667 68C30.6667 67.2636 30.0698 66.6666 29.3334 66.6666C28.597 66.6666 28.0001 67.2636 28.0001 68C28.0001 68.7363 28.597 69.3333 29.3334 69.3333Z" fill="#252733"/>
<path d="M42.6666 67.9998C43.403 67.9998 44 67.4028 44 66.6665C44 65.9301 43.403 65.3331 42.6666 65.3331C41.9303 65.3331 41.3333 65.9301 41.3333 66.6665C41.3333 67.4028 41.9303 67.9998 42.6666 67.9998Z" fill="#252733"/>
<path d="M49.3334 75.9999C50.0698 75.9999 50.6667 75.403 50.6667 74.6666C50.6667 73.9302 50.0698 73.3333 49.3334 73.3333C48.597 73.3333 48.0001 73.9302 48.0001 74.6666C48.0001 75.403 48.597 75.9999 49.3334 75.9999Z" fill="#252733"/>
<path d="M44 73.3332C44.7364 73.3332 45.3333 72.7362 45.3333 71.9998C45.3333 71.2635 44.7364 70.6665 44 70.6665C43.2636 70.6665 42.6667 71.2635 42.6667 71.9998C42.6667 72.7362 43.2636 73.3332 44 73.3332Z" fill="#252733"/>
<path d="M49.3334 65.3332C50.0698 65.3332 50.6667 64.7362 50.6667 63.9998C50.6667 63.2635 50.0698 62.6665 49.3334 62.6665C48.597 62.6665 48.0001 63.2635 48.0001 63.9998C48.0001 64.7362 48.597 65.3332 49.3334 65.3332Z" fill="#252733"/>
<path d="M49.3334 70.6665C50.0698 70.6665 50.6667 70.0696 50.6667 69.3332C50.6667 68.5968 50.0698 67.9999 49.3334 67.9999C48.597 67.9999 48.0001 68.5968 48.0001 69.3332C48.0001 70.0696 48.597 70.6665 49.3334 70.6665Z" fill="#252733"/>
<path d="M65.3334 53.3333C61.1471 53.2546 57.142 55.0383 54.4 58.2026C52.7724 57.6286 51.0592 57.3347 49.3334 57.3333C45.9427 57.2897 42.6441 58.4357 40.0107 60.5719C37.9822 58.3386 35.2705 56.8409 32.3 56.3133C30.252 52.1106 25.416 49.3333 20 49.3333C12.648 49.3333 6.66669 54.4173 6.66669 60.6666C6.66669 66.0066 10.9867 70.5399 17.036 71.6933C19.0867 75.8919 23.92 78.6666 29.3334 78.6666C32.7204 78.7089 36.0156 77.5651 38.648 75.4333C41.3959 78.4091 45.2834 80.0706 49.3334 79.9999C53.5109 80.0706 57.5061 78.2912 60.248 75.1386C61.8821 75.7117 63.6017 76.0029 65.3334 75.9999C72.6854 75.9999 78.6667 70.9159 78.6667 64.6666C78.6667 58.4173 72.6854 53.3333 65.3334 53.3333ZM9.33335 60.6666C9.33335 55.8879 14.1187 51.9999 20 51.9999C23.4399 51.9111 26.7342 53.3883 28.956 56.0159C28.3422 56.0261 27.7297 56.0773 27.1227 56.1693C26.5081 56.2454 25.9001 56.368 25.304 56.5359C23.3461 57.0453 21.5249 57.9809 19.9707 59.2759C19.2022 59.9193 18.5161 60.6551 17.928 61.4666C16.6865 63.1718 16.0121 65.224 16 67.3333C16.0032 67.7975 16.0402 68.261 16.1107 68.7199C12.0854 67.4506 9.33335 64.2946 9.33335 60.6666ZM19.2 69.9999C18.8502 69.1545 18.6712 68.2482 18.6734 67.3333C18.6862 65.7804 19.1861 64.2708 20.1027 63.0173C20.5599 62.3861 21.0938 61.8142 21.692 61.3146C22.9475 60.2709 24.4188 59.5186 26 59.1119C26.4903 58.9733 26.9904 58.8721 27.496 58.8092C28.7216 58.6139 29.9704 58.6139 31.196 58.8092C33.8912 59.136 36.3709 60.4459 38.16 62.4879C37.6978 63.0908 37.3017 63.7417 36.9787 64.4293C36.7276 64.1546 36.3722 63.9987 36 63.9999C35.2636 63.9999 34.6667 64.5969 34.6667 65.3333C34.6667 66.0696 35.2636 66.6666 36 66.6666C36.0759 66.6583 36.1509 66.6431 36.224 66.6213C35.7313 68.8564 36.0573 71.1942 37.1427 73.2093C34.9561 75.0417 32.1861 76.0315 29.3334 75.9999C24.7067 75.9999 20.6334 73.5999 19.2 69.9999ZM49.3334 77.3333C45.6223 77.4542 42.0942 75.7214 39.9214 72.7106C39.1102 71.5174 38.6734 70.1094 38.6667 68.6666C38.6827 66.7133 39.4594 64.8431 40.832 63.4533C43.0765 61.1913 46.1473 59.9439 49.3334 59.9999C50.5523 60.0011 51.7647 60.1775 52.9334 60.5239C52.3227 61.8198 52.0041 63.234 52 64.6666C52.018 66.8854 52.7679 69.0362 54.1334 70.7853C53.5877 71.0138 53.2578 71.5746 53.3232 72.1625C53.3887 72.7505 53.8337 73.2251 54.4163 73.3281C54.9989 73.4311 55.5796 73.1378 55.8427 72.6079C56.4313 73.1168 57.064 73.5724 57.7334 73.9693C55.5002 76.1754 52.472 77.3881 49.3334 77.3333ZM65.3334 73.3333C59.452 73.3333 54.6667 69.4453 54.6667 64.6666C54.6667 59.8879 59.452 55.9999 65.3334 55.9999C71.2147 55.9999 76 59.8879 76 64.6666C76 69.4453 71.2147 73.3333 65.3334 73.3333Z" fill="#252733"/>
<path d="M58.6667 63.9999C59.4031 63.9999 60 63.403 60 62.6666C60 61.9302 59.4031 61.3333 58.6667 61.3333C57.9303 61.3333 57.3334 61.9302 57.3334 62.6666C57.3334 63.403 57.9303 63.9999 58.6667 63.9999Z" fill="#252733"/>
<path d="M65.3334 71.9999C66.0698 71.9999 66.6667 71.403 66.6667 70.6666C66.6667 69.9302 66.0698 69.3333 65.3334 69.3333C64.597 69.3333 64.0001 69.9302 64.0001 70.6666C64.0001 71.403 64.597 71.9999 65.3334 71.9999Z" fill="#252733"/>
<path d="M60 69.3333C60.7364 69.3333 61.3333 68.7363 61.3333 68C61.3333 67.2636 60.7364 66.6666 60 66.6666C59.2636 66.6666 58.6667 67.2636 58.6667 68C58.6667 68.7363 59.2636 69.3333 60 69.3333Z" fill="#252733"/>
<path d="M65.3334 61.3333C66.0698 61.3333 66.6667 60.7363 66.6667 60C66.6667 59.2636 66.0698 58.6666 65.3334 58.6666C64.597 58.6666 64.0001 59.2636 64.0001 60C64.0001 60.7363 64.597 61.3333 65.3334 61.3333Z" fill="#252733"/>
<path d="M72 63.9999C72.7363 63.9999 73.3333 63.403 73.3333 62.6666C73.3333 61.9302 72.7363 61.3333 72 61.3333C71.2636 61.3333 70.6666 61.9302 70.6666 62.6666C70.6666 63.403 71.2636 63.9999 72 63.9999Z" fill="#252733"/>
<path d="M70.6666 69.3333C71.403 69.3333 72 68.7363 72 68C72 67.2636 71.403 66.6666 70.6666 66.6666C69.9303 66.6666 69.3333 67.2636 69.3333 68C69.3333 68.7363 69.9303 69.3333 70.6666 69.3333Z" fill="#252733"/>
<path d="M65.3334 66.6667C66.0698 66.6667 66.6667 66.0697 66.6667 65.3333C66.6667 64.597 66.0698 64 65.3334 64C64.597 64 64.0001 64.597 64.0001 65.3333C64.0001 66.0697 64.597 66.6667 65.3334 66.6667Z" fill="#252733"/>
</g>
<defs>
<clipPath id="clip0">
<rect width="80" height="80" fill="white"/>
</clipPath>
</defs>
</svg>
