<svg width="80" height="80" viewBox="0 0 80 80" fill="none" xmlns="http://www.w3.org/2000/svg">
<path d="M46.25 10H43.75V12.5H46.25C53.1425 12.5 58.75 18.1075 58.75 25H61.25C61.25 16.7287 54.5212 10 46.25 10Z" fill="black"/>
<path d="M78.75 15V13.75H75C70.9238 13.75 67.3575 15.9375 65.3838 19.1925C62.8887 10.9887 55.2575 5 46.25 5H13.75C6.74125 5 1.25 13.785 1.25 25C1.25 36.215 6.74125 45 13.75 45H21.56C21.5075 45.0525 21.4525 45.0975 21.4 45.15C13.6925 52.8575 11.4325 62.6725 16.255 67.4937L21.255 72.4938C22.9675 74.2062 25.3075 75.025 27.9613 75.025C32.78 75.025 38.6287 72.32 43.6 67.35C44.0825 66.8675 44.545 66.365 44.9963 65.8525C45.4425 66.3587 45.91 66.8588 46.4012 67.3488C51.3725 72.32 57.22 75.025 62.04 75.025C64.6925 75.025 67.0338 74.205 68.7463 72.4938L73.7463 67.4937C78.5687 62.6712 76.3088 52.8575 68.6012 45.15C65.975 42.5238 63.1062 40.5487 60.2725 39.2512C62.6862 36.8825 64.4137 33.9737 65.3737 30.7875C67.3425 34.0537 70.915 36.25 75 36.25H78.75V35C78.75 30.6462 76.2588 26.8687 72.63 25C76.2588 23.1313 78.75 19.3538 78.75 15ZM3.75 25C3.75 15.5138 8.33 7.5 13.75 7.5C19.17 7.5 23.75 15.5138 23.75 25C23.75 34.4862 19.17 42.5 13.75 42.5C8.33 42.5 3.75 34.4862 3.75 25ZM23.1675 46.9175C26.445 43.64 30.2712 41.33 33.94 40.4125C37.3862 39.5525 40.2388 40.035 41.9762 41.7738C42.3988 42.1962 42.7212 42.71 42.9963 43.2637L41.255 45.005C38.44 47.82 38.055 52.3387 39.7412 57.145C38.8737 58.3413 37.9113 59.5013 36.8312 60.5825C30.3388 67.0737 21.725 69.43 18.0225 65.7275C14.32 62.0238 16.6763 53.41 23.1675 46.9175ZM41.8325 65.5825C35.34 72.0737 26.7262 74.43 23.0238 70.7275L22.2962 70C22.5175 70.0113 22.7363 70.0263 22.9625 70.0263C27.7813 70.0263 33.63 67.3213 38.6012 62.35C39.4137 61.5375 40.1575 60.6787 40.8625 59.8C41.5475 61.165 42.4038 62.53 43.4013 63.8688C42.8988 64.4563 42.3812 65.0337 41.8325 65.5825ZM66.9775 70.7262C65.2375 72.4638 62.3862 72.9475 58.9412 72.0875C55.2712 71.17 51.4463 68.8587 48.1688 65.5825C41.6775 59.0913 39.3212 50.4775 43.0238 46.7738L43.755 46.0425C43.4875 50.9837 46.1962 57.145 51.4012 62.35C56.3725 67.3213 62.22 70.0263 67.04 70.0263C67.265 70.0263 67.485 70.0125 67.705 70L66.9775 70.7262ZM71.9775 65.7262C70.2375 67.465 67.3875 67.9462 63.9412 67.0875C60.2712 66.17 56.4463 63.8587 53.1688 60.5825C46.6775 54.0913 44.3212 45.4775 48.0238 41.7738C51.7275 38.0712 60.3413 40.4263 66.8325 46.9188C73.3237 53.41 75.68 62.0225 71.9775 65.7262ZM57.655 38.24C53.1287 36.845 48.9263 37.335 46.255 40.005L45 41.2612L43.745 40.0063C39.53 35.7913 31.5025 36.9875 24.4012 42.5H19.88C23.7075 39.1188 26.25 32.625 26.25 25C26.25 17.375 23.7075 10.8812 19.88 7.5H46.25C55.9 7.5 63.75 15.35 63.75 25C63.75 30.13 61.525 34.9075 57.655 38.24ZM76.1613 33.75H75C70.5987 33.75 66.9475 30.485 66.3387 26.25H67.5C71.9013 26.25 75.5525 29.515 76.1613 33.75ZM67.5 23.75H66.3387C66.9475 19.515 70.5987 16.25 75 16.25H76.1613C75.5525 20.485 71.9013 23.75 67.5 23.75Z" fill="black"/>
<path d="M38.75 10H41.25V12.5H38.75V10Z" fill="black"/>
<path d="M33.75 10H36.25V12.5H33.75V10Z" fill="black"/>
<path d="M12.5 32.5C10.4325 32.5 8.75 34.1825 8.75 36.25H11.25C11.25 35.5612 11.8112 35 12.5 35C13.1887 35 13.75 35.5612 13.75 36.25C13.75 36.9387 13.1887 37.5 12.5 37.5V40C14.5675 40 16.25 38.3175 16.25 36.25C16.25 34.1825 14.5675 32.5 12.5 32.5Z" fill="black"/>
<path d="M10 21.25C12.0675 21.25 13.75 19.5675 13.75 17.5C13.75 15.4325 12.0675 13.75 10 13.75V16.25C10.6887 16.25 11.25 16.8112 11.25 17.5C11.25 18.1887 10.6887 18.75 10 18.75C9.31125 18.75 8.75 18.1887 8.75 17.5H6.25C6.25 19.5675 7.9325 21.25 10 21.25Z" fill="black"/>
<path d="M18.75 27.5C20.8175 27.5 22.5 25.8175 22.5 23.75H20C20 24.4387 19.4387 25 18.75 25C18.0612 25 17.5 24.4387 17.5 23.75C17.5 23.0612 18.0612 22.5 18.75 22.5V20C16.6825 20 15 21.6825 15 23.75C15 25.8175 16.6825 27.5 18.75 27.5Z" fill="black"/>
<path d="M5.36292 27.1315L7.13068 25.3637L9.6303 27.8633L7.86254 29.6311L5.36292 27.1315Z" fill="black"/>
<path d="M15.1234 14.4445L16.3728 11.9457L18.6078 13.0632L17.3584 15.562L15.1234 14.4445Z" fill="black"/>
<path d="M16.9244 32.3698L18.0419 30.1348L20.5406 31.3841L19.4231 33.6191L16.9244 32.3698Z" fill="black"/>
<path d="M22.5 58.75C23.1887 58.75 23.75 59.3112 23.75 60H26.25C26.25 57.9325 24.5675 56.25 22.5 56.25C20.4325 56.25 18.75 57.9325 18.75 60C18.75 62.0675 20.4325 63.75 22.5 63.75V61.25C21.8112 61.25 21.25 60.6887 21.25 60C21.25 59.3112 21.8112 58.75 22.5 58.75Z" fill="black"/>
<path d="M33.75 52.5C35.8175 52.5 37.5 50.8175 37.5 48.75C37.5 46.6825 35.8175 45 33.75 45V47.5C34.4387 47.5 35 48.0612 35 48.75C35 49.4387 34.4387 50 33.75 50C33.0612 50 32.5 49.4387 32.5 48.75H30C30 50.8175 31.6825 52.5 33.75 52.5Z" fill="black"/>
<path d="M21.6092 50.8815L23.377 49.1137L25.8766 51.6133L24.1088 53.3811L21.6092 50.8815Z" fill="black"/>
<path d="M28.1606 58.6183L29.2781 56.3833L31.7769 57.6327L30.6594 59.8677L28.1606 58.6183Z" fill="black"/>
<path d="M26.3572 46.943L27.6065 44.4443L29.8415 45.5618L28.5922 48.0605L26.3572 46.943Z" fill="black"/>
<path d="M24.4163 63.861L26.915 62.6116L28.0325 64.8466L25.5338 66.096L24.4163 63.861Z" fill="black"/>
<path d="M67.5 58.75C68.1887 58.75 68.75 59.3112 68.75 60C68.75 60.6887 68.1887 61.25 67.5 61.25V63.75C69.5675 63.75 71.25 62.0675 71.25 60C71.25 57.9325 69.5675 56.25 67.5 56.25C65.4325 56.25 63.75 57.9325 63.75 60H66.25C66.25 59.3112 66.8112 58.75 67.5 58.75Z" fill="black"/>
<path d="M56.25 52.5C58.3175 52.5 60 50.8175 60 48.75H57.5C57.5 49.4387 56.9387 50 56.25 50C55.5612 50 55 49.4387 55 48.75C55 48.0612 55.5612 47.5 56.25 47.5V45C54.1825 45 52.5 46.6825 52.5 48.75C52.5 50.8175 54.1825 52.5 56.25 52.5Z" fill="black"/>
<path d="M64.1042 51.6171L66.6038 49.1174L68.3716 50.8852L65.872 53.3848L64.1042 51.6171Z" fill="black"/>
<path d="M58.1537 57.6195L60.6525 56.3701L61.77 58.6051L59.2712 59.8545L58.1537 57.6195Z" fill="black"/>
<path d="M53.8466 55.5476L56.0816 54.4301L57.3309 56.9288L55.0959 58.0463L53.8466 55.5476Z" fill="black"/>
<path d="M48.1613 45.1234L50.66 43.874L51.7775 46.109L49.2788 47.3584L48.1613 45.1234Z" fill="black"/>
<path d="M60.0966 45.5525L62.3316 44.435L63.5809 46.9337L61.3459 48.0512L60.0966 45.5525Z" fill="black"/>
<path d="M61.9006 64.8807L63.0181 62.6457L65.5169 63.8951L64.3994 66.1301L61.9006 64.8807Z" fill="black"/>
</svg>
