<svg width="80" height="80" viewBox="0 0 80 80" fill="none" xmlns="http://www.w3.org/2000/svg">
<path d="M38.9333 26.1333C39.2001 26.4 39.6 26.6666 40.0001 26.6666C40.4001 26.6666 40.8001 26.3998 41.0668 26.1333L42.9335 23.6C46.1335 19.0667 46.1335 13.0667 42.9335 8.53328L41.3335 6.2475V1.33328C41.3333 0.533281 40.8001 0 40.0001 0C39.2 0 38.6668 0.533281 38.6668 1.33328V6.11422L37.0668 8.4C33.8668 12.9333 33.8668 18.9333 37.0668 23.4667L38.9333 26.1333ZM39.2001 10L40.0001 8.93328L40.8001 10C43.3333 13.4667 43.3333 18.2667 40.8001 21.8667L40.0001 22.9334L39.2001 21.8667C36.6668 18.4 36.6668 13.6 39.2001 10Z" fill="#252733"/>
<path d="M25.3876 23.2533L25.8676 26.1333C26.8009 31.6 31.0676 35.8666 36.5343 36.8L39.7343 37.3333C39.8676 37.3333 39.8676 37.3333 40.001 37.3333C40.1345 37.3333 40.1343 37.3333 40.2677 37.3333L43.4677 36.8C48.9345 35.8667 53.201 31.6 54.1345 26.1333L54.6145 23.2533L58.2677 19.6C58.801 19.0667 58.801 18.2667 58.2677 17.7333C57.7345 17.1998 56.9345 17.2 56.401 17.7333L52.7477 21.3866L49.8677 21.8666C45.3696 22.6345 41.6859 25.6605 40.001 29.7536C38.3163 25.6603 34.6326 22.6345 30.1343 21.8666L27.2543 21.3866L23.601 17.7333C23.0677 17.2 22.2677 17.2 21.7343 17.7333C21.2009 18.2666 21.201 19.0666 21.7343 19.6L25.3876 23.2533ZM41.8676 33.0667C42.5343 28.8 46.0009 25.3334 50.2676 24.6667L51.6009 24.4L51.3342 25.7333C50.6674 30 47.2009 33.4666 42.9342 34.1333L41.6009 34.4L41.8676 33.0667ZM29.7342 24.6667C34.0009 25.3334 37.4674 28.8 38.1342 33.0667L38.4009 34.4L37.0676 34.1333C32.8009 33.4666 29.3343 30 28.6676 25.7333L28.4009 24.4L29.7342 24.6667Z" fill="#252733"/>
<path d="M56.4 32.4001L52.7467 36.0534L49.8667 36.5334C45.3686 37.3013 41.6849 40.3273 40 44.4204C38.3153 40.3273 34.6316 37.3013 30.1333 36.5334L27.2533 36.0534L23.6 32.4001C23.0668 31.8668 22.2668 31.8668 21.7333 32.4001C21.1999 32.9334 21.2 33.7334 21.7333 34.2668L25.3866 37.9201L25.8666 40.8001C26.7999 46.2668 31.0666 50.5333 36.5333 51.4668L39.7333 52.0001C39.8666 52.0001 39.8666 52.0001 40 52.0001C40.1335 52.0001 40.1333 52.0001 40.2668 52.0001L43.4667 51.4668C48.9335 50.5335 53.2 46.2668 54.1335 40.8001L54.6135 37.9201L58.2667 34.2668C58.8 33.7335 58.8 32.9335 58.2667 32.4001C57.7335 31.8666 56.9333 31.8668 56.4 32.4001ZM37.0668 48.8001C32.8 48.1334 29.3335 44.6668 28.6668 40.4001L28.4 39.0668L29.7333 39.3335C34 40.0002 37.4666 43.4668 38.1333 47.7335L38.4 49.0668L37.0668 48.8001ZM51.3333 40.4001C50.6666 44.6668 47.2 48.1334 42.9333 48.8001L41.6 49.0668L41.8667 47.7335C42.5335 43.4668 46 40.0002 50.2667 39.3335L51.6 39.0668L51.3333 40.4001Z" fill="#252733"/>
<path d="M56.4 47.0667L52.7467 50.72L49.8667 51.2C45.3686 51.968 41.6849 54.9939 40 59.087C38.3153 54.9939 34.6316 51.968 30.1333 51.2L27.2533 50.72L23.6 47.0667C23.0668 46.5334 22.2668 46.5334 21.7333 47.0667C21.1999 47.6 21.2 48.4 21.7333 48.9334L25.3866 52.5867L25.8666 55.4667C26.6966 60.3281 30.1638 64.2384 34.7658 65.7016C34.7025 66.0102 34.6666 66.3295 34.6666 66.6667C34.6666 69.14 36.373 71.2342 38.6666 71.8302V78.6667C38.6666 79.4667 39.1999 80 39.9999 80C40.7999 80 41.3332 79.4667 41.3332 78.6667V71.8295C43.6267 71.2308 45.3331 69.1191 45.3331 66.5333C45.3331 66.2664 45.3011 65.9841 45.2467 65.6973C49.8424 64.2311 53.3039 60.3236 54.1331 55.4666L54.6131 52.5866L58.2664 48.9333C58.7997 48.4 58.7997 47.6 58.2664 47.0666C57.7331 46.5331 56.9333 46.5333 56.4 47.0667ZM28.6668 55.0667L28.4 53.7334L29.7333 54.0002C34 54.6669 37.4666 58.1334 38.1333 62.4002L38.3949 63.7083L37.0666 63.4667C32.8 62.8 29.3333 59.3333 28.6668 55.0667ZM42.6667 66.6667C42.6667 68.1334 41.4667 69.3334 40 69.3334C38.5333 69.3334 37.3333 68.1334 37.3333 66.6667C37.3333 66.5334 37.3333 66.4 37.3333 66.2667L39.7333 66.6667C39.8 66.6667 39.8333 66.6667 39.8666 66.6667C39.8999 66.6667 39.9333 66.6667 39.9999 66.6667C40.1332 66.6667 40.1332 66.6667 40.2666 66.6667L42.6666 66.2667C42.6667 66.4 42.6667 66.5333 42.6667 66.6667ZM51.3333 55.0667C50.7066 59.0781 47.6046 62.3817 43.6899 63.3167C43.5241 63.2905 43.3563 63.2942 43.2 63.3333C43.1436 63.3897 43.1113 63.4213 43.0825 63.4402C43.0327 63.4488 42.9835 63.4589 42.9335 63.4667L41.6052 63.7083L41.8667 62.4002C42.5335 58.1334 46 54.6669 50.2667 54.0002L51.6 53.7334L51.3333 55.0667Z" fill="#252733"/>
</svg>
