<svg width="80" height="80" viewBox="0 0 80 80" fill="none" xmlns="http://www.w3.org/2000/svg">
<path d="M3.9375 22.4806L7.79563 22.9212C7.91759 23.3698 8.08731 23.8039 8.30188 24.2162C8.78263 25.1064 9.44127 25.8883 10.2369 26.5133C11.0325 27.1383 11.9481 27.5931 12.9269 27.8493C21.7484 30.2651 30.8537 31.4889 40 31.4881C49.1455 31.4888 58.2499 30.265 67.0706 27.8493C68.0493 27.5931 68.9648 27.1384 69.7604 26.5135C70.556 25.8886 71.2147 25.1069 71.6956 24.2169C71.9102 23.8043 72.0799 23.37 72.2019 22.9212L76.06 22.4806C76.231 22.4612 76.3951 22.4016 76.5388 22.3069C76.6825 22.2121 76.8019 22.0848 76.8871 21.9352C76.9724 21.7856 77.0211 21.6181 77.0294 21.4461C77.0378 21.2742 77.0054 21.1027 76.935 20.9456L75.7562 18.3206L76.0869 15.2656C76.1087 15.0643 76.0742 14.8609 75.9873 14.6781C75.9004 14.4952 75.7644 14.3401 75.5945 14.23C75.4246 14.1198 75.2275 14.059 75.0251 14.0543C74.8227 14.0495 74.623 14.101 74.4481 14.2031L70.2606 16.6487C69.3631 15.858 68.2828 15.3033 67.1171 15.0348C65.9515 14.7662 64.7374 14.7923 63.5844 15.1106C48.1458 19.3378 31.8548 19.3378 16.4163 15.1106C15.2634 14.792 14.0493 14.7657 12.8838 15.0341C11.7182 15.3026 10.6379 15.8573 9.74063 16.6481L5.55313 14.2031C5.37828 14.101 5.17853 14.0495 4.97612 14.0543C4.77372 14.059 4.57661 14.1198 4.40673 14.23C4.23685 14.3401 4.10088 14.4952 4.01395 14.6781C3.92702 14.8609 3.89255 15.0643 3.91438 15.2656L4.245 18.3206L3.0625 20.9456C2.99209 21.1027 2.95973 21.2742 2.96805 21.4461C2.97637 21.6181 3.02513 21.7856 3.11039 21.9352C3.19564 22.0848 3.31497 22.2121 3.45869 22.3069C3.60241 22.4016 3.76645 22.4612 3.9375 22.4806ZM73.6381 18.9487L74.3256 20.4775L72.385 20.6994C72.3378 20.2403 72.2367 19.7885 72.0837 19.3531C71.9617 19.0169 71.812 18.6915 71.6362 18.38L73.6787 17.1881L73.5494 18.3831C73.5289 18.5761 73.56 18.771 73.6394 18.9481L73.6381 18.9487ZM14.4856 17.0412C14.9429 17.0415 15.3982 17.1027 15.8394 17.2231C19.9366 18.3431 24.1069 19.1759 28.32 19.7156V24.1419C28.32 24.4319 28.4352 24.7101 28.6404 24.9152C28.8455 25.1204 29.1237 25.2356 29.4137 25.2356C29.7038 25.2356 29.982 25.1204 30.1871 24.9152C30.3923 24.7101 30.5075 24.4319 30.5075 24.1419V19.9719C33.2992 20.2635 36.0987 20.4237 38.9062 20.4525V25C38.9062 25.2901 39.0215 25.5683 39.2266 25.7734C39.4317 25.9785 39.7099 26.0937 40 26.0937C40.2901 26.0937 40.5683 25.9785 40.7734 25.7734C40.9785 25.5683 41.0938 25.2901 41.0938 25V20.4525C43.8979 20.4191 46.6975 20.2589 49.4925 19.9719V24.1419C49.4925 24.4319 49.6077 24.7101 49.8128 24.9152C50.018 25.1204 50.2962 25.2356 50.5862 25.2356C50.8763 25.2356 51.1545 25.1204 51.3596 24.9152C51.5648 24.7101 51.68 24.4319 51.68 24.1419V19.7156C55.8927 19.1761 60.0626 18.3434 64.1594 17.2237C65.3176 16.8799 66.5627 16.9831 67.6484 17.513C68.7342 18.043 69.5816 18.961 70.0231 20.0856C70.198 20.5953 70.2647 21.1359 70.2191 21.6729C70.1734 22.2098 70.0164 22.7314 69.7581 23.2044C69.4168 23.828 68.951 24.3748 68.3896 24.8109C67.8281 25.247 67.1831 25.563 66.4944 25.7394C49.1506 30.4882 30.8493 30.4882 13.5056 25.7394C12.8169 25.5629 12.1718 25.2468 11.6103 24.8106C11.0489 24.3744 10.5831 23.8275 10.2419 23.2037C9.98335 22.7308 9.82632 22.2092 9.78079 21.6722C9.73527 21.1352 9.80227 20.5946 9.9775 20.085C10.324 19.1751 10.943 18.3945 11.7499 17.8497C12.5568 17.3049 13.5122 17.0225 14.4856 17.0412ZM6.32063 17.1875L8.36313 18.3794C8.18766 18.6909 8.03819 19.0164 7.91625 19.3525C7.76301 19.7878 7.66168 20.2397 7.61438 20.6987L5.67313 20.4769L6.36063 18.9481C6.44021 18.7706 6.47127 18.5752 6.45063 18.3819L6.32063 17.1875Z" fill="#252733"/>
<path d="M3.9375 39.7056L7.795 40.1462C7.91695 40.5958 8.08689 41.031 8.30188 41.4443C8.78263 42.3346 9.44127 43.1164 10.2369 43.7414C11.0325 44.3664 11.9481 44.8212 12.9269 45.0775C21.7484 47.4932 30.8537 48.717 40 48.7162C49.1457 48.7168 58.2503 47.493 67.0713 45.0775C68.05 44.8211 68.9656 44.3664 69.7612 43.7414C70.5568 43.1164 71.2155 42.3345 71.6963 41.4443C71.9112 41.031 72.0812 40.5958 72.2031 40.1462L76.0606 39.7056C76.2317 39.6861 76.3957 39.6266 76.5394 39.5318C76.6832 39.4371 76.8025 39.3097 76.8877 39.1602C76.973 39.0106 77.0218 38.8431 77.0301 38.6711C77.0384 38.4992 77.006 38.3277 76.9356 38.1706L75.7569 35.5456L76.0875 32.4906C76.1093 32.2893 76.0749 32.0859 75.9879 31.9031C75.901 31.7202 75.765 31.5651 75.5951 31.4549C75.4253 31.3448 75.2281 31.284 75.0257 31.2792C74.8233 31.2745 74.6236 31.326 74.4487 31.4281L70.2575 33.875C69.3601 33.0847 68.28 32.5304 67.1147 32.2622C65.9494 31.994 64.7357 32.0203 63.5831 32.3387C48.1445 36.5655 31.8536 36.5655 16.415 32.3387C15.2628 32.0209 14.0496 31.9949 12.8848 32.2631C11.72 32.5313 10.6403 33.0852 9.74313 33.875L5.55125 31.4306C5.3764 31.3285 5.17665 31.277 4.97425 31.2817C4.77185 31.2865 4.57473 31.3473 4.40486 31.4574C4.23498 31.5676 4.09901 31.7227 4.01208 31.9056C3.92515 32.0884 3.89068 32.2918 3.9125 32.4931L4.24313 35.5481L3.0625 38.1706C2.99209 38.3277 2.95973 38.4992 2.96805 38.6711C2.97637 38.8431 3.02513 39.0106 3.11039 39.1602C3.19564 39.3097 3.31497 39.4371 3.45869 39.5318C3.60241 39.6266 3.76645 39.6861 3.9375 39.7056ZM73.6381 36.1737L74.3256 37.7025L72.3844 37.9243C72.337 37.4664 72.2359 37.0156 72.0831 36.5812C71.9608 36.2441 71.8107 35.9178 71.6344 35.6056L73.6775 34.4125L73.5481 35.6075C73.528 35.8007 73.5595 35.9959 73.6394 36.1731L73.6381 36.1737ZM14.4856 34.2693C14.9429 34.2696 15.3982 34.3308 15.8394 34.4512C19.9366 35.5712 24.1069 36.404 28.32 36.9437V41.37C28.32 41.66 28.4352 41.9382 28.6404 42.1434C28.8455 42.3485 29.1237 42.4637 29.4138 42.4637C29.7038 42.4637 29.982 42.3485 30.1872 42.1434C30.3923 41.9382 30.5075 41.66 30.5075 41.37V37.1993C33.2992 37.491 36.0988 37.6512 38.9063 37.68V42.2256C38.9063 42.5157 39.0215 42.7939 39.2266 42.999C39.4317 43.2041 39.7099 43.3193 40 43.3193C40.2901 43.3193 40.5683 43.2041 40.7734 42.999C40.9785 42.7939 41.0938 42.5157 41.0938 42.2256V37.68C43.8979 37.6466 46.6975 37.4864 49.4925 37.1993V41.3693C49.4925 41.513 49.5208 41.6552 49.5758 41.7879C49.6307 41.9206 49.7113 42.0412 49.8129 42.1427C49.9144 42.2443 50.035 42.3249 50.1677 42.3798C50.3004 42.4348 50.4426 42.4631 50.5863 42.4631C50.7299 42.4631 50.8721 42.4348 51.0048 42.3798C51.1375 42.3249 51.2581 42.2443 51.3596 42.1427C51.4612 42.0412 51.5418 41.9206 51.5967 41.7879C51.6517 41.6552 51.68 41.513 51.68 41.3693V36.9431C55.8927 36.4035 60.0626 35.5709 64.1594 34.4512C65.3176 34.1072 66.5627 34.2104 67.6485 34.7403C68.7343 35.2702 69.5817 36.1884 70.0231 37.3131C70.198 37.8228 70.2647 38.3634 70.2191 38.9004C70.1735 39.4373 70.0165 39.9589 69.7581 40.4318C69.4169 41.0556 68.9511 41.6025 68.3897 42.0387C67.8282 42.4749 67.1831 42.791 66.4944 42.9675C49.1506 47.7163 30.8494 47.7163 13.5056 42.9675C12.8169 42.791 12.1718 42.4749 11.6103 42.0387C11.0489 41.6025 10.5831 41.0556 10.2419 40.4318C9.98335 39.959 9.82632 39.4373 9.78079 38.9003C9.73527 38.3633 9.80227 37.8227 9.9775 37.3131C10.324 36.4032 10.943 35.6226 11.7499 35.0778C12.5568 34.533 13.5122 34.2506 14.4856 34.2693ZM6.32125 34.4125L8.365 35.6056C8.18895 35.9176 8.03906 36.2438 7.91688 36.5806C7.76386 37.0151 7.66254 37.4661 7.615 37.9243L5.67375 37.7025L6.36125 36.1737C6.44084 35.9962 6.47189 35.8008 6.45125 35.6075L6.32125 34.4125Z" fill="#252733"/>
<path d="M76.9375 55.395L75.7594 52.7781L76.09 49.7237C76.1119 49.5224 76.0774 49.3191 75.9905 49.1362C75.9035 48.9534 75.7676 48.7982 75.5977 48.6881C75.4278 48.578 75.2307 48.5171 75.0283 48.5124C74.8259 48.5076 74.6261 48.5592 74.4513 48.6612L70.2638 51.1062C69.3662 50.3153 68.2858 49.7606 67.12 49.492C65.9543 49.2235 64.74 49.2496 63.5869 49.5681C48.1483 53.7951 31.8574 53.7951 16.4188 49.5681C15.2658 49.2492 14.0515 49.2229 12.8858 49.4914C11.7201 49.76 10.6398 50.315 9.74255 51.1062L5.55505 48.6612C5.38019 48.5592 5.18045 48.5076 4.97804 48.5124C4.77564 48.5171 4.57853 48.578 4.40865 48.6881C4.23877 48.7982 4.1028 48.9534 4.01587 49.1362C3.92894 49.3191 3.89447 49.5224 3.9163 49.7237L4.24692 52.7781L3.06255 55.395C2.99186 55.5521 2.95929 55.7237 2.96749 55.8957C2.97568 56.0678 3.0244 56.2355 3.10969 56.3852C3.19498 56.5349 3.31442 56.6623 3.45828 56.7571C3.60214 56.8519 3.76635 56.9113 3.93755 56.9306L7.79442 57.3712C7.9164 57.8217 8.08655 58.2578 8.30192 58.6719C8.78268 59.5621 9.44132 60.344 10.2369 60.969C11.0326 61.5939 11.9482 62.0487 12.9269 62.305C21.7484 64.7209 30.8537 65.9449 40 65.9444C49.1457 65.945 58.2504 64.7212 67.0713 62.3056C68.0501 62.0494 68.9657 61.5946 69.7613 60.9696C70.5569 60.3446 71.2156 59.5627 71.6963 58.6725C71.9117 58.2582 72.0819 57.8219 72.2038 57.3712L76.06 56.9306C76.2312 56.9113 76.3954 56.8519 76.5393 56.7571C76.6832 56.6623 76.8026 56.5349 76.8879 56.3852C76.9732 56.2355 77.0219 56.0678 77.0301 55.8957C77.0383 55.7237 77.0057 55.5521 76.935 55.395H76.9375ZM6.3238 51.645L8.36567 52.8369C8.19025 53.148 8.04078 53.473 7.9188 53.8087C7.76623 54.2423 7.66512 54.6922 7.61755 55.1494L5.68005 54.9275L6.36755 53.4056C6.44763 53.2281 6.47891 53.0324 6.45817 52.8387L6.3238 51.645ZM66.4975 60.1969C49.1538 64.9457 30.8525 64.9457 13.5088 60.1969C12.8201 60.0204 12.1749 59.7043 11.6135 59.2681C11.052 58.8319 10.5863 58.285 10.245 57.6612C9.98652 57.1883 9.82949 56.6667 9.78396 56.1297C9.73844 55.5927 9.80544 55.0521 9.98067 54.5425C10.3272 53.6326 10.9462 52.852 11.753 52.3072C12.5599 51.7624 13.5154 51.48 14.4888 51.4987C14.9461 51.499 15.4014 51.5602 15.8425 51.6806C19.9398 52.8006 24.1101 53.6334 28.3232 54.1731V58.5994C28.3232 58.8894 28.4384 59.1676 28.6435 59.3728C28.8486 59.5779 29.1268 59.6931 29.4169 59.6931C29.707 59.6931 29.9852 59.5779 30.1903 59.3728C30.3954 59.1676 30.5107 58.8894 30.5107 58.5994V54.4275C33.3023 54.7191 36.1019 54.8794 38.9094 54.9081V59.4537C38.9094 59.7438 39.0247 60.022 39.2298 60.2271C39.4349 60.4322 39.7131 60.5475 40.0032 60.5475C40.2933 60.5475 40.5715 60.4322 40.7766 60.2271C40.9817 60.022 41.0969 59.7438 41.0969 59.4537V54.9081C43.9011 54.8748 46.7007 54.7146 49.4957 54.4275V58.5975C49.4957 58.8876 49.6109 59.1658 49.816 59.3709C50.0211 59.576 50.2993 59.6912 50.5894 59.6912C50.8795 59.6912 51.1577 59.576 51.3628 59.3709C51.5679 59.1658 51.6832 58.8876 51.6832 58.5975V54.1712C55.8958 53.6317 60.0657 52.799 64.1625 51.6794C65.3208 51.3349 66.5661 51.4379 67.652 51.9679C68.7379 52.4979 69.5853 53.4162 70.0263 54.5412C70.2011 55.051 70.2679 55.5915 70.2222 56.1285C70.1766 56.6655 70.0196 57.187 69.7613 57.66C69.4198 58.284 68.9536 58.8311 68.3917 59.2673C67.8298 59.7035 67.1842 60.0195 66.495 60.1956L66.4975 60.1969ZM72.3882 55.15C72.3406 54.6929 72.2395 54.2429 72.0869 53.8094C71.965 53.4734 71.8155 53.1482 71.64 52.8369L73.6819 51.645L73.5525 52.84C73.5318 53.0336 73.5631 53.2293 73.6432 53.4069L74.3307 54.9287L72.3882 55.15Z" fill="#252733"/>
</svg>
