<svg width="80" height="80" viewBox="0 0 80 80" fill="none" xmlns="http://www.w3.org/2000/svg">
<g clip-path="url(#clip0)">
<path d="M30.8184 34.6688C31.5552 34.6688 32.1521 34.0719 32.1521 33.3357C32.1521 32.599 32.7491 32.002 33.4852 32.002C34.222 32.002 34.819 31.405 34.819 30.6683C34.819 29.9321 34.222 29.3352 33.4852 29.3352C31.2762 29.3352 29.4853 31.1261 29.4853 33.3357C29.4853 33.6892 29.6257 34.0285 29.8759 34.2782C30.1256 34.5285 30.465 34.6688 30.8184 34.6688Z" fill="#252733"/>
<path d="M38.8189 38.6694C38.8189 37.9327 39.4165 37.3357 40.1526 37.3357C40.8888 37.3357 41.4863 36.7387 41.4863 36.0026C41.4863 35.2658 40.8888 34.6689 40.1526 34.6689C37.9436 34.6689 36.152 36.4598 36.152 38.6694C36.152 39.4055 36.749 40.0025 37.4858 40.0025C38.2219 40.0025 38.8189 39.4055 38.8189 38.6694Z" fill="#252733"/>
<path d="M46.82 36.0027C47.5561 36.0027 48.1531 35.4057 48.1531 34.669C48.1531 33.9328 48.7501 33.3358 49.4868 33.3358C50.223 33.3358 50.8199 32.7383 50.8199 32.0021C50.8199 31.266 50.223 30.6684 49.4868 30.6684C47.2772 30.6684 45.4863 32.4599 45.4863 34.669C45.4863 35.4057 46.0832 36.0027 46.82 36.0027Z" fill="#252733"/>
<path d="M49.4868 45.3362C47.2772 45.3362 45.4863 47.1271 45.4863 49.3367C45.4863 50.0729 46.0832 50.6699 46.82 50.6699C47.5561 50.6699 48.1531 50.0729 48.1531 49.3367C48.1531 48.6 48.7501 48.003 49.4868 48.003C50.223 48.003 50.8199 47.406 50.8199 46.6699C50.8199 45.9332 50.223 45.3362 49.4868 45.3362Z" fill="#252733"/>
<path d="M46.82 40.0026C46.82 39.2665 46.223 38.6695 45.4863 38.6695C43.2772 38.6695 41.4863 40.4604 41.4863 42.6694C41.4863 43.4062 42.0833 44.0032 42.8194 44.0032C43.5562 44.0032 44.1532 43.4062 44.1532 42.6694C44.1532 41.9333 44.7501 41.3363 45.4863 41.3363C46.223 41.3363 46.82 40.7394 46.82 40.0026Z" fill="#252733"/>
<path d="M34.8189 44.0032C32.6093 44.0032 30.8184 45.7941 30.8184 48.0031C30.8184 48.7399 31.4153 49.3368 32.1521 49.3368C32.8882 49.3368 33.4852 48.7399 33.4852 48.0031C33.4852 47.267 34.0822 46.67 34.8189 46.67C35.5551 46.67 36.152 46.073 36.152 45.3363C36.152 44.6001 35.5551 44.0032 34.8189 44.0032Z" fill="#252733"/>
<path d="M53.4868 37.3357C51.2777 37.3357 49.4868 39.1266 49.4868 41.3362C49.4868 42.0724 50.0838 42.6693 50.8199 42.6693C51.5567 42.6693 52.1536 42.0724 52.1536 41.3362C52.1536 40.5995 52.7506 40.0025 53.4868 40.0025C54.2235 40.0025 54.8205 39.4055 54.8205 38.6694C54.8205 37.9326 54.2235 37.3357 53.4868 37.3357Z" fill="#252733"/>
<path d="M41.4863 48.003C39.2767 48.003 37.4858 49.7945 37.4858 52.0036C37.4858 52.7397 38.0827 53.3373 38.8189 53.3373C39.5556 53.3373 40.1526 52.7397 40.1526 52.0036C40.1526 51.2674 40.7496 50.6699 41.4863 50.6699C42.2225 50.6699 42.8194 50.0729 42.8194 49.3367C42.8194 48.6 42.2225 48.003 41.4863 48.003Z" fill="#252733"/>
<path d="M38.8189 32.002C39.5556 32.002 40.1526 31.405 40.1526 30.6683C40.1526 29.9321 40.7496 29.3352 41.4863 29.3352C42.2225 29.3352 42.8194 28.7382 42.8194 28.0014C42.8194 27.2653 42.2225 26.6683 41.4863 26.6683C39.2767 26.6683 37.4858 28.4592 37.4858 30.6683C37.4858 31.405 38.0827 32.002 38.8189 32.002Z" fill="#252733"/>
<path d="M32.1521 38.6694C32.1521 37.9326 31.5551 37.3357 30.8184 37.3357C28.6093 37.3357 26.8184 39.1266 26.8184 41.3362C26.8184 42.0724 27.4154 42.6693 28.1515 42.6693C28.8883 42.6693 29.4853 42.0724 29.4853 41.3362C29.4853 40.5995 30.0822 40.0025 30.8184 40.0025C31.5551 40.0025 32.1521 39.4055 32.1521 38.6694Z" fill="#252733"/>
<path d="M78.9062 37.8265C77.133 36.8004 75.2401 35.9977 73.2698 35.4355C75.0167 34.3625 76.6215 33.0745 78.0474 31.6022C78.6694 30.957 78.9025 30.0305 78.6602 29.168C78.4173 28.3055 77.7348 27.6365 76.8675 27.4112C75.2139 26.9858 73.5219 26.7318 71.8164 26.6525C72.9499 25.3798 73.951 23.9942 74.8031 22.5189C75.2468 21.7406 75.2438 20.7853 74.7964 20.0095C74.3483 19.2343 73.5225 18.7545 72.627 18.749C70.5767 18.7564 68.5349 19.0109 66.545 19.5065C67.5222 17.6998 68.2688 15.7782 68.7681 13.7859C68.9841 12.9167 68.7223 11.998 68.0814 11.373C67.4404 10.7479 66.5157 10.5093 65.652 10.7473C64.0069 11.2039 62.4144 11.8295 60.8982 12.6139C61.2424 10.9432 61.4158 9.24206 61.4158 7.536C61.4103 6.64054 60.9305 5.81467 60.1547 5.36725C59.3789 4.91921 58.4242 4.91677 57.646 5.35992C55.8703 6.38295 54.2277 7.62084 52.7561 9.04674C52.6999 6.99701 52.3862 4.96194 51.8228 2.99035C51.5749 2.12968 50.8895 1.46435 50.0215 1.24338C49.1529 1.02242 48.233 1.27879 47.6037 1.91727C46.4079 3.13746 45.3415 4.47789 44.421 5.91722C43.8845 4.29416 43.1838 2.72971 42.3298 1.24888C41.8781 0.475501 41.0492 0 40.1531 0C39.2571 0 38.4287 0.475501 37.9764 1.24888C36.9504 3.02209 36.1477 4.91555 35.5855 6.88531C34.5124 5.13835 33.2245 3.53299 31.7516 2.10649C31.107 1.4851 30.1804 1.25254 29.3179 1.49548C28.456 1.73842 27.7876 2.42085 27.5624 3.28761C27.137 4.94119 26.883 6.63383 26.8037 8.33867C25.531 7.20516 24.1454 6.20471 22.6701 5.35199C21.8918 4.90884 20.9365 4.91128 20.1607 5.35931C19.3855 5.80673 18.9057 6.6326 18.9002 7.52806C18.899 9.57717 19.1505 11.6184 19.6498 13.6058C17.8424 12.6298 15.9196 11.8845 13.9267 11.387C13.0575 11.1709 12.1388 11.4328 11.5132 12.0737C10.8881 12.7152 10.6501 13.64 10.8875 14.5031C11.3453 16.1475 11.971 17.74 12.7541 19.2557C11.1079 18.9163 9.43109 18.7435 7.75005 18.7399H7.67802C6.78257 18.7448 5.9567 19.2245 5.50866 20.0004C5.06124 20.7762 5.05819 21.7308 5.50195 22.5091C6.52437 24.2854 7.76287 25.9273 9.18876 27.399C7.13904 27.4552 5.10397 27.7689 3.13238 28.3323C2.2711 28.5801 1.60638 29.2656 1.38541 30.1342C1.16445 31.0022 1.42082 31.9227 2.05868 32.5514C3.27948 33.7472 4.61992 34.8135 6.05924 35.734C4.43863 36.2712 2.87723 36.9719 1.39884 37.8253C0.625465 38.2776 0.149963 39.1059 0.149963 40.0019C0.149963 40.898 0.625465 41.7269 1.39884 42.1786C3.17205 43.2047 5.0649 44.0074 7.03527 44.5696C5.28831 45.6426 3.68357 46.9306 2.25767 48.4035C1.63568 49.0481 1.4025 49.9747 1.64544 50.8372C1.88777 51.6996 2.5702 52.3686 3.43758 52.5945C5.09115 53.0193 6.78318 53.2739 8.48864 53.3532C7.35512 54.6259 6.35407 56.0109 5.50195 57.4868C5.05819 58.2651 5.06124 59.2198 5.50866 59.9956C5.9567 60.7714 6.78257 61.2512 7.67802 61.2561C7.66887 61.2646 7.72441 61.2561 7.74883 61.2561C9.77414 61.2512 11.7915 60.9991 13.7558 60.5059C12.7797 62.3127 12.0338 64.2354 11.537 66.229C11.3209 67.0982 11.5828 68.0162 12.2237 68.6419C12.8646 69.267 13.7893 69.505 14.6531 69.2676C16.2975 68.8098 17.8906 68.1841 19.4069 67.401C19.0626 69.0716 18.8892 70.7728 18.8892 72.4783C18.8892 73.3755 19.3708 74.2033 20.1509 74.647C20.5343 74.8698 20.9701 74.9882 21.4139 74.9894C21.8509 74.9888 22.2806 74.8729 22.6591 74.6531C24.4347 73.6307 26.0773 72.3922 27.549 70.9663C27.6051 73.0166 27.9189 75.0511 28.4823 77.0227C28.724 77.887 29.4125 78.5548 30.2836 78.7697C30.4917 78.8228 30.7054 78.8496 30.9196 78.8496C31.591 78.8496 32.2338 78.578 32.7014 78.0964C33.8971 76.8756 34.9635 75.5351 35.884 74.0958C36.4211 75.7146 37.1213 77.2742 37.9734 78.7513C38.4257 79.5247 39.2546 80.0002 40.1507 80.0002C41.0468 80.0002 41.8751 79.5247 42.3274 78.7513C43.3535 76.9775 44.1561 75.0847 44.7183 73.1149C45.7914 74.8631 47.0799 76.4703 48.5534 77.8974C49.198 78.52 50.1246 78.7532 50.9871 78.5102C51.8496 78.2673 52.5186 77.5849 52.7445 76.7175C53.1693 75.0645 53.4232 73.3719 53.5032 71.6664C54.7759 72.7999 56.1609 73.801 57.6368 74.6531C58.0153 74.8729 58.4444 74.9888 58.882 74.9894C59.3288 74.9901 59.7677 74.8716 60.1541 74.647C60.9342 74.2033 61.4164 73.3749 61.4158 72.477C61.417 70.4279 61.1649 68.3868 60.6662 66.3993C62.47 67.3747 64.3891 68.12 66.3783 68.6181C67.2476 68.8342 68.1662 68.5729 68.7919 67.9314C69.4169 67.2905 69.655 66.3657 69.4175 65.502C68.9597 63.8582 68.3341 62.2657 67.5509 60.7494C69.1978 61.0888 70.8745 61.2616 72.5562 61.2658H72.627C73.5225 61.2603 74.3483 60.7806 74.7964 60.0047C75.2438 59.2289 75.2468 58.2743 74.8031 57.496C73.7807 55.7203 72.5422 54.0784 71.1163 52.6061C73.166 52.5499 75.2011 52.2362 77.1727 51.6728C78.0327 51.4237 78.6962 50.737 78.9153 49.8691C79.1351 49.0011 78.8775 48.0818 78.2396 47.4537C77.0188 46.2585 75.6784 45.1916 74.2391 44.2711C75.8578 43.7339 77.4174 43.0338 78.894 42.1817C79.668 41.7294 80.1435 40.9005 80.1435 40.0044C80.1435 39.1089 79.668 38.28 78.894 37.8277L78.9062 37.8265ZM68.704 34.697C68.4696 34.6823 68.2358 34.6689 67.9959 34.6689C64.6747 34.534 61.392 35.4184 58.5872 37.2026C58.3815 35.839 58.0238 34.5022 57.5208 33.218C57.6124 33.218 57.7125 33.2259 57.8083 33.2314C57.942 33.2314 58.083 33.2436 58.2289 33.246C58.2924 33.246 58.3498 33.2528 58.4151 33.2528C58.5005 33.2528 58.5951 33.2448 58.6818 33.2436C58.8033 33.2436 58.926 33.2436 59.0529 33.2314C59.2196 33.2235 59.3911 33.2088 59.5663 33.1942C59.6993 33.1819 59.833 33.1703 59.9661 33.1539C60.1474 33.1325 60.3342 33.1032 60.5222 33.0739C60.6674 33.0501 60.8103 33.0287 60.9592 33.0007C61.1539 32.9646 61.3596 32.917 61.5598 32.8676C61.7131 32.8316 61.8638 32.7992 62.0225 32.7583C62.2356 32.7022 62.4584 32.6326 62.6799 32.5661C62.8368 32.5178 62.9906 32.4751 63.1506 32.4208C63.3917 32.3396 63.6413 32.2419 63.8891 32.154C64.0423 32.0954 64.1907 32.0435 64.3451 31.9795C64.6387 31.858 64.9408 31.7127 65.2436 31.579C65.3639 31.5235 65.4786 31.4765 65.6001 31.4167C66.0304 31.203 66.4717 30.9699 66.9228 30.7086L66.9558 30.6872C67.3373 30.4675 67.7176 30.2166 68.1015 29.9474C68.3371 29.7857 68.563 29.6203 68.787 29.4512C68.8108 29.4323 68.8334 29.4176 68.859 29.3993C71.2329 29.171 73.6281 29.3517 75.9409 29.9328C73.8985 32.0216 71.4306 33.6465 68.704 34.697ZM40.1525 56.0042C31.3151 56.0042 24.1515 48.8399 24.1515 40.0026C24.1515 31.1652 31.3151 24.0015 40.1525 24.0015C48.9899 24.0015 56.1535 31.1652 56.1535 40.0026C56.1444 48.8363 48.9856 55.9944 40.1525 56.0042ZM67.5344 27.048C67.2122 27.3056 66.9094 27.5296 66.6133 27.7378C66.2868 27.9618 65.9572 28.1846 65.605 28.3873C65.0721 28.6979 64.549 28.9671 64.0503 29.2003C63.7835 29.326 63.5314 29.4164 63.2732 29.5232C63.0541 29.6123 62.8252 29.7204 62.614 29.79C62.2343 29.923 61.8766 30.0311 61.5251 30.1287C61.453 30.1483 61.3731 30.1794 61.3023 30.1977C60.9024 30.3021 60.5234 30.3778 60.1633 30.4382L60.1169 30.4474C59.7555 30.5047 59.4167 30.5407 59.0981 30.5633H59.0621C58.7435 30.5835 58.4486 30.5871 58.1727 30.5792H58.1447C57.9005 30.5792 57.6832 30.5523 57.4781 30.531C57.4445 30.531 57.403 30.531 57.3701 30.523C57.2272 30.506 57.1125 30.4834 56.9886 30.462C56.9086 30.4486 56.8152 30.4364 56.7432 30.4217C57.2297 28.9885 58.6818 26.2148 62.9412 23.7549C63.1487 23.6347 63.3624 23.5388 63.5717 23.4308L63.7048 23.3612L63.7194 23.3521C66.4205 22.0684 69.3717 21.3988 72.3615 21.3921C71.1004 23.5486 69.4657 25.4634 67.5344 27.048ZM59.7152 16.4539C61.6575 15.0702 63.822 14.03 66.1159 13.3781C65.3907 16.2116 64.0637 18.8565 62.2252 21.132C62.014 21.2358 61.8064 21.3414 61.5983 21.461C58.655 23.0041 56.2543 25.4091 54.716 28.3549C53.8535 27.2788 52.8751 26.3003 51.7989 25.4378C54.7447 23.8996 57.1497 21.4989 58.6928 18.5555L58.7032 18.5342C58.9205 18.157 59.1262 17.7474 59.3276 17.3195C59.4527 17.0527 59.5699 16.786 59.6823 16.5193L59.7152 16.4539ZM58.7471 7.79603C58.7306 10.2889 58.271 12.7586 57.3896 15.0903V15.0982C57.2394 15.4822 57.0887 15.8277 56.9367 16.1567C56.7658 16.5144 56.5912 16.8715 56.3885 17.2237C53.9097 21.5172 51.1653 22.9571 49.7346 23.4296C49.6442 22.9626 49.5936 22.4896 49.5826 22.0147C49.6033 19.3735 50.3608 16.7909 51.7696 14.5568C51.9027 14.3297 52.048 14.1222 52.1884 13.9061L52.2403 13.8286V13.8195C53.9378 11.3553 56.1603 9.29822 58.7471 7.79603ZM45.3195 9.82683C46.3084 7.65747 47.6617 5.67306 49.3201 3.95966C50.1106 6.77849 50.2839 9.73527 49.828 12.6273C49.6949 12.8221 49.5692 13.018 49.4507 13.2243C47.6739 16.0322 46.7967 19.3149 46.9371 22.6348C45.6516 22.1319 44.3136 21.7742 42.9488 21.5679C44.7342 18.7637 45.6199 15.481 45.4862 12.1592C45.4862 11.7056 45.4581 11.2393 45.4172 10.7565C45.394 10.4696 45.3635 10.1894 45.3287 9.90984C45.325 9.88176 45.3238 9.85613 45.3195 9.82683ZM40.1525 2.81333C41.3843 4.98147 42.2212 7.35105 42.6246 9.81218C42.6863 10.2205 42.729 10.5935 42.7583 10.9536C42.7901 11.3534 42.8169 11.7539 42.8169 12.1537C42.8169 17.1113 41.1578 19.7263 40.1501 20.8543C39.1527 19.7159 37.4832 17.0717 37.4832 12.1537C37.4832 11.9083 37.507 11.6727 37.5174 11.431L37.5272 11.29C37.5272 11.2832 37.5272 11.2777 37.5272 11.2723C37.7677 8.2935 38.6644 5.40448 40.1525 2.81333ZM30.0754 4.20382C32.1685 6.24866 33.7958 8.72017 34.8469 11.4511C34.8323 11.6855 34.8188 11.9193 34.8188 12.1592C34.6839 15.4803 35.5684 18.7631 37.352 21.5679C35.9871 21.7742 34.6498 22.1319 33.3643 22.6348C33.5047 19.3149 32.6275 16.0322 30.8506 13.2243L30.8293 13.1913C30.6089 12.8099 30.3587 12.4296 30.0889 12.0456C29.9277 11.81 29.7623 11.5842 29.5932 11.3602C29.5743 11.3363 29.5596 11.3138 29.5407 11.2881C29.3149 8.91367 29.4955 6.51785 30.0754 4.20382ZM27.198 12.6206C27.4556 12.9429 27.6796 13.2457 27.8878 13.5417C28.1118 13.8689 28.334 14.1979 28.5372 14.5501C28.8479 15.0836 29.1171 15.6061 29.3503 16.1048C29.4089 16.2318 29.4479 16.3459 29.5023 16.4704C29.6622 16.8354 29.8221 17.2011 29.9466 17.5368C29.9942 17.6705 30.0211 17.7822 30.0626 17.9091C30.1688 18.229 30.2787 18.5519 30.3556 18.8504C30.3959 19.0066 30.416 19.144 30.449 19.2929C30.5039 19.545 30.568 19.8038 30.6053 20.0382C30.6291 20.1878 30.6358 20.3184 30.6529 20.4612C30.6785 20.6742 30.7121 20.8958 30.7237 21.0918C30.7328 21.2321 30.7237 21.3518 30.7316 21.4824C30.7316 21.6613 30.745 21.848 30.7414 22.0159C30.7414 22.1319 30.7249 22.2277 30.7182 22.3358C30.7078 22.4908 30.7011 22.6532 30.6852 22.7905C30.6718 22.8918 30.6559 22.9718 30.6413 23.0572C30.6223 23.1763 30.6053 23.3038 30.5839 23.4064C29.1501 22.9199 26.377 21.4678 23.9165 17.209C23.7938 16.9954 23.6949 16.7768 23.5832 16.5608L23.5234 16.4381L23.5136 16.4259C22.23 13.7255 21.561 10.7736 21.5536 7.7826C23.7071 9.04796 25.6183 10.6863 27.198 12.6206ZM16.6039 20.4398C15.2201 18.4976 14.1794 16.3331 13.5275 14.0392C16.3622 14.765 19.007 16.092 21.2832 17.9305C21.3858 18.1411 21.4908 18.3492 21.611 18.5568C23.1541 21.5001 25.5591 23.9014 28.5049 25.439C27.4287 26.3015 26.4503 27.28 25.5872 28.3561C24.0496 25.4109 21.6482 23.0054 18.7055 21.4623L18.6841 21.4519C18.3026 21.2321 17.8961 21.0277 17.4719 20.8293C17.2051 20.7023 16.9451 20.5876 16.6814 20.4759L16.6039 20.4398ZM15.2439 22.7667C15.6279 22.9175 15.9721 23.0664 16.2999 23.2184C16.6588 23.3893 17.0159 23.5651 17.3669 23.7677C21.6605 26.2472 23.1004 28.9909 23.5728 30.4217C21.5848 30.7495 19.5454 30.5285 17.6733 29.7832C17.5744 29.7484 17.4652 29.6953 17.3657 29.6496C16.444 29.2986 15.5522 28.8737 14.6982 28.3805C14.4718 28.2469 14.2636 28.1016 14.0475 27.9618L13.9706 27.9099H13.9609C11.4979 26.2118 9.44147 23.9899 7.93928 21.4024C10.4358 21.4208 12.9092 21.8828 15.2439 22.7667ZM9.97679 34.8355C7.80743 33.8467 5.82302 32.4934 4.10963 30.8356C6.92906 30.0457 9.88462 29.873 12.7773 30.3271C12.9714 30.4608 13.168 30.5859 13.3743 30.7043C13.8235 30.9711 14.2624 31.1981 14.6921 31.41C14.8331 31.4795 14.968 31.5351 15.1066 31.5992C15.3904 31.7329 15.6749 31.8659 15.9496 31.9795C16.1107 32.046 16.2639 32.0991 16.4214 32.1595C16.6656 32.2541 16.9091 32.3487 17.1453 32.4263C17.3053 32.4794 17.4585 32.5221 17.6147 32.5703C17.8387 32.6381 18.0615 32.7034 18.2813 32.7632C18.4363 32.8035 18.584 32.8352 18.7336 32.87C18.9399 32.9183 19.1456 32.9646 19.344 33.0037C19.4911 33.03 19.6321 33.0513 19.7749 33.0739C19.9654 33.105 20.1534 33.1343 20.3347 33.1557C20.4683 33.1716 20.6014 33.1832 20.7351 33.1954C20.9097 33.21 21.0818 33.2247 21.2484 33.2326C21.3815 33.2326 21.4975 33.2424 21.6202 33.2448C21.7068 33.2448 21.8015 33.254 21.8869 33.254C21.9724 33.254 22.0084 33.2473 22.0713 33.2473C22.2202 33.2473 22.363 33.2393 22.5046 33.2314C22.5962 33.2314 22.6926 33.2247 22.7818 33.218C22.2788 34.5028 21.9211 35.8396 21.7148 37.2039C18.9112 35.4197 15.6297 34.5352 12.3091 34.6689C11.8556 34.6689 11.3886 34.697 10.9064 34.7385C10.6195 34.761 10.3394 34.7916 10.0592 34.8264L9.97679 34.8355ZM9.96092 37.5249H9.96763C10.3754 37.4639 10.7489 37.4212 11.1091 37.3919C11.5089 37.3595 11.9087 37.3333 12.3091 37.3333C17.2668 37.3333 19.8817 38.9917 21.0098 40.0001C19.8708 40.9975 17.2265 42.6669 12.3091 42.6669C12.0637 42.6669 11.8275 42.6431 11.5864 42.6322L11.4448 42.623H11.4277C8.44713 42.3843 5.55688 41.4895 2.96269 40.0026C5.13083 38.7708 7.5004 37.9339 9.96092 37.5304V37.5249ZM11.6011 45.3033C11.8355 45.3179 12.0692 45.3313 12.3091 45.3313C15.6303 45.4656 18.913 44.5818 21.7178 42.7976C21.9235 44.1624 22.2818 45.5004 22.7842 46.7859C22.6084 46.7725 22.4351 46.7578 22.2513 46.7524C20.9499 46.7237 19.6516 46.8763 18.3924 47.2047C16.6332 47.6692 14.9473 48.3742 13.381 49.2996L13.3596 49.313C12.9757 49.5352 12.5917 49.7873 12.2011 50.0607C11.9661 50.2219 11.7408 50.3873 11.5168 50.557L11.4448 50.6089C9.07096 50.8347 6.67636 50.6546 4.36294 50.0754C6.40534 47.9854 8.8738 46.3593 11.6011 45.3081V45.3033ZM12.7706 52.9516C13.0929 52.6946 13.3944 52.4706 13.6905 52.2637C14.017 52.0384 14.3479 51.8156 14.7001 51.613C15.1823 51.334 15.6437 51.0996 16.096 50.8835C16.2291 50.8219 16.3481 50.7651 16.4733 50.709C16.8291 50.5509 17.171 50.4086 17.5 50.2823C17.5897 50.2487 17.6843 50.209 17.7667 50.1779C18.1665 50.0357 18.5535 49.9112 18.9216 49.8196C19.0186 49.7928 19.1096 49.7738 19.2042 49.7512C19.4868 49.6835 19.7591 49.6249 20.0215 49.5797C20.1204 49.562 20.2205 49.5437 20.3151 49.5303C20.635 49.4821 20.9432 49.446 21.2295 49.4271H21.3455C21.5805 49.4143 21.8002 49.4125 22.0127 49.4155C22.2245 49.418 22.443 49.4302 22.6389 49.4473C22.7164 49.454 22.8019 49.457 22.8739 49.465C23.1114 49.4912 23.3232 49.5248 23.5112 49.562L23.5606 49.57C23.0741 51.0038 21.622 53.7768 17.3626 56.2374C17.1465 56.3625 16.9256 56.4626 16.7052 56.5749L16.5935 56.6305L16.5825 56.6384C13.8809 57.9233 10.9284 58.5929 7.93683 58.6002C9.20097 56.4473 10.8375 54.5368 12.7706 52.9571V52.9516ZM20.5898 63.5457C18.6475 64.9295 16.4824 65.9702 14.1892 66.6221C14.9143 63.788 16.2413 61.1437 18.0798 58.8682C18.2892 58.7644 18.4986 58.6588 18.7067 58.5386C21.6501 56.9961 24.0508 54.5905 25.589 51.6447C26.4515 52.7215 27.43 53.6993 28.5061 54.5624C25.5603 56.1 23.1553 58.5013 21.6122 61.4441L21.6019 61.4654C21.3846 61.8433 21.1788 62.2522 20.9774 62.6807C20.8523 62.9469 20.7351 63.2136 20.6228 63.4736C20.6112 63.5048 20.6002 63.5261 20.5898 63.5512V63.5457ZM21.5579 72.2036C21.5744 69.7113 22.034 67.2416 22.9136 64.9099V64.902C23.0644 64.518 23.2151 64.1726 23.3671 63.8429C23.538 63.4859 23.7126 63.1288 23.9153 62.7766C26.3941 58.483 29.1385 57.0425 30.5692 56.5706C30.6596 57.037 30.7102 57.5107 30.7212 57.9855C30.7005 60.6267 29.943 63.2093 28.5342 65.4434C28.4011 65.6699 28.2558 65.878 28.1154 66.0941L28.0635 66.1716V66.1808C26.3672 68.6462 24.1454 70.7051 21.5579 72.2091V72.2036ZM34.9855 70.1728C33.9966 72.3428 32.6434 74.3272 30.9849 76.0399C30.1945 73.2211 30.0211 70.265 30.4771 67.3729C30.6101 67.1782 30.7359 66.9822 30.8543 66.7753C32.6312 63.9681 33.5083 60.6847 33.3679 57.3654C34.6534 57.8683 35.9914 58.226 37.3563 58.4324C35.5696 61.2378 34.6839 64.5229 34.8188 67.8459C34.8188 68.2995 34.8469 68.7664 34.8878 69.2493C34.911 69.5355 34.9415 69.8157 34.9763 70.0959C34.98 70.124 34.9812 70.149 34.9855 70.1783V70.1728ZM40.1525 77.1924C38.9207 75.0236 38.0839 72.6541 37.6804 70.1929C37.6187 69.7852 37.576 69.4116 37.5467 69.0515C37.515 68.6517 37.4881 68.258 37.4881 67.8514C37.4881 62.8938 39.1472 60.2788 40.155 59.1508C41.1524 60.2898 42.8218 62.9341 42.8218 67.8514C42.8218 68.0968 42.798 68.333 42.7876 68.5742L42.7778 68.7158V68.7328C42.5373 71.7116 41.6407 74.6006 40.1525 77.1924ZM50.2296 75.8013C48.1365 73.757 46.5092 71.2849 45.4581 68.554C45.4728 68.3196 45.4862 68.0864 45.4862 67.8459C45.6211 64.5248 44.7366 61.242 42.953 58.4372C44.3179 58.2315 45.6553 57.8738 46.9408 57.3709C46.8004 60.6902 47.6775 63.9736 49.4544 66.7808L49.4758 66.8144C49.6961 67.1953 49.9464 67.5755 50.2162 67.9595C50.3773 68.1957 50.5427 68.4209 50.7118 68.645C50.7307 68.6688 50.7454 68.6913 50.7643 68.717C50.9902 71.0914 50.8095 73.4879 50.2296 75.8013ZM53.107 67.3851C52.8494 67.0622 52.6254 66.7594 52.4173 66.4634C52.1933 66.1368 51.9711 65.8072 51.7678 65.4556C51.4571 64.9221 51.1879 64.399 50.9548 63.9003C50.8815 63.7416 50.8321 63.5994 50.7655 63.4443C50.6215 63.1123 50.4719 62.7778 50.3651 62.4628C50.301 62.287 50.2626 62.1283 50.2082 61.9592C50.1197 61.6858 50.0227 61.4056 49.9561 61.1486C49.9159 60.9924 49.8957 60.855 49.8628 60.7055C49.8078 60.4534 49.7437 60.1952 49.7065 59.9602C49.6851 59.8271 49.6784 59.7026 49.6625 59.5708C49.6345 59.3455 49.6015 59.1136 49.5881 58.9042C49.5783 58.7705 49.5881 58.6533 49.5801 58.5257C49.5801 58.3438 49.5667 58.1534 49.5704 57.9923C49.5704 57.8586 49.5881 57.756 49.596 57.6376C49.6064 57.4948 49.6119 57.3428 49.6265 57.2158C49.64 57.1145 49.6558 57.0345 49.6705 56.9491C49.6894 56.8307 49.7065 56.7025 49.7279 56.5999C51.1617 57.0864 53.9347 58.5386 56.3953 62.7979C56.5149 63.0061 56.6113 63.2191 56.7194 63.4285L56.7884 63.5622L56.7981 63.5768C58.0818 66.2772 58.7514 69.2285 58.7581 72.2188C56.6028 70.9553 54.6892 69.3182 53.107 67.3851ZM63.7011 59.5653C65.0849 61.5075 66.1256 63.6726 66.7775 65.9659C63.9435 65.2408 61.2986 63.9137 59.0236 62.0752C58.9193 61.8646 58.8143 61.6565 58.694 61.4483C57.1509 58.5056 54.746 56.1043 51.8002 54.5667C52.8763 53.7036 53.8548 52.7251 54.7179 51.649C56.2555 54.5948 58.6568 56.9997 61.5995 58.5428L61.6209 58.555C61.9957 58.7693 62.401 58.9738 62.8209 59.1722C63.0877 59.3052 63.3544 59.4175 63.6212 59.5292L63.7011 59.5653ZM65.0635 57.2402H65.0574C64.6729 57.0895 64.328 56.9399 63.9996 56.7867C63.6425 56.617 63.2848 56.4412 62.9332 56.2386C58.6391 53.7597 57.1992 51.0154 56.7273 49.5846C58.9956 49.241 61.3145 49.5742 63.3941 50.5423C64.151 50.8524 64.8865 51.2125 65.5958 51.6197C65.8223 51.7527 66.0304 51.898 66.2465 52.0384L66.324 52.0903H66.3332C68.7967 53.7878 70.8532 56.0103 72.3548 58.5978C69.8637 58.5801 67.3947 58.1204 65.0635 57.2402ZM70.3282 45.1696C72.4976 46.159 74.482 47.5117 76.1954 49.1701C73.3766 49.9612 70.4198 50.1346 67.5277 49.678C67.3336 49.5449 67.1371 49.4192 66.9308 49.3008C64.1235 47.5233 60.8402 46.6468 57.5208 46.7884C58.0232 45.5023 58.3809 44.1643 58.5872 42.7988C61.3914 44.5842 64.6747 45.4699 67.9959 45.3362C68.4494 45.3362 68.9164 45.3081 69.3986 45.2673C69.6855 45.2447 69.9657 45.2135 70.2458 45.1794L70.3282 45.1696ZM70.3441 42.4747H70.3374C69.9296 42.5363 69.5561 42.579 69.1959 42.6083C68.7961 42.6401 68.403 42.6669 67.9959 42.6669C63.0382 42.6669 60.4233 41.0079 59.2953 40.0001C60.4343 39.0027 63.0785 37.3333 67.9959 37.3333C68.2413 37.3333 68.4775 37.3571 68.7186 37.3681L68.8602 37.3772H68.8773C71.8579 37.6171 74.7488 38.5138 77.3423 40.0026C75.1742 41.2343 72.8046 42.0712 70.3441 42.4747Z" fill="#252733"/>
</g>
<defs>
<clipPath id="clip0">
<rect width="80" height="80" fill="white"/>
</clipPath>
</defs>
</svg>
