<svg width="80" height="80" viewBox="0 0 80 80" fill="none" xmlns="http://www.w3.org/2000/svg">
<g clip-path="url(#clip0)">
<path d="M75.9355 14.3235C72.3957 8.19237 67.0159 3.60018 60.7873 1.39275C54.4711 -0.845619 48.0397 -0.373792 42.6782 2.72183C37.3167 5.8173 33.6922 11.151 32.4727 17.7401C31.691 21.9632 31.9623 26.379 33.2187 30.6365C29.6561 29.9134 25.8495 30.0409 22.0453 31.0346C17.0824 32.3312 12.4502 35.0253 8.64979 38.8257C3.64374 43.8317 0.600296 50.2167 0.0803493 56.8043C-0.447097 63.4847 1.67331 69.5747 6.05115 73.9524C9.68062 77.5819 14.4669 79.6604 19.8926 79.9635C20.3316 79.988 20.772 80.0002 21.2148 80.0001C26.0024 79.9999 30.9741 78.5752 35.3527 75.9281C36.0912 75.4818 36.3279 74.5213 35.8814 73.7829C35.4352 73.0444 34.4747 72.808 33.7362 73.2542C25.1608 78.4384 14.9874 77.9734 8.7326 72.1921C9.07787 63.5647 16.2032 56.6521 24.9139 56.6521C29.154 56.6521 33.1787 55.3043 36.5527 52.7543C39.1608 50.7832 41.2407 48.1474 42.5681 45.1785C43.7772 46.2198 45.0619 47.1511 46.4088 47.9625C47.2949 53.1447 46.098 58.9164 43.0786 63.9117C42.6323 64.6501 42.8691 65.6106 43.6075 66.057C43.8603 66.2098 44.139 66.2824 44.4143 66.2824C44.9431 66.2824 45.4592 66.0137 45.7527 65.5281C48.7321 60.5992 50.1321 54.9684 49.7576 49.6739C50.2478 49.8822 50.7433 50.0772 51.245 50.255C53.8707 51.1855 56.5162 51.6476 59.0965 51.6476C62.7234 51.6476 66.2215 50.7346 69.3541 48.9259C74.7157 45.8304 78.3401 40.4967 79.5596 33.9076C80.7625 27.4096 79.4753 20.4546 75.9355 14.3235ZM24.9139 53.5273C15.6028 53.5273 7.80957 60.148 5.99334 68.9289C0.873238 60.9667 2.70446 49.1901 10.8594 41.0351C17.5197 34.3747 26.73 31.7328 34.5154 34.1908C34.9796 35.2542 35.5063 36.3008 36.097 37.3241C37.2597 39.3381 38.6222 41.1846 40.1468 42.8365C37.8518 49.1732 31.7143 53.5273 24.9139 53.5273ZM52.2888 47.3097C46.7606 45.3505 41.9713 41.2493 38.803 35.7618C32.4396 24.7398 34.6565 11.4509 43.6819 5.76652C51.9276 8.33204 56.7618 17.0046 54.507 25.4194C53.1714 30.4042 53.8568 35.6107 56.4371 40.0799C58.3512 43.3952 61.1385 46.0095 64.4847 47.684C60.6876 48.9042 56.4692 48.7911 52.2888 47.3097ZM68.3503 45.881C64.4501 44.6694 61.1971 42.0749 59.1434 38.5177C56.9804 34.7712 56.4057 30.4067 57.5255 26.2282C59.9354 17.2344 55.5574 7.99301 47.5458 3.96608C56.5616 1.08137 67.4632 5.89807 73.2296 15.8858C79.5929 26.9078 77.3759 40.1969 68.3503 45.881Z" fill="#252733"/>
<path d="M40.0736 68.6863C39.6627 68.6863 39.2596 68.8535 38.969 69.1441C38.6769 69.4347 38.5113 69.8378 38.5113 70.2487C38.5113 70.6596 38.6769 71.0627 38.969 71.3533C39.2596 71.6439 39.6611 71.811 40.0736 71.811C40.4845 71.811 40.8876 71.6439 41.1782 71.3533C41.4688 71.0627 41.6359 70.6596 41.6359 70.2487C41.6359 69.8378 41.4688 69.4347 41.1782 69.1441C40.8876 68.8535 40.4845 68.6863 40.0736 68.6863Z" fill="#252733"/>
</g>
<defs>
<clipPath id="clip0">
<rect width="80" height="80" fill="white"/>
</clipPath>
</defs>
</svg>
