<svg width="80" height="80" viewBox="0 0 80 80" fill="none" xmlns="http://www.w3.org/2000/svg">
<g clip-path="url(#clip0)">
<path d="M79.835 26.1046C79.1911 20.4889 76.7302 16.4565 72.9055 14.7504C69.4486 13.2085 65.2319 13.7876 61.0322 16.3807C57.187 18.7548 53.5645 22.6884 50.7822 27.4976C47.8384 26.41 44.7525 25.4182 41.5319 24.5284C34.3127 22.534 27.9661 21.4684 23.82 20.8403C20.7619 20.377 18.6261 18.1128 18.6261 15.334V9.94011C18.6261 5.84089 15.2909 2.50574 11.1917 2.50574C6.40187 2.50574 2.50484 6.40261 2.50484 11.1926V21.2126C2.50484 21.86 3.02938 22.3845 3.67672 22.3845C4.32406 22.3845 4.84859 21.86 4.84859 21.2126V14.9501C4.84859 14.215 5.44656 13.617 6.18172 13.617C6.91687 13.617 7.51484 14.215 7.51484 14.9501V17.4551C7.51484 20.4893 6.1225 22.6586 4.51031 25.1704C2.39641 28.4646 0 32.1982 0 38.7475C0 43.1221 0.895469 47.0839 2.66156 50.5229C4.33375 53.7792 6.78844 56.5759 9.9575 58.8362C14.0459 61.7521 19.3066 63.7532 25.4308 64.757L27.88 68.8387C28.6278 70.0848 29.8991 70.93 31.3127 71.1637V75.1504H24.9695C24.3222 75.1504 23.7977 75.675 23.7977 76.3223C23.7977 76.9697 24.3222 77.4942 24.9695 77.4942H36.242C36.8894 77.4942 37.4139 76.9697 37.4139 76.3223C37.4139 75.675 36.8894 75.1504 36.242 75.1504H33.6562V71.1318C35.1248 70.8351 36.3866 69.8859 37.0761 68.5068L38.6355 65.3882C46.0134 64.9067 51.2975 62.9292 53.3275 59.8236C54.465 59.8665 55.6208 59.889 56.7961 59.8889C58.9872 59.8889 61.2453 59.812 63.5625 59.6621C64.9162 61.2187 66.2817 62.9475 67.61 64.8578C67.8298 65.174 68.1902 65.3606 68.5719 65.3606C68.6 65.3606 68.628 65.3595 68.6562 65.3575C69.0689 65.3278 69.4352 65.0826 69.6202 64.7128L72.7356 58.4817C72.9081 58.1368 72.8998 57.7293 72.7138 57.3917C72.5208 57.0417 72.3247 56.6987 72.1273 56.359L73.9072 53.0842C74.0742 52.7765 74.0952 52.4103 73.9641 52.0857C73.7141 51.4668 73.4125 50.8145 73.0809 50.1523C74.4347 48.1793 75.6345 46.034 76.6477 43.7628C79.3214 37.7686 80.4534 31.4973 79.835 26.1046ZM71.9506 16.8909C74.9878 18.2456 76.9608 21.6125 77.5066 26.3717C77.8169 29.0767 77.6436 32.0337 77.0203 35.0707H65.2764C65.2783 35.0432 65.2817 35.0159 65.2817 34.9881C65.2809 34.5721 65.0597 34.1876 64.7003 33.9779C64.4609 33.8382 64.2166 33.7014 63.9739 33.5636L68.355 25.5318C68.6648 24.9636 68.4556 24.2518 67.8875 23.9418C67.3191 23.6321 66.6075 23.8412 66.2975 24.4093L62.1825 31.9536L61.1952 26.03C61.0886 25.3917 60.4866 24.96 59.8464 25.0667C59.2081 25.1732 58.7767 25.777 58.8831 26.4154L59.6975 31.302C57.5658 30.2553 55.3306 29.2704 53.0002 28.3475C58.3473 19.31 66.38 14.4064 71.9506 16.8909ZM6.48313 26.4365C8.21906 23.7315 9.85875 21.1767 9.85875 17.4551V14.9501C9.85875 12.9226 8.20922 11.2732 6.18187 11.2732C5.71187 11.2732 5.26219 11.3618 4.84875 11.5234V11.1926C4.84875 7.69496 7.69437 4.84949 11.1919 4.84949C13.9989 4.84949 16.2825 7.13324 16.2825 9.94011V15.3339C16.2825 16.1607 16.4127 16.9542 16.6544 17.6995C14.9783 17.9925 12.5666 19.1523 11.5791 23.2471C10.9144 26.0039 9.45391 28.1537 7.85828 28.725C7.05453 29.0129 6.18188 28.9009 5.25672 28.3964C5.65656 27.7253 6.07109 27.0784 6.48313 26.4365ZM34.9797 67.4587C34.5389 68.3404 33.6528 68.8879 32.667 68.8879H32.1067C31.2038 68.8879 30.3539 68.407 29.8895 67.6328L28.4058 65.16C30.1183 65.3434 31.8894 65.4543 33.7131 65.4907C34.1441 65.4995 34.5695 65.5037 34.99 65.5037C35.3172 65.5037 35.6405 65.5007 35.9613 65.4956L34.9797 67.4587ZM39.6537 55.6442C34.1795 54.2817 29.4542 52.1907 25.6092 49.43C22.2031 46.9839 20.1298 44.4511 18.9902 42.7568C18.7123 42.3436 18.4747 41.9587 18.2734 41.6103C19.035 41.7498 19.9684 41.9101 21.0527 42.077C21.693 42.1771 22.2909 41.7367 22.3892 41.0971C22.4878 40.4575 22.0491 39.859 21.4094 39.7606C18.3469 39.2887 16.4837 38.8621 16.4652 38.8579C16.0527 38.7631 15.6219 38.8975 15.3364 39.2098C15.0512 39.5221 14.9564 39.9637 15.0883 40.3654C15.1642 40.5967 17.0292 46.0873 24.0744 51.2121C28.1559 54.1812 33.1553 56.4243 38.9339 57.8798C42.4445 58.764 46.2525 59.3556 50.3275 59.6561C47.9664 61.6007 42.7284 63.3254 33.7603 63.1478C24.5252 62.9629 16.7648 60.8123 11.3186 56.9281C5.36313 52.6807 2.34375 46.5639 2.34375 38.7475C2.34375 35.2348 3.09969 32.6504 4.14313 30.4604C5.18578 31.0278 6.13531 31.2267 6.95391 31.2267C7.60875 31.2267 8.18016 31.0995 8.64828 30.9318C11.4639 29.9242 13.1853 26.5853 13.8577 23.7967C14.7917 19.9229 17.1991 19.8851 17.8314 19.9457C19.1048 21.6167 21.0844 22.7965 23.4694 23.1578C27.5559 23.777 33.8098 24.8268 40.9081 26.7878C48.7108 28.9434 55.7022 31.6985 61.725 34.9895C48.5469 42.0959 36.5477 41.5243 26.2705 40.3996C25.6298 40.3307 25.0484 40.7935 24.9781 41.437C24.9077 42.0804 25.372 42.659 26.0155 42.7293C31.3041 43.3082 37.6119 43.7898 44.2984 42.9711C50.4659 42.2159 56.2052 40.4598 61.7487 37.6243C64.1566 38.7715 66.0355 40.1515 67.1491 41.0681C53.8984 48.5406 34.7062 46.2728 34.5077 46.2478C33.8667 46.1701 33.2803 46.6239 33.2005 47.2662C33.1205 47.9084 33.5764 48.4939 34.2188 48.5737C34.3808 48.5939 37.2887 48.9475 41.6336 48.9475C43.1491 48.9475 44.8403 48.9045 46.6497 48.7892C47.9123 48.7087 49.1489 48.5943 50.3627 48.4536C51.128 48.8776 56.0088 51.6946 61.5208 57.4289C53.33 57.8157 45.9813 57.219 39.6537 55.6442ZM68.3914 61.929C62.96 54.6042 57.2186 50.1212 53.975 47.9362C55.4183 47.6857 56.8172 47.3904 58.1641 47.0495C59.2687 46.7698 60.3397 46.4595 61.3756 46.1195C62.7016 47.4581 66.9297 51.9437 70.3617 57.9886L68.3914 61.929ZM70.7123 54.0543C68.0645 49.9645 65.3286 46.8615 63.795 45.2445C64.78 44.8543 65.728 44.4343 66.6373 43.9854C67.623 45.432 70.2208 49.3565 71.5786 52.4604L70.7123 54.0543ZM74.5072 42.8084C73.7228 44.5668 72.8216 46.2443 71.8195 47.8157C70.6477 45.7737 69.4095 43.8953 68.7141 42.8696C69.0653 42.6646 69.4114 42.4561 69.7489 42.2414C70.0477 42.0514 70.2444 41.7365 70.2842 41.3846C70.3241 41.0328 70.2028 40.6818 69.9541 40.43C69.8706 40.3453 68.485 38.9556 66.1364 37.4145H76.4544C75.9552 39.2117 75.3045 41.0212 74.5072 42.8084Z" fill="#252733"/>
<path d="M70.6201 18.9314C70.0517 18.6214 69.3403 18.8308 69.0303 19.3991L68.3473 20.6515C68.0373 21.2196 68.2467 21.9316 68.815 22.2413C68.9933 22.3385 69.1854 22.3846 69.375 22.3846C69.79 22.3846 70.192 22.1636 70.4048 21.7736L71.0878 20.5213C71.3976 19.9532 71.1884 19.2413 70.6201 18.9314Z" fill="#252733"/>
<path d="M9.93579 9.85913C10.583 9.85913 11.1077 9.33446 11.1077 8.68726C11.1077 8.04005 10.583 7.51538 9.93579 7.51538C9.28858 7.51538 8.76392 8.04005 8.76392 8.68726C8.76392 9.33446 9.28858 9.85913 9.93579 9.85913Z" fill="#252733"/>
</g>
<defs>
<clipPath id="clip0">
<rect width="80" height="80" fill="white"/>
</clipPath>
</defs>
</svg>
