<svg width="80" height="80" viewBox="0 0 80 80" fill="none" xmlns="http://www.w3.org/2000/svg">
<g clip-path="url(#clip0)">
<path d="M66.6501 43.6347C65.2167 42.7199 63.7021 41.9783 62.1239 41.4037C62.8037 40.7069 63.2258 39.7574 63.2258 38.7097C63.2258 36.5757 61.4888 34.8387 59.3548 34.8387C57.2209 34.8387 55.4839 36.5757 55.4839 38.7097C55.4839 39.186 55.5822 39.6377 55.7409 40.0592C55.2268 40.0258 54.7121 40 54.1935 40C49.0423 40 44.0449 41.737 39.9912 44.8759C37.5019 42.9473 34.6157 41.5203 31.4724 40.7277C31.5354 39.3511 31.8296 38.6089 32.1667 37.7665C32.5844 36.72 33.0582 35.5355 33.0582 33.2838C33.0582 31.0345 32.5844 29.8488 32.1667 28.8023C31.7855 27.8528 31.4579 27.0325 31.4579 25.2785C31.4579 24.2956 31.5638 23.6101 31.7213 23.0261C33.8067 22.6928 36.9821 21.8712 38.871 20.361C40.7227 18.881 43.0475 18.0645 45.4209 18.0645H76.129C78.263 18.0645 80 16.3275 80 14.1935C80 12.0596 78.263 10.3226 76.129 10.3226H45.4209C43.0475 10.3226 40.7214 9.50605 38.8697 8.02482C37.1213 6.6255 34.3718 5.83354 32.2902 5.45552C32.672 4.48022 33.0582 3.31842 33.0582 1.29032V0H20.155V1.29032C20.155 3.03994 19.8274 3.85963 19.4462 4.8091C19.4015 4.92377 19.3536 5.04158 19.307 5.16129H16.7742V7.74194H18.641C18.5868 8.19745 18.5547 8.7059 18.5547 9.28616C18.5547 9.66293 18.5717 10.0013 18.5963 10.3226H16.7742V12.9032H19.1186C19.2257 13.2101 19.3378 13.4917 19.4462 13.7639C19.6661 14.3107 19.8658 14.8192 19.9975 15.4839H16.7742V18.0645H20.1266C20.0479 19.2156 19.8003 19.9124 19.5086 20.6452H16.7742V23.2258H18.716C18.6183 23.8023 18.5547 24.4708 18.5547 25.2797C18.5547 27.5302 19.0285 28.716 19.4462 29.7625C19.8274 30.7119 20.155 31.5329 20.155 33.285C20.155 35.0384 19.8274 35.8594 19.4462 36.8088C19.036 37.8364 18.5742 39.0039 18.5572 41.1744C17.9328 41.3792 17.316 41.6003 16.7162 41.8555C16.7446 41.6696 16.7742 41.4837 16.7742 41.2903C16.7742 39.1564 15.0372 37.4194 12.9032 37.4194C11.4491 37.4194 10.1934 38.2346 9.53314 39.4248C7.98198 38.1729 6.01436 37.4194 3.87097 37.4194H0V38.7097C0 43.5314 3.80418 47.4735 8.56666 47.7186C5.13042 51.5341 2.94859 56.4825 2.64617 61.9355H0V63.2258C0 67.4011 2.85282 70.9136 6.70741 71.943L9.39201 80H70.6067L73.2913 71.943C77.1472 70.9136 80 67.4011 80 63.2258V61.9355H79.7625C79.9074 61.5304 80 61.0994 80 60.6452C80 58.6347 78.4526 56.996 76.49 56.8101C75.8348 54.5237 74.845 52.3765 73.5263 50.3976C77.3563 48.498 80 44.5577 80 40V38.7097H76.129C72.2152 38.7097 68.7563 40.6609 66.6501 43.6347ZM59.3548 37.4194C60.0668 37.4194 60.6452 37.9977 60.6452 38.7097C60.6452 39.4216 60.0668 40 59.3548 40C58.6429 40 58.0645 39.4216 58.0645 38.7097C58.0645 37.9977 58.6429 37.4194 59.3548 37.4194ZM61.8196 61.9355C61.2027 58.28 58.0229 55.4839 54.1935 55.4839C51.9059 55.4839 49.8545 56.4863 48.435 58.0683C48.2182 57.1176 47.9354 56.192 47.6052 55.2892C49.4556 53.7513 51.7654 52.9032 54.1935 52.9032C59.4475 52.9032 63.7884 56.8517 64.4273 61.9355H61.8196ZM59.1715 61.9355H49.2156C49.7921 59.7146 51.795 58.0645 54.1935 58.0645C56.5921 58.0645 58.595 59.7146 59.1715 61.9355ZM67.0312 61.9355C66.3804 55.4246 60.872 50.3226 54.1935 50.3226C51.4119 50.3226 48.7576 51.2153 46.5524 52.8427C46.1612 52.0646 45.7365 51.3086 45.2634 50.5834C47.8635 48.7468 50.9898 47.7419 54.1935 47.7419C62.2965 47.7419 68.9522 54.0001 69.6119 61.9355H67.0312ZM54.1935 42.5806C58.2132 42.5806 62.0596 43.733 65.3963 45.8978C65.0517 46.7313 64.8104 47.6178 64.6686 48.5358C61.7099 46.4207 58.0992 45.1613 54.1935 45.1613C50.4467 45.1613 46.7887 46.3432 43.7481 48.4967C43.1987 47.8283 42.604 47.1988 41.9846 46.5946C45.511 44.0052 49.7896 42.5806 54.1935 42.5806ZM45.4209 12.9032H76.129C76.841 12.9032 77.4193 13.4816 77.4193 14.1935C77.4193 14.9055 76.841 15.4839 76.129 15.4839H45.4209C42.4647 15.4839 39.5653 16.5008 37.2581 18.3474C36.2544 19.1507 34.4619 19.8028 32.7048 20.2079C32.8635 19.6207 32.9895 18.9352 33.0374 18.0658H34.8387V15.4851H32.9341C32.7741 14.3781 32.4824 13.6013 32.2051 12.9045H34.8387V10.3226H31.5058C31.4762 10.0145 31.4579 9.67616 31.4579 9.28616C31.4579 8.7626 31.49 8.32913 31.5417 7.94481C33.6013 8.28881 36.0207 9.04927 37.2593 10.0397C39.5653 11.8863 42.4647 12.9032 45.4209 12.9032ZM29.7688 13.7639C30.1499 14.7108 30.4776 15.5305 30.4776 17.2814C30.4776 19.0323 30.1499 19.8513 29.7688 20.8027C29.3511 21.8479 28.8773 23.0336 28.8773 25.281C28.8773 27.5315 29.3511 28.7172 29.7688 29.7637C30.1499 30.7138 30.4776 31.5341 30.4776 33.2863C30.4776 35.0397 30.1499 35.8606 29.7688 36.8101C29.4216 37.6777 29.0411 38.6505 28.9201 40.235C28.0815 40.1216 27.2322 40.0504 26.3678 40.0296C26.4837 39.0789 26.7288 38.4539 27.0042 37.7678C27.4219 36.7213 27.8957 35.5368 27.8957 33.285C27.8957 31.0364 27.4219 29.85 27.0042 28.8042C26.623 27.8541 26.2954 27.0338 26.2954 25.2797C26.2954 23.5289 26.623 22.7098 27.0042 21.7584C27.4219 20.7138 27.8957 19.5275 27.8957 17.2801C27.8957 15.0334 27.4219 13.8489 27.0042 12.8024C26.623 11.8555 26.2954 11.0364 26.2954 9.2849C26.2954 7.53402 26.623 6.71623 27.0042 5.76676C27.333 4.9433 27.6928 4.0247 27.8333 2.57812H30.4039C30.2867 3.51499 30.0416 4.12676 29.7688 4.80658C29.3511 5.85307 28.8773 7.03755 28.8773 9.2849C28.8773 11.5329 29.3511 12.7174 29.7688 13.7639ZM21.8441 28.8042C21.463 27.8541 21.1353 27.0338 21.1353 25.2797C21.1353 23.5289 21.463 22.7098 21.8441 21.7584C22.2618 20.7138 22.7356 19.5275 22.7356 17.2801C22.7356 15.0334 22.2618 13.8489 21.8441 12.8024C21.463 11.8555 21.1353 11.0364 21.1353 9.2849C21.1353 7.53402 21.463 6.71623 21.8441 5.76676C22.1743 4.94078 22.5378 4.02974 22.6777 2.57812H25.24C25.1229 3.51121 24.8803 4.12802 24.6075 4.80658C24.1898 5.85307 23.716 7.03755 23.716 9.2849C23.716 11.5316 24.1898 12.7161 24.6075 13.7626C24.9887 14.7096 25.3163 15.5292 25.3163 17.2801C25.3163 19.031 24.9887 19.85 24.6075 20.8014C24.1898 21.8466 23.716 23.0324 23.716 25.2797C23.716 27.5302 24.1898 28.716 24.6075 29.7625C24.9887 30.7119 25.3163 31.5329 25.3163 33.285C25.3163 35.0384 24.9887 35.8594 24.6075 36.8088C24.271 37.6518 23.9018 38.595 23.7702 40.1033C22.8887 40.1808 22.018 40.2942 21.1662 40.4669C21.2531 39.2578 21.5291 38.5522 21.8441 37.7665C22.2618 36.72 22.7356 35.5355 22.7356 33.2838C22.7356 31.0364 22.2618 29.85 21.8441 28.8042ZM12.9032 40C13.6152 40 14.1935 40.5784 14.1935 41.2903C14.1935 42.0023 13.6152 42.5806 12.9032 42.5806C12.1913 42.5806 11.6129 42.0023 11.6129 41.2903C11.6129 40.5784 12.1913 40 12.9032 40ZM2.71106 40H3.87097C6.98715 40 9.59362 42.2209 10.1922 45.1613H9.03226C5.91608 45.1613 3.3096 42.9404 2.71106 40ZM12.1976 47.7419H12.9032V47.1352C16.4415 44.2931 20.9249 42.5806 25.8064 42.5806C36.7547 42.5806 45.7151 51.1536 46.3861 61.9355H43.8054C43.1395 52.5769 35.3314 45.1613 25.8064 45.1613C16.2815 45.1613 8.47341 52.5769 7.80746 61.9355H5.22681C5.57838 56.2903 8.19871 51.2607 12.1976 47.7419ZM33.4325 61.9355C32.8157 58.28 29.6358 55.4839 25.8064 55.4839C21.9771 55.4839 18.7985 58.28 18.1804 61.9355H15.5727C16.2116 56.8517 20.5525 52.9032 25.8064 52.9032C27.1743 52.9032 28.4866 53.1767 29.7278 53.6889C29.7058 53.8565 29.6774 54.0209 29.6774 54.1935C29.6774 56.3275 31.4144 58.0645 33.5484 58.0645C33.9201 58.0645 34.2723 57.9946 34.6132 57.8969C35.3667 59.1356 35.848 60.4965 36.0257 61.9355H33.4325ZM30.7844 61.9355H20.8285C21.405 59.7146 23.4079 58.0645 25.8064 58.0645C28.205 58.0645 30.2079 59.7146 30.7844 61.9355ZM33.5484 55.4839C32.8364 55.4839 32.2581 54.9055 32.2581 54.1935C32.2581 53.4816 32.8364 52.9032 33.5484 52.9032C34.2603 52.9032 34.8387 53.4816 34.8387 54.1935C34.8387 54.9055 34.2603 55.4839 33.5484 55.4839ZM33.5484 50.3226C32.5202 50.3226 31.5896 50.7327 30.8953 51.3886C29.2893 50.6956 27.5844 50.3226 25.8064 50.3226C19.128 50.3226 13.6183 55.4246 12.9688 61.9355H10.3881C11.0478 54.0001 17.7035 47.7419 25.8064 47.7419C29.0619 47.7419 32.081 48.7563 34.5766 50.4788C34.2477 50.3868 33.9069 50.3226 33.5484 50.3226ZM38.6385 61.9355C38.4438 59.9509 37.8024 58.062 36.7408 56.3754C37.168 55.7535 37.4194 55.0025 37.4194 54.1935C37.4194 53.6542 37.3072 53.142 37.1069 52.6751C39.4166 55.1468 40.928 58.3676 41.2248 61.9355H38.6385ZM11.2531 77.4193L9.53188 72.2581H70.4681L68.7468 77.4193H11.2531ZM70.9677 69.6774H9.03226C5.91608 69.6774 3.3096 67.4565 2.71106 64.5161H77.2902C76.6904 67.4565 74.0839 69.6774 70.9677 69.6774ZM77.4193 60.6452C77.4193 61.3571 76.841 61.9355 76.129 61.9355C75.4171 61.9355 74.8387 61.3571 74.8387 60.6452C74.8387 59.9332 75.4171 59.3548 76.129 59.3548C76.841 59.3548 77.4193 59.9332 77.4193 60.6452ZM73.9831 57.4269C72.9448 58.1212 72.2581 59.3044 72.2581 60.6452C72.2581 61.0994 72.3507 61.5304 72.4956 61.9355H72.1925C71.9134 58.0204 70.3963 54.4462 68.0103 51.6129H68.3871C69.2931 51.6129 70.1701 51.4982 71.0169 51.3004C72.3494 53.1754 73.343 55.2281 73.9831 57.4269ZM68.3871 49.0323H67.1881C67.8157 44.6604 71.5858 41.2903 76.129 41.2903H77.328C76.6992 45.6622 72.9303 49.0323 68.3871 49.0323Z" fill="#252733"/>
</g>
<defs>
<clipPath id="clip0">
<rect width="80" height="80" fill="white"/>
</clipPath>
</defs>
</svg>
