<svg width="80" height="80" viewBox="0 0 80 80" fill="none" xmlns="http://www.w3.org/2000/svg">
<path d="M65 43.75C61.7269 43.7434 58.5831 45.0271 56.25 47.3228C55.7875 46.8693 55.2905 46.4524 54.7634 46.0759C55.759 42.9019 56.2604 39.5936 56.25 36.2671C56.25 28.7157 53.8361 22.0065 49.6273 17.8596C49.4824 17.7168 49.3047 17.6115 49.1098 17.5529C48.9149 17.4944 48.7086 17.4843 48.5089 17.5235C48.3092 17.5628 48.1221 17.6502 47.9639 17.7783C47.8056 17.9063 47.681 18.071 47.6009 18.2581L45.8884 22.2581L42.1991 17.9531C42.0817 17.8162 41.9361 17.7063 41.7723 17.6309C41.6085 17.5556 41.4303 17.5166 41.25 17.5166C41.0697 17.5166 40.8915 17.5556 40.7277 17.6309C40.5639 17.7063 40.4183 17.8162 40.3009 17.9531L36.6117 22.2578L34.8991 18.2578C34.819 18.0707 34.6944 17.906 34.5361 17.7779C34.3779 17.6499 34.1908 17.5625 33.9911 17.5232C33.7914 17.484 33.5851 17.4941 33.3902 17.5526C33.1953 17.6112 33.0176 17.7165 32.8727 17.8593C31.2225 19.4853 29.8258 21.5371 28.7498 23.8868C27.7918 21.9784 26.6607 20.1619 25.3708 18.4601C21.8383 13.8054 18.3191 11.5392 18.1709 11.4445C17.9704 11.3169 17.7377 11.2492 17.5 11.2492C17.2623 11.2492 17.0296 11.3169 16.8291 11.4445C16.6809 11.5382 13.1617 13.805 9.62922 18.4601C6.37687 22.7459 2.5 29.9598 2.5 39.9895C2.5 59.9999 13.79 59.9999 17.5 59.9999C20.2331 59.9999 27.0797 59.9985 30.4958 51.9978C31.7884 53.9906 33.3181 55.6045 35.0128 56.7574C35.1107 59.1737 35.9074 61.5097 37.3065 63.4822C38.7055 65.4547 40.6467 66.9789 42.8947 67.8702C45.1427 68.7614 47.601 68.9814 49.9715 68.5034C52.3421 68.0254 54.523 66.8699 56.25 65.1771C57.7143 66.6123 59.5091 67.6652 61.4763 68.2431C63.4435 68.821 65.5226 68.9062 67.5304 68.4911C69.5383 68.0759 71.4132 67.1733 72.9899 65.8627C74.5666 64.5521 75.7968 62.8738 76.5719 60.9756C77.347 59.0775 77.6433 57.0178 77.4347 54.9781C77.2261 52.9385 76.519 50.9814 75.3757 49.2795C74.2323 47.5776 72.6879 46.183 70.8785 45.2187C69.0691 44.2544 67.0503 43.75 65 43.75ZM41.25 20.6875L44.7916 24.8192L41.25 33.0914L37.7084 24.8196L41.25 20.6875ZM23.7019 56.2812C26.1061 52.4393 27.1898 47.2257 26.8594 40.9404C26.6478 37.1096 26.0052 33.3148 24.9438 29.6279C24.8451 29.3113 24.6248 29.0469 24.3312 28.8927C24.0375 28.7386 23.6947 28.7074 23.3781 28.806C23.0615 28.9047 22.7971 29.125 22.6429 29.4186C22.4888 29.7123 22.4576 30.0551 22.5562 30.3717C22.615 30.5592 28.2408 49.1143 19.5841 57.4315C18.8009 57.5 18.0883 57.4999 17.5 57.4999C16.9117 57.4999 16.1991 57.4999 15.4159 57.4317C6.75969 49.1145 12.3847 30.5589 12.4438 30.3718C12.4926 30.2151 12.5101 30.0502 12.4952 29.8867C12.4803 29.7232 12.4334 29.5642 12.3571 29.4188C12.2807 29.2734 12.1765 29.1445 12.0504 29.0394C11.9243 28.9343 11.7786 28.855 11.6219 28.8062C11.4651 28.7574 11.3003 28.7399 11.1367 28.7548C10.9732 28.7696 10.8142 28.8166 10.6688 28.8929C10.5235 28.9692 10.3945 29.0734 10.2894 29.1996C10.1843 29.3257 10.1051 29.4713 10.0563 29.6281C8.99476 33.315 8.35216 37.1097 8.14062 40.9406C7.81016 47.2259 8.89391 52.4395 11.2981 56.2814C8.03703 54.5382 5 50.2998 5 39.9895C5 32.5332 7.20656 25.826 11.5583 20.0543C12.9383 18.2199 14.5112 16.5388 16.25 15.0401V31.25C16.25 31.5815 16.3817 31.8994 16.6161 32.1338C16.8505 32.3683 17.1685 32.5 17.5 32.5C17.8315 32.5 18.1495 32.3683 18.3839 32.1338C18.6183 31.8994 18.75 31.5815 18.75 31.25V15.0401C20.4888 16.5388 22.0617 18.2199 23.4417 20.0543C27.7934 25.826 30 32.5332 30 39.9895C30 50.2998 26.963 54.5382 23.7019 56.2812ZM31.5486 48.8176C32.1475 46.4234 32.5 43.5189 32.5 39.9895C32.5191 35.5848 31.7274 31.2142 30.1644 27.096C30.878 24.909 31.963 22.8612 33.3719 21.0425L40.1009 36.7592C40.1973 36.9841 40.3575 37.1758 40.5617 37.3105C40.766 37.4453 41.0053 37.5171 41.25 37.5171C41.4947 37.5171 41.734 37.4453 41.9383 37.3105C42.1425 37.1758 42.3027 36.9841 42.3991 36.7592L49.1286 21.0415C52.0841 24.7637 53.75 30.194 53.75 36.2671C53.7584 39.1578 53.3505 42.0346 52.5389 44.809C50.8285 44.0564 48.9712 43.6966 47.1034 43.7563C45.2357 43.816 43.4051 44.2935 41.7463 45.1538C40.0874 46.0141 38.6424 47.2353 37.5177 48.7275C36.3929 50.2198 35.6169 51.9452 35.2467 53.7768C33.8339 52.5257 32.5781 50.8449 31.5486 48.8178V48.8176ZM65 66.2499C63.508 66.2525 62.0345 65.92 60.6882 65.2769C59.342 64.6337 58.1574 63.6964 57.2219 62.5342C57.1047 62.3893 56.9566 62.2725 56.7885 62.1922C56.6203 62.1119 56.4363 62.0703 56.25 62.0703C56.0637 62.0703 55.8797 62.1119 55.7115 62.1922C55.5434 62.2725 55.3953 62.3893 55.2781 62.5342C53.9785 64.1429 52.2121 65.3091 50.2221 65.8721C48.2322 66.4352 46.1166 66.3675 44.1668 65.6783C42.2169 64.9891 40.5287 63.7123 39.3346 62.0238C38.1406 60.3352 37.4994 58.318 37.4994 56.2499C37.4994 54.1819 38.1406 52.1647 39.3346 50.4761C40.5287 48.7876 42.2169 47.5108 44.1668 46.8216C46.1166 46.1324 48.2322 46.0647 50.2221 46.6278C52.2121 47.1908 53.9785 48.357 55.2781 49.9657C55.3953 50.1106 55.5434 50.2274 55.7115 50.3077C55.8797 50.388 56.0637 50.4296 56.25 50.4296C56.4363 50.4296 56.6203 50.388 56.7885 50.3077C56.9566 50.2274 57.1047 50.1106 57.2219 49.9657C58.2835 48.6516 59.6607 47.6279 61.225 46.9901C62.7893 46.3523 64.4897 46.1211 66.1675 46.3183C67.8453 46.5154 69.4458 47.1344 70.8197 48.1174C72.1936 49.1005 73.296 50.4155 74.0241 51.9399C74.7522 53.4643 75.0823 55.1483 74.9835 56.8347C74.8847 58.5212 74.3603 60.1551 73.4592 61.584C72.5581 63.013 71.3096 64.1903 69.8304 65.0063C68.3512 65.8222 66.6893 66.25 65 66.2499Z" fill="#252733"/>
<path d="M17.5 36.25C17.1685 36.25 16.8505 36.3817 16.6161 36.6161C16.3817 36.8505 16.25 37.1685 16.25 37.5V47.5C16.25 47.8315 16.3817 48.1495 16.6161 48.3839C16.8505 48.6183 17.1685 48.75 17.5 48.75C17.8315 48.75 18.1495 48.6183 18.3839 48.3839C18.6183 48.1495 18.75 47.8315 18.75 47.5V37.5C18.75 37.1685 18.6183 36.8505 18.3839 36.6161C18.1495 36.3817 17.8315 36.25 17.5 36.25Z" fill="#252733"/>
<path d="M53.2508 59.0001C52.9858 58.801 52.6525 58.7154 52.3243 58.762C51.9961 58.8086 51.6999 58.9837 51.5008 59.2487C51.0351 59.8699 50.4311 60.3741 49.7367 60.7214C49.0423 61.0687 48.2766 61.2495 47.5002 61.2495C46.7238 61.2495 45.958 61.0687 45.2636 60.7214C44.5692 60.3741 43.9653 59.8699 43.4996 59.2487C43.3004 58.9836 43.0042 58.8085 42.6759 58.7619C42.3477 58.7152 42.0144 58.8009 41.7493 59C41.4842 59.1991 41.3091 59.4954 41.2625 59.8236C41.2159 60.1519 41.3015 60.4852 41.5006 60.7503C42.1993 61.6815 43.1051 62.4374 44.1464 62.9579C45.1877 63.4785 46.3359 63.7495 47.5001 63.7495C48.6643 63.7495 49.8125 63.4785 50.8538 62.9579C51.8951 62.4374 52.8009 61.6815 53.4995 60.7503C53.6986 60.4852 53.7843 60.1519 53.7376 59.8237C53.691 59.4955 53.5159 59.1992 53.2508 59.0001Z" fill="#252733"/>
<path d="M47.5 48.7501C46.3348 48.7455 45.1849 49.0146 44.1428 49.5357C43.1006 50.0567 42.1954 50.8152 41.5 51.7501C41.4014 51.8813 41.3296 52.0307 41.2887 52.1897C41.2479 52.3487 41.2387 52.5142 41.2618 52.6767C41.2849 52.8392 41.3398 52.9956 41.4233 53.1369C41.5068 53.2782 41.6174 53.4017 41.7486 53.5003C41.8799 53.5989 42.0293 53.6707 42.1883 53.7115C42.3473 53.7524 42.5127 53.7615 42.6753 53.7384C42.8378 53.7154 42.9942 53.6605 43.1355 53.577C43.2768 53.4934 43.4003 53.3829 43.4989 53.2516C43.9646 52.6304 44.5686 52.1262 45.263 51.7789C45.9574 51.4316 46.7231 51.2508 47.4995 51.2508C48.2759 51.2508 49.0416 51.4316 49.736 51.7789C50.4304 52.1262 51.0344 52.6304 51.5001 53.2516C51.5987 53.3829 51.7222 53.4935 51.8636 53.5771C52.0049 53.6607 52.1613 53.7156 52.3239 53.7388C52.4864 53.7619 52.652 53.7528 52.811 53.712C52.9701 53.6711 53.1195 53.5994 53.2508 53.5008C53.3821 53.4022 53.4927 53.2787 53.5763 53.1373C53.6599 52.996 53.7148 52.8396 53.738 52.677C53.7611 52.5144 53.752 52.3489 53.7112 52.1899C53.6703 52.0308 53.5986 51.8814 53.5 51.7501C52.8046 50.8152 51.8993 50.0567 50.8572 49.5356C49.8151 49.0145 48.6651 48.7455 47.5 48.7501Z" fill="#252733"/>
<path d="M70.7508 59C70.4857 58.8009 70.1525 58.7153 69.8243 58.7619C69.4961 58.8085 69.1999 58.9836 69.0008 59.2486C68.5351 59.8698 67.9311 60.374 67.2367 60.7213C66.5423 61.0686 65.7766 61.2494 65.0002 61.2494C64.2238 61.2494 63.458 61.0686 62.7636 60.7213C62.0692 60.374 61.4652 59.8698 60.9995 59.2486C60.7995 58.9862 60.5038 58.8135 60.1769 58.7682C59.85 58.7229 59.5185 58.8088 59.2546 59.007C58.9908 59.2052 58.816 59.4997 58.7685 59.8263C58.7209 60.1528 58.8044 60.4849 59.0008 60.7501C59.6994 61.6814 60.6052 62.4372 61.6465 62.9577C62.6878 63.4783 63.836 63.7493 65.0002 63.7493C66.1643 63.7493 67.3125 63.4783 68.3538 62.9577C69.3951 62.4372 70.3009 61.6814 70.9995 60.7501C71.1986 60.4851 71.2843 60.1518 71.2376 59.8236C71.191 59.4953 71.0158 59.1991 70.7508 59Z" fill="#252733"/>
<path d="M65 48.7501C63.8348 48.7455 62.6849 49.0145 61.6428 49.5356C60.6006 50.0567 59.6954 50.8152 59 51.7501C58.8036 52.0153 58.7201 52.3474 58.7677 52.674C58.8152 53.0005 58.99 53.295 59.2538 53.4932C59.5177 53.6914 59.8492 53.7773 60.1761 53.732C60.503 53.6868 60.7987 53.5141 60.9987 53.2516C61.4645 52.6304 62.0684 52.1262 62.7628 51.7789C63.4572 51.4316 64.223 51.2508 64.9994 51.2508C65.7758 51.2508 66.5415 51.4316 67.2359 51.7789C67.9303 52.1262 68.5343 52.6304 69 53.2516C69.1991 53.5168 69.4954 53.6921 69.8238 53.7388C70.1521 53.7856 70.4856 53.7 70.7508 53.5008C71.016 53.3017 71.1912 53.0054 71.238 52.6771C71.2847 52.3487 71.1991 52.0153 71 51.7501C70.3046 50.8152 69.3994 50.0567 68.3572 49.5356C67.3151 49.0145 66.1651 48.7455 65 48.7501Z" fill="#252733"/>
<path d="M45 57.5H50C50.3315 57.5 50.6495 57.3683 50.8839 57.1339C51.1183 56.8995 51.25 56.5815 51.25 56.25C51.25 55.9185 51.1183 55.6005 50.8839 55.3661C50.6495 55.1317 50.3315 55 50 55H45C44.6685 55 44.3505 55.1317 44.1161 55.3661C43.8817 55.6005 43.75 55.9185 43.75 56.25C43.75 56.5815 43.8817 56.8995 44.1161 57.1339C44.3505 57.3683 44.6685 57.5 45 57.5Z" fill="#252733"/>
<path d="M62.5 57.5H67.5C67.8315 57.5 68.1495 57.3683 68.3839 57.1339C68.6183 56.8995 68.75 56.5815 68.75 56.25C68.75 55.9185 68.6183 55.6005 68.3839 55.3661C68.1495 55.1317 67.8315 55 67.5 55H62.5C62.1685 55 61.8505 55.1317 61.6161 55.3661C61.3817 55.6005 61.25 55.9185 61.25 56.25C61.25 56.5815 61.3817 56.8995 61.6161 57.1339C61.8505 57.3683 62.1685 57.5 62.5 57.5Z" fill="#252733"/>
</svg>
