<svg width="80" height="80" viewBox="0 0 80 80" fill="none" xmlns="http://www.w3.org/2000/svg">
<path d="M60 21.25H55V17.5075C56.515 16.3625 57.5 14.5375 57.5 12.5C57.5 9.59625 55.5062 7.1 52.7087 6.4325C51.9512 5.81 51.0625 5.38 50.0975 5.17C48.5262 2.93 45.535 1.91375 42.9213 2.8725C41.1413 1.2525 38.4862 0.785 36.25 1.79C34.425 0.97125 32.32 1.105 30.625 2.1075C29.6712 1.54375 28.6075 1.25 27.5 1.25C25.54 1.25 23.7 2.19 22.5262 3.75C20.485 3.71625 18.5725 4.7525 17.4025 6.42125C14.5687 7.04375 12.5 9.5575 12.5 12.5C12.5 14.54 13.4837 16.3738 15 17.5212V68.9275C12.85 69.4862 11.25 71.4262 11.25 73.75C11.25 76.5075 13.4925 78.75 16.25 78.75H53.75C56.5075 78.75 58.75 76.5075 58.75 73.75C58.75 71.4262 57.15 69.4862 55 68.9275V60H60C64.825 60 68.75 56.0737 68.75 51.25V30C68.75 25.175 64.825 21.25 60 21.25ZM55 28.75H60C60.6888 28.75 61.25 29.3113 61.25 30V51.25C61.25 51.94 60.6888 52.5 60 52.5H55V28.75ZM18.3088 8.80125C18.7038 8.75375 19.0537 8.52125 19.25 8.175C19.9812 6.87875 21.4575 6.095 22.8625 6.28875C22.8663 6.28875 22.9913 6.30625 22.9938 6.30625C23.5013 6.3725 23.9962 6.125 24.2462 5.68C24.9162 4.48875 26.1625 3.75 27.5 3.75C28.3438 3.75 29.1525 4.0425 29.84 4.5975C30.2975 4.9675 30.9537 4.9675 31.4112 4.5975C32.6237 3.61875 34.245 3.47125 35.6213 4.27375C36.0112 4.5 36.49 4.5 36.88 4.27375C38.5125 3.3225 40.5113 3.74875 41.6538 5.16125C42.0325 5.63 42.6925 5.76375 43.2237 5.47375C45.0787 4.465 47.28 5.2025 48.25 6.92375C48.4462 7.27125 48.7962 7.50375 49.1912 7.55125C49.9863 7.64625 50.71 7.97625 51.285 8.5075C51.46 8.66875 51.6775 8.7775 51.9125 8.82C53.7012 9.14 55 10.6875 55 12.5C55 14.5675 53.3175 16.25 51.25 16.25C50.9463 16.25 50.6225 16.1975 50.2313 16.0863C49.8988 15.9925 49.5413 16.04 49.2438 16.2175C48.9463 16.3962 48.7375 16.69 48.6662 17.0288C48.4312 18.1413 47.6663 19.1063 46.62 19.6112C46.0375 19.8937 45.7663 20.5738 45.995 21.1788C46.165 21.6275 46.25 22.0713 46.25 22.5C46.25 23.3438 45.9575 24.1525 45.4025 24.84C45.0325 25.2987 45.0325 25.9525 45.4025 26.4112C45.9575 27.0975 46.25 27.9062 46.25 28.75C46.25 30.8175 44.5675 32.5 42.5 32.5C40.4325 32.5 38.75 30.8175 38.75 28.75C38.75 27.9062 39.0438 27.0975 39.5988 26.41C39.9688 25.9525 39.9675 25.2975 39.5988 24.84C39.2563 24.415 39.015 23.9388 38.8838 23.4237C38.7425 22.8687 38.2425 22.4837 37.6737 22.4837C37.66 22.4837 37.6475 22.4837 37.6338 22.4837C37.5575 22.4862 37.4862 22.4937 37.5 22.5C36.42 22.5 35.4225 22.0387 34.69 21.2025C34.2163 20.6588 33.2825 20.6588 32.8088 21.2025C32.0775 22.0387 31.08 22.5 30 22.5C28.6625 22.5 27.4162 21.7613 26.7462 20.5713C26.4937 20.1213 25.8762 19.8925 25.3662 19.9613C25.2462 19.9788 25.1263 20 25 20C23.24 20 21.6975 18.7512 21.3337 17.03C21.2612 16.6912 21.0525 16.3975 20.7562 16.2188C20.46 16.04 20.1012 15.9937 19.7687 16.0875C19.3775 16.1975 19.0538 16.25 18.75 16.25C16.6825 16.25 15 14.5675 15 12.5C15 10.615 16.4225 9.025 18.3088 8.80125ZM19.2638 18.725C20.2362 20.97 22.485 22.5 25 22.5H25.0275C26.2 24.06 28.04 25 30 25C31.3575 25 32.6725 24.5463 33.75 23.7275C34.6338 24.3988 35.6763 24.825 36.7712 24.9562C36.87 25.185 36.9813 25.4062 37.1087 25.6225C36.545 26.5775 36.25 27.6425 36.25 28.75C36.25 32.1963 39.0537 35 42.5 35C45.9463 35 48.75 32.1963 48.75 28.75C48.75 27.6425 48.4562 26.5788 47.8925 25.625C48.4562 24.6712 48.75 23.6075 48.75 22.5C48.75 22.1075 48.71 21.7113 48.63 21.3162C49.5525 20.655 50.2825 19.7537 50.7338 18.725C51.3425 18.7812 51.9338 18.74 52.5013 18.6262V68.75H17.5V18.6362C18.065 18.7463 18.655 18.785 19.2638 18.725ZM56.25 73.75C56.25 75.1288 55.1287 76.25 53.75 76.25H16.25C14.8712 76.25 13.75 75.1288 13.75 73.75C13.75 72.3712 14.8712 71.25 16.25 71.25H53.75C55.1287 71.25 56.25 72.3712 56.25 73.75ZM66.25 51.25C66.25 54.6963 63.4463 57.5 60 57.5H55V55H60C62.0675 55 63.75 53.3175 63.75 51.25V30C63.75 27.9325 62.0675 26.25 60 26.25H55V23.75H60C63.4463 23.75 66.25 26.5537 66.25 30V51.25Z" fill="#252733"/>
<path d="M23.75 66.25C25.8175 66.25 27.5 64.5675 27.5 62.5V40C27.5 37.9325 25.8175 36.25 23.75 36.25C21.6825 36.25 20 37.9325 20 40V62.5C20 64.5675 21.6825 66.25 23.75 66.25ZM22.5 40C22.5 39.3112 23.0612 38.75 23.75 38.75C24.4387 38.75 25 39.3112 25 40V62.5C25 63.19 24.4387 63.75 23.75 63.75C23.0612 63.75 22.5 63.19 22.5 62.5V40Z" fill="#252733"/>
<path d="M35 66.25C37.0675 66.25 38.75 64.5675 38.75 62.5V40C38.75 37.9325 37.0675 36.25 35 36.25C32.9325 36.25 31.25 37.9325 31.25 40V62.5C31.25 64.5675 32.9325 66.25 35 66.25ZM33.75 40C33.75 39.3112 34.3112 38.75 35 38.75C35.6887 38.75 36.25 39.3112 36.25 40V62.5C36.25 63.19 35.6887 63.75 35 63.75C34.3112 63.75 33.75 63.19 33.75 62.5V40Z" fill="#252733"/>
<path d="M46.25 66.25C48.3175 66.25 50 64.5675 50 62.5V40C50 37.9325 48.3175 36.25 46.25 36.25C44.1825 36.25 42.5 37.9325 42.5 40V62.5C42.5 64.5675 44.1825 66.25 46.25 66.25ZM45 40C45 39.3112 45.5612 38.75 46.25 38.75C46.9387 38.75 47.5 39.3112 47.5 40V62.5C47.5 63.19 46.9387 63.75 46.25 63.75C45.5612 63.75 45 63.19 45 62.5V40Z" fill="#252733"/>
</svg>
