<svg width="80" height="80" viewBox="0 0 80 80" fill="none" xmlns="http://www.w3.org/2000/svg">
<g clip-path="url(#clip0)">
<path d="M28.75 8.74768C28.745 8.74768 28.7425 8.75018 28.7375 8.75018H27.525C27.5163 8.75018 27.5088 8.74518 27.5 8.74518C27.4825 8.74518 27.4688 8.75018 27.4513 8.75018H21.26C21.255 8.75018 21.2525 8.74768 21.2475 8.74768C17.8013 8.74768 14.9988 11.5514 14.9988 14.9977C14.9988 18.4414 17.8013 21.2427 21.2475 21.2427C21.25 21.2427 21.2513 21.2414 21.2538 21.2414H27.4875C27.4925 21.2414 27.4963 21.2427 27.5 21.2427C27.5025 21.2427 27.5038 21.2414 27.5063 21.2414H28.7313C28.7375 21.2414 28.7438 21.2452 28.75 21.2452C32.1963 21.2452 35 18.4414 35 14.9952C35 11.5502 32.1963 8.74768 28.75 8.74768ZM17.4988 14.9977C17.4988 12.9327 19.1775 11.2527 21.2388 11.2489C21.2425 11.2489 21.245 11.2502 21.2475 11.2502H22.5275C21.7375 12.2977 21.25 13.5852 21.25 14.9952C21.25 16.4064 21.7388 17.6939 22.53 18.7414H21.25C21.2488 18.7414 21.2463 18.7427 21.245 18.7427C19.18 18.7414 17.4988 17.0614 17.4988 14.9977ZM28.7625 18.7439C28.7575 18.7439 28.755 18.7414 28.75 18.7414H27.4875C25.4263 18.7352 23.75 17.0577 23.75 14.9952C23.75 12.9439 25.4063 11.2764 27.4513 11.2502H28.75C28.7525 11.2502 28.755 11.2489 28.7588 11.2489C30.8225 11.2527 32.5 12.9314 32.5 14.9952C32.5 17.0589 30.8238 18.7377 28.7625 18.7439Z" fill="#252733"/>
<path d="M58.7538 -0.00238037H21.2463C12.975 -0.00238037 6.24628 6.72637 6.24628 14.9976V65.0026C6.24628 73.2739 12.975 80.0026 21.2463 80.0026H58.7538C67.025 80.0026 73.7538 73.2739 73.7538 65.0026V14.9976C73.7538 6.72637 67.025 -0.00238037 58.7538 -0.00238037ZM21.2463 29.9901H58.7538C63.4838 29.9901 67.7025 27.7839 70.4538 24.3539C68.68 29.0989 64.1113 32.4926 58.7538 32.4926H21.2463C15.8888 32.4926 11.32 29.0989 9.54628 24.3551C12.2975 27.7851 16.5163 29.9901 21.2463 29.9901ZM58.7538 77.5026H21.2463C15.8888 77.5026 11.32 74.1064 9.54628 69.3601C12.2975 72.7914 16.5163 74.9976 21.2463 74.9976H58.7538C63.4838 74.9976 67.7025 72.7914 70.4538 69.3601C68.68 74.1064 64.1113 77.5026 58.7538 77.5026ZM71.2538 59.9976C71.2538 66.8901 65.6463 72.4976 58.7538 72.4976H21.2463C14.3538 72.4976 8.74628 66.8901 8.74628 59.9976V28.2689C11.435 32.3164 16.0313 34.9926 21.2463 34.9926H58.7538C63.9688 34.9926 68.565 32.3164 71.2538 28.2689V59.9976ZM58.7538 27.4901H21.2463C14.3538 27.4901 8.74628 21.8864 8.74628 14.9976C8.74628 8.10512 14.3538 2.49762 21.2463 2.49762H58.7538C65.6463 2.49762 71.2538 8.10512 71.2538 14.9976C71.2538 21.8864 65.6463 27.4901 58.7538 27.4901Z" fill="#252733"/>
<path d="M58.7538 3.74762H21.2463C15.0425 3.74762 9.99628 8.79387 9.99628 14.9976C9.99628 21.1989 15.0425 26.2426 21.2463 26.2426H58.7538C64.9575 26.2426 70.0038 21.1989 70.0038 14.9976C70.0038 8.79387 64.9575 3.74762 58.7538 3.74762ZM58.7538 23.7426H21.2463C16.4225 23.7426 12.4963 19.8189 12.4963 14.9976C12.4963 10.1739 16.4225 6.24762 21.2463 6.24762H58.7538C63.5775 6.24762 67.5038 10.1739 67.5038 14.9976C67.5038 19.8189 63.5775 23.7426 58.7538 23.7426Z" fill="#252733"/>
<path d="M37.5375 61.2648H37.525C36.835 61.2648 36.2825 61.8236 36.2825 62.5148C36.2825 63.2061 36.8475 63.7648 37.5387 63.7648C38.2287 63.7648 38.7887 63.2061 38.7887 62.5148C38.7887 61.8236 38.2275 61.2648 37.5375 61.2648Z" fill="#252733"/>
<path d="M41.2875 61.2648H41.275C40.585 61.2648 40.0325 61.8236 40.0325 62.5148C40.0325 63.2061 40.5975 63.7648 41.2887 63.7648C41.9787 63.7648 42.5387 63.2061 42.5387 62.5148C42.5387 61.8236 41.9775 61.2648 41.2875 61.2648Z" fill="#252733"/>
<path d="M58.725 47.3051C58.7088 47.2114 58.6675 47.1251 58.6313 47.0376C58.6075 46.9826 58.6038 46.9226 58.5713 46.8701L54.8213 40.6201C54.815 40.6101 54.8063 40.6064 54.8 40.5964C54.7188 40.4676 54.6175 40.3526 54.4938 40.2601C54.2275 40.0626 53.895 39.9776 53.5675 40.0264C53.2375 40.0739 52.9413 40.2526 52.745 40.5201C52.6463 40.6526 52.575 40.8051 52.5363 40.9626L51.5238 45.0114H48.9913L39.8388 41.3501C39.7763 41.3239 39.71 41.3289 39.6475 41.3151C39.5575 41.2939 39.47 41.2651 39.3775 41.2651C39.2713 41.2651 39.1725 41.2951 39.0713 41.3214C39.0175 41.3351 38.9638 41.3301 38.9113 41.3501L29.7588 45.0114H27.225L26.2125 40.9626C26.1725 40.8026 26.1 40.6514 26 40.5176C25.9238 40.4139 25.8225 40.3351 25.72 40.2614C25.6913 40.2401 25.6738 40.2089 25.6413 40.1901C25.6388 40.1889 25.635 40.1889 25.6325 40.1876C25.495 40.1064 25.3425 40.0514 25.1825 40.0264C24.8538 39.9776 24.52 40.0614 24.2538 40.2601C24.1288 40.3526 24.0275 40.4689 23.9463 40.5976C23.9413 40.6064 23.9313 40.6114 23.9263 40.6201L20.1763 46.8701C20.145 46.9226 20.14 46.9826 20.1163 47.0376C20.08 47.1251 20.0375 47.2114 20.0225 47.3051C20.0088 47.3839 20.0188 47.4601 20.02 47.5401C20.0225 47.6214 20.015 47.7014 20.0338 47.7814C20.0538 47.8726 20.1 47.9551 20.14 48.0401C20.1663 48.0951 20.1725 48.1551 20.2088 48.2076L22.7088 51.9576C22.7438 52.0114 22.79 52.0539 22.8325 52.1001C22.8525 52.1214 22.8663 52.1426 22.8875 52.1639C22.99 52.2614 23.1063 52.3389 23.2313 52.3964C23.2575 52.4089 23.2863 52.4176 23.3138 52.4264C23.4525 52.4789 23.5988 52.5126 23.7463 52.5139H23.7488H28.7488V60.0151C28.7488 60.0714 28.7738 60.1176 28.78 60.1714C28.7913 60.2576 28.8025 60.3426 28.8313 60.4251C28.8588 60.5064 28.9025 60.5776 28.9475 60.6514C28.975 60.6989 28.9863 60.7526 29.0225 60.7964L34.0225 67.0464C34.0363 67.0639 34.0575 67.0701 34.0713 67.0851C34.1575 67.1826 34.2613 67.2576 34.375 67.3239C34.415 67.3476 34.4475 67.3826 34.49 67.4014C34.6463 67.4726 34.8163 67.5151 34.9988 67.5151H43.7488C43.9313 67.5151 44.1013 67.4726 44.2575 67.4014C44.3 67.3826 44.3325 67.3476 44.3725 67.3239C44.485 67.2564 44.59 67.1826 44.6763 67.0851C44.69 67.0689 44.7113 67.0626 44.725 67.0464L49.7263 60.7964C49.7613 60.7514 49.7725 60.6976 49.8025 60.6501C49.8463 60.5764 49.8888 60.5076 49.9175 60.4251C49.9463 60.3426 49.9575 60.2576 49.9688 60.1714C49.9763 60.1176 50 60.0701 50 60.0151V52.5139H55H55.0025C55.15 52.5126 55.295 52.4789 55.435 52.4264C55.4625 52.4151 55.4913 52.4076 55.5175 52.3951C55.6438 52.3389 55.7588 52.2626 55.8613 52.1626C55.8825 52.1426 55.8963 52.1214 55.9163 52.1001C55.9575 52.0539 56.0038 52.0114 56.04 51.9576L58.54 48.2076C58.575 48.1551 58.5825 48.0951 58.6088 48.0401C58.6488 47.9551 58.695 47.8726 58.715 47.7814C58.7338 47.7014 58.7263 47.6214 58.7288 47.5401C58.7288 47.4601 58.7388 47.3839 58.725 47.3051ZM43.1488 65.0151H35.6025L33.015 61.7801L36.5463 60.0151H42.205L45.7363 61.7814L43.1488 65.0151ZM43.0588 57.6464C43.0463 57.6401 43.0338 57.6414 43.0225 57.6364C42.9438 57.6014 42.8588 57.5889 42.775 57.5689C42.6963 57.5514 42.62 57.5251 42.54 57.5226C42.5263 57.5214 42.5138 57.5139 42.5 57.5139H36.25C36.235 57.5139 36.2238 57.5214 36.21 57.5226C36.1313 57.5251 36.055 57.5514 35.9763 57.5689C35.8913 57.5889 35.805 57.5989 35.7275 57.6364C35.715 57.6414 35.7025 57.6401 35.6913 57.6464L31.4175 59.7839L31.25 59.5751V50.0139V47.1101L39.375 43.8601L47.5 47.1101V50.0139V51.2626V51.2639C47.5 51.2639 47.5 51.2639 47.5 51.2651L47.5013 59.5751L47.3338 59.7839L43.0588 57.6464ZM24.4188 50.0139L22.7288 47.4789L24.5188 44.4939L25.0375 46.5664C25.0463 46.6014 25.0688 46.6301 25.08 46.6639C25.1013 46.7251 25.1263 46.7801 25.1563 46.8376C25.1988 46.9189 25.2488 46.9926 25.3075 47.0626C25.345 47.1064 25.3825 47.1489 25.425 47.1889C25.5 47.2551 25.5813 47.3064 25.6675 47.3526C25.7125 47.3776 25.7525 47.4064 25.8013 47.4251C25.9425 47.4801 26.0913 47.5151 26.2475 47.5151H26.2488H28.7488V50.0151H24.4188V50.0139ZM50 47.5139H52.5H52.5013C52.6575 47.5139 52.8063 47.4789 52.9475 47.4239C52.9963 47.4051 53.0363 47.3764 53.0813 47.3514C53.1675 47.3051 53.25 47.2539 53.3238 47.1876C53.3663 47.1489 53.4025 47.1064 53.4413 47.0614C53.5 46.9914 53.5488 46.9189 53.5925 46.8364C53.6213 46.7801 53.6475 46.7239 53.6688 46.6626C53.6813 46.6289 53.7025 46.6001 53.7113 46.5651L54.23 44.4926L56.02 47.4776L54.33 50.0126H50V47.5139Z" fill="#252733"/>
<path d="M36.25 50.0139H35C34.3088 50.0139 33.75 50.5726 33.75 51.2639C33.75 51.9551 34.3088 52.5139 35 52.5139H36.25C36.9412 52.5139 37.5 51.9551 37.5 51.2639C37.5 50.5726 36.9412 50.0139 36.25 50.0139Z" fill="#252733"/>
<path d="M43.75 50.0139H42.5C41.8088 50.0139 41.25 50.5726 41.25 51.2639C41.25 51.9551 41.8088 52.5139 42.5 52.5139H43.75C44.4412 52.5139 45 51.9551 45 51.2639C45 50.5726 44.4412 50.0139 43.75 50.0139Z" fill="#252733"/>
</g>
<defs>
<clipPath id="clip0">
<rect width="80" height="80" fill="white"/>
</clipPath>
</defs>
</svg>
