<svg width="80" height="80" viewBox="0 0 80 80" fill="none" xmlns="http://www.w3.org/2000/svg">
<g clip-path="url(#clip0)">
<path d="M39.7357 29.2528C36.1705 27.6486 33.5946 26.4895 33.5946 21.923V13.9628H33.9836C34.8464 13.9628 35.5461 13.2631 35.5461 12.4003V5.10578C35.5463 2.29047 33.2571 0 30.4433 0H18.9375C16.1238 0 13.8347 2.29047 13.8347 5.10578V12.4005C13.8347 13.2633 14.5344 13.963 15.3972 13.963H15.7863V21.923C15.7863 26.4897 13.2105 27.6488 9.6452 29.2528C4.77395 31.4447 -1.28824 34.1725 0.583947 47.0042L4.73457 75.4639C5.12192 78.1347 7.0716 80 9.47613 80H39.9047C42.3093 80 44.2589 78.1347 44.6461 75.4653L48.7969 47.0044C50.6691 34.1725 44.6069 31.4447 39.7357 29.2528ZM16.9596 5.10578C16.9596 4.01359 17.8469 3.125 18.9374 3.125H30.4433C31.5338 3.125 32.4211 4.01359 32.4211 5.10578V10.838H16.9596V5.10578ZM45.7046 46.5531L41.5536 75.0156C41.4194 75.9411 40.8575 76.875 39.9047 76.875H9.47613C8.52332 76.875 7.9616 75.9409 7.82707 75.0142L3.67629 46.5531C2.14442 36.0547 6.21473 34.2231 10.9275 32.1027C14.6697 30.4188 18.9113 28.5102 18.9113 21.923V13.9628H30.4697V21.9228C30.4697 28.51 34.7113 30.4186 38.4535 32.1025C43.1663 34.2231 47.2364 36.0547 45.7046 46.5531Z" fill="#252733"/>
<path d="M34.3289 62.7021H15.0519C12.8872 62.7021 11.1263 64.4621 11.1263 66.6252V69.1939C11.1263 71.3572 12.8873 73.1171 15.0519 73.1171H34.3288C36.4934 73.1171 38.2544 71.3571 38.2544 69.1939V66.6252C38.2545 64.4621 36.4934 62.7021 34.3289 62.7021ZM35.1295 69.1941C35.1295 69.6267 34.7628 69.9922 34.3289 69.9922H15.0519C14.618 69.9922 14.2513 69.6266 14.2513 69.1941V66.6253C14.2513 66.1925 14.618 65.8272 15.0519 65.8272H34.3288C34.7627 65.8272 35.1294 66.1927 35.1294 66.6253V69.1941H35.1295Z" fill="#252733"/>
<path d="M79.3877 54.1234C79.091 53.7774 78.6577 53.5784 78.2018 53.5784H52.9331C52.4771 53.5784 52.0441 53.7774 51.7471 54.1234C51.4504 54.4695 51.3195 54.9277 51.3887 55.3784L52.8826 65.0871C52.8846 65.0988 54.9734 78.6752 54.9734 78.6752C55.0907 79.4376 55.7465 80.0001 56.5177 80.0001H74.6173C75.3885 80.0001 76.0443 79.4374 76.1616 78.6752L79.7462 55.3784C79.8154 54.9277 79.6844 54.4695 79.3877 54.1234ZM76.3804 56.7032L75.2588 63.9923C72.6518 65.262 68.8884 65.1057 66.5659 63.522C63.5562 61.4738 59.1416 61.1154 55.6376 62.4434L54.7543 56.7034H76.3804V56.7032ZM73.2766 76.8751H57.858L56.1279 65.6304C58.7352 64.3704 62.4898 64.5284 64.8065 66.1046C66.6327 67.3501 68.9765 67.9727 71.3202 67.9727C72.4727 67.9727 73.6249 67.8213 74.716 67.5201L73.2766 76.8751Z" fill="#252733"/>
<path d="M36.6042 35.3853C28.5874 31.3054 20.7935 31.3054 12.7757 35.3859C10.1757 36.7115 8.53791 37.6075 7.66494 39.25C6.81932 40.8411 6.90103 42.6982 7.38588 46.0126L8.22666 51.7615C8.33885 52.5289 8.99713 53.0979 9.77275 53.0979H17.6807C18.5435 53.0979 19.2432 52.3983 19.2432 51.5354C19.2432 50.6726 18.5435 49.9729 17.6807 49.9729H11.1232L10.4779 45.5604C10.1101 43.0456 9.99275 41.5289 10.4243 40.7167C10.8487 39.9182 12.1321 39.2218 14.1943 38.1703C21.2571 34.5756 28.1238 34.5757 35.1856 38.1698C37.2478 39.2212 38.5304 39.9173 38.9546 40.7162C39.3857 41.5278 39.269 43.0453 38.9031 45.5604L38.2578 49.9729H31.7003C30.8374 49.9729 30.1378 50.6726 30.1378 51.5354C30.1378 52.3983 30.8374 53.0979 31.7003 53.0979H39.6082C40.3838 53.0979 41.0421 52.5289 41.1543 51.7615L41.9953 46.0114C42.4776 42.6968 42.5585 40.8395 41.7146 39.2503C40.8418 37.607 39.2045 36.7111 36.6042 35.3853Z" fill="#252733"/>
<path d="M24.6994 53.0978C25.5622 53.0978 26.2575 52.3982 26.2575 51.5353C26.2575 50.6725 25.5534 49.9728 24.6906 49.9728C23.8278 49.9728 23.1281 50.6725 23.1281 51.5353C23.1281 52.3982 23.8278 53.0978 24.6906 53.0978H24.6994Z" fill="#252733"/>
</g>
<defs>
<clipPath id="clip0">
<rect width="80" height="80" fill="white"/>
</clipPath>
</defs>
</svg>
