<svg width="80" height="80" viewBox="0 0 80 80" fill="none" xmlns="http://www.w3.org/2000/svg">
<g clip-path="url(#clip0)">
<path d="M31.0937 54.8296C31.7177 54.8296 32.3074 54.4529 32.5488 53.8368L33.3667 51.7499H38.8884L39.7062 53.8368C39.9476 54.453 40.5371 54.8296 41.1613 54.8296C41.3509 54.8296 41.5438 54.7948 41.731 54.7215C42.5345 54.4066 42.9306 53.5001 42.6157 52.6966L41.4149 49.6326C41.4062 49.6094 41.3977 49.5862 41.3879 49.5637L37.5821 39.852C37.3498 39.2595 36.7591 38.8584 36.1231 38.8605C35.4901 38.8627 34.9038 39.2618 34.6726 39.852L29.6392 52.6966C29.3243 53.5001 29.7204 54.4066 30.5238 54.7215C30.7112 54.7948 30.904 54.8296 31.0937 54.8296ZM36.1274 44.7045L37.6637 48.6248H34.5912L36.1274 44.7045Z" fill="#252733"/>
<path d="M25.3562 41.9845C26.2191 41.9845 26.9187 41.285 26.9187 40.422C26.9187 39.559 26.2191 38.8595 25.3562 38.8595H19.5694C18.7065 38.8595 18.0069 39.559 18.0069 40.422V53.2667C18.0069 54.1297 18.7065 54.8292 19.5694 54.8292C20.4324 54.8292 21.1319 54.1297 21.1319 53.2667V48.0059H25.3562C26.2191 48.0059 26.9187 47.3064 26.9187 46.4434C26.9187 45.5804 26.2191 44.8809 25.3562 44.8809H21.1319V41.9847H25.3562V41.9845Z" fill="#252733"/>
<path d="M49.8231 54.8292C50.6861 54.8292 51.3856 54.1297 51.3856 53.2667V41.9845H54.347C55.21 41.9845 55.9095 41.285 55.9095 40.422C55.9095 39.559 55.21 38.8595 54.347 38.8595H45.3259C44.4629 38.8595 43.7634 39.559 43.7634 40.422C43.7634 41.285 44.4629 41.9845 45.3259 41.9845H48.2606V53.2667C48.2606 54.1297 48.9601 54.8292 49.8231 54.8292Z" fill="#252733"/>
<path d="M18.001 24.235C18.864 24.235 19.5635 23.5355 19.5635 22.6725V22.6681C19.5635 21.8052 18.864 21.1078 18.001 21.1078C17.1381 21.1078 16.4385 21.8095 16.4385 22.6725C16.4385 23.5355 17.1381 24.235 18.001 24.235Z" fill="#252733"/>
<path d="M61.8714 2.74547C60.9281 1.56828 59.4452 0.00328125 57.4641 0.00328125C55.483 0.00328125 54 1.56828 53.058 2.74391C51.6198 4.53422 49.6267 7.11422 47.7622 10.1617C46.287 8.17766 44.8966 6.4075 43.6875 4.89875C41.0094 1.55656 38.5959 0 36.092 0C33.5881 0 31.1747 1.55656 28.4969 4.89859C25.3058 8.88016 22.7388 12.3547 20.4186 15.8328C19.9398 16.5508 20.1336 17.5209 20.8514 17.9997C21.5692 18.4786 22.5394 18.2848 23.0183 17.5669C25.2867 14.1661 27.8023 10.7617 30.9355 6.85266C32.9453 4.34437 34.632 3.125 36.092 3.125C37.552 3.125 39.2388 4.34438 41.2487 6.85297C50.0013 17.7736 61.6372 34.3202 61.6372 51.8577C61.6372 69.0462 48.3953 76.875 36.092 76.875C23.7887 76.875 10.5469 69.0462 10.5469 51.8577C10.5469 44.9127 12.4358 37.3977 16.1613 29.5216C16.5303 28.7414 16.197 27.81 15.4169 27.4411C14.6369 27.072 13.7053 27.4053 13.3364 28.1855C9.41172 36.4825 7.42188 44.4469 7.42188 51.8577C7.42188 60.5334 10.5364 67.8339 16.4289 72.9698C21.63 77.5033 28.6133 80 36.092 80C43.5708 80 50.5541 77.5033 55.7553 72.9698C61.6477 67.8339 64.7623 60.5334 64.7623 51.8577C64.7623 48.1989 64.2773 44.4095 63.3145 40.5114C65.7438 39.5992 67.8261 38.1355 69.3941 36.2202C71.4772 33.6755 72.5781 30.3866 72.5781 26.7091C72.5781 17.205 66.4677 8.48078 61.8714 2.74547ZM62.4775 37.4881C61.2508 33.4744 59.5339 29.3541 57.3298 25.1489C54.9813 20.6681 52.3117 16.5219 49.7611 12.9164C51.7077 9.53453 53.9384 6.63766 55.4953 4.69938C56.5906 3.33234 57.1989 3.12813 57.4639 3.12813C57.7289 3.12813 58.3372 3.33234 59.4327 4.69938C63.7342 10.0672 69.453 18.1888 69.453 26.7088C69.4531 31.8013 66.875 35.7319 62.4775 37.4881Z" fill="#252733"/>
</g>
<defs>
<clipPath id="clip0">
<rect width="80" height="80" fill="white"/>
</clipPath>
</defs>
</svg>
