<svg width="80" height="80" viewBox="0 0 80 80" fill="none" xmlns="http://www.w3.org/2000/svg">
<path d="M41.0075 52.5386C37.0025 53.3311 32.3312 53.7498 27.5 53.7498C22.6687 53.7498 17.9975 53.3311 13.9925 52.5386C13.6238 52.4661 13.245 52.5611 12.9562 52.7986C12.6675 53.0361 12.5 53.3898 12.5 53.7648V71.2648C12.5 71.8623 12.9212 72.3748 13.5075 72.4911C17.67 73.3148 22.5087 73.7498 27.5 73.7498C32.4912 73.7498 37.33 73.3148 41.4925 72.4911C42.0788 72.3748 42.5 71.8611 42.5 71.2648V53.7648C42.5 53.3911 42.3325 53.0361 42.0437 52.7998C41.7537 52.5611 41.3762 52.4648 41.0075 52.5386ZM40 70.2273C36.2275 70.8973 31.9312 71.2498 27.5 71.2498C23.0688 71.2498 18.7725 70.8973 15 70.2273V55.2648C22.615 56.5561 32.385 56.5561 40 55.2648V70.2273Z" fill="#252733"/>
<path d="M16.25 46.25C19.8138 46.25 22.5 44.6375 22.5 42.5C22.5 40.3625 19.8138 38.75 16.25 38.75C12.6862 38.75 10 40.3625 10 42.5C10 44.6375 12.6862 46.25 16.25 46.25ZM16.25 41.25C18.67 41.25 20 42.1888 20 42.5C20 42.8113 18.67 43.75 16.25 43.75C13.83 43.75 12.5 42.8113 12.5 42.5C12.5 42.1888 13.83 41.25 16.25 41.25Z" fill="#252733"/>
<path d="M22.9787 61.8288C21.8224 59.95 19.7774 58.75 17.4999 58.75C17.0987 58.75 16.7212 58.9425 16.4862 59.27C16.2512 59.5963 16.1874 60.015 16.3137 60.3963L17.4324 63.75L16.3137 67.105C16.1862 67.4862 16.2512 67.905 16.4862 68.2312C16.7212 68.5575 17.0987 68.75 17.4999 68.75C19.7774 68.75 21.8237 67.55 22.9787 65.6712L24.7499 67C26.2549 68.1287 28.1187 68.75 29.9999 68.75C31.8812 68.75 33.7462 68.1287 35.2499 67L38.2499 64.75C38.5637 64.515 38.7499 64.1438 38.7499 63.75C38.7499 63.3562 38.5649 62.9863 38.2499 62.75L35.2499 60.5C32.2412 58.2413 27.7587 58.2413 24.7499 60.5L22.9787 61.8288ZM19.3949 65.7675L19.9362 64.1463C20.0212 63.8888 20.0212 63.6125 19.9362 63.355L19.3949 61.7338C20.1912 62.1688 20.8299 62.8737 21.1762 63.7512C20.8299 64.6275 20.1912 65.3325 19.3949 65.7675ZM33.7499 62.5L35.4162 63.75L33.7499 65C31.6012 66.6125 28.3987 66.6125 26.2499 65L24.5837 63.75L26.2499 62.5C28.3987 60.8875 31.6012 60.8875 33.7499 62.5Z" fill="#252733"/>
<path d="M52.5 1.25C39.455 1.25 26.25 4.255 26.25 10V33.76C13.625 33.945 1.25 36.9388 1.25 42.5V70C1.25 75.745 14.455 78.75 27.5 78.75C40.545 78.75 53.75 75.745 53.75 70V46.24C66.375 46.055 78.75 43.0612 78.75 37.5V10C78.75 4.255 65.545 1.25 52.5 1.25ZM52.5 3.75C67.215 3.75 76.25 7.39 76.25 10C76.25 10.2725 76.1288 10.5588 75.935 10.8488C71.6513 8.0325 62.7013 6.25 52.5 6.25V8.75C61.4487 8.75 69.7838 10.2563 73.865 12.5125C70.2725 14.4738 62.7787 16.25 52.5 16.25C37.785 16.25 28.75 12.61 28.75 10C28.75 7.39 37.785 3.75 52.5 3.75ZM26.25 36.2687V37.5C26.25 42.36 35.7038 45.26 46.515 46.0362C42.0175 47.6975 34.975 48.75 27.5 48.75C12.785 48.75 3.75 45.11 3.75 42.5C3.75 39.9663 12.285 36.4712 26.25 36.2687ZM27.5 76.25C12.785 76.25 3.75 72.61 3.75 70V46.455C8.18625 49.615 17.8838 51.25 27.5 51.25C37.96 51.25 47.1025 49.375 51.25 46.435V70C51.25 72.61 42.215 76.25 27.5 76.25ZM52.5 43.75C37.785 43.75 28.75 40.11 28.75 37.5V13.955C33.1863 17.115 42.8838 18.75 52.5 18.75C62.1162 18.75 71.8138 17.115 76.25 13.955V37.5C76.25 40.11 67.215 43.75 52.5 43.75Z" fill="#252733"/>
<path d="M66.0075 20.0389C62.0025 20.8314 57.3312 21.2502 52.5 21.2502C47.6687 21.2502 42.9975 20.8314 38.9925 20.0389C38.6238 19.9677 38.2437 20.0627 37.9562 20.2989C37.6675 20.5364 37.5 20.8901 37.5 21.2651V38.7652C37.5 39.3626 37.9212 39.8752 38.5075 39.9914C42.67 40.8152 47.5087 41.2501 52.5 41.2501C57.4912 41.2501 62.33 40.8152 66.4925 39.9914C67.0788 39.8752 67.5 39.3614 67.5 38.7652V21.2651C67.5 20.8914 67.3325 20.5364 67.0437 20.3002C66.755 20.0639 66.375 19.9677 66.0075 20.0389ZM65 37.7276C61.2275 38.3976 56.9312 38.7502 52.5 38.7502C48.0688 38.7502 43.7725 38.3976 40 37.7276V22.7652C47.615 24.0564 57.385 24.0564 65 22.7652V37.7276Z" fill="#252733"/>
<path d="M41.25 13.75C44.8138 13.75 47.5 12.1375 47.5 10C47.5 7.8625 44.8138 6.25 41.25 6.25C37.6862 6.25 35 7.8625 35 10C35 12.1375 37.6862 13.75 41.25 13.75ZM41.25 8.75C43.67 8.75 45 9.68875 45 10C45 10.3113 43.67 11.25 41.25 11.25C38.83 11.25 37.5 10.3113 37.5 10C37.5 9.68875 38.83 8.75 41.25 8.75Z" fill="#252733"/>
<path d="M47.9787 29.3287C46.8224 27.45 44.7774 26.25 42.4999 26.25C42.0987 26.25 41.7212 26.4425 41.4862 26.77C41.2512 27.0963 41.1874 27.515 41.3137 27.8962L42.4324 31.25L41.3137 34.605C41.1862 34.9862 41.2512 35.405 41.4862 35.7312C41.7212 36.0575 42.0987 36.25 42.4999 36.25C44.7774 36.25 46.8237 35.05 47.9787 33.1713L49.7499 34.5C51.2549 35.6288 53.1187 36.25 54.9999 36.25C56.8812 36.25 58.7462 35.6288 60.2499 34.5L63.2499 32.25C63.5637 32.015 63.7499 31.6438 63.7499 31.25C63.7499 30.8562 63.5649 30.4863 63.2499 30.25L60.2499 28C57.2412 25.7412 52.7587 25.7412 49.7499 28L47.9787 29.3287ZM44.3949 33.2675L44.9362 31.6462C45.0212 31.3887 45.0212 31.1125 44.9362 30.855L44.3949 29.2337C45.1912 29.6687 45.8299 30.3737 46.1762 31.2512C45.8299 32.1275 45.1912 32.8325 44.3949 33.2675ZM58.7499 30L60.4162 31.25L58.7499 32.5C56.6012 34.1125 53.3987 34.1125 51.2499 32.5L49.5837 31.25L51.2499 30C53.3987 28.3875 56.6012 28.3875 58.7499 30Z" fill="#252733"/>
</svg>
