<svg width="80" height="80" viewBox="0 0 80 80" fill="none" xmlns="http://www.w3.org/2000/svg">
<path d="M71.2203 49.0866C71.8534 49.2286 72.479 48.8297 72.6204 48.1998C73.074 46.1789 73.3392 44.1048 73.4115 42.0186H73.7889C75.5112 42.0186 76.9126 40.6172 76.9126 38.8947V34.8044C76.9126 33.0819 75.5112 31.6805 73.7889 31.6805H72.6376L74.1978 30.7797C75.7132 29.9047 76.2345 27.9598 75.3596 26.4441L67.6943 13.1677C66.8173 11.6486 64.8782 11.1288 63.3589 12.0059L61.2631 13.2159L62.6704 7.96344C63.1248 6.26906 62.1209 4.53047 60.4264 4.07625L45.6184 0.108595C43.9287 -0.343592 42.1845 0.662345 41.7312 2.35281L41.3031 3.95063C41.1356 4.57578 41.5065 5.21844 42.1317 5.38594C42.7568 5.55313 43.3993 5.18235 43.567 4.55719L43.9951 2.95938C44.1137 2.51735 44.5703 2.2536 45.0118 2.37235L59.8198 6.34016C60.2631 6.45891 60.5256 6.9136 60.4068 7.35688L58.3929 14.8731L50.8271 19.2413C50.6868 17.6198 49.3223 16.3433 47.6653 16.3433H42.0171L41.2129 13.342L42.174 9.75531C42.3415 9.13016 41.9706 8.48766 41.3454 8.32C40.8153 8.17828 40.2728 8.42328 40.0179 8.88203L38.2684 2.3525C37.8154 0.662345 36.072 -0.344061 34.3812 0.108595L19.5734 4.07625C17.879 4.53047 16.875 6.26906 17.3293 7.96344L18.7367 13.2159L16.6409 12.0059C15.1217 11.1289 13.1826 11.6484 12.3054 13.1677L4.64026 26.4441C3.76511 27.9597 4.2862 29.9045 5.80198 30.7797L7.36214 31.6805H6.21089C4.48855 31.6805 3.08714 33.0819 3.08714 34.8044V38.8947C3.08714 40.6172 4.48855 42.0186 6.21089 42.0186H6.58823C6.80605 48.3363 8.78308 54.402 12.3392 59.6292C16.024 65.0458 21.1589 69.232 27.1885 71.7356C27.2503 71.7613 27.2834 71.8245 27.2675 71.8859L25.8251 77.4233C25.4854 78.7269 26.4687 80 27.8167 80H52.1834C53.5306 80 54.5148 78.7278 54.175 77.4233L52.7326 71.8861C52.7165 71.8245 52.7496 71.7614 52.8115 71.7358C60.9471 68.3577 67.5432 61.7516 70.9084 53.6111C71.1557 53.013 70.8714 52.3277 70.2732 52.0805C69.6748 51.8331 68.9896 52.1175 68.7426 52.7158C65.6129 60.2861 59.4787 66.4298 51.9128 69.5713C50.7782 70.0424 50.1557 71.2916 50.4645 72.477L51.8137 77.6564H28.1862L29.5354 72.4769C29.8442 71.2914 29.2215 70.0422 28.0871 69.5713C16.8004 64.8848 9.38339 54.1542 8.93323 42.0188H15.6743C16.3217 42.0188 16.8462 41.4941 16.8462 40.8469C16.8462 40.1997 16.3217 39.675 15.6743 39.675H6.21073C5.78058 39.675 5.43073 39.325 5.43073 38.8948V34.8045C5.43073 34.3744 5.78058 34.0244 6.21073 34.0244H73.7889C74.219 34.0244 74.5689 34.3744 74.5689 34.8045V38.8948C74.5689 39.325 74.219 39.675 73.7889 39.675H21.1432C20.4959 39.675 19.9714 40.1997 19.9714 40.8469C19.9714 41.4941 20.4959 42.0188 21.1432 42.0188H71.0664C70.9951 43.9322 70.7495 45.8338 70.3335 47.6867C70.1918 48.318 70.5887 48.9449 71.2203 49.0866ZM51.2543 21.7009L64.5307 14.0358C64.9262 13.8073 65.4342 13.9406 65.6646 14.3397L73.33 27.6159C73.5587 28.0123 73.4225 28.5211 73.026 28.75L67.9504 31.6805H56.0575L50.9504 22.8348C50.721 22.4375 50.8567 21.9305 51.2543 21.7009ZM50.8387 27.3292L53.3509 31.6805H50.8387V27.3292ZM48.495 19.5173V31.6805H31.5046C31.5046 29.0703 31.5046 22.2608 31.5046 19.5173C31.5046 19.0595 31.877 18.6872 32.3346 18.6872H47.6648C48.1228 18.6872 48.495 19.0595 48.495 19.5173ZM29.1609 31.6805H26.6487L29.1609 27.3292V31.6805ZM19.5931 7.35688C19.4743 6.91375 19.7368 6.45891 20.1801 6.34031L34.9881 2.3725C35.4301 2.25422 35.8862 2.51735 36.0048 2.95938L38.8625 13.6241C38.866 13.6388 38.87 13.6533 38.8742 13.6678L39.591 16.3433H32.335C30.6779 16.3433 29.3134 17.6198 29.1731 19.2413L21.6073 14.8731L19.5931 7.35688ZM6.97386 28.75C6.57745 28.5211 6.4412 28.0125 6.67011 27.6161L14.3353 14.3397C14.5651 13.9419 15.0726 13.8067 15.4692 14.0358L28.7456 21.7009C29.1428 21.9303 29.2789 22.4372 29.0495 22.8348L23.9425 31.6805H12.0495L6.97386 28.75Z" fill="#252733"/>
<path d="M34.3904 69.896C33.743 69.896 33.2185 70.4207 33.2185 71.0679C33.2185 71.7151 33.743 72.2397 34.3904 72.2397H45.6091C46.2565 72.2397 46.781 71.7151 46.781 71.0679C46.781 70.4207 46.2565 69.896 45.6091 69.896H34.3904Z" fill="#252733"/>
</svg>
