<svg width="80" height="80" viewBox="0 0 80 80" fill="none" xmlns="http://www.w3.org/2000/svg">
<g clip-path="url(#clip0)">
<path d="M75.2897 45.3749C74.7958 44.956 74.0566 45.0171 73.638 45.5105C73.2194 46.0041 73.28 46.7438 73.7738 47.1622C76.3102 49.3135 77.6528 51.7211 77.6562 54.125C77.6586 55.7388 77.08 57.103 75.8873 58.2955C73.8931 60.2899 70.1823 61.7753 64.8581 62.7111C60.0786 63.551 54.0928 63.9586 46.5531 63.9436C34.9127 63.9278 26.7011 62.9205 21.5633 60.8724C23.5423 59.4643 25.6597 57.7741 27.9303 55.7907C28.6177 56.613 29.6031 57.1564 30.7078 57.268C33.0022 57.4997 35.0669 55.8011 35.2883 53.4933C35.4362 51.95 35.4395 50.396 35.3 48.8647C37.357 46.8125 39.2125 44.8754 40.8803 43.0379C41.8197 44.6457 42.4666 46.3402 42.8056 48.0932C43.0952 49.5871 43.1666 51.1336 43.0177 52.6902C42.7977 54.9964 44.4822 57.0611 46.7819 57.2935C49.0706 57.5247 51.1189 55.8391 51.3428 53.5155C51.5703 51.1563 51.4603 48.7952 51.0159 46.4975C50.5472 44.0775 49.7039 41.7411 48.5056 39.5261C50.7559 39.5964 52.957 39.7794 55.0817 40.0707C57.0381 42.5497 58.2447 45.2493 58.6658 48.1016C58.888 49.6071 58.8898 51.1549 58.6709 52.7022C58.3467 54.9964 59.9372 57.1349 62.2175 57.4696C64.48 57.8016 66.6255 56.2149 66.952 53.9047C67.2844 51.5532 67.2802 49.1897 66.9392 46.8802C66.7341 45.4908 66.4041 44.1161 65.9544 42.7702C67.12 43.2177 68.2311 43.7075 69.277 44.2397C69.845 44.5288 70.5556 44.3108 70.8528 43.7268C71.1464 43.15 70.9167 42.4444 70.3398 42.1508C63.8997 38.8733 54.9967 37.0669 45.8459 37.1522C46.4766 36.335 47.0639 35.5386 47.6084 34.7619C51.0408 29.8657 52.7094 25.8532 52.7094 22.4953C52.7094 20.1866 51.9062 18.2149 50.3225 16.6355C47.0088 13.3307 41.3986 12.8099 34.5259 15.1688C27.9339 17.4313 20.8711 22.1003 14.6388 28.3157C5.60938 37.3207 0 47.8943 0 55.9102C0 59.2344 1.01203 62.0008 2.92688 63.9103C4.51516 65.4943 6.46828 66.286 8.77109 66.2858C11.2089 66.2858 14.0386 65.3986 17.2419 63.6247C17.8984 63.2611 18.5727 62.8593 19.2644 62.421C24.6086 65.0036 33.5478 66.2699 46.5498 66.2874C53.9817 66.2974 60.457 65.8643 65.2637 65.0196C71.1533 63.9846 75.1703 62.3272 77.5445 59.9528C79.177 58.3203 80.0031 56.3585 79.9998 54.1218C79.9955 51.0091 78.3667 47.9846 75.2897 45.3749ZM63.0703 41.7836C63.8241 43.5416 64.3472 45.3682 64.6209 47.2224C64.9291 49.3096 64.9327 51.4475 64.6316 53.5766C64.4875 54.5957 63.5609 55.2977 62.5569 55.1503C61.5495 55.0027 60.8475 54.0514 60.9917 53.0303C61.242 51.2605 61.2395 49.4871 60.9844 47.7593C60.6142 45.2516 59.7203 42.8574 58.3231 40.6102C59.9689 40.9343 61.5562 41.326 63.0703 41.7836ZM32.9553 53.2696C32.8639 54.226 32.082 54.9466 31.1348 54.9466C30.5548 54.9466 30.0289 54.6807 29.6814 54.2303C30.7722 53.24 31.897 52.1853 33.0573 51.0655C33.0588 51.7999 33.0258 52.536 32.9553 53.2696ZM48.715 46.9427C49.1166 49.0194 49.2159 51.155 49.01 53.2914C48.9116 54.3133 48.0172 55.0625 47.0084 54.9607C45.9964 54.8585 45.253 53.9397 45.3509 52.9132C45.5211 51.1332 45.4389 49.3618 45.1069 47.6477C44.6709 45.3941 43.7975 43.2318 42.5088 41.2068C42.9998 40.6425 43.4731 40.0875 43.9273 39.5422C44.5413 39.5189 45.1608 39.5019 45.7836 39.4958C47.2248 41.8361 48.2106 44.3385 48.715 46.9427ZM29.6325 19.8843C31.4072 20.5943 33.0672 21.5153 34.5703 22.6318C36.2639 23.8899 37.7781 25.3989 39.0709 27.1174C39.6488 27.8855 39.557 28.9447 38.8577 29.5813C38.0542 30.3124 36.7697 30.1805 36.1109 29.3047C35.0364 27.8763 33.7806 26.6241 32.3786 25.5829C30.3447 24.0722 28.0209 23.0114 25.4458 22.4104C26.8384 21.4764 28.238 20.6318 29.6325 19.8843ZM6.63906 42.4729C8.46828 43.1049 10.1867 43.9585 11.7573 45.0191C13.5056 46.2 15.0863 47.6399 16.4552 49.2989C17.0673 50.041 17.0241 51.1044 16.3539 51.7725C15.5856 52.5386 14.2973 52.4643 13.6003 51.6196C12.4625 50.2407 11.1517 49.0457 9.70438 48.0682C8.25594 47.0899 6.65594 46.3288 4.93766 45.7897C5.43906 44.696 6.00719 43.5877 6.63906 42.4729ZM16.1066 61.5744C10.827 64.4982 7.05734 64.7196 4.58187 62.2508C3.09672 60.7697 2.34375 58.6364 2.34375 55.9102C2.34375 53.5158 2.93578 50.8111 4.02547 47.9608C5.60797 48.4352 7.07438 49.1203 8.3925 50.0105C9.65359 50.8622 10.7975 51.9055 11.7923 53.1113C13.3638 55.0158 16.2695 55.1663 18.0089 53.4319C19.5398 51.9053 19.6491 49.4872 18.2628 47.8072C16.7509 45.975 15.0036 44.3836 13.0691 43.0771C11.4625 41.9921 9.71703 41.1057 7.86766 40.4255C8.82812 38.9046 9.89812 37.3818 11.0687 35.878C13.4627 36.013 16.7392 36.6327 19.7609 38.6736C21.0222 39.5252 22.1659 40.5685 23.1606 41.7741C24.6378 43.5644 27.2898 43.8277 29.0706 42.3719C30.8644 40.9057 31.1042 38.255 29.6313 36.4702C28.7003 35.3419 27.6695 34.2947 26.5677 33.3577C26.0748 32.9386 25.335 32.9982 24.9158 33.4913C24.4964 33.9843 24.5562 34.7239 25.0494 35.1432C26.0466 35.9911 26.9798 36.9394 27.8233 37.9618C28.4781 38.7555 28.3723 39.915 27.5869 40.5572C26.7992 41.2013 25.6245 41.0778 24.9683 40.2822C23.8305 38.9033 22.5198 37.7085 21.0725 36.7311C18.6987 35.1278 15.8909 34.0961 12.8522 33.6939C13.7817 32.6066 14.7614 31.5358 15.7875 30.4893C17.525 30.9027 19.185 31.5024 20.7291 32.2783C21.298 32.5643 22.0081 32.3428 22.3023 31.7575C22.593 31.1793 22.3598 30.4749 21.7816 30.1843C20.4966 29.5385 19.1398 29.0057 17.7314 28.5858C19.3716 27.0457 21.0592 25.618 22.7708 24.32C25.9061 24.69 28.6669 25.7457 30.9809 27.4643C32.2027 28.3718 33.2984 29.465 34.238 30.7138C35.7225 32.6871 38.623 32.9638 40.4348 31.3149C42.0344 29.8593 42.2531 27.4491 40.9438 25.7085C39.5159 23.8105 37.8417 22.1424 35.9677 20.7503C34.8403 19.9132 33.635 19.1746 32.3655 18.5408C33.3478 18.1029 34.3233 17.7166 35.2872 17.3857C37.8859 16.4936 40.2519 16.0502 42.3147 16.0502C45 16.0502 47.1709 16.8021 48.668 18.295C49.8106 19.4346 50.3661 20.8085 50.3661 22.4953C50.3661 25.3157 48.7928 28.99 45.6897 33.4166C44.1388 35.6289 42.1908 38.213 40.1869 40.2985C33.2044 47.5649 24.7467 56.7894 16.1066 61.5744Z" fill="#252733"/>
</g>
<defs>
<clipPath id="clip0">
<rect width="80" height="80" fill="white"/>
</clipPath>
</defs>
</svg>
