<svg width="80" height="80" viewBox="0 0 80 80" fill="none" xmlns="http://www.w3.org/2000/svg">
<path d="M60.1391 10.2358C59.7568 9.71359 59.0233 9.60047 58.5013 9.98266C57.9791 10.3652 57.866 11.0983 58.2483 11.6205C58.895 12.5034 59.4688 13.425 59.9752 14.3761C54.1336 14.81 50.343 17.27 48.1319 19.365C47.213 20.2358 46.4915 21.1083 45.9386 21.8819C44.969 20.0127 43.1444 18.6561 40.9852 18.3358C40.484 15.3869 39.273 5.57891 44.7319 2.84406C48.6404 3.68062 52.2788 5.54828 55.2791 8.30391C55.7555 8.74172 56.4971 8.71016 56.9349 8.23359C57.3727 7.75688 57.3413 7.01562 56.8646 6.57781C52.2465 2.33594 46.2572 0 40 0C26.2425 0 15.05 11.1931 15.05 24.9516V69.6969C15.05 75.378 19.6721 80 25.3532 80C31.0343 80 35.6563 75.378 35.6563 69.6969V24.9516C35.6563 22.5556 37.6049 20.6063 40 20.6063C42.3954 20.6063 44.3438 22.5556 44.3438 24.9516V33.5344C44.3438 39.2155 48.9657 43.8375 54.6468 43.8375C60.3279 43.8375 64.9499 39.2155 64.9499 33.5344V24.9516C64.95 19.622 63.2865 14.5334 60.1391 10.2358ZM22.3813 10.8039C24.5729 18.1477 31.4268 24.0175 33.3124 25.5238V36.6969C30.9658 36.1198 26.0047 34.5883 21.8213 31.22C19.9968 29.7511 18.5091 28.0802 17.3938 26.2506V24.9517C17.3938 19.6011 19.2632 14.68 22.3813 10.8039ZM17.3938 30.2039C18.269 31.2139 19.2565 32.1639 20.3516 33.0456C25.2705 37.0059 31.0369 38.6012 33.3125 39.1078V52.4688C30.0272 51.6539 21.6199 48.9603 17.3938 42.0267V30.2039ZM25.3532 77.6562C20.9644 77.6562 17.3938 74.0856 17.3938 69.6969V61.7517C17.7502 62.163 18.1224 62.5645 18.5144 62.9528C18.7429 63.1792 19.0411 63.2922 19.3391 63.2922C19.6408 63.2922 19.9426 63.1764 20.1716 62.945C20.6271 62.4852 20.6236 61.7433 20.1638 61.2878C19.0808 60.215 18.1516 59.0419 17.3936 57.7984V45.9872C22.6485 52.0659 30.5447 54.272 33.3124 54.8839V68.2452C31.2933 67.7475 27.3404 66.5445 23.6263 64.0867C23.0866 63.7294 22.3594 63.8775 22.0022 64.4172C21.645 64.9569 21.793 65.6841 22.3327 66.0413C26.6958 68.9286 31.2516 70.1927 33.254 70.6439C32.7841 74.5877 29.4213 77.6562 25.3532 77.6562ZM33.6815 22.7648C30.9791 20.3922 25.4754 14.9095 24.28 8.72156C28.3513 4.77625 33.8966 2.34375 40 2.34375C40.4802 2.34375 40.9585 2.36016 41.4344 2.39031C37.2088 6.74109 38.088 15.1764 38.616 18.4073C36.3113 18.8945 34.4419 20.5725 33.6815 22.7648ZM49.8241 20.9912C52.7413 18.2666 56.5104 16.8152 61.0343 16.6672C62.0682 19.2817 62.6065 22.0772 62.6065 24.9517V28.3492C59.9475 28.9384 52.5408 31.0059 47.2946 36.58C46.9043 35.6413 46.6877 34.6128 46.6877 33.5345V25.1959C46.9536 24.6219 47.8955 22.7925 49.8241 20.9912ZM54.6469 41.4938C52.2108 41.4938 50.0282 40.3927 48.5671 38.6631C53.0444 33.5883 59.7552 31.4692 62.6065 30.7633V33.5344C62.6063 37.9231 59.0358 41.4938 54.6469 41.4938Z" fill="#252733"/>
</svg>
