<svg width="80" height="80" viewBox="0 0 80 80" fill="none" xmlns="http://www.w3.org/2000/svg">
<g clip-path="url(#clip0)">
<path d="M32.5075 80H47.4925C52.315 80 56.24 76.0762 56.2425 71.2537C56.2425 71.2525 56.2425 71.2525 56.2425 71.2525V44.9987C56.2425 43.4987 55.565 42.1662 54.515 41.25C55.565 40.3325 56.2425 39 56.2425 37.5V14.9937C56.2425 12.2362 54 9.99375 51.2425 9.99375C51.2413 9.99375 51.2413 9.99375 51.24 9.99375C51.2388 9.99375 51.2388 9.99375 51.2375 9.99375H46.245C46.2413 9.99375 46.2388 9.995 46.2363 9.995C45.55 9.99 44.995 9.435 44.995 8.75V7.5H44.9975C45.6888 7.5 46.2475 6.94 46.2475 6.25V1.25C46.2475 0.56 45.6888 0 44.9975 0H34.995C34.3038 0 33.745 0.56 33.745 1.25V6.25C33.745 6.94 34.3038 7.5 34.995 7.5V8.75125C34.995 9.43375 34.4463 9.98625 33.7663 9.99875C33.7588 9.99875 33.7525 9.995 33.745 9.995H28.7575C26 9.995 23.7575 12.2375 23.7575 14.995V37.5C23.7575 39 24.435 40.3325 25.485 41.25C24.435 42.1662 23.7575 43.4987 23.7575 44.9987V71.2525V71.2537C23.76 76.0762 27.6838 80 32.5075 80ZM26.2575 17.495H53.7425V35H26.2575V17.495ZM36.245 2.5H43.7475V5H36.245V2.5ZM28.7575 12.4937H33.7025C33.7188 12.4937 33.73 12.5025 33.745 12.5025C35.8125 12.5025 37.495 10.82 37.495 8.75125V7.5H42.495V8.75125V8.7525C42.4963 10.8175 44.1788 12.4975 46.245 12.4975C46.2513 12.4975 46.2575 12.4937 46.2638 12.4937H51.2375H51.24C51.24 12.4937 51.2413 12.4937 51.2425 12.4937C52.6213 12.4937 53.7425 13.615 53.7425 14.9937V14.995H26.2575V14.9937C26.2575 13.615 27.3788 12.4937 28.7575 12.4937ZM28.7575 40C27.3788 40 26.2575 38.8787 26.2575 37.5H53.7425C53.7425 38.8787 52.6213 40 51.2425 40C50.5513 40 49.9925 40.56 49.9925 41.25C49.9925 41.9412 50.5513 42.5 51.2425 42.5C52.6213 42.5 53.7425 43.62 53.7425 44.9987V46.25H52.4975C51.8063 46.25 51.2475 46.8088 51.2475 47.5C51.2475 48.1912 51.8063 48.75 52.4975 48.75H53.7425V51.25H52.4975C51.8063 51.25 51.2475 51.8088 51.2475 52.5C51.2475 53.1912 51.8063 53.75 52.4975 53.75H53.7425V56.25H52.4975C51.8063 56.25 51.2475 56.8088 51.2475 57.5C51.2475 58.1912 51.8063 58.75 52.4975 58.75H53.7425V71.25C53.7425 74.6963 50.9388 77.5 47.4925 77.5H32.5075C29.0613 77.5 26.2575 74.6963 26.2575 71.25V58.75H27.5C28.1913 58.75 28.75 58.1912 28.75 57.5C28.75 56.8088 28.1913 56.25 27.5 56.25H26.2575V53.75H27.5C28.1913 53.75 28.75 53.1912 28.75 52.5C28.75 51.8088 28.1913 51.25 27.5 51.25H26.2575V48.75H27.5C28.1913 48.75 28.75 48.1912 28.75 47.5C28.75 46.8088 28.1913 46.25 27.5 46.25H26.2575V44.9987C26.2575 43.62 27.3788 42.5 28.7575 42.5C29.4488 42.5 30.0075 41.9412 30.0075 41.25C30.0075 40.56 29.4488 40 28.7575 40Z" fill="#252733"/>
<path d="M46.6575 23.1112C46.6525 22.6749 46.4212 22.2737 46.0462 22.0499C45.03 21.4474 43.8837 21.2374 42.7862 21.4074C42.38 20.3749 41.6237 19.4812 40.6087 18.9099C40.2275 18.6962 39.7637 18.6962 39.3837 18.9099C38.3675 19.4812 37.6112 20.3749 37.2062 21.4074C36.1087 21.2374 34.9625 21.4474 33.9475 22.0487C33.5712 22.2712 33.34 22.6749 33.335 23.1124C33.3225 24.2899 33.7162 25.3849 34.41 26.2512C33.7162 27.1187 33.3212 28.2212 33.335 29.3862C33.34 29.8237 33.5725 30.2262 33.9487 30.4487C34.7425 30.9174 35.6162 31.1537 36.4837 31.1537C36.7237 31.1537 36.9612 31.1024 37.1987 31.0674C37.6012 32.1087 38.3612 33.0124 39.3837 33.5874C39.5737 33.6937 39.785 33.7474 39.9962 33.7474C40.2075 33.7474 40.4187 33.6937 40.6087 33.5874C41.6312 33.0124 42.3912 32.1099 42.7937 31.0674C43.0325 31.1037 43.27 31.1549 43.5112 31.1549C44.3775 31.1549 45.2512 30.9187 46.0437 30.4499C46.42 30.2274 46.6525 29.8249 46.6575 29.3887C46.6725 28.2099 46.2787 27.1137 45.5837 26.2462C46.2762 25.3787 46.6712 24.2762 46.6575 23.1112ZM44.0512 23.9074C43.8812 24.4662 43.52 24.9349 43.0125 25.2287C42.8512 25.3212 42.68 25.3849 42.5062 25.4337C42.7725 24.9587 42.9562 24.4412 43.0475 23.9012C43.375 23.8337 43.7175 23.8299 44.0512 23.9074ZM39.995 21.5662C40.3937 21.9912 40.62 22.5387 40.62 23.1249C40.62 23.7112 40.3937 24.2574 39.995 24.6837C39.5962 24.2587 39.37 23.7112 39.37 23.1249C39.37 22.5387 39.5962 21.9924 39.995 21.5662ZM36.9437 23.9024C36.9825 24.1349 37.0412 24.3624 37.115 24.5849C36.8912 24.6312 36.6725 24.6924 36.4575 24.7712C36.2312 24.5199 36.0437 24.2387 35.9425 23.9074C36.2762 23.8299 36.6162 23.8337 36.9437 23.9024ZM35.94 28.5887C36.1087 28.0299 36.4712 27.5624 36.9775 27.2687C37.1387 27.1749 37.3112 27.1124 37.485 27.0624C37.2175 27.5374 37.035 28.0549 36.9425 28.5949C36.615 28.6637 36.275 28.6674 35.94 28.5887ZM39.995 30.9312C39.5962 30.5062 39.37 29.9587 39.37 29.3724C39.37 28.7874 39.5962 28.2412 39.995 27.8149C40.3937 28.2412 40.62 28.7874 40.62 29.3724C40.62 29.9574 40.3937 30.5049 39.995 30.9312ZM43.0475 28.5949C43.0087 28.3624 42.95 28.1349 42.8762 27.9124C43.1 27.8662 43.3187 27.8049 43.5337 27.7262C43.7612 27.9762 43.9487 28.2587 44.05 28.5899C43.7162 28.6662 43.375 28.6637 43.0475 28.5949Z" fill="#252733"/>
</g>
<defs>
<clipPath id="clip0">
<rect width="80" height="80" fill="white"/>
</clipPath>
</defs>
</svg>
