<svg width="80" height="80" viewBox="0 0 80 80" fill="none" xmlns="http://www.w3.org/2000/svg">
<g clip-path="url(#clip0)">
<path d="M30.0894 30.5333C26.5838 30.35 23.118 29.7025 19.7827 28.608C19.0894 28.3591 18.3256 28.7193 18.0767 29.4126C17.8278 30.1059 18.1881 30.8698 18.8814 31.1186C22.4475 32.3051 26.1574 33.0052 29.9107 33.2H30.0014C30.7378 33.2243 31.3544 32.647 31.3787 31.9106C31.403 31.1743 30.8258 30.5576 30.0894 30.5333Z" fill="#252733"/>
<path d="M43.3334 32.5639C43.4116 32.564 43.4897 32.5568 43.5667 32.5425C45.4541 32.2259 47.3113 31.7504 49.1187 31.1212C49.812 30.8723 50.1723 30.1085 49.9234 29.4152C49.6745 28.7219 48.9107 28.3616 48.2174 28.6105C46.5524 29.1898 44.8414 29.6269 43.1027 29.9172C42.4213 30.0366 41.9444 30.6572 42.0045 31.3463C42.0645 32.0354 42.6416 32.5642 43.3334 32.5639Z" fill="#252733"/>
<path d="M26.256 71.2692C24.6448 70.9667 23.0632 70.5237 21.5293 69.9452C21.0091 69.7489 20.6653 69.2505 20.6666 68.6945V59.9998C20.6666 59.2635 20.0697 58.6665 19.3333 58.6665C18.5969 58.6665 18 59.2635 18 59.9998V68.6945C17.996 70.3504 19.016 71.8364 20.5626 72.4278C22.2434 73.0627 23.9761 73.5503 25.7413 73.8852C26.4641 74.0273 27.1652 73.5566 27.3073 72.8338C27.4494 72.1111 26.9787 71.41 26.256 71.2678V71.2692Z" fill="#252733"/>
<path d="M19.3334 56C20.0698 56 20.6667 55.4031 20.6667 54.6667C20.6667 53.9303 20.0698 53.3334 19.3334 53.3334C18.597 53.3334 18.0001 53.9303 18.0001 54.6667C18.0001 55.4031 18.597 56 19.3334 56Z" fill="#252733"/>
<path d="M17.7774 18.3373L15.004 21.1107C13.511 22.6123 12.6711 24.6425 12.6667 26.76V72C12.6667 76.5787 23.9294 80 34 80C44.0707 80 55.3334 76.5787 55.3334 72V40.4373C55.7442 40.2924 56.1288 40.0816 56.472 39.8133L63.2574 34.48C64.4786 33.5354 65.0341 31.9635 64.6774 30.4613L66.0294 29.3947C66.8657 28.741 67.3455 27.7316 67.3242 26.6703C67.303 25.609 66.7832 24.6197 65.9214 24L49.4667 12.216C49.8071 11.7707 49.9942 11.2271 50 10.6667V5.33333C50 1.124 39.9427 0 34 0C28.0574 0 18 1.124 18 5.33333V10.6667C18.0468 11.6162 18.5416 12.4871 19.3334 13.0133V14.5733C19.3297 15.9838 18.7707 17.336 17.7774 18.3373ZM34 77.3333C22.7734 77.3333 15.3334 73.5373 15.3334 72V26.76C15.3358 25.3493 15.895 23.9966 16.8894 22.996L19.6627 20.2227C19.8652 20.0189 20.0562 19.8039 20.2347 19.5787L22.2907 21.2773C22.0584 21.5675 21.8105 21.8448 21.548 22.108L20.5987 23.0573C20.2521 23.3921 20.1131 23.8878 20.2351 24.354C20.3571 24.8202 20.7212 25.1842 21.1873 25.3063C21.6535 25.4283 22.1493 25.2893 22.484 24.9427L23.4334 24C23.7554 23.6766 24.0598 23.3361 24.3454 22.98L46.544 41.3027C47.1486 41.8056 47.9109 42.0798 48.6974 42.0773C49.4528 42.0778 50.1871 41.8279 50.7854 41.3667L52.2107 40.244C52.359 40.3108 52.5113 40.3682 52.6667 40.416V72C52.6667 73.5373 45.2267 77.3333 34 77.3333ZM61.6107 32.384L54.8227 37.7173C54.5908 37.9009 54.3038 38.001 54.008 38.0013H54C53.4337 37.9977 52.9315 37.6367 52.7476 37.1011C52.5637 36.5655 52.7381 35.9721 53.1827 35.6213L59.9707 30.288C60.2483 30.0696 60.6013 29.9704 60.952 30.012C61.4876 30.0758 61.9321 30.4559 62.078 30.9752C62.2239 31.4945 62.0427 32.0505 61.6187 32.384H61.6107ZM64.6667 26.7307C64.672 26.9541 64.568 27.1661 64.388 27.2987L63.2467 28.196C61.8026 27.0481 59.7575 27.0481 58.3134 28.196L55.3334 30.5333V26.76C55.3283 24.6426 54.4884 22.6127 52.996 21.1107L50.2227 18.3373C49.3287 17.4275 48.7903 16.2274 48.7054 14.9547L64.364 26.1547C64.5527 26.2859 64.6657 26.5008 64.6667 26.7307ZM21.088 11.0853C20.9131 10.9854 20.7678 10.8409 20.6667 10.6667V8.50267C24.0627 10.1467 29.972 10.6667 34 10.6667C38.028 10.6667 43.9427 10.1467 47.3334 8.50133V10.6107C47.2147 10.817 47.0411 10.9863 46.832 11.1C43.7334 12.3333 41.0387 13.3333 34 13.3333C24.5094 13.3333 21.2294 11.1333 21.088 11.0853ZM34 2.66667C41.9027 2.66667 46.7774 4.37067 47.3147 5.33333C46.7814 6.296 41.9027 8 34 8C25.9734 8 21.0734 6.24267 20.6667 5.4V5.37733C21.0734 4.424 25.9734 2.66667 34 2.66667ZM34 16C38.0586 16.0647 42.1039 15.5186 46 14.38V14.5733C46.0044 16.6908 46.8444 18.7211 48.3374 20.2227L51.1107 22.996C52.104 23.9973 52.6631 25.3496 52.6667 26.76V32.6267L51.5294 33.52C50.078 34.6499 49.5953 36.6303 50.364 38.3013L49.1454 39.26C48.881 39.4676 48.5074 39.4621 48.2494 39.2467L25.808 20.7133C26.0824 20.1964 26.3225 19.6619 26.5267 19.1133C26.7619 18.4262 26.4038 17.6772 25.7213 17.4287C25.0388 17.1803 24.283 17.5238 24.0214 18.2013C23.9254 18.468 23.8094 18.7147 23.6947 18.968L21.5427 17.2C21.8414 16.3563 21.996 15.4683 22 14.5733V14.38C25.8962 15.5186 29.9414 16.0647 34 16Z" fill="#252733"/>
<path d="M19.3334 50.6666C20.0698 50.6666 20.6667 50.0697 20.6667 49.3333V36C20.6667 35.2636 20.0698 34.6666 19.3334 34.6666C18.597 34.6666 18.0001 35.2636 18.0001 36V49.3333C18.0001 50.0697 18.597 50.6666 19.3334 50.6666Z" fill="#252733"/>
</g>
<defs>
<clipPath id="clip0">
<rect width="80" height="80" fill="white"/>
</clipPath>
</defs>
</svg>
