<svg width="80" height="80" viewBox="0 0 80 80" fill="none" xmlns="http://www.w3.org/2000/svg">
<g clip-path="url(#clip0)">
<path d="M69.3334 65.3333C69.3334 64.597 68.7364 64 68.0001 64H9.33339C8.59701 64 8.00006 64.597 8.00006 65.3333C8.00006 66.0697 8.59701 66.6667 9.33339 66.6667H68.0001C68.7364 66.6667 69.3334 66.0697 69.3334 65.3333Z" fill="#252733"/>
<path d="M52 72.0001C52 71.2637 51.403 70.6667 50.6666 70.6667H18.6666C17.9303 70.6667 17.3333 71.2637 17.3333 72.0001C17.3333 72.7365 17.9303 73.3334 18.6666 73.3334H50.6666C51.403 73.3334 52 72.7365 52 72.0001Z" fill="#252733"/>
<path d="M24 77.3334C23.2636 77.3334 22.6667 77.9303 22.6667 78.6667C22.6667 79.4031 23.2636 80 24 80H37.3334C38.0697 80 38.6667 79.4031 38.6667 78.6667C38.6667 77.9303 38.0697 77.3334 37.3334 77.3334H24Z" fill="#252733"/>
<path d="M0 60C0 60.7364 0.596954 61.3334 1.33333 61.3334H78.6667C79.403 61.3334 80 60.7364 80 60C80 59.2637 79.403 58.6667 78.6667 58.6667H57.1427C56.7566 56.4832 55.337 54.6218 53.3333 53.672V44H54.7067C56.8767 44.013 58.6565 42.2842 58.7067 40.1147C58.7093 35.7103 59.129 31.316 59.96 26.9907C60.5364 24.5389 61.6086 22.2311 63.1107 20.2094C66.9972 21.6948 71.1086 22.5064 75.268 22.6094C76.9502 22.6831 78.5005 21.7015 79.1533 20.1494L79.6867 18.8574C80.389 17.1687 79.8565 15.2187 78.3933 14.1214C76.564 12.7427 72.068 9.07604 69.8413 4.82137C69.7698 4.68798 69.6906 4.55887 69.604 4.4347C70.8492 3.9483 71.9831 3.21491 72.9373 2.2787C73.4226 1.75372 73.4075 0.939415 72.9031 0.432813C72.3986 -0.0737882 71.5844 -0.0923651 71.0573 0.390703C69.471 1.79017 67.4475 2.59475 65.3333 2.6667H64.28C62.8482 2.67456 61.5283 3.44215 60.8133 4.6827C57.5527 10.1076 51.6624 13.3993 45.3333 13.3334C40.0587 13.3334 33.0387 12.824 26.1853 12.144C26.1491 12.1381 26.1126 12.1341 26.076 12.132C19.26 11.4534 12.6187 10.6067 8.036 9.92537C6.74042 9.73143 5.43198 10.1842 4.53333 11.1374C4.18946 11.5157 3.9223 11.9572 3.74667 12.4374C0.0066665 16.8134 0 23.284 0 38.6667C0 39.4031 0.596954 40 1.33333 40C2.06971 40 2.66667 39.4031 2.66667 38.6667C2.66667 27.4294 2.66667 21.18 4.06 17.232C5.39055 23.8869 6.2615 30.6255 6.66667 37.4C6.748 39.0214 6.69333 43.4227 6.67467 44.7334C6.66495 45.2824 6.77032 45.8275 6.984 46.3334C8.48954 50.2727 9.27841 54.4496 9.31333 58.6667H1.33333C0.596954 58.6667 0 59.2637 0 60ZM17.248 53.7107L16.544 46.6094C16.8107 46.632 17.0773 46.6667 17.3333 46.6667C17.712 46.6616 18.09 46.6336 18.4653 46.5827L18.8093 47.2667C19.1437 47.9186 19.9414 48.1786 20.5957 47.8489C21.25 47.5192 21.5157 46.7233 21.1907 46.0667L21.0893 45.868C21.7359 45.583 22.3479 45.2252 22.9133 44.8014L23.0573 44.9454C23.5805 45.4507 24.4121 45.4434 24.9264 44.9291C25.4407 44.4148 25.448 43.5832 24.9427 43.06L24.7933 42.9107C25.0273 42.6003 25.2411 42.2752 25.4333 41.9374C27.5846 42.4457 29.7896 42.6906 32 42.6667C35.925 42.651 39.7952 41.7442 43.3187 40.0147C43.6106 41.3642 44.1242 42.6559 44.8387 43.8374C45.1485 44.2913 45.3203 44.8252 45.3333 45.3747V58.6667H21.188C20.7613 56.4711 19.2909 54.6214 17.248 53.7107ZM16.0667 41.7867C17.0356 40.6439 17.8063 39.3468 18.3467 37.9494C19.6034 39.2964 21.1274 40.3664 22.8213 41.0907C21.3542 43.1992 18.8128 44.2862 16.2747 43.8907L16.0667 41.7867ZM24.1827 38.78C24.6667 36.8734 26.176 34.6667 28.6667 34.6667C29.6524 34.6671 30.5865 35.1071 31.2147 35.8667C31.5881 36.3163 32.2107 36.4704 32.7507 36.2467C33.1469 36.0834 33.5714 35.9996 34 36C35.841 36 37.3333 37.4924 37.3333 39.3334V39.352C35.5877 39.7795 33.7972 39.997 32 40C29.341 40.0832 26.6899 39.6695 24.1827 38.78ZM52.6827 14.7147L51.7987 17.816C51.5508 18.671 50.7702 19.2612 49.88 19.2667C47.5949 19.2594 45.6425 20.9119 45.272 23.1667L45.0573 24.4507C44.7513 26.2615 43.3162 27.6706 41.5001 27.9435C39.684 28.2165 37.8982 27.2915 37.0733 25.6507C36.404 24.3013 35.0263 23.4493 33.52 23.4534C33.3721 23.4508 33.2243 23.458 33.0773 23.4747L27.4053 24.1147C25.4056 24.324 23.5286 23.117 22.8893 21.2107C22.7415 20.778 22.6663 20.3239 22.6667 19.8667C22.6605 18.569 23.2503 17.3403 24.2667 16.5334L26.38 14.84C33.1693 15.5067 40.088 16 45.3267 16C47.8359 16.0157 50.3275 15.5804 52.6827 14.7147ZM7.64267 12.564C9.50133 12.84 11.704 13.1427 14.1107 13.452L13.28 15.9294C12.7433 17.5652 11.215 18.67 9.49333 18.6667H7.04667C6.72267 16.9027 6.412 15.364 6.15333 14.1414C6.06083 13.7192 6.1837 13.2787 6.48133 12.9654C6.77879 12.6486 7.21309 12.4985 7.64267 12.564ZM9.44267 45.292C9.37224 45.1279 9.33813 44.9506 9.34267 44.772C9.36133 43.4387 9.41733 38.968 9.332 37.2667C9.03005 31.9253 8.42328 26.6056 7.51467 21.3334H9.49333C12.3644 21.3392 14.9136 19.4981 15.8107 16.7707L16.812 13.788C18.672 14.0134 20.616 14.2374 22.608 14.4547C20.9546 15.7632 19.9932 17.7582 20 19.8667C19.9993 20.6118 20.1214 21.352 20.3613 22.0574C21.3985 25.1529 24.4484 27.1109 27.6947 26.7654L33.3747 26.1254H33.5187C34.0154 26.1303 34.4673 26.4137 34.688 26.8587C35.857 29.1986 38.251 30.674 40.8667 30.6667C41.2479 30.6667 41.6284 30.6341 42.004 30.5694C44.9217 30.0905 47.2091 27.8042 47.6893 24.8867L47.9027 23.6054C47.9771 23.1374 48.217 22.7116 48.5787 22.4054C48.9432 22.0991 49.4039 21.9311 49.88 21.9307C51.9575 21.9207 53.7809 20.5454 54.3613 18.5507L55.8947 13.1774C58.8526 11.4177 61.3317 8.9568 63.1133 6.01204C63.3498 5.5924 63.7943 5.33296 64.276 5.33337H66.3067C66.8026 5.33682 67.2556 5.6152 67.4827 6.05604C68.9469 8.66214 70.817 11.0183 73.0227 13.036L71.656 15.3134C71.2768 15.9448 71.4812 16.7641 72.1127 17.1434C72.7441 17.5226 73.5634 17.3181 73.9427 16.6867L75.044 14.8507C75.7307 15.428 76.3427 15.9174 76.7933 16.2494C77.2836 16.6145 77.4627 17.2663 77.228 17.8307L76.6947 19.1227C76.4803 19.6397 75.9658 19.9677 75.4067 19.944C67.8493 19.5614 62.404 17.8214 61.196 15.4107C60.8668 14.7516 60.0657 14.4842 59.4067 14.8134C58.7476 15.1425 58.4802 15.9436 58.8093 16.6027C59.2834 17.5026 59.9587 18.2811 60.7827 18.8774C59.1727 21.1212 58.0155 23.6574 57.376 26.344C56.5108 30.8599 56.0645 35.4461 56.0427 40.044C56.0196 40.7637 55.4294 41.3351 54.7093 41.3347H53.3333V36C53.3333 35.2637 52.7364 34.6667 52 34.6667C51.2636 34.6667 50.6667 35.2637 50.6667 36V42.676V54.4987C50.7269 55.1589 51.1715 55.7212 51.8 55.932C53.0638 56.3655 54.039 57.3849 54.416 58.6667H48V45.3747C47.9876 44.3103 47.6667 43.2723 47.076 42.3867C45.3613 39.7334 45.3333 34.716 45.3333 34.6667C45.3333 33.9303 44.7364 33.3334 44 33.3334C43.2636 33.3334 42.6667 33.9303 42.6667 34.6667C42.679 35.538 42.7369 36.4081 42.84 37.2734C41.8976 37.7682 40.923 38.199 39.9227 38.5627C39.7094 36.8806 38.792 35.3682 37.3987 34.4019C36.0055 33.4356 34.2675 33.1063 32.6173 33.496C31.5273 32.5316 30.1221 31.9995 28.6667 32C25.4116 32.1207 22.6167 34.3523 21.7787 37.5C20.7975 36.799 19.9559 35.9208 19.2973 34.9107C19.7263 33.0813 19.9618 31.212 20 29.3334C20 28.597 19.403 28 18.6667 28C17.9303 28 17.3333 28.597 17.3333 29.3334C17.3333 29.4027 17.284 36.352 14.0627 40.0294C13.5702 40.5808 13.3288 41.3118 13.396 42.048L13.7067 45.1387V45.1707L14.652 54.5694C14.7105 55.2297 15.156 55.792 15.7853 56C17.0448 56.4189 18.0331 57.4072 18.452 58.6667H11.9813C11.9536 54.0914 11.0934 49.5593 9.44267 45.292Z" fill="#252733"/>
</g>
<defs>
<clipPath id="clip0">
<rect width="80" height="80" fill="white"/>
</clipPath>
</defs>
</svg>
