<svg width="80" height="80" viewBox="0 0 80 80" fill="none" xmlns="http://www.w3.org/2000/svg">
<g clip-path="url(#clip0)">
<path d="M56.0592 65.4734C55.3954 65.4734 54.7959 65.038 54.5807 64.4127C54.3774 63.822 54.5606 63.1481 55.029 62.7366C55.5399 62.2876 56.306 62.2242 56.8838 62.5834C57.421 62.9175 57.711 63.5677 57.5968 64.1905C57.4623 64.9228 56.8049 65.4734 56.0592 65.4734Z" fill="#252733"/>
<path d="M68.6273 28.795C65.6975 24.8777 61.7353 22.1121 57.4705 21.0075C54.6339 20.2735 51.2052 20.3352 47.2774 21.1916L47.2773 21.1907C47.2598 21.1949 47.2227 21.2033 47.1634 21.2166C47.0607 21.2372 46.9595 21.2608 46.8604 21.2839C46.6138 21.3416 46.234 21.4325 45.827 21.5385C45.2931 21.6767 44.7504 21.7972 44.2093 21.8978C44.201 21.4933 44.1859 21.0775 44.1621 20.6524C44.6246 15.501 46.7157 11.0734 50.3955 7.46604C53.5804 4.34403 56.8302 3.02873 56.8594 3.01701C57.6625 2.70138 58.0578 1.79436 57.7422 0.991238C57.4266 0.187961 56.5196 -0.207036 55.7166 0.108431C55.5639 0.168587 51.9366 1.61795 48.307 5.13809C46.3842 7.00292 44.2501 9.67447 42.7757 13.2601C41.9884 11.0287 40.8031 8.89291 39.0461 7.13776C31.9638 0.0632746 18.6907 2.26607 17.9087 2.40342C17.9081 2.40357 17.9074 2.40357 17.9068 2.40373C17.3343 2.49529 16.8534 2.89529 16.6839 3.44966C16.6589 3.53138 16.6389 3.60763 16.6274 3.67122C16.5376 4.17591 14.7182 14.8235 19.302 22.1936C12.9587 25.2355 6.25485 32.7614 6.25485 45.2691C6.25485 49.7058 7.60672 55.1286 10.0617 60.5384C12.4668 65.8387 15.7153 70.6821 19.2082 74.1758C23.014 77.9859 26.9244 79.9998 30.5164 79.9998C32.62 79.9998 34.7872 79.6816 36.7847 79.0789C38.7522 78.4841 40.8418 78.4463 42.8287 78.9694C42.8356 78.9713 42.8426 78.9731 42.8495 78.9748C42.9723 79.0073 43.0946 79.042 43.2176 79.0792C45.2142 79.6814 47.3813 79.9998 49.4849 79.9998C52.9218 79.9998 56.6678 78.1467 60.3174 74.6414C67.8476 67.4184 73.7463 54.5166 73.7463 45.2691C73.7457 38.9685 71.9759 33.2718 68.6273 28.795ZM36.837 9.34885C39.8242 12.3329 40.7987 16.8857 41.0228 20.713C40.9675 21.4157 40.9384 24.4853 40.9384 24.4853L29.0869 12.6465C28.4763 12.0366 27.4869 12.037 26.8772 12.6477C26.2674 13.2582 26.2679 14.2476 26.8783 14.8576L38.8122 26.7786C34.7309 26.9972 27.6694 26.6872 23.5724 22.5945C18.6515 17.679 19.1924 8.50651 19.5524 5.33262C22.7291 4.97293 31.9147 4.43169 36.837 9.34885ZM58.1527 72.3869C55.0958 75.3228 52.0982 76.8749 49.4841 76.8749C47.7079 76.8749 45.8027 76.5952 44.1201 76.0877C43.9642 76.0405 43.8076 75.9963 43.6506 75.9547C43.6481 75.9541 43.6457 75.9533 43.6434 75.9527C41.0917 75.2772 38.407 75.3238 35.8806 76.0874C34.1972 76.5952 32.2919 76.8749 30.5156 76.8749C27.7711 76.8749 24.6254 75.1778 21.4179 71.9668C14.6671 65.2143 9.37921 53.4872 9.37921 45.2691C9.37921 33.7853 15.6381 27.1231 21.2841 24.7252C21.3105 24.752 21.3373 24.7789 21.364 24.8056C25.6469 29.0839 32.2258 29.9633 36.9123 29.9631C39.885 29.9631 42.1001 29.6265 42.4762 29.5444C43.724 29.2712 43.6935 28.6895 43.7712 28.3305C43.7721 28.3259 43.7732 28.3214 43.7742 28.3169C43.7753 28.3119 43.7762 28.3067 43.7773 28.3017C43.7785 28.2953 43.7798 28.2889 43.781 28.2823C43.7815 28.2795 43.7821 28.2769 43.7826 28.274C43.8118 28.1109 44.0226 26.8878 44.1395 25.058C44.231 25.0586 44.3239 25.0513 44.4171 25.0353C45.1492 24.9097 45.887 24.7511 46.6117 24.5634C46.8904 24.4908 47.1601 24.4247 47.3841 24.3714C53.8299 26.6192 60.2044 33.8689 60.2044 45.2693C60.2044 48.6088 59.343 52.5911 57.7132 56.7861C57.4007 57.5903 57.7994 58.4957 58.6038 58.8082C58.7897 58.8804 58.9811 58.9148 59.1692 58.9148C59.795 58.9148 60.3858 58.5361 60.6261 57.9176C62.3945 53.3656 63.3294 48.9919 63.3294 45.2693C63.3294 34.8846 58.5536 27.4944 52.7888 23.6269C54.2233 23.597 55.5261 23.7324 56.6874 24.0328C63.3983 25.7708 70.621 33.1576 70.621 45.2691C70.6207 53.6275 65.028 65.7923 58.1527 72.3869Z" fill="#252733"/>
</g>
<defs>
<clipPath id="clip0">
<rect width="80" height="80" fill="white"/>
</clipPath>
</defs>
</svg>
