<svg width="80" height="80" viewBox="0 0 80 80" fill="none" xmlns="http://www.w3.org/2000/svg">
<path d="M61.8749 20.6252H60.3124V11.8753C60.3124 11.0123 59.6128 10.3128 58.7499 10.3128H43.75C42.887 10.3128 42.1875 11.0123 42.1875 11.8753V13.9945H37.8125V11.8753C37.8125 11.0123 37.113 10.3128 36.25 10.3128H30.3126V1.56249C30.3126 0.699529 29.613 0 28.7501 0H21.2501C20.3871 0 19.6876 0.699529 19.6876 1.56249V20.6252H18.1251C17.2621 20.6252 16.5626 21.3248 16.5626 22.1877V78.4375C16.5626 79.3005 17.2621 80 18.1251 80H61.8749C62.7377 80 63.4374 79.3005 63.4374 78.4375V22.1877C63.4374 21.3248 62.7377 20.6252 61.8749 20.6252ZM52.8125 13.4378H57.1874V20.6252H55.625H52.8125V13.4378ZM45.3125 13.4378H49.6875V20.6252H45.3125V13.4378ZM37.8125 17.1193H42.1875V20.6252H37.8125V17.1193ZM30.3126 13.4378H34.6875V20.6252H30.3126V13.4378ZM53.7936 23.7502C53.1487 25.5688 51.4118 26.8752 49.375 26.8752H30.6251C28.5882 26.8752 26.8513 25.5688 26.2063 23.7502H53.7936ZM22.8126 3.12499H27.1876V20.6252H22.8126V3.12499ZM60.3124 76.875H19.6876V52.6385L40 40.9111L60.3124 52.6385V76.875ZM60.3124 49.0301L40.7813 37.7538C40.7692 37.7469 40.7569 37.7416 40.7447 37.735C40.7166 37.7199 40.6886 37.705 40.6597 37.6916C40.6378 37.6814 40.6159 37.6724 40.5939 37.6633C40.5702 37.6534 40.5463 37.6438 40.5219 37.6352C40.4955 37.6256 40.4689 37.6177 40.4422 37.6097C40.4213 37.6034 40.4003 37.5974 40.3792 37.592C40.3505 37.5849 40.3219 37.5788 40.293 37.5733C40.2724 37.5694 40.2516 37.5655 40.2308 37.5625C40.2025 37.5583 40.1742 37.555 40.146 37.5524C40.123 37.5502 40.1002 37.5484 40.0772 37.5472C40.0516 37.5459 40.0259 37.5455 40.0003 37.5455C39.9742 37.5453 39.9481 37.5459 39.9219 37.5472C39.8994 37.5483 39.877 37.5502 39.8547 37.5522C39.826 37.5549 39.7974 37.5581 39.7686 37.5624C39.7481 37.5655 39.728 37.5691 39.7077 37.573C39.6783 37.5786 39.6492 37.5847 39.62 37.592C39.5994 37.5972 39.5789 37.6031 39.5585 37.6091C39.5313 37.6172 39.5042 37.6255 39.4774 37.635C39.4536 37.6434 39.4303 37.653 39.407 37.6625C39.3845 37.6719 39.362 37.6809 39.3397 37.6914C39.3116 37.7045 39.2842 37.7191 39.2567 37.7339C39.2442 37.7408 39.2311 37.7463 39.2186 37.7534L19.6874 49.0298V23.7502H22.9695C23.6955 27.3118 26.8523 30.0002 30.6251 30.0002H49.375C53.1478 30.0002 56.3046 27.3118 57.0304 23.7502H60.3124V49.0301Z" fill="#252733"/>
<path d="M34.568 70.5958H34.5311C33.6682 70.5958 32.9686 71.2954 32.9686 72.1583C32.9686 73.0213 33.6682 73.7208 34.5311 73.7208H34.568C35.431 73.7208 36.1305 73.0213 36.1305 72.1583C36.1305 71.2955 35.431 70.5958 34.568 70.5958Z" fill="#252733"/>
<path d="M45.4687 70.5957H39.0572C38.1942 70.5957 37.4947 71.2952 37.4947 72.1582C37.4947 73.0212 38.1942 73.7207 39.0572 73.7207H45.4687C46.3315 73.7207 47.0312 73.0212 47.0312 72.1582C47.0312 71.2952 46.3315 70.5957 45.4687 70.5957Z" fill="#252733"/>
</svg>
