<svg width="80" height="80" viewBox="0 0 80 80" fill="none" xmlns="http://www.w3.org/2000/svg">
<g clip-path="url(#clip0)">
<path d="M75.1232 39.5619C75.1064 39.5541 75.0892 39.5461 75.072 39.5383C75.3257 38.5398 75.5278 37.5252 75.6742 36.5097C75.874 35.1263 75.9754 33.7131 75.9754 32.3094C75.9754 23.6542 72.2165 15.5248 65.3915 9.41844C58.6031 3.34484 49.5856 0 40.0004 0C31.734 0 23.9618 2.44703 17.524 7.07672C16.9985 7.45453 16.8789 8.18687 17.2568 8.71234C17.6348 9.23797 18.3671 9.35734 18.8925 8.97953C24.8428 4.70047 32.3392 2.34375 40.0004 2.34375C58.5448 2.34375 73.6317 15.7862 73.6317 32.3094C73.6317 33.6014 73.5384 34.9019 73.3546 36.1748C73.2331 37.0167 73.0668 37.8572 72.8648 38.6877C71.3135 38.1711 69.0293 37.5408 65.8292 36.9445C65.3667 36.8583 64.8876 36.7734 64.4053 36.692C63.7676 36.5842 63.1623 37.0145 63.0548 37.6527C62.9473 38.2908 63.3773 38.8955 64.0154 39.0031C64.4846 39.0822 64.9503 39.1648 65.3996 39.2486C69.4076 39.9953 71.8798 40.7836 73.2479 41.3134H73.2484C73.5721 41.4388 73.8712 41.5648 74.1334 41.6864C75.1092 42.1431 75.5323 43.3081 75.0764 44.2831C74.7559 44.9683 74.0607 45.4109 73.3051 45.4109C73.0201 45.4109 72.7421 45.3488 72.479 45.2256C71.8848 44.9483 69.5542 43.9711 64.5135 43.0453C57.9692 41.8438 49.7192 41.2344 39.9926 41.2344C27.0084 41.2344 18.7735 42.3605 14.1521 43.3048C10.0189 44.1481 8.02948 44.9844 7.51636 45.2214C6.5387 45.6753 5.37495 45.2494 4.9212 44.2738C4.46792 43.297 4.89355 42.1325 5.86245 41.6816C6.13448 41.5572 6.4248 41.4359 6.74964 41.3108C6.75027 41.3105 6.75089 41.3102 6.75167 41.3098C6.75183 41.3098 6.7523 41.31 6.75245 41.3098C8.12027 40.78 10.5921 39.9917 14.6004 39.2448C15.054 39.1603 15.5198 39.0778 15.9846 38.9995C16.6229 38.892 17.0531 38.2875 16.9454 37.6492C16.8379 37.0111 16.2353 36.5802 15.5951 36.6884C15.117 36.7689 14.6379 36.8539 14.171 36.9408C10.9679 37.5375 8.68292 38.1683 7.13167 38.6852C7.04464 38.3278 6.96433 37.9697 6.89277 37.6127C6.54433 35.8781 6.36745 34.0938 6.36745 32.3092C6.36745 24.6875 9.58292 17.4241 15.4214 11.8573C15.8896 11.4108 15.9073 10.6689 15.4607 10.2005C15.0143 9.73203 14.2726 9.71437 13.8039 10.1609C7.49698 16.1744 4.02355 24.04 4.02355 32.3091C4.02355 34.2484 4.21573 36.1883 4.5948 38.0739C4.69214 38.5594 4.80292 39.047 4.92636 39.5322C4.91105 39.5391 4.89589 39.5461 4.88058 39.553C2.73386 40.5523 1.79808 43.1127 2.79527 45.2609C3.4012 46.5642 4.58277 47.4202 5.89777 47.6698C8.02855 57.4002 11.2531 67.1983 13.6157 73.7842C14.9485 77.5019 18.4996 79.9997 22.4517 79.9997H23.171H32.8742H47.1257H56.829H57.5485C61.4989 79.9997 65.0498 77.502 66.3846 73.7841C66.9957 72.0786 67.5537 70.4734 68.0907 68.8763C68.2968 68.2628 67.9668 67.5983 67.3532 67.392C66.7407 67.1858 66.0753 67.5158 65.869 68.1294C65.3371 69.7117 64.7842 71.3028 64.1785 72.9928C63.2695 75.5248 60.99 77.3023 58.3596 77.6087C59.5285 73.0756 62.9867 59.1495 65.0176 45.5189C69.2035 46.3494 71.1045 47.1703 71.487 47.3489C71.574 47.3895 71.6621 47.4261 71.7507 47.4608C70.654 52.4061 69.1649 57.8606 67.3173 63.6959C67.122 64.313 67.4639 64.9716 68.0809 65.1669C68.1985 65.2042 68.3178 65.2219 68.435 65.2219C68.9323 65.2219 69.3939 64.9028 69.5518 64.4034C71.4565 58.388 72.9857 52.7662 74.1034 47.6762C75.4423 47.4205 76.6098 46.5361 77.1992 45.2758C78.2026 43.1305 77.2728 40.568 75.1232 39.5619ZM15.8223 72.9934C13.5062 66.537 10.3551 56.9684 8.25073 47.4541C8.3348 47.4214 8.41839 47.3867 8.50136 47.3483C8.82386 47.1992 10.6351 46.4145 14.6212 45.6012C14.7392 45.5772 14.861 45.5528 14.984 45.5284C17.0151 59.1561 20.472 73.0769 21.6407 77.6089C19.0095 77.3027 16.7301 75.5253 15.8223 72.9934ZM17.2915 45.1131C20.1496 44.6453 23.926 44.1886 28.7617 43.8966C29.6445 58.4927 31.121 73.2766 31.5734 77.6562H24.074C23.12 73.9995 19.4123 59.377 17.2915 45.1131ZM33.9298 77.6562C33.5115 73.6253 31.9995 58.6005 31.1024 43.7723C33.7717 43.6502 36.7274 43.5781 39.9928 43.5781C43.2604 43.5781 46.2203 43.6481 48.8985 43.7687C48.0012 58.5981 46.489 73.625 46.0707 77.6562H33.9298ZM55.9265 77.6562H48.427C48.8795 73.2759 50.3564 58.4886 51.2392 43.8908C56.0078 44.1748 59.7779 44.622 62.7104 45.1028C60.5899 59.37 56.8809 73.9986 55.9265 77.6562Z" fill="#252733"/>
<path d="M49.072 6.14816C45.5606 6.14816 42.7039 9.00487 42.7039 12.5163C42.7039 16.0277 45.5606 18.8843 49.072 18.8843C52.5834 18.8843 55.4401 16.0275 55.4401 12.5163C55.4401 9.00503 52.5832 6.14816 49.072 6.14816ZM49.072 16.5405C46.8529 16.5405 45.0476 14.7352 45.0476 12.5163C45.0476 10.2974 46.8529 8.49191 49.072 8.49191C51.291 8.49191 53.0964 10.2972 53.0964 12.5163C53.0964 14.7353 51.291 16.5405 49.072 16.5405Z" fill="#252733"/>
<path d="M18.7862 17.8214C15.2748 17.8214 12.4182 20.6781 12.4182 24.1895C12.4182 27.7009 15.2748 30.5575 18.7862 30.5575C22.2976 30.5575 25.1543 27.7008 25.1543 24.1895C25.1543 20.6783 22.2974 17.8214 18.7862 17.8214ZM18.7862 28.2137C16.5673 28.2137 14.762 26.4084 14.762 24.1895C14.762 21.9706 16.5673 20.1651 18.7862 20.1651C21.0052 20.1651 22.8105 21.9704 22.8105 24.1895C22.8105 26.4086 21.0052 28.2137 18.7862 28.2137Z" fill="#252733"/>
<path d="M31.6767 21.5564C31.6767 23.9029 33.5856 25.8118 35.932 25.8118C38.2784 25.8118 40.1873 23.9029 40.1873 21.5564C40.1873 19.21 38.2784 17.3011 35.932 17.3011C33.5856 17.3011 31.6767 19.21 31.6767 21.5564ZM37.8436 21.5564C37.8436 22.6104 36.9861 23.4681 35.932 23.4681C34.8779 23.4681 34.0204 22.6104 34.0204 21.5564C34.0204 20.5023 34.8779 19.6448 35.932 19.6448C36.9861 19.6448 37.8436 20.5023 37.8436 21.5564Z" fill="#252733"/>
<path d="M50.2133 28.4279C50.2133 31.4198 52.6473 33.854 55.6394 33.854C58.6314 33.854 61.0656 31.4199 61.0656 28.4279C61.0656 25.4358 58.6314 23.0018 55.6394 23.0018C52.6473 23.0018 50.2133 25.436 50.2133 28.4279ZM55.6394 25.3455C57.339 25.3455 58.7219 26.7283 58.7219 28.4279C58.7219 30.1274 57.339 31.5102 55.6394 31.5102C53.9398 31.5102 52.557 30.1276 52.557 28.4279C52.557 26.7282 53.9398 25.3455 55.6394 25.3455Z" fill="#252733"/>
<path d="M41.1925 33.8122V33.8903C41.1925 34.5375 41.717 35.0622 42.3644 35.0622C43.0117 35.0622 43.5363 34.5375 43.5363 33.8903V33.8122C43.5363 33.165 43.0117 32.6403 42.3644 32.6403C41.717 32.6403 41.1925 33.165 41.1925 33.8122Z" fill="#252733"/>
<path d="M64.48 30.1943C65.1273 30.1943 65.6519 29.6696 65.6519 29.0224V28.9443C65.6519 28.2971 65.1273 27.7724 64.48 27.7724C63.8326 27.7724 63.3081 28.2971 63.3081 28.9443V29.0224C63.3081 29.6696 63.8328 30.1943 64.48 30.1943Z" fill="#252733"/>
<path d="M40.0003 12.1189C40.6477 12.1189 41.1722 11.5942 41.1722 10.947V10.8689C41.1722 10.2217 40.6477 9.69705 40.0003 9.69705C39.353 9.69705 38.8284 10.2217 38.8284 10.8689V10.947C38.8284 11.5942 39.3531 12.1189 40.0003 12.1189Z" fill="#252733"/>
<path d="M25.4712 7.59676C24.8238 7.59676 24.2993 8.12145 24.2993 8.76864V8.84676C24.2993 9.49395 24.8238 10.0186 25.4712 10.0186C26.1185 10.0186 26.6431 9.49395 26.6431 8.84676V8.76864C26.6431 8.12145 26.1184 7.59676 25.4712 7.59676Z" fill="#252733"/>
<path d="M25.4887 19.8877V19.9658C25.4887 20.613 26.0132 21.1377 26.6606 21.1377C27.3079 21.1377 27.8325 20.613 27.8325 19.9658V19.8877C27.8325 19.2405 27.3079 18.7158 26.6606 18.7158C26.0132 18.7158 25.4887 19.2405 25.4887 19.8877Z" fill="#252733"/>
<path d="M11.2156 31.7863V31.8645C11.2156 32.5116 11.7401 33.0363 12.3875 33.0363C13.0348 33.0363 13.5593 32.5116 13.5593 31.8645V31.7863C13.5593 31.1391 13.0348 30.6145 12.3875 30.6145C11.7401 30.6145 11.2156 31.1391 11.2156 31.7863Z" fill="#252733"/>
</g>
<defs>
<clipPath id="clip0">
<rect width="80" height="80" fill="white"/>
</clipPath>
</defs>
</svg>
