<svg width="80" height="80" viewBox="0 0 80 80" fill="none" xmlns="http://www.w3.org/2000/svg">
<path d="M65.519 74.4375C59.712 75.5951 48.6388 77.5375 39.7206 77.5375C26.7506 77.5375 11.3341 73.3076 10.1237 73.9176C9.0343 74.4666 7.72229 74.0066 7.51165 72.869C12.0821 65.4028 8.72199 75.6325 8.72199 48.7735C8.72199 46.7358 9.23626 42.4809 10.2099 36.4689C10.2362 36.3068 10.2305 36.1411 10.1932 35.9813C10.156 35.8214 10.0879 35.6705 9.99277 35.5372C9.89768 35.4038 9.7775 35.2907 9.63906 35.2042C9.50063 35.1177 9.34667 35.0596 9.18596 35.0332C9.02526 35.0067 8.86096 35.0124 8.70245 35.05C8.54394 35.0876 8.39432 35.1563 8.26213 35.2522C8.12994 35.3481 8.01778 35.4693 7.93204 35.6089C7.8463 35.7485 7.78867 35.9038 7.76243 36.0659C6.75358 42.2966 6.24211 46.5721 6.24211 48.7735C6.24211 61.7675 7.03924 66.9173 7.38766 68.5473L5.21048 71.8414C4.68846 72.6315 5.09609 74.8876 6.8999 76.0119C7.48087 76.3688 8.13611 76.5846 8.81392 76.6424C9.49174 76.7002 10.1736 76.5983 10.8057 76.3449C33.6216 81.3317 45.7829 80.9216 66.0001 76.892C66.1598 76.8602 66.3118 76.797 66.4474 76.7059C66.5829 76.6148 66.6994 76.4977 66.79 76.3613C66.8807 76.2248 66.9438 76.0717 66.9758 75.9106C67.0078 75.7496 67.0081 75.5837 66.9765 75.4226C66.945 75.2614 66.8823 75.1081 66.792 74.9714C66.7017 74.8347 66.5856 74.7172 66.4503 74.6258C66.315 74.5343 66.1632 74.4707 66.0035 74.4384C65.8438 74.4061 65.6794 74.4059 65.5196 74.4377L65.519 74.4375Z" fill="#252733"/>
<path d="M8.72199 32.516H37.2407C37.5695 32.516 37.8849 32.3842 38.1174 32.1497C38.35 31.9151 38.4806 31.597 38.4806 31.2654C38.4806 30.9337 38.35 30.6156 38.1174 30.381C37.8849 30.1465 37.5695 30.0148 37.2407 30.0148H8.72199C8.39314 30.0148 8.07775 29.883 7.84522 29.6485C7.61268 29.4139 7.48205 29.0958 7.48205 28.7641C7.48205 28.4325 7.61268 28.1144 7.84522 27.8798C8.07775 27.6453 8.39314 27.5135 8.72199 27.5135H18.6415C18.9704 27.5135 19.2858 27.3818 19.5183 27.1472C19.7508 26.9127 19.8815 26.5946 19.8815 26.2629C19.8815 25.9312 19.7508 25.6131 19.5183 25.3786C19.2858 25.1441 18.9704 25.0123 18.6415 25.0123H8.72199C8.39314 25.0123 8.07775 24.8806 7.84522 24.646C7.61268 24.4115 7.48205 24.0934 7.48205 23.7617C7.48205 23.43 7.61268 23.1119 7.84522 22.8774C8.07775 22.6429 8.39314 22.5111 8.72199 22.5111H62.0395C62.3684 22.5111 62.6838 22.3793 62.9163 22.1448C63.1488 21.9103 63.2795 21.5922 63.2795 21.2605C63.2795 20.9288 63.1488 20.6107 62.9163 20.3762C62.6838 20.1416 62.3684 20.0099 62.0395 20.0099H8.72199C5.49814 20.0099 3.82422 23.8685 5.95165 26.2629C3.82546 28.6561 5.49597 32.516 8.72199 32.516Z" fill="#252733"/>
<path d="M18.9094 17.1063C27.5306 7.68811 34.9214 2.50122 39.7206 2.50122C44.5198 2.50122 51.9106 7.68811 60.5318 17.1063C60.7549 17.35 61.0648 17.4943 61.3934 17.5076C61.722 17.5208 62.0424 17.4018 62.284 17.1768C62.5256 16.9518 62.6687 16.6392 62.6818 16.3078C62.6949 15.9763 62.577 15.6532 62.3539 15.4095C55.9191 8.37907 46.7691 0 39.7206 0C32.6721 0 23.5221 8.37907 17.0873 15.4095C16.9769 15.5302 16.891 15.6716 16.8348 15.8257C16.7785 15.9799 16.7529 16.1437 16.7594 16.3078C16.7725 16.6392 16.9156 16.9518 17.1572 17.1768C17.3988 17.4018 17.7192 17.5208 18.0478 17.5076C18.2105 17.501 18.3703 17.4622 18.5182 17.3933C18.666 17.3245 18.7989 17.227 18.9094 17.1063Z" fill="#252733"/>
<path d="M28.5611 25.0124C28.2323 25.0124 27.9169 25.1441 27.6843 25.3787C27.4518 25.6132 27.3212 25.9313 27.3212 26.263C27.3212 26.5946 27.4518 26.9127 27.6843 27.1473C27.9169 27.3818 28.2323 27.5136 28.5611 27.5136H39.7206C40.0494 27.5136 40.3648 27.3818 40.5974 27.1473C40.8299 26.9127 40.9605 26.5946 40.9605 26.263C40.9605 25.9313 40.8299 25.6132 40.5974 25.3787C40.3648 25.1441 40.0494 25.0124 39.7206 25.0124H28.5611Z" fill="#252733"/>
<path d="M23.6013 27.5136C24.2861 27.5136 24.8412 26.9537 24.8412 26.263C24.8412 25.5723 24.2861 25.0124 23.6013 25.0124C22.9165 25.0124 22.3613 25.5723 22.3613 26.263C22.3613 26.9537 22.9165 27.5136 23.6013 27.5136Z" fill="#252733"/>
<path d="M33.5208 12.5062C34.2056 12.5062 34.7608 11.9462 34.7608 11.2556C34.7608 10.5649 34.2056 10.0049 33.5208 10.0049C32.836 10.0049 32.2809 10.5649 32.2809 11.2556C32.2809 11.9462 32.836 12.5062 33.5208 12.5062Z" fill="#252733"/>
<path d="M37.2407 7.50369C37.9255 7.50369 38.4806 6.94377 38.4806 6.25308C38.4806 5.56239 37.9255 5.00247 37.2407 5.00247C36.5559 5.00247 36.0007 5.56239 36.0007 6.25308C36.0007 6.94377 36.5559 7.50369 37.2407 7.50369Z" fill="#252733"/>
<path d="M39.7205 11.2557C40.4053 11.2557 40.9605 10.6958 40.9605 10.0051C40.9605 9.31437 40.4053 8.75446 39.7205 8.75446C39.0357 8.75446 38.4806 9.31437 38.4806 10.0051C38.4806 10.6958 39.0357 11.2557 39.7205 11.2557Z" fill="#252733"/>
<path d="M45.9202 13.7566C46.605 13.7566 47.1602 13.1967 47.1602 12.506C47.1602 11.8153 46.605 11.2554 45.9202 11.2554C45.2354 11.2554 44.6803 11.8153 44.6803 12.506C44.6803 13.1967 45.2354 13.7566 45.9202 13.7566Z" fill="#252733"/>
<path d="M50.8801 17.5086C51.5649 17.5086 52.12 16.9487 52.12 16.258C52.12 15.5673 51.5649 15.0074 50.8801 15.0074C50.1953 15.0074 49.6401 15.5673 49.6401 16.258C49.6401 16.9487 50.1953 17.5086 50.8801 17.5086Z" fill="#252733"/>
<path d="M42.2005 17.5086C42.8853 17.5086 43.4405 16.9487 43.4405 16.258C43.4405 15.5673 42.8853 15.0074 42.2005 15.0074C41.5157 15.0074 40.9606 15.5673 40.9606 16.258C40.9606 16.9487 41.5157 17.5086 42.2005 17.5086Z" fill="#252733"/>
<path d="M36.0008 17.5086C36.6856 17.5086 37.2407 16.9487 37.2407 16.258C37.2407 15.5673 36.6856 15.0074 36.0008 15.0074C35.316 15.0074 34.7609 15.5673 34.7609 16.258C34.7609 16.9487 35.316 17.5086 36.0008 17.5086Z" fill="#252733"/>
<path d="M28.5611 17.5086C29.2459 17.5086 29.8011 16.9487 29.8011 16.258C29.8011 15.5673 29.2459 15.0074 28.5611 15.0074C27.8763 15.0074 27.3212 15.5673 27.3212 16.258C27.3212 16.9487 27.8763 17.5086 28.5611 17.5086Z" fill="#252733"/>
<path d="M13.9902 74.4375C19.8442 75.5951 31.0072 77.5375 39.9978 77.5375C53.073 77.5375 68.6145 73.3076 69.8347 73.9176C70.933 74.4666 72.2556 74.0066 72.468 72.869C67.8605 65.4028 71.2478 75.6325 71.2478 48.7735C71.2478 46.7358 70.7294 42.4809 69.7478 36.4689C69.7214 36.3068 69.7271 36.1411 69.7647 35.9813C69.8022 35.8214 69.8709 35.6705 69.9667 35.5372C70.0626 35.4038 70.1838 35.2907 70.3233 35.2042C70.4629 35.1177 70.6181 35.0596 70.7801 35.0332C70.9421 35.0067 71.1077 35.0124 71.2675 35.05C71.4273 35.0876 71.5782 35.1563 71.7114 35.2522C71.8447 35.3481 71.9577 35.4693 72.0442 35.6089C72.1306 35.7485 72.1887 35.9038 72.2152 36.0659C73.2322 42.2966 73.7478 46.5721 73.7478 48.7735C73.7478 61.7675 72.9442 66.9173 72.593 68.5473L74.7878 71.8414C75.3141 72.6315 74.9031 74.8876 73.0847 76.0119C72.499 76.3688 71.8385 76.5846 71.1551 76.6424C70.4718 76.7002 69.7844 76.5983 69.1472 76.3449C46.1463 81.3317 33.8863 80.9216 13.5052 76.892C13.3441 76.8602 13.1909 76.797 13.0542 76.7059C12.9176 76.6148 12.8002 76.4977 12.7088 76.3613C12.6174 76.2248 12.5537 76.0717 12.5215 75.9106C12.4892 75.7496 12.489 75.5837 12.5208 75.4226C12.5526 75.2614 12.6158 75.1081 12.7068 74.9714C12.7979 74.8347 12.9149 74.7172 13.0513 74.6258C13.1877 74.5343 13.3407 74.4707 13.5017 74.4384C13.6627 74.4061 13.8285 74.4059 13.9895 74.4377L13.9902 74.4375Z" fill="#252733"/>
<path d="M71.248 32.516H42.498C42.1664 32.516 41.8485 32.3842 41.6141 32.1497C41.3797 31.9151 41.248 31.597 41.248 31.2654C41.248 30.9337 41.3797 30.6156 41.6141 30.381C41.8485 30.1465 42.1664 30.0148 42.498 30.0148H71.248C71.5795 30.0148 71.8974 29.883 72.1318 29.6485C72.3663 29.4139 72.498 29.0958 72.498 28.7641C72.498 28.4325 72.3663 28.1144 72.1318 27.8798C71.8974 27.6453 71.5795 27.5135 71.248 27.5135H61.248C60.9164 27.5135 60.5985 27.3818 60.3641 27.1472C60.1297 26.9127 59.998 26.5946 59.998 26.2629C59.998 25.9312 60.1297 25.6131 60.3641 25.3786C60.5985 25.1441 60.9164 25.0123 61.248 25.0123H71.248C71.5795 25.0123 71.8974 24.8806 72.1318 24.646C72.3663 24.4115 72.498 24.0934 72.498 23.7617C72.498 23.43 72.3663 23.1119 72.1318 22.8774C71.8974 22.6429 71.5795 22.5111 71.248 22.5111H17.498C17.1664 22.5111 16.8485 22.3793 16.6141 22.1448C16.3797 21.9103 16.248 21.5922 16.248 21.2605C16.248 20.9288 16.3797 20.6107 16.6141 20.3762C16.8485 20.1416 17.1664 20.0099 17.498 20.0099H71.248C74.498 20.0099 76.1855 23.8685 74.0408 26.2629C76.1842 28.6561 74.5001 32.516 71.248 32.516Z" fill="#252733"/>
<path d="M60.978 17.1063C52.2869 7.68811 44.8362 2.50122 39.998 2.50122C35.1599 2.50122 27.7091 7.68811 19.018 17.1063C18.7931 17.35 18.4807 17.4943 18.1494 17.5076C17.8182 17.5208 17.4952 17.4018 17.2516 17.1768C17.008 16.9518 16.8638 16.6392 16.8506 16.3078C16.8373 15.9763 16.9563 15.6532 17.1812 15.4095C23.6682 8.37907 32.8924 0 39.998 0C47.1037 0 56.3279 8.37907 62.8149 15.4095C62.9263 15.5302 63.0128 15.6716 63.0695 15.8257C63.1262 15.9799 63.152 16.1437 63.1455 16.3078C63.1323 16.6392 62.988 16.9518 62.7444 17.1768C62.5008 17.4018 62.1779 17.5208 61.8466 17.5076C61.6826 17.501 61.5215 17.4622 61.3724 17.3933C61.2234 17.3245 61.0894 17.227 60.978 17.1063Z" fill="#252733"/>
<path d="M51.248 25.0124C51.5796 25.0124 51.8975 25.1441 52.1319 25.3787C52.3664 25.6132 52.498 25.9313 52.498 26.263C52.498 26.5946 52.3664 26.9127 52.1319 27.1473C51.8975 27.3818 51.5796 27.5136 51.248 27.5136H39.998C39.6665 27.5136 39.3486 27.3818 39.1142 27.1473C38.8797 26.9127 38.748 26.5946 38.748 26.263C38.748 25.9313 38.8797 25.6132 39.1142 25.3787C39.3486 25.1441 39.6665 25.0124 39.998 25.0124H51.248Z" fill="#252733"/>
<path d="M56.248 27.5136C55.5577 27.5136 54.998 26.9537 54.998 26.263C54.998 25.5723 55.5577 25.0124 56.248 25.0124C56.9384 25.0124 57.498 25.5723 57.498 26.263C57.498 26.9537 56.9384 27.5136 56.248 27.5136Z" fill="#252733"/>
<path d="M42.498 7.50369C41.8077 7.50369 41.248 6.94377 41.248 6.25308C41.248 5.56239 41.8077 5.00247 42.498 5.00247C43.1884 5.00247 43.748 5.56239 43.748 6.25308C43.748 6.94377 43.1884 7.50369 42.498 7.50369Z" fill="#252733"/>
<path d="M28.748 17.5086C28.0577 17.5086 27.498 16.9487 27.498 16.258C27.498 15.5673 28.0577 15.0074 28.748 15.0074C29.4384 15.0074 29.998 15.5673 29.998 16.258C29.998 16.9487 29.4384 17.5086 28.748 17.5086Z" fill="#252733"/>
<path d="M51.248 17.5086C50.5577 17.5086 49.998 16.9487 49.998 16.258C49.998 15.5673 50.5577 15.0074 51.248 15.0074C51.9384 15.0074 52.498 15.5673 52.498 16.258C52.498 16.9487 51.9384 17.5086 51.248 17.5086Z" fill="#252733"/>
</svg>
