<svg width="80" height="80" viewBox="0 0 80 80" fill="none" xmlns="http://www.w3.org/2000/svg">
<path d="M76.9386 27.1236L23.3936 9.84047C22.8759 9.63531 22.3302 9.53125 21.77 9.53125C15.9742 9.53125 10.5125 11.8023 6.39094 15.9264C2.26969 20.0503 0 25.5147 0 31.3136V66.0586C0 68.4903 1.9775 70.4688 4.40844 70.4688H75.5916C78.0223 70.4688 79.9998 68.4905 79.9998 66.0586V31.3141C80.0003 29.3958 78.7694 27.7117 76.9386 27.1236ZM75.5916 67.3438H4.40844C3.70078 67.3438 3.125 66.7672 3.125 66.0586V32.8816H15.8839C16.7467 32.8816 17.4464 32.1819 17.4464 31.3191C17.4464 30.4563 16.7467 29.7566 15.8839 29.7566H3.19047C3.55328 25.3769 5.44156 21.2972 8.60125 18.1355C12.1325 14.6022 16.8094 12.6562 21.77 12.6562C21.9405 12.6562 22.1055 12.6889 22.2608 12.7533C22.2998 12.7695 22.3395 12.7841 22.3798 12.797L74.9225 29.7566H29.9464C29.0836 29.7566 28.3839 30.4563 28.3839 31.3191C28.3839 32.1819 29.0836 32.8816 29.9464 32.8816H76.8748V66.0586C76.8748 66.7672 76.2991 67.3438 75.5916 67.3438Z" fill="#252733"/>
<path d="M16.6259 39.0823C14.0412 39.0823 11.9384 41.1851 11.9384 43.7698C11.9384 46.3545 14.0412 48.4573 16.6259 48.4573C19.2106 48.4573 21.3134 46.3545 21.3134 43.7698C21.3134 41.1851 19.2106 39.0823 16.6259 39.0823ZM16.6259 45.3323C15.7644 45.3323 15.0634 44.6313 15.0634 43.7698C15.0634 42.9082 15.7644 42.2073 16.6259 42.2073C17.4875 42.2073 18.1884 42.9082 18.1884 43.7698C18.1884 44.6313 17.4875 45.3323 16.6259 45.3323Z" fill="#252733"/>
<path d="M49.2822 53.4573C46.6975 53.4573 44.5947 55.5601 44.5947 58.1448C44.5947 60.7295 46.6975 62.8323 49.2822 62.8323C51.8669 62.8323 53.9697 60.7295 53.9697 58.1448C53.9697 55.5601 51.8669 53.4573 49.2822 53.4573ZM49.2822 59.7073C48.4206 59.7073 47.7197 59.0063 47.7197 58.1448C47.7197 57.2832 48.4206 56.5823 49.2822 56.5823C50.1437 56.5823 50.8447 57.2832 50.8447 58.1448C50.8447 59.0063 50.1437 59.7073 49.2822 59.7073Z" fill="#252733"/>
<path d="M65.6103 40.6445C62.8101 40.6445 60.532 42.9227 60.532 45.7228C60.532 48.523 62.8101 50.8009 65.6103 50.8009C68.4104 50.8009 70.6884 48.523 70.6884 45.7228C70.6884 42.9227 68.4104 40.6445 65.6103 40.6445ZM65.6103 47.6759C64.5332 47.6759 63.657 46.7998 63.657 45.7228C63.657 44.6458 64.5332 43.7695 65.6103 43.7695C66.6873 43.7695 67.5634 44.6458 67.5634 45.7228C67.5634 46.7998 66.6873 47.6759 65.6103 47.6759Z" fill="#252733"/>
<path d="M46.4696 44.4729C46.4696 41.0267 43.6659 38.2229 40.2196 38.2229C36.7732 38.2229 33.9695 41.0267 33.9695 44.4729C33.9695 47.9192 36.7732 50.7229 40.2196 50.7229C43.6659 50.7229 46.4696 47.9192 46.4696 44.4729ZM40.2196 47.5979C38.4965 47.5979 37.0945 46.196 37.0945 44.4729C37.0945 42.7498 38.4965 41.3479 40.2196 41.3479C41.9428 41.3479 43.3446 42.7498 43.3446 44.4729C43.3446 46.196 41.9429 47.5979 40.2196 47.5979Z" fill="#252733"/>
<path d="M26.3915 53.1445C23.5914 53.1445 21.3133 55.4227 21.3133 58.2228C21.3133 61.023 23.5914 63.3009 26.3915 63.3009C29.1917 63.3009 31.4697 61.023 31.4697 58.2228C31.4697 55.4227 29.1917 53.1445 26.3915 53.1445ZM26.3915 60.1759C25.3145 60.1759 24.4383 59.2998 24.4383 58.2228C24.4383 57.1458 25.3145 56.2695 26.3915 56.2695C27.4686 56.2695 28.3447 57.1458 28.3447 58.2228C28.3447 59.2998 27.4686 60.1759 26.3915 60.1759Z" fill="#252733"/>
<path d="M12.2525 56.1919H12.2514C11.3886 56.1919 10.6894 56.8916 10.6894 57.7544C10.6894 58.6172 11.3895 59.3169 12.2525 59.3169C13.1155 59.3169 13.815 58.6172 13.815 57.7544C13.815 56.8916 13.1153 56.1919 12.2525 56.1919Z" fill="#252733"/>
<path d="M27.3306 47.52C28.1935 47.52 28.8931 46.8203 28.8931 45.9575C28.8931 45.0947 28.1935 44.395 27.3306 44.395H27.3294C26.4666 44.395 25.7675 45.0947 25.7675 45.9575C25.7675 46.8203 26.4678 47.52 27.3306 47.52Z" fill="#252733"/>
<path d="M37.642 56.4263H37.6407C36.7779 56.4263 36.0789 57.126 36.0789 57.9888C36.0789 58.8516 36.779 59.5513 37.642 59.5513C38.505 59.5513 39.2045 58.8516 39.2045 57.9888C39.2045 57.126 38.505 56.4263 37.642 56.4263Z" fill="#252733"/>
<path d="M54.3607 41.0356C55.2235 41.0356 55.9232 40.3359 55.9232 39.4731C55.9232 38.6103 55.2235 37.9106 54.3607 37.9106H54.3595C53.4967 37.9106 52.7976 38.6103 52.7976 39.4731C52.7976 40.3359 53.4979 41.0356 54.3607 41.0356Z" fill="#252733"/>
<path d="M64.7514 56.8169H64.7501C63.8873 56.8169 63.1882 57.5166 63.1882 58.3794C63.1882 59.2422 63.8884 59.9419 64.7514 59.9419C65.6143 59.9419 66.3139 59.2422 66.3139 58.3794C66.3139 57.5166 65.6143 56.8169 64.7514 56.8169Z" fill="#252733"/>
<path d="M54.8295 47.5981H54.8282C53.9654 47.5981 53.2664 48.2978 53.2664 49.1606C53.2664 50.0235 53.9665 50.7231 54.8295 50.7231C55.6925 50.7231 56.392 50.0235 56.392 49.1606C56.392 48.2978 55.6925 47.5981 54.8295 47.5981Z" fill="#252733"/>
<path d="M19.3606 21.1919C20.2234 21.1919 20.9231 20.4922 20.9231 19.6294C20.9231 18.7666 20.2234 18.0669 19.3606 18.0669H19.3595C18.4967 18.0669 17.7975 18.7666 17.7975 19.6294C17.7975 20.4922 18.4978 21.1919 19.3606 21.1919Z" fill="#252733"/>
<path d="M34.9856 26.0356C35.8484 26.0356 36.5481 25.336 36.5481 24.4731C36.5481 23.6103 35.8484 22.9106 34.9856 22.9106H34.9845C34.1217 22.9106 33.4225 23.6103 33.4225 24.4731C33.4225 25.336 34.1228 26.0356 34.9856 26.0356Z" fill="#252733"/>
<path d="M22.9158 32.8816C23.7786 32.8816 24.4783 32.1819 24.4783 31.3191C24.4783 30.4563 23.7786 29.7566 22.9158 29.7566H22.9145C22.0517 29.7566 21.3527 30.4563 21.3527 31.3191C21.3527 32.1819 22.053 32.8816 22.9158 32.8816Z" fill="#252733"/>
</svg>
