<svg width="80" height="80" viewBox="0 0 80 80" fill="none" xmlns="http://www.w3.org/2000/svg">
<path d="M54.601 37.4485C54.601 26.8311 45.2627 18.1934 33.7844 18.1934C22.3062 18.1934 12.9679 26.8311 12.9679 37.4485C12.9679 48.066 22.3062 56.7039 33.7844 56.7039C45.2627 56.7039 54.601 48.066 54.601 37.4485ZM15.3115 37.4485C15.3115 28.1234 23.5984 20.537 33.7844 20.537C43.9704 20.537 52.2574 28.1234 52.2574 37.4485C52.2574 46.7737 43.9704 54.3601 33.7844 54.3601C23.5984 54.3601 15.3115 46.7735 15.3115 37.4485Z" fill="#252733"/>
<path d="M36.4813 47.0363C37.1411 47.1465 37.7946 47.201 38.4373 47.201C40.918 47.201 43.2328 46.3889 45.0992 44.8371C48.2355 42.2294 50.0295 38.6618 49.8981 35.2938C49.7909 32.5453 48.4184 30.1617 45.9291 28.4008C41.7783 25.4644 38.4837 28.3482 35.8367 30.6654C34.198 32.0998 32.6502 33.4546 31.0982 33.5341C29.2495 33.6292 28.2518 33.0855 27.196 32.5102C25.7334 31.7132 24.0756 30.8097 20.7671 31.9089C20.7549 31.9129 20.7441 31.919 20.7329 31.9248C19.4686 32.2833 17.6286 33.3779 17.6633 36.7109C17.69 39.3191 18.7793 41.4808 20.8132 42.9623C22.7877 44.4006 25.3338 44.9668 27.6943 44.9668C28.8708 44.9668 29.9988 44.8243 30.9895 44.5808C32.5166 45.8236 34.4247 46.6928 36.4813 47.0363ZM31.2184 35.8746C33.5823 35.7534 35.5132 34.0632 37.3805 32.4288C40.2028 29.9584 42.0602 28.5344 44.576 30.3141C46.4749 31.6573 47.4776 33.3635 47.5564 35.3852C47.6579 37.9907 46.1424 40.922 43.6009 43.0351C41.7833 44.5463 39.3922 45.1463 36.8674 44.7247C34.2547 44.2885 31.9592 42.8179 30.7271 40.7909L30.4074 40.2641C29.2541 38.3629 28.1268 36.5045 26.928 35.0153C27.966 35.5215 29.2795 35.9743 31.2184 35.8746ZM22.1934 41.0678C20.7618 40.0249 20.0261 38.5509 20.007 36.6864C19.9855 34.6106 20.931 34.2823 21.4171 34.1661C23.7768 33.8556 26.0253 37.5586 28.4037 41.4797L28.7245 42.0083C28.8362 42.1922 28.9564 42.3715 29.0809 42.548C26.7812 42.8123 24.0654 42.4316 22.1934 41.0678Z" fill="#252733"/>
<path d="M73.4667 64.9606C73.3325 61.5172 71.6083 58.5276 68.4804 56.315C66.1612 54.6743 63.8459 54.35 61.4023 55.3241C60.8434 55.547 60.3013 55.831 59.7719 56.1558C60.7626 40.9532 60.5387 25.5661 59.1042 10.3685C59.5494 9.65455 60.4157 8.04975 60.9587 5.64678C61.2795 4.22653 60.6752 2.82972 59.4192 2.08795C58.1826 1.35775 56.692 1.50041 55.6216 2.4511C55.0686 2.94207 54.5459 3.24647 53.6493 3.24647C52.4724 3.24647 51.9212 2.70612 51.1584 1.95825C50.2683 1.08585 49.1609 0 47.0265 0C44.8923 0 43.7849 1.08585 42.8952 1.95841C42.1326 2.70627 41.5815 3.24647 40.4047 3.24647C39.2277 3.24647 38.6768 2.70612 37.9141 1.95825C37.0242 1.08585 35.9167 0 33.7825 0C31.6485 0 30.5411 1.08585 29.6513 1.95841C28.8886 2.70627 28.3376 3.24662 27.1608 3.24662C25.9842 3.24662 25.4332 2.70627 24.6705 1.95857C23.7808 1.08585 22.6732 0 20.5392 0C18.4053 0 17.298 1.08585 16.4083 1.95841C15.6457 2.70627 15.0949 3.24647 13.9184 3.24647C13.0221 3.24647 12.4994 2.94207 11.9467 2.4511C10.8763 1.50026 9.38607 1.35775 8.14958 2.08764C6.89356 2.82925 6.28946 4.22591 6.61026 5.646C7.15248 8.04678 8.0177 9.6508 8.46351 10.366C8.21755 12.9654 8.00504 15.5782 7.83409 18.1421C7.79112 18.788 8.27959 19.3463 8.92541 19.3894C9.57155 19.4325 10.1296 18.9439 10.1727 18.2981C10.3338 15.8823 10.5307 13.4223 10.7591 10.9717C26.043 9.12904 41.5252 9.12889 56.8094 10.9717C58.2612 26.5797 58.4243 42.3872 57.2978 57.9795C56.8108 58.3862 56.3311 58.8055 55.856 59.2214L55.5288 59.5074C55.0414 59.933 54.9913 60.6734 55.4169 61.1608C55.8427 61.6482 56.5829 61.6983 57.0705 61.2727L57.3996 60.9847C61.1747 57.6798 63.6639 55.7784 67.1271 58.2279C69.6735 60.0295 71.0186 62.3252 71.125 65.0515C71.2605 68.5253 69.2536 72.422 65.8876 75.2208C63.4589 77.2398 60.2685 78.0421 56.9036 77.4798C53.4288 76.8993 50.3732 74.9381 48.7293 72.2335L48.3119 71.5463C46.4349 68.4527 44.6125 65.449 42.6037 63.402C42.7889 63.4992 42.977 63.6017 43.171 63.7074C44.6504 64.5133 46.492 65.5164 49.6394 65.3553C50.7822 65.2967 51.9294 64.9331 53.1462 64.2436C53.7092 63.9246 53.9071 63.2095 53.5881 62.6465C53.2691 62.0833 52.5542 61.8857 51.9909 62.2046C51.0985 62.7103 50.29 62.9753 49.5195 63.0148C47.0317 63.1425 45.7013 62.4171 44.2924 61.6496C42.3733 60.6039 40.3889 59.5224 36.2528 60.8965C36.2363 60.902 36.2208 60.9097 36.206 60.9183C33.7017 61.6127 32.8357 63.5989 32.5743 65.3098C25.3288 65.2626 18.0001 64.7979 10.7591 63.9246C9.49186 50.301 9.20262 36.5073 9.90001 22.9111C9.93314 22.2648 9.43607 21.7139 8.78978 21.6807C8.14239 21.6478 7.59251 22.1446 7.55938 22.7909C6.84731 36.6743 7.15701 50.7606 8.47648 64.6666C8.03442 65.3711 7.15701 66.9827 6.60979 69.4074C6.28867 70.8277 6.89246 72.2245 8.14817 72.9662C9.38466 73.6965 10.8755 73.5539 11.9464 72.6026C12.4989 72.1118 13.0216 71.8076 13.9187 71.8076C15.0961 71.8076 15.6473 72.3478 16.4101 73.0955C17.3 73.9677 18.4078 75.0533 20.542 75.0533C22.6754 75.0533 23.7826 73.9679 24.6722 73.0956C25.4351 72.3478 25.9862 71.8076 27.1637 71.8076C28.34 71.8076 28.891 72.3476 29.6533 73.0952C30.5433 73.9676 31.6508 75.0533 33.7853 75.0533C34.8438 75.0533 35.6361 74.7781 36.2302 74.4499C36.2889 74.4946 36.3452 74.5414 36.4054 74.5851C38.8957 76.3991 42.1104 77.1132 45.0939 77.1132C46.6543 77.1132 48.1499 76.9167 49.4472 76.5813C51.3962 78.2083 53.8574 79.3471 56.517 79.7915C57.3511 79.9309 58.1771 79.9998 58.989 79.9998C62.1169 79.9998 65.0344 78.9773 67.3852 77.0231C71.3592 73.7193 73.6324 69.2099 73.4667 64.9606ZM10.1947 8.68089C9.81797 7.98756 9.27106 6.78936 8.89619 5.12972C8.7554 4.50655 9.20121 4.18856 9.34122 4.1059C9.51076 4.00573 9.95282 3.81463 10.3904 4.20325C11.1173 4.84892 12.1752 5.59006 13.9186 5.59006C16.0524 5.59006 17.1597 4.50421 18.0495 3.63165C18.812 2.88379 19.3628 2.34359 20.5393 2.34359C21.7161 2.34359 22.2671 2.88394 23.0298 3.63165C23.9195 4.50421 25.0269 5.59006 27.161 5.59006C29.2952 5.59006 30.4026 4.50421 31.2924 3.63165C32.0551 2.88379 32.606 2.34359 33.7828 2.34359C34.9596 2.34359 35.5108 2.88394 36.2735 3.6318C37.1634 4.50436 38.2708 5.59022 40.405 5.59022C42.539 5.59022 43.6465 4.50436 44.5362 3.6318C45.2988 2.88394 45.8499 2.34359 47.0268 2.34359C48.2038 2.34359 48.7549 2.88394 49.5178 3.6318C50.4078 4.50436 51.5153 5.59022 53.6495 5.59022C55.3932 5.59022 56.4512 4.84907 57.178 4.2034C57.6158 3.81447 58.058 4.00573 58.2276 4.10605C58.3676 4.18872 58.8137 4.50686 58.6728 5.13018C58.2977 6.79045 57.7504 7.98881 57.3746 8.68089C41.717 6.76982 25.8517 6.76982 10.1947 8.68089ZM31.2942 71.4218C30.4046 70.5497 29.2974 69.4641 27.1638 69.4641C25.0291 69.4641 23.9217 70.5498 23.0318 71.4222C22.2694 72.1696 21.7184 72.7098 20.5421 72.7098C19.3647 72.7098 18.8136 72.1696 18.0507 71.4219C17.1608 70.5497 16.0531 69.4641 13.9189 69.4641C12.1745 69.4641 11.1167 70.2051 10.3902 70.8506C9.95204 71.2397 9.50998 71.0488 9.34028 70.9485C9.20043 70.8658 8.75509 70.548 8.89619 69.9242C9.29903 68.1387 9.90141 66.8879 10.2766 66.2256C17.6583 67.1238 25.1315 67.6037 32.5203 67.6532C32.6854 69.5521 33.3234 71.2397 34.4076 72.6506C34.2232 72.6881 34.0182 72.7098 33.7858 72.7098C32.6084 72.7098 32.0571 72.1696 31.2942 71.4218ZM37.7856 72.6911C35.842 71.2754 34.8435 69.2773 34.8176 66.7521C34.7893 64.0393 35.9833 63.3847 36.9277 63.1509C40.2033 62.7064 43.1702 67.5907 46.3082 72.7625L46.7265 73.4514C46.9653 73.8443 47.2286 74.2235 47.5131 74.589C44.3501 75.075 40.437 74.6225 37.7856 72.6911Z" fill="#252733"/>
<path d="M66.455 69.6777L66.3967 69.7119C65.8384 70.0393 65.6512 70.7573 65.9787 71.3154C66.1969 71.6875 66.5885 71.8947 66.9907 71.8947C67.1921 71.8947 67.396 71.8428 67.5824 71.7336L67.6407 71.6994C68.199 71.372 68.3862 70.654 68.0587 70.0958C67.731 69.5373 67.0135 69.3503 66.455 69.6777Z" fill="#252733"/>
<path d="M68.6566 69.1807C68.858 69.1807 69.0619 69.1288 69.2483 69.0196L69.3066 68.9853C69.8649 68.658 70.0521 67.94 69.7248 67.3818C69.3974 66.8235 68.6794 66.6363 68.1211 66.9636L68.0628 66.9979C67.5045 67.3252 67.3173 68.0432 67.6448 68.6014C67.8628 68.9735 68.2544 69.1807 68.6566 69.1807Z" fill="#252733"/>
<path d="M64.8404 66.9223L64.7821 66.9565C64.2238 67.2839 64.0366 68.0019 64.3641 68.5601C64.5823 68.9321 64.9739 69.1393 65.3761 69.1393C65.5775 69.1393 65.7814 69.0874 65.9678 68.9782L66.0261 68.944C66.5845 68.6166 66.7717 67.8986 66.4441 67.3405C66.1166 66.782 65.3989 66.5949 64.8404 66.9223Z" fill="#252733"/>
</svg>
