<svg width="80" height="80" viewBox="0 0 80 80" fill="none" xmlns="http://www.w3.org/2000/svg">
<path d="M52.5 23.75C50.4325 23.75 48.75 25.4325 48.75 27.5C48.75 29.5675 50.4325 31.25 52.5 31.25C54.5675 31.25 56.25 29.5675 56.25 27.5C56.25 25.4325 54.5675 23.75 52.5 23.75ZM52.5 28.75C51.8112 28.75 51.25 28.19 51.25 27.5C51.25 26.81 51.8112 26.25 52.5 26.25C53.1887 26.25 53.75 26.81 53.75 27.5C53.75 28.19 53.1887 28.75 52.5 28.75Z" fill="#252733"/>
<path d="M72.275 9.4649L78.2312 0.923645L70.4225 7.8124C67.7037 10.2111 59.8012 16.6499 55.9437 17.6236C55.52 17.7311 55.0625 17.8324 54.5825 17.9399C51.625 18.6011 47.5737 19.5074 44.1125 22.9986C43.6075 23.5086 43.105 24.1036 42.6 24.7711C40.2662 23.0611 32.1975 17.2836 26.7137 15.0899L23.54 13.8211L25.1462 16.8386C25.1787 16.8999 28.365 22.9724 26.3812 26.9411C25.4762 28.7511 23.985 29.8199 22.4075 30.9499C20.1075 32.5986 17.5 34.4661 17.5 38.7499C17.5 45.6086 20.3812 50.9474 21.8862 53.2711C20.1312 54.7474 18.22 56.1036 16.1487 57.3099C15.13 47.6374 4.13747 45.0561 4.01997 45.0299L1.18872 44.4024L2.67622 46.8924C2.71247 46.9524 6.24997 52.9549 6.24997 59.9999C6.24997 67.0449 2.71247 73.0474 2.67747 73.1074L1.18997 75.5986L4.02122 74.9699C4.13872 74.9424 15.2475 72.3311 16.1612 62.5261C17.7187 63.0136 19.9375 63.4636 23.0462 63.6524C25.8725 67.4436 29.8262 67.4999 30 67.4999H30.7725L31.1175 66.8086C31.1612 66.7199 31.9762 65.0499 32.3312 63.0049C36.7862 61.9436 41.115 59.7824 45.1987 56.7936C45.9087 64.6087 43.8187 72.0761 43.7975 72.1549L42.2712 77.5136L45.94 73.3212C51.7375 66.6962 53.8175 60.5036 54.57 55.2849C54.3175 61.7136 52.5887 67.0274 52.5637 67.1036L50.61 72.9849L54.6912 68.3212C63.75 57.9699 63.75 48.6599 63.75 42.4999V35.2774C66.7537 30.1424 69.2762 24.6874 71.18 19.2474L72.3625 15.8674L64.3175 20.9411C66.6612 17.5349 69.835 12.9636 72.275 9.4649ZM41.1725 26.8236C40.6412 27.6399 40.1025 28.5161 39.5487 29.4461L29.4612 22.7211C29.3337 21.2761 29.0025 19.8936 28.6275 18.7449C33.5312 21.3186 39.3625 25.4999 41.1725 26.8236ZM37.8762 32.3024C37.5262 32.9061 37.1637 33.5274 36.7937 34.1586L28.6275 28.0336C29.0025 27.2774 29.2437 26.4811 29.38 25.6724L38.28 31.6061C38.1462 31.8386 38.0137 32.0661 37.8762 32.3024ZM27.23 30.1099L35.5112 36.3199C35.0462 37.0936 34.5637 37.8774 34.0625 38.6711L25.1825 32.0111C25.89 31.4624 26.5912 30.8436 27.23 30.1099ZM23.0737 33.5549L32.7 40.7749C32.1562 41.5911 31.5925 42.4086 31.0037 43.2249L21.025 35.4636C21.56 34.7499 22.2637 34.1536 23.0737 33.5549ZM27.745 47.3899L20.2537 42.0386C20.0975 40.9911 20 39.8961 20 38.7499C20 38.4386 20.0287 38.1574 20.0637 37.8824L29.505 45.2261C28.9412 45.9549 28.3525 46.6749 27.745 47.3899ZM21.0987 45.7136L26.0725 49.2674C25.3375 50.0561 24.58 50.8299 23.7825 51.5811C23.0087 50.3324 21.915 48.3074 21.0987 45.7136ZM6.21497 71.5824C7.34497 68.9536 8.74997 64.7349 8.74997 59.9999C8.74997 55.2824 7.35622 51.0761 6.22747 48.4461C9.24372 49.8086 13.665 52.7974 13.7425 58.5986C13.565 58.6861 13.3975 58.7836 13.2175 58.8686L11.6075 59.6261L12.865 60.8836C12.9425 60.9611 13.2087 61.2011 13.7362 61.5086C13.6075 67.3111 9.21747 70.2524 6.21497 71.5824ZM29.22 64.8986C28.5762 64.7649 27.6112 64.4511 26.6275 63.7361C27.645 63.7211 28.6575 63.6486 29.665 63.5124C29.5237 64.0436 29.3625 64.5299 29.22 64.8986ZM47.5062 54.9911C49.2125 53.5836 50.87 52.0399 52.47 50.3786C52.34 55.1424 51.5925 60.9461 47.3025 67.4436C47.7962 64.0949 48.1375 59.5724 47.5062 54.9911ZM61.25 42.4999C61.25 47.6086 61.25 54.2911 56.3687 61.9561C57.12 57.7086 57.6225 51.7711 56.2487 46.1199C58.01 43.9686 59.6837 41.6886 61.25 39.3086V42.4999ZM67.5462 21.8599C65.2537 27.7099 62.5562 32.9211 59.6062 37.4949C53.7625 37.4436 49.44 36.2199 46.0712 30.6061L43.9275 31.8924C45.0662 33.7886 46.3275 35.2399 47.6712 36.3636C41.1187 41.2086 37.8237 46.6111 37.6775 46.8561L34.875 51.5286L39.4337 48.5462C42.05 46.8349 45.41 45.0024 46.3225 45.0024H46.3237C46.6262 45.2624 46.6675 46.9036 46.2862 48.4486L45.5625 51.3699L48.1412 49.8224C48.4087 49.6611 54.425 45.9636 54.9462 39.6211C55.94 39.7936 56.9437 39.8986 57.9512 39.9499C48.1087 53.9936 35.8712 61.2499 26.25 61.2499C21.2012 61.2499 18.18 60.5936 16.49 60.0086C28.4912 53.4449 35.1212 42.0249 40.0375 33.5574C42.2187 29.8024 44.1012 26.5586 45.8862 24.7586C48.8325 21.7874 52.3225 21.0074 55.1275 20.3799C55.6312 20.2674 56.11 20.1599 56.555 20.0474C58.95 19.4436 62.315 17.3011 65.3012 15.1186C65.0537 15.4749 64.8062 15.8336 64.5562 16.1924C58.34 25.1761 58.34 25.1761 59.0675 25.9786L59.7762 26.7561L67.5462 21.8599ZM52.48 39.0199C52.3762 42.0336 50.5912 44.4186 49.0537 45.9124C49.0112 45.0236 48.815 44.1274 48.3075 43.4786C47.815 42.8461 47.0837 42.4999 46.25 42.4999C45.6125 42.4999 44.6862 42.8124 43.675 43.2661C45.2525 41.5799 47.3375 39.6686 49.8737 37.8774C50.7225 38.3486 51.5912 38.7299 52.48 39.0199Z" fill="#252733"/>
<path d="M40.48 36.01C36.9525 42.1787 33.305 48.5575 25.4363 55.3025L27.0638 57.2C35.2613 50.175 39.1863 43.31 42.65 37.2525L43.5825 35.6262L41.4175 34.3762L40.48 36.01Z" fill="#252733"/>
</svg>
