<svg width="80" height="80" viewBox="0 0 80 80" fill="none" xmlns="http://www.w3.org/2000/svg">
<path d="M56.25 12.5C55.5083 12.5 54.7833 12.7199 54.1666 13.132C53.5499 13.544 53.0693 14.1297 52.7855 14.8149C52.5016 15.5002 52.4274 16.2542 52.5721 16.9816C52.7168 17.709 53.0739 18.3772 53.5984 18.9017C54.1228 19.4261 54.791 19.7833 55.5184 19.9279C56.2458 20.0726 56.9998 19.9984 57.6851 19.7145C58.3703 19.4307 58.956 18.9501 59.368 18.3334C59.7801 17.7167 60 16.9917 60 16.25C59.9988 15.2558 59.6034 14.3026 58.9004 13.5996C58.1974 12.8966 57.2442 12.5012 56.25 12.5ZM56.25 17.5C56.0028 17.5 55.7611 17.4267 55.5555 17.2893C55.35 17.152 55.1898 16.9568 55.0952 16.7284C55.0005 16.4999 54.9758 16.2486 55.024 16.0061C55.0723 15.7637 55.1913 15.5409 55.3661 15.3661C55.5409 15.1913 55.7637 15.0722 56.0061 15.024C56.2486 14.9758 56.5 15.0005 56.7284 15.0952C56.9568 15.1898 57.152 15.35 57.2893 15.5555C57.4267 15.7611 57.5 16.0028 57.5 16.25C57.4996 16.5814 57.3678 16.8991 57.1335 17.1335C56.8991 17.3678 56.5814 17.4996 56.25 17.5Z" fill="#252733"/>
<path d="M72.4359 23.3547L67.5 8.54688V3.75C67.5 3.41848 67.3683 3.10054 67.1339 2.86612C66.8995 2.6317 66.5815 2.5 66.25 2.5H46.25C45.9185 2.5 45.6005 2.6317 45.3661 2.86612C45.1317 3.10054 45 3.41848 45 3.75V8.54688L40.3491 22.5H37.5V18.75C37.5 18.4185 37.3683 18.1005 37.1339 17.8661C36.8995 17.6317 36.5815 17.5 36.25 17.5H21.25V13.75C21.25 13.4185 21.1183 13.1005 20.8839 12.8661C20.6495 12.6317 20.3315 12.5 20 12.5H12.5C12.1685 12.5 11.8505 12.6317 11.6161 12.8661C11.3817 13.1005 11.25 13.4185 11.25 13.75V17.5H8.75C8.41848 17.5 8.10054 17.6317 7.86612 17.8661C7.6317 18.1005 7.5 18.4185 7.5 18.75V76.25C7.5 76.5815 7.6317 76.8995 7.86612 77.1339C8.10054 77.3683 8.41848 77.5 8.75 77.5H71.25C71.5815 77.5 71.8995 77.3683 72.1339 77.1339C72.3683 76.8995 72.5 76.5815 72.5 76.25V23.75C72.4999 23.6156 72.478 23.4822 72.4352 23.3548L72.4359 23.3547ZM70 39.5922C69.1353 40.6819 65.3605 44.6898 57.4431 43.4525C54.568 43.0011 51.6238 43.3848 48.9605 44.5581C48.1302 41.3535 46.8149 38.2947 45.0602 35.4877L44.985 35.3675C44.1777 34.0763 43.7499 32.584 43.7506 31.0613V30C44.3506 30.0002 44.9419 29.8564 45.4747 29.5806C46.0076 29.3049 46.4665 28.9053 46.8129 28.4154C47.1592 27.9255 47.3829 27.3596 47.4652 26.7653C47.5475 26.171 47.4859 25.5656 47.2856 25H70V39.5922ZM43.75 25C44.0815 25 44.3995 25.1317 44.6339 25.3661C44.8683 25.6005 45 25.9185 45 26.25C45 26.5815 44.8683 26.8995 44.6339 27.1339C44.3995 27.3683 44.0815 27.5 43.75 27.5H33.75C33.4185 27.5 33.1005 27.3683 32.8661 27.1339C32.6317 26.8995 32.5 26.5815 32.5 26.25C32.5 25.9185 32.6317 25.6005 32.8661 25.3661C33.1005 25.1317 33.4185 25 33.75 25H43.75ZM34.635 36.6925C35.691 35.0041 36.2506 33.0527 36.25 31.0613V30H41.25V31.0613C41.2493 33.0526 41.8089 35.0039 42.8648 36.6922L42.9398 36.8125C43.3357 37.4459 43.7065 38.0918 44.0522 38.75H33.4478C33.794 38.0923 34.1648 37.4465 34.5603 36.8125L34.635 36.6925ZM42.9844 22.5L47.1513 10H65.3489L69.5156 22.5H42.9844ZM47.5 5H65V7.5H47.5V5ZM13.75 15H18.75V17.5H13.75V15ZM10 20H35V22.5H33.75C32.7554 22.5 31.8016 22.8951 31.0983 23.5983C30.3951 24.3016 30 25.2554 30 26.25C30 27.2446 30.3951 28.1984 31.0983 28.9017C31.8016 29.6049 32.7554 30 33.75 30V31.0613C33.7505 32.5842 33.3224 34.0766 32.5148 35.3678L32.44 35.4873C29.2101 40.6519 27.4982 46.6209 27.5 52.7123V55.448C26.4516 56.0592 25.3641 56.6007 24.2445 57.0689C15.577 54.4862 10 49.2894 10 43.75V20ZM12.2331 53.4258C14.3911 55.4155 17.1916 57.1052 20.4519 58.4014C17.0476 59.3627 13.5363 59.8937 10 59.9819V50.9477C10.6629 51.8436 11.4108 52.6735 12.2331 53.4258ZM10 62.483C16.5203 62.3175 22.6147 60.858 27.5 58.3056V71.25C27.4986 72.6031 27.9387 73.9197 28.7534 75H10V62.483ZM33.75 75C32.7558 74.9989 31.8026 74.6034 31.0996 73.9004C30.3966 73.1974 30.0011 72.2442 30 71.25V52.7123C29.9993 48.772 30.7756 44.8701 32.2845 41.2302C32.3556 41.243 32.4277 41.2496 32.5 41.25H45C45.0723 41.2496 45.1444 41.243 45.2155 41.2302C46.7244 44.8701 47.5007 48.772 47.5 52.7123V71.25C47.4988 72.2442 47.1034 73.1974 46.4004 73.9004C45.6974 74.6034 44.7442 74.9988 43.75 75H33.75ZM48.7466 75C49.5613 73.9197 50.0014 72.6031 50 71.25V52.7123C50.0001 50.8161 49.8345 48.9235 49.505 47.0561C51.9581 45.9052 54.4958 45.5225 57.057 45.9231C58.162 46.0992 59.2789 46.1891 60.3978 46.1922C64.997 46.1922 68.112 44.562 70 43.0723V75H48.7466Z" fill="#252733"/>
<path d="M22.5 39.9967C22.5625 39.9988 22.6246 39.9999 22.6862 39.9999C23.9581 40.0182 25.1871 39.5407 26.113 38.6684C26.5534 38.2494 26.9036 37.7448 27.1421 37.1857C27.3806 36.6265 27.5024 36.0245 27.5 35.4166C27.5 34.3522 27.0242 33.5206 26.6767 32.9134C26.3348 32.3451 25.958 31.7985 25.5486 31.2767C25.1674 30.7938 24.8177 30.2868 24.5017 29.7589L23.5894 28.137C23.4806 27.9437 23.3224 27.7828 23.1309 27.6708C22.9395 27.5588 22.7216 27.4998 22.4998 27.4998C22.278 27.4998 22.0602 27.5588 21.8687 27.6708C21.6772 27.7828 21.519 27.9437 21.4103 28.137L20.498 29.7589C20.182 30.2868 19.8323 30.7938 19.4511 31.2767C19.0416 31.7985 18.6649 32.3451 18.323 32.9134C17.9755 33.5206 17.4997 34.3522 17.4997 35.4166C17.4973 36.0245 17.619 36.6265 17.8576 37.1857C18.0961 37.7448 18.4463 38.2494 18.8867 38.6684C19.3689 39.1212 19.9374 39.4721 20.5582 39.7003C21.179 39.9286 21.8394 40.0294 22.5 39.9967ZM20.4931 34.155C20.7844 33.6778 21.1038 33.2183 21.4497 32.7791C21.8081 32.3024 22.1767 31.8122 22.5 31.2856C22.8233 31.8122 23.1919 32.3024 23.5503 32.7791C23.8962 33.2183 24.2156 33.6778 24.5069 34.155C24.7862 34.6434 25 35.0456 25 35.4166C25.0011 35.687 24.947 35.9549 24.8409 36.2037C24.7349 36.4525 24.5792 36.677 24.3833 36.8634C24.1374 37.088 23.8483 37.26 23.5337 37.3689C23.219 37.4778 22.8855 37.5214 22.5534 37.4969C22.5356 37.4963 22.5178 37.4959 22.5 37.4959C22.4822 37.4959 22.4644 37.4963 22.4465 37.4969C22.1145 37.5216 21.7809 37.4781 21.4662 37.3692C21.1515 37.2603 20.8624 37.0882 20.6167 36.8634C20.4208 36.677 20.2651 36.4525 20.159 36.2037C20.053 35.9549 19.9989 35.687 20 35.4166C20 35.0467 20.2137 34.6434 20.4931 34.155Z" fill="#252733"/>
</svg>
