<svg width="80" height="80" viewBox="0 0 80 80" fill="none" xmlns="http://www.w3.org/2000/svg">
<g clip-path="url(#clip0)">
<path d="M59.3145 27.0716C59.3145 19.6823 53.6179 13.5994 46.386 12.9814V10.1862H49.05C49.7209 10.1862 50.2646 9.64243 50.2646 8.97166C50.2646 8.30089 49.7209 7.75709 49.05 7.75709H48.9716V3.80567C48.9716 1.70721 47.2644 0 45.166 0H34.834C32.7355 0 31.0283 1.70721 31.0283 3.80567V7.75709H30.9501C30.2792 7.75709 29.7355 8.30089 29.7355 8.97166C29.7355 9.64243 30.2792 10.1862 30.9501 10.1862H33.6141V12.9812C26.3822 13.5994 20.6856 19.6821 20.6856 27.0714V28.3642C20.6856 28.8379 20.8201 29.2797 21.0494 29.658C20.8202 30.0366 20.6856 30.4787 20.6856 30.9526V46.4615C20.6856 47.1244 20.9457 47.7263 21.3669 48.1754C20.9381 48.7906 20.6856 49.5377 20.6856 50.3428V52.9286C20.6856 53.9263 21.0722 54.8355 21.7033 55.5142C21.0722 56.1929 20.6856 57.1022 20.6856 58.0999V60.6857C20.6856 61.6834 21.0722 62.5925 21.7033 63.2714C21.0722 63.9501 20.6856 64.8594 20.6856 65.857V68.4427C20.6856 69.4405 21.0722 70.3496 21.7033 71.0285C21.0722 71.7072 20.6856 72.6165 20.6856 73.6141C20.6856 77.1354 23.5503 80.0002 27.0717 80.0002H52.9286C56.4498 80.0002 59.3146 77.1354 59.3146 73.6141C59.3146 72.6164 58.9281 71.7072 58.297 71.0285C58.9282 70.3498 59.3146 69.4405 59.3146 68.4427V65.857C59.3146 64.8593 58.9281 63.9501 58.297 63.2714C58.9282 62.5927 59.3146 61.6834 59.3146 60.6857V58.0999C59.3146 57.1022 58.9281 56.193 58.297 55.5142C58.9282 54.8355 59.3146 53.9263 59.3146 52.9286V50.3428C59.3146 49.5377 59.0622 48.7908 58.6333 48.1754C59.0545 47.7263 59.3146 47.1244 59.3146 46.4615V30.9527C59.3146 30.4787 59.1802 30.0368 58.9509 29.6581C59.18 29.2798 59.3146 28.8381 59.3146 28.3644V27.0716H59.3145ZM33.4575 3.80567C33.4575 3.04664 34.0751 2.42915 34.834 2.42915H45.166C45.925 2.42915 46.5425 3.04664 46.5425 3.80567V7.75709H33.4575V3.80567ZM43.9569 10.1862V12.9286H36.0432V10.1862H43.9569ZM56.8853 52.9286C56.8853 53.6845 56.2702 54.2996 55.5141 54.2996C54.8432 54.2996 54.2996 54.8434 54.2996 55.5142C54.2996 56.1849 54.8432 56.7287 55.5141 56.7287C56.2702 56.7287 56.8853 57.3438 56.8853 58.0999V60.6857C56.8853 61.4416 56.2702 62.0568 55.5141 62.0568H29.6573C28.9864 62.0568 28.4427 62.6006 28.4427 63.2714C28.4427 63.9422 28.9864 64.486 29.6573 64.486H55.5141C56.2702 64.486 56.8853 65.1011 56.8853 65.857V68.4427C56.8853 69.1989 56.2702 69.8139 55.5141 69.8139C54.8432 69.8139 54.2996 70.3577 54.2996 71.0285C54.2996 71.6993 54.8432 72.2431 55.5141 72.2431C56.2702 72.2431 56.8853 72.8581 56.8853 73.6141C56.8853 75.7959 55.1103 77.571 52.9284 77.571H27.0716C24.8897 77.571 23.1146 75.7959 23.1146 73.6141C23.1146 72.8581 23.7297 72.2431 24.4858 72.2431H50.3426C51.0136 72.2431 51.5572 71.6993 51.5572 71.0285C51.5572 70.3577 51.0136 69.8139 50.3426 69.8139H24.4858C23.7297 69.8139 23.1146 69.1989 23.1146 68.4427V65.857C23.1146 65.1009 23.7297 64.486 24.4858 64.486C25.1567 64.486 25.7004 63.9422 25.7004 63.2714C25.7004 62.6006 25.1567 62.0568 24.4858 62.0568C23.7297 62.0568 23.1146 61.4418 23.1146 60.6857V58.0999C23.1146 57.3438 23.7297 56.7287 24.4858 56.7287H50.3426C51.0136 56.7287 51.5572 56.1849 51.5572 55.5142C51.5572 54.8434 51.0136 54.2996 50.3426 54.2996H24.4858C23.7297 54.2996 23.1146 53.6845 23.1146 52.9286V50.3428C23.1146 49.5867 23.7297 48.9717 24.4858 48.9717H31.9483C32.6192 48.9717 33.1629 48.4279 33.1629 47.7571C33.1629 47.0863 32.6192 46.5425 31.9483 46.5425H23.1956C23.1511 46.5425 23.1146 46.5062 23.1146 46.4615V43.8003H27.0716C27.7425 43.8003 28.2861 43.2565 28.2861 42.5858C28.2861 41.915 27.7425 41.3712 27.0716 41.3712H23.1146V30.9529C23.1146 30.9082 23.1511 30.8719 23.1956 30.8719H47.9137C48.5846 30.8719 49.1282 30.3281 49.1282 29.6573C49.1282 28.9866 48.5846 28.4428 47.9137 28.4428H23.1956C23.1951 28.4428 23.1948 28.4428 23.1943 28.4428C23.1938 28.4428 23.1935 28.4428 23.193 28.4428C23.1498 28.4428 23.1148 28.4076 23.1148 28.3645V27.0717C23.1148 20.6126 28.3695 15.3579 34.8286 15.3579H45.1715C51.6306 15.3579 56.8853 20.6126 56.8853 27.0717V28.3645C56.8853 28.4078 56.8502 28.4428 56.8071 28.4428C56.8066 28.4428 56.8063 28.4428 56.8058 28.4428C56.8053 28.4428 56.805 28.4428 56.8045 28.4428H52.7723C52.1013 28.4428 51.5577 28.9866 51.5577 29.6573C51.5577 30.3281 52.1013 30.8719 52.7723 30.8719H56.8045C56.849 30.8719 56.8855 30.9082 56.8855 30.9529V41.3712H52.9286C52.2576 41.3712 51.714 41.915 51.714 42.5858C51.714 43.2565 52.2576 43.8003 52.9286 43.8003H56.8855V46.4615C56.8855 46.5062 56.849 46.5425 56.8045 46.5425H36.8066C36.1357 46.5425 35.592 47.0863 35.592 47.7571C35.592 48.4279 36.1357 48.9717 36.8066 48.9717H55.5141C56.2702 48.9717 56.8853 49.5867 56.8853 50.3428V52.9286Z" fill="#252733"/>
<path d="M43.8759 41.2144C45.26 41.2144 46.386 40.0884 46.386 38.7042V36.124C46.386 34.7399 45.26 33.6139 43.8759 33.6139H36.1241C34.74 33.6139 33.614 34.7399 33.614 36.124V38.7042C33.614 40.0884 34.74 41.2144 36.1241 41.2144H43.8759ZM36.043 38.7042V36.124C36.043 36.0793 36.0794 36.043 36.124 36.043H43.8757C43.9202 36.043 43.9567 36.0793 43.9567 36.124V38.7042C43.9567 38.7489 43.9202 38.7852 43.8757 38.7852H36.124C36.0794 38.7852 36.043 38.7489 36.043 38.7042Z" fill="#252733"/>
</g>
<defs>
<clipPath id="clip0">
<rect width="80" height="80" fill="white"/>
</clipPath>
</defs>
</svg>
