<svg width="80" height="80" viewBox="0 0 80 80" fill="none" xmlns="http://www.w3.org/2000/svg">
<path d="M32.7941 64.5392H24.0435C23.3963 64.5392 22.8715 65.0639 22.8715 65.7113C22.8715 66.3586 23.3961 66.8833 24.0435 66.8833H32.7941C33.4413 66.8833 33.9661 66.3586 33.9661 65.7113C33.9661 65.0639 33.4414 64.5392 32.7941 64.5392Z" fill="black"/>
<path d="M32.7941 68.1594H24.0435C23.3963 68.1594 22.8715 68.6841 22.8715 69.3315C22.8715 69.9786 23.3961 70.5035 24.0435 70.5035H32.7941C33.4413 70.5035 33.9661 69.9788 33.9661 69.3315C33.9661 68.6841 33.4414 68.1594 32.7941 68.1594Z" fill="black"/>
<path d="M34.1723 30.4224C30.4629 28.7823 26.3768 28.7807 22.6667 30.4184C21.6508 30.8668 20.9994 31.9199 21.0454 33.039L21.114 34.7056C21.1445 35.4465 21.5501 36.1029 22.199 36.4613C22.8487 36.8202 23.6217 36.8141 24.2665 36.4449C26.9828 34.8891 29.8542 34.8904 32.5696 36.4482C32.8973 36.6362 33.2581 36.7304 33.6192 36.7304C33.9684 36.7304 34.3179 36.6423 34.6379 36.4657C35.2871 36.1074 35.6931 35.4509 35.7235 34.7098L35.7921 33.0423C35.8381 31.924 35.187 30.871 34.1723 30.4224ZM33.3975 34.2279C31.7842 33.3687 30.0998 32.939 28.4154 32.939C26.7334 32.939 25.0517 33.3673 23.4403 34.2241L23.3875 32.9426C23.3808 32.7781 23.4715 32.6254 23.6133 32.5627C26.7125 31.1949 30.1256 31.196 33.2245 32.5662C33.3662 32.6288 33.4568 32.7815 33.4501 32.946L33.3975 34.2279Z" fill="black"/>
<path d="M34.3785 41.2849C34.0141 40.914 33.5274 40.7096 33.0074 40.7096H23.8301C23.3103 40.7096 22.8234 40.9138 22.4592 41.2847C22.095 41.6557 21.8996 42.1463 21.909 42.6663L22.0378 49.6836C22.0568 50.7238 22.9185 51.5699 23.9589 51.5699H32.8785C33.9188 51.5699 34.7806 50.7238 34.7996 49.6838L34.9284 42.6665C34.9382 42.1463 34.7429 41.6558 34.3785 41.2849ZM32.4638 49.2258H24.3739L24.2606 43.0535H32.5771L32.4638 49.2258Z" fill="black"/>
<path d="M38.976 71.631C38.9181 71.5889 38.8788 71.4846 38.8807 71.3772L39.6412 27.6257C39.6776 26.6395 39.3048 25.6692 38.6168 24.9612L34.1545 20.3678C33.704 19.904 33.456 19.2926 33.456 18.6461V16.7311C33.7148 16.4178 33.8706 16.0165 33.8706 15.5792V1.81093C33.8706 0.812342 33.0582 0 32.0596 0H24.7778C23.7792 0 22.9668 0.812342 22.9668 1.81093V15.5793C22.9668 16.0164 23.1225 16.4178 23.3814 16.7312V18.6462C23.3814 19.2926 23.1334 19.9042 22.6828 20.3678L18.2206 24.9614C17.5328 25.6693 17.1598 26.6399 17.1964 27.6259L17.3345 35.5768C17.3456 36.217 17.8681 36.7285 18.5061 36.7285C18.5129 36.7285 18.5198 36.7285 18.5269 36.7284C19.174 36.7171 19.6895 36.1834 19.6784 35.5362L19.54 27.5726C19.5398 27.5632 19.5395 27.554 19.5392 27.5448C19.5247 27.1934 19.657 26.8471 19.9022 26.5946L24.3643 22.0012C25.2422 21.0976 25.7256 19.9062 25.7256 18.6464V17.3904H31.1123V18.6464C31.1123 19.9062 31.5956 21.0976 32.4735 22.0012L36.9359 26.5948C37.181 26.8471 37.3134 27.1934 37.2988 27.5448C37.2985 27.5542 37.2982 27.5634 37.2981 27.5726L36.5374 71.3366C36.5226 72.1863 36.8934 72.9805 37.5332 73.4783L37.4335 77.1691C37.4262 77.4422 37.2063 77.6563 36.9331 77.6563H19.9051C19.6318 77.6563 19.412 77.4422 19.4047 77.1691L19.3048 73.4785C19.9445 72.9805 20.3153 72.1864 20.3006 71.3367L19.7743 41.0605C19.7631 40.4135 19.2297 39.8987 18.5822 39.909C17.935 39.9202 17.4195 40.454 17.4306 41.1012L17.9569 71.3774C17.9587 71.4849 17.9195 71.5891 17.8615 71.6313C17.2772 72.0549 16.9401 72.7395 16.9597 73.4627L17.0615 77.2324C17.1036 78.7844 18.3526 80 19.905 80H36.9326C38.4853 80 39.7342 78.7842 39.776 77.2324L39.8779 73.4627C39.8977 72.7392 39.5606 72.0547 38.976 71.631ZM31.5268 15.0464H25.3112V6.43608H31.5268V15.0464ZM31.5268 4.09218H25.3112V2.3439H31.5268V4.09218Z" fill="black"/>
<path d="M62.4659 54.357C62.0634 53.9264 61.4945 53.6794 60.9048 53.6794H45.8718C45.2823 53.6794 44.7131 53.9264 44.3106 54.3572C43.9081 54.788 43.7003 55.3723 43.7401 55.9606L45.1893 77.3209C45.2906 78.8121 46.5409 79.9804 48.0354 79.9804H58.7409C59.9087 79.9804 60.9243 79.2659 61.3623 78.2428C61.4849 77.9564 61.5648 77.647 61.587 77.3209L61.7437 75.0098C61.7437 75.0095 61.7437 75.0092 61.7437 75.0089L63.0362 55.9606C63.0763 55.3723 62.8684 54.7878 62.4659 54.357ZM59.2487 77.1621C59.2373 77.3304 59.1435 77.4753 59.0089 77.5592C58.9653 77.5864 58.9168 77.6057 58.866 77.6189C58.8257 77.6292 58.7845 77.6364 58.7412 77.6364H48.0357C47.7692 77.6364 47.5462 77.4281 47.5281 77.162L47.4664 76.2514H59.3106L59.2487 77.1621ZM60.5451 58.0547H53.8164C53.1692 58.0547 52.6443 58.5794 52.6443 59.2267C52.6443 59.8739 53.169 60.3987 53.8164 60.3987H60.386L59.4695 73.9076H47.3071L46.3907 60.3987H48.3636C49.0107 60.3987 49.5356 59.8741 49.5356 59.2267C49.5356 58.5795 49.0109 58.0547 48.3636 58.0547H46.2318L46.094 56.0233H60.6831L60.5451 58.0547Z" fill="black"/>
</svg>
