<svg width="80" height="80" viewBox="0 0 80 80" fill="none" xmlns="http://www.w3.org/2000/svg">
<path d="M23.75 17.5C16.4713 17.5 12.5 36.4912 12.5 46.25C12.5 56.91 16.7087 59.46 21.7112 59.9137C21.9662 59.9675 22.2288 60 22.5 60H25C25.2712 60 25.5338 59.9675 25.7888 59.9137C30.7913 59.46 35 56.91 35 46.25C35 36.4912 31.0287 17.5 23.75 17.5ZM23.75 57.5C23.2537 57.5 22.77 57.4862 22.295 57.4587C21.7075 57.3575 21.25 56.8675 21.25 56.25C21.25 55.56 21.8112 55 22.5 55H25C25.6888 55 26.25 55.56 26.25 56.25C26.25 56.8675 25.7925 57.3575 25.205 57.4587C24.73 57.4862 24.2463 57.5 23.75 57.5ZM26.25 51.25C26.25 51.94 25.6888 52.5 25 52.5H22.5C21.8112 52.5 21.25 51.94 21.25 51.25C21.25 50.56 21.8112 50 22.5 50H25C25.6888 50 26.25 50.56 26.25 51.25ZM26.25 31.25C26.25 31.94 25.6888 32.5 25 32.5H22.5C21.8112 32.5 21.25 31.94 21.25 31.25C21.25 30.56 21.8112 30 22.5 30H25C25.6888 30 26.25 30.56 26.25 31.25ZM26.25 46.25C26.25 46.94 25.6888 47.5 25 47.5H22.5C21.8112 47.5 21.25 46.94 21.25 46.25C21.25 45.56 21.8112 45 22.5 45H25C25.6888 45 26.25 45.56 26.25 46.25ZM21.25 41.25C21.25 40.56 21.8112 40 22.5 40H25C25.6888 40 26.25 40.56 26.25 41.25C26.25 41.94 25.6888 42.5 25 42.5H22.5C21.8112 42.5 21.25 41.94 21.25 41.25ZM26.25 36.25C26.25 36.94 25.6888 37.5 25 37.5H22.5C21.8112 37.5 21.25 36.94 21.25 36.25C21.25 35.56 21.8112 35 22.5 35H25C25.6888 35 26.25 35.56 26.25 36.25ZM28.75 43.75C28.75 43.06 29.3113 42.5 30 42.5H32.3463C32.4113 43.34 32.4575 44.175 32.48 45H30C29.3113 45 28.75 44.44 28.75 43.75ZM30 40C29.3113 40 28.75 39.44 28.75 38.75C28.75 38.06 29.3113 37.5 30 37.5H31.7362C31.8725 38.3288 31.9925 39.1637 32.095 40H30ZM31.2725 35H30C29.3113 35 28.75 34.44 28.75 33.75C28.75 33.06 29.3113 32.5 30 32.5H30.6975C30.9025 33.3162 31.0962 34.15 31.2725 35ZM26.25 26.25C26.25 26.94 25.6888 27.5 25 27.5H22.5C21.8112 27.5 21.25 26.94 21.25 26.25C21.25 25.56 21.8112 25 22.5 25H25C25.6888 25 26.25 25.56 26.25 26.25ZM19.725 28.75C19.3362 29.1812 19.05 29.7 18.895 30.275C18.4625 30.1012 17.9938 30 17.5 30H17.495C17.8888 28.7025 18.3138 27.4825 18.7625 26.37C18.7925 27.2863 19.1512 28.1138 19.725 28.75ZM17.5 32.5C18.1887 32.5 18.75 33.06 18.75 33.75C18.75 34.44 18.1887 35 17.5 35H16.2275C16.4038 34.15 16.5975 33.3162 16.8025 32.5H17.5ZM17.5 37.5C18.1887 37.5 18.75 38.06 18.75 38.75C18.75 39.44 18.1887 40 17.5 40H15.405C15.5075 39.1637 15.6275 38.3288 15.7638 37.5H17.5ZM17.5 42.5C18.1887 42.5 18.75 43.06 18.75 43.75C18.75 44.44 18.1887 45 17.5 45H15.0188C15.0413 44.175 15.0875 43.34 15.1525 42.5H17.5ZM15.0312 47.5H17.5C18.1887 47.5 18.75 48.06 18.75 48.75C18.75 49.44 18.1887 50 17.5 50H15.2225C15.125 49.2475 15.0625 48.41 15.0312 47.5ZM30 47.5H32.4688C32.4375 48.41 32.375 49.2475 32.2775 50H30C29.3113 50 28.75 49.44 28.75 48.75C28.75 48.06 29.3113 47.5 30 47.5ZM30 30C29.5063 30 29.0375 30.1012 28.605 30.275C28.4488 29.6987 28.1625 29.18 27.7738 28.75C28.3475 28.1138 28.7075 27.2863 28.7375 26.37C29.1862 27.4825 29.6112 28.7013 30.005 30H30ZM23.75 20C24.5375 20 25.3613 20.5913 26.175 21.6175C26.0163 22.125 25.5588 22.5 25 22.5H22.5C21.9412 22.5 21.4837 22.125 21.325 21.6175C22.1387 20.5913 22.9625 20 23.75 20ZM15.73 52.5H17.5C17.9938 52.5 18.4625 52.3988 18.895 52.225C19.0513 52.8012 19.3375 53.32 19.7263 53.75C19.1263 54.415 18.7513 55.2863 18.7513 56.25C18.7513 56.38 18.7762 56.5037 18.79 56.6312C17.4562 55.935 16.3875 54.6937 15.73 52.5ZM28.7113 56.6312C28.725 56.5037 28.75 56.38 28.75 56.25C28.75 55.2863 28.3737 54.415 27.775 53.75C28.1637 53.3187 28.45 52.8 28.6063 52.225C29.0375 52.3988 29.5063 52.5 30 52.5H31.77C31.1125 54.6937 30.0438 55.935 28.7113 56.6312Z" fill="#252733"/>
<path d="M38.7725 32.3662L39.9925 21.3888C40.045 20.925 39.8325 20.47 39.4437 20.2113L32.24 15.4087L26.655 3.1225C26.1387 1.985 24.9987 1.25 23.75 1.25C22.5012 1.25 21.3612 1.985 20.845 3.12L15.26 15.4075L8.05622 20.21C7.66747 20.4688 7.45622 20.9237 7.50747 21.3875L8.72747 32.365L5.06372 43.3537C5.00997 43.5175 4.98872 43.6912 5.00497 43.8625L6.25497 57.6125C6.28747 57.975 6.47747 58.305 6.77372 58.5163L15.5237 64.7663C15.735 64.9188 15.99 65 16.25 65H21.25V65.4287C21.25 69.655 19.605 73.6287 16.6162 76.6162C16.2587 76.9737 16.1512 77.5112 16.345 77.9788C16.5387 78.4463 16.995 78.75 17.5 78.75H25C25.4737 78.75 25.9062 78.4825 26.1187 78.0587L26.2437 77.81C27.8825 74.5287 28.75 70.8575 28.75 67.1888V65H31.25C31.51 65 31.765 64.9188 31.9762 64.7663L40.7262 58.5163C41.0225 58.305 41.2125 57.975 41.245 57.6125L42.495 43.8625C42.51 43.69 42.49 43.5175 42.4362 43.3537L38.7725 32.3662ZM38.8062 56.8162L30.85 62.5H27.5C26.81 62.5 26.25 63.0588 26.25 63.75V67.1888C26.25 70.3063 25.55 73.4287 24.2212 76.25H20.2175C22.5112 73.1288 23.75 69.3737 23.75 65.4287V63.75C23.75 63.0588 23.19 62.5 22.5 62.5H16.65L8.69247 56.8162L7.51747 43.8975L11.185 32.895C11.2425 32.7225 11.2612 32.5413 11.2412 32.3612L10.075 21.8662L16.9425 17.2887C17.1362 17.1588 17.29 16.9788 17.3862 16.7663L23.12 4.1525C23.3437 3.66125 24.1537 3.66 24.3775 4.15375L30.11 16.7663C30.2062 16.9788 30.36 17.1588 30.5537 17.2887L37.4212 21.8662L36.255 32.3612C36.235 32.5413 36.2537 32.7225 36.3112 32.895L39.9787 43.8975L38.8062 56.8162Z" fill="#252733"/>
<path d="M73.75 56.25H72.5C72.5 47.2925 67.515 33.75 60 33.75C52.485 33.75 47.5 47.2925 47.5 56.25H46.25C45.56 56.25 45 56.8088 45 57.5C45 69.2175 51.7287 78.75 60 78.75C68.2712 78.75 75 69.2175 75 57.5C75 56.8088 74.44 56.25 73.75 56.25ZM58.75 36.4925V51.25H61.25V36.4925C65.9075 38.0963 70 48.23 70 56.25H50C50 48.2288 54.0925 38.0963 58.75 36.4925ZM60 76.25C53.3875 76.25 47.9575 68.5088 47.5275 58.75H67.4638C67.1063 65.6437 63.8363 71.25 60 71.25V73.75C65.3475 73.75 69.58 67.255 69.9625 58.75H72.4725C72.0425 68.5088 66.6125 76.25 60 76.25Z" fill="#252733"/>
</svg>
