<svg width="80" height="80" viewBox="0 0 80 80" fill="none" xmlns="http://www.w3.org/2000/svg">
<path d="M70.296 73.8836C70.0921 73.6566 69.98 73.2886 69.98 72.8475V48.2056C69.98 40.3078 67.0182 32.7828 61.6403 27.0169C57.5487 22.6302 52.3982 19.6419 46.764 18.3152C47.1857 17.7169 47.4345 16.9883 47.4345 16.2023C47.4345 15.2795 47.092 14.4358 46.5285 13.7895C51.1364 8.54516 51.192 1.48406 51.192 1.17219C51.192 0.525 50.6673 0.0003125 50.0201 0.0003125C48.4901 0.0003125 47.6579 0.416094 46.9893 0.750156C46.4051 1.04203 45.9829 1.25281 45.0057 1.25281C44.0285 1.25281 43.6065 1.04188 43.0223 0.750156C42.3535 0.415781 41.5214 0 39.9912 0C38.4628 0 37.6315 0.415938 36.9637 0.750156C36.3809 1.04188 35.9596 1.2525 34.985 1.2525C34.0106 1.2525 33.5895 1.04172 33.0068 0.750156C32.339 0.415938 31.5079 0 29.9798 0C29.3326 0 28.8079 0.524687 28.8079 1.17188C28.8079 1.48375 28.8637 8.545 33.4714 13.7892C32.9079 14.4355 32.5654 15.2792 32.5654 16.202C32.5654 16.9808 32.8095 17.7033 33.2242 18.2984C27.986 19.5011 23.1595 22.1031 19.1831 25.9406C13.2742 31.6433 10.02 39.3052 10.02 47.5152V72.8475C10.02 73.2886 9.90761 73.6566 9.7037 73.8838C9.02839 74.6359 8.69995 75.6058 8.77902 76.6147C8.92777 78.513 10.6062 80 12.6003 80H67.3996C69.3937 80 71.0721 78.513 71.2209 76.6145C71.2998 75.6058 70.9714 74.6359 70.296 73.8836ZM31.2512 2.52938C31.494 2.61391 31.7114 2.72281 31.9578 2.84609C32.6256 3.18031 33.4567 3.59625 34.985 3.59625C36.5134 3.59625 37.3446 3.18031 38.0125 2.84609C38.5953 2.55437 39.0165 2.34375 39.9914 2.34375C40.9685 2.34375 41.3907 2.55469 41.975 2.84641C42.6436 3.18047 43.4757 3.59625 45.0057 3.59625C46.5357 3.59625 47.3681 3.18047 48.0367 2.84641C48.286 2.72187 48.5057 2.61203 48.752 2.52703C48.5039 4.74344 47.616 9.23156 44.4492 12.5912C44.225 12.5484 43.994 12.5252 43.7575 12.5252H42.9939C43.2703 11.4392 43.4968 10.2056 43.6679 8.83187C43.7479 8.18969 43.2921 7.60422 42.65 7.52406C42.0071 7.44406 41.4221 7.89984 41.3421 8.54203C41.1504 10.0806 40.889 11.4133 40.5653 12.5252H39.4348C39.1109 11.4134 38.8495 10.0806 38.6579 8.54203C38.5779 7.89969 37.9921 7.44406 37.3501 7.52406C36.7079 7.60406 36.2521 8.18953 36.3321 8.83187C36.5032 10.2056 36.7296 11.4392 37.0062 12.5252H36.2426C36.0062 12.5252 35.7751 12.5484 35.551 12.5912C32.3985 9.24531 31.5042 4.75 31.2512 2.52938ZM45.0907 16.202C45.0907 16.937 44.4926 17.5352 43.7576 17.5352H36.2425C35.5073 17.5352 34.9093 16.937 34.9093 16.202C34.9093 15.467 35.5073 14.8689 36.2425 14.8689H43.7576C44.4928 14.8689 45.0907 15.467 45.0907 16.202ZM68.8843 76.4316C68.8315 77.1069 68.1654 77.6562 67.3996 77.6562H12.6003C11.8345 77.6562 11.1684 77.1069 11.1156 76.4316C11.0871 76.0686 11.2051 75.7197 11.4476 75.4495C12.0384 74.7917 12.3637 73.8675 12.3637 72.8475V47.5152C12.3637 39.947 15.3635 32.8841 20.8107 27.6272C25.7301 22.8797 32.0607 20.182 38.8281 19.9044V21.2123C38.8281 21.8595 39.3528 22.3842 40 22.3842C40.6471 22.3842 41.1718 21.8595 41.1718 21.2123V19.905C48.304 20.2014 54.9589 23.2898 59.9262 28.6155C64.8979 33.9459 67.6361 40.9033 67.6361 48.2056V72.8475C67.6361 73.8677 67.9614 74.7917 68.5521 75.4494C68.7948 75.7197 68.9128 76.0686 68.8843 76.4316Z" fill="black"/>
<path d="M55.0303 72.6462H17.4545C16.8073 72.6462 16.2827 73.1709 16.2827 73.8181C16.2827 74.4653 16.8073 74.99 17.4545 74.99H55.0301C55.6773 74.99 56.202 74.4653 56.202 73.8181C56.202 73.1709 55.6775 72.6462 55.0303 72.6462Z" fill="black"/>
<path d="M62.5455 72.6462H60.0408C59.3936 72.6462 58.8689 73.1709 58.8689 73.8181C58.8689 74.4653 59.3936 74.99 60.0408 74.99H62.5455C63.1926 74.99 63.7173 74.4653 63.7173 73.8181C63.7173 73.1709 63.1926 72.6462 62.5455 72.6462Z" fill="black"/>
<path d="M48.7677 38.8281C48.1205 38.8281 47.5958 39.3528 47.5958 40V41.4045C44.3042 41.7931 41.5005 43.7945 40 46.5963C38.4995 43.7945 35.6958 41.7931 32.4042 41.4045V40C32.4042 39.3528 31.8795 38.8281 31.2324 38.8281C30.5852 38.8281 30.0605 39.3528 30.0605 40V42.505C30.0605 47.5891 33.8981 51.7911 38.8281 52.3731V52.5252C38.8281 53.1723 39.3528 53.697 40 53.697C40.6472 53.697 41.1719 53.1723 41.1719 52.5252V52.3731C46.1019 51.7911 49.9396 47.5891 49.9396 42.505V40C49.9396 39.3528 49.4149 38.8281 48.7677 38.8281ZM32.512 43.7847C35.6769 44.3241 38.181 46.8281 38.7203 49.993C35.5555 49.4536 33.0514 46.9495 32.512 43.7847ZM41.2797 49.993C41.8191 46.8281 44.3231 44.3241 47.488 43.7847C46.9486 46.9495 44.4445 49.4536 41.2797 49.993Z" fill="black"/>
<path d="M48.7677 50.1008C48.1205 50.1008 47.5958 50.6255 47.5958 51.2726V52.6772C44.3042 53.0658 41.5005 55.0672 40 57.8691C38.4995 55.0673 35.6958 53.0658 32.4042 52.6772V51.2726C32.4042 50.6255 31.8795 50.1008 31.2324 50.1008C30.5852 50.1008 30.0605 50.6255 30.0605 51.2726V53.7776C30.0605 58.8617 33.8981 63.0637 38.8281 63.6458V67.5555C38.8281 68.2027 39.3528 68.7273 40 68.7273C40.6472 68.7273 41.1719 68.2027 41.1719 67.5555V63.6458C46.1019 63.0637 49.9396 58.8617 49.9396 53.7776V51.2726C49.9396 50.6255 49.4149 50.1008 48.7677 50.1008ZM32.512 55.0575C35.6769 55.5967 38.181 58.1009 38.7203 61.2658C35.5555 60.7264 33.0514 58.2222 32.512 55.0575ZM41.2797 61.2656C41.8191 58.1009 44.3231 55.5967 47.488 55.0573C46.9486 58.2222 44.4445 60.7264 41.2797 61.2656Z" fill="black"/>
<path d="M40.8429 27.9133C40.6221 27.6847 40.3179 27.5555 39.9999 27.5555C39.682 27.5555 39.3778 27.6847 39.157 27.9133C35.502 31.6981 35.3926 37.785 38.8281 41.7083V42.505C38.8281 43.1522 39.3528 43.6769 39.9999 43.6769C40.6471 43.6769 41.1718 43.1522 41.1718 42.505V41.7083C44.6073 37.785 44.4979 31.6981 40.8429 27.9133ZM39.9999 39.3972C38.2226 36.76 38.2226 33.2197 39.9999 30.5827C41.7773 33.2197 41.7773 36.76 39.9999 39.3972Z" fill="black"/>
</svg>
