<svg width="80" height="80" viewBox="0 0 80 80" fill="none" xmlns="http://www.w3.org/2000/svg">
<path d="M79.3136 63.4273C79.2079 63.1105 76.6414 55.5767 69.1922 47.6519C64.8239 43.0047 59.6744 39.1947 53.887 36.3273C46.9637 32.8975 39.1092 30.8183 30.5254 30.1414V9.93953C30.5254 4.45891 26.0665 0 20.5859 0C15.8726 0 11.9178 3.29875 10.902 7.70813L3.11216 9.65563C1.64856 10.0216 0.626221 11.3308 0.626221 12.8395C0.626221 14.6492 2.09856 16.1214 3.90825 16.1214H13.2378C14.8072 17.6691 16.9601 18.6264 19.3333 18.6264H19.374C19.0403 23.497 16.6678 27.1995 14.3679 30.7887C11.9226 34.6052 9.39388 38.5516 9.39388 43.7575C9.39388 46.6789 10.0979 49.6714 11.4297 52.4113C13.0078 55.6577 15.4281 58.5381 18.6231 60.9725C22.7511 64.1177 28.0422 66.4458 34.4442 67.947V77.6562H26.8486C26.2012 77.6562 25.6767 78.1809 25.6767 78.8281C25.6767 79.4753 26.2012 80 26.8486 80H43.1312C43.7786 80 44.3031 79.4753 44.3031 78.8281C44.3031 78.1809 43.7786 77.6562 43.1312 77.6562H41.7981V69.2473C45.6839 69.7345 49.8876 69.9798 54.404 69.9798H75.6969C76.0329 69.9798 76.353 69.8355 76.5754 69.5834C76.7978 69.3314 76.9014 68.9961 76.8597 68.6625C76.8508 68.5928 76.6717 67.2061 75.9742 64.9584C76.7106 64.9659 77.4525 64.9697 78.2019 64.9697C78.5786 64.9697 78.9323 64.7886 79.1525 64.483C79.3728 64.1775 79.4328 63.7847 79.3136 63.4273ZM3.90825 13.7778C3.39075 13.7777 2.96997 13.3569 2.96997 12.8395C2.96997 12.4083 3.26216 12.0341 3.68075 11.9294L10.6526 10.1864C10.6887 11.4723 11.0043 12.6892 11.5429 13.7778H3.90825ZM19.3333 16.2827C15.8356 16.2827 12.99 13.4372 12.99 9.93937C12.9901 5.75125 16.3975 2.34375 20.5859 2.34375C24.7743 2.34375 28.1817 5.75125 28.1817 9.93953V25.0198C24.5584 24.8259 22.0011 23.7325 20.9076 23.1708C21.4364 21.4355 21.7578 19.5528 21.7578 17.4545C21.7578 16.8073 21.2333 16.2827 20.5859 16.2827H19.3333ZM39.4543 77.6562H36.7881V68.45C37.6584 68.62 38.5465 68.7767 39.4543 68.9184V77.6562ZM25.6139 48.8041C23.4579 46.3297 22.5036 43.975 22.0812 42.3203C30.042 50.6369 40.8797 52.5836 49.2784 52.5836C51.6923 52.5836 53.9059 52.4227 55.7904 52.2061C56.4334 52.1322 56.8947 51.5511 56.8209 50.908C56.7472 50.2648 56.1654 49.8047 55.5228 49.8775C46.8847 50.8706 30.9804 50.6534 21.5234 38.0442L21.5233 38.0444C21.345 37.8066 21.0768 37.6359 20.7598 37.5884C20.1212 37.492 19.5231 37.9334 19.4272 38.5734C19.3925 38.8044 18.6379 44.2956 23.7628 50.2464C27.4073 54.4784 33.0903 57.8625 40.654 60.3045C49.2434 63.0777 60.2748 64.6261 73.4984 64.9186C73.8709 66.0284 74.1173 66.953 74.2762 67.6361H54.4039C39.0311 67.6361 27.4706 64.7669 20.0436 59.1081C12.8167 53.6019 11.7376 47.127 11.7376 43.7575C11.7376 39.2381 13.9739 35.7481 16.3414 32.0533C17.6936 29.9428 19.0684 27.7955 20.095 25.3886C21.5265 26.0925 24.3253 27.185 28.1817 27.3673V31.2322C28.1817 31.8502 28.6614 32.3619 29.2783 32.4016C37.9514 32.9611 45.8584 34.9775 52.7801 38.3945C58.3095 41.1242 63.2311 44.7516 67.408 49.1758C72.5912 54.6658 75.3409 60.0548 76.4665 62.6191C44.2209 62.3639 31.012 54.9995 25.6139 48.8041Z" fill="#252733"/>
<path d="M63.3611 49.55C63.1879 48.9268 62.543 48.5613 61.9184 48.7346C61.9131 48.736 61.3712 48.8855 60.4225 49.0872C59.7893 49.2218 59.3853 49.8441 59.52 50.4772C59.637 51.0282 60.1234 51.4057 60.665 51.4057C60.7458 51.4057 60.8278 51.3972 60.9098 51.3797C61.9378 51.1613 62.522 50.9993 62.5465 50.9925C63.1697 50.8191 63.5342 50.1733 63.3611 49.55Z" fill="#252733"/>
<path d="M19.3333 5.01025C17.3057 5.01025 15.6564 6.65979 15.6564 8.68713C15.6564 10.7145 17.3059 12.364 19.3334 12.364C21.3609 12.364 23.0103 10.7145 23.0103 8.68713C23.0103 6.65963 21.3608 5.01025 19.3333 5.01025ZM19.3334 10.0203C18.5981 10.0203 18.0001 9.42213 18.0001 8.68713C18.0001 7.95213 18.5982 7.354 19.3334 7.354C20.0686 7.354 20.6665 7.95213 20.6665 8.68713C20.6665 9.42213 20.0686 10.0203 19.3334 10.0203Z" fill="#252733"/>
</svg>
